<svg width="1161" height="680" viewBox="0 0 1161 680" fill="none" xmlns="http://www.w3.org/2000/svg">
<path fill-rule="evenodd" clip-rule="evenodd" d="M221.573 252.788L287.101 185.611L287.457 185.787L287.346 186.046C288.673 186.613 290.021 187.177 291.39 187.738L352.891 218.239C362.897 214.084 367.965 202.727 364.235 192.479L341.46 129.906L398.817 71.13C399.469 70.4292 399.647 69.3618 399.355 67.9388C398.58 64.1478 394.747 59.602 392.723 58.5716L7.0474 0.447868C2.35674 2.15513 -0.0742133 7.33876 1.20718 11.3091L207.917 248.158C213.624 252.736 217.81 253.895 221.573 252.788ZM332.875 193.578L296.846 175.723L315.808 156.024L311.23 153.58L298.72 146.39L298.396 146.746L205.351 97.129L207.056 92.9614L321.088 125.916L321.448 127.076C321.448 127.076 323.385 133.126 325.258 138.548L325.283 138.514L327.939 145.706L328.033 145.722L328.599 146.794L329.002 148.315L328.913 148.485L341.883 184.121C343.015 187.23 343.822 189.518 344.188 191.077C345.001 194.554 343.627 195.831 342.349 196.296L342.338 196.3C340.459 196.984 338.033 196.024 332.875 193.578ZM53.368 40.2128C51.5635 35.2548 54.1473 29.7649 59.127 27.9524L59.6717 27.7542L351.442 72.6318C354.391 73.9898 357.484 78.0276 358.182 81.4331C358.716 84.109 357.81 85.8048 356.883 86.8191L327.294 117.027L144.367 71.9631L293.763 151.553L280.184 165.707L278.714 166.718L222.547 223.783C217.067 225.777 212.707 223.103 209.231 220.295L53.368 40.2128Z" fill="#FCFCFD"/>
<path d="M377.036 213.485C373.566 212.527 370.118 211.569 366.697 210.61L368.128 205.512C371.541 206.469 374.983 207.425 378.448 208.382L377.036 213.485Z" fill="#FCFCFD"/>
<path d="M390.125 217.081C389.207 216.83 388.29 216.579 387.374 216.328L388.775 211.222C392.201 212.16 395.643 213.1 399.097 214.044L397.7 219.151C395.169 218.46 392.643 217.77 390.125 217.081Z" fill="#FCFCFD"/>
<path d="M418.359 224.811C414.918 223.862 411.478 222.918 408.043 221.978L409.443 216.871C412.88 217.812 416.324 218.757 419.768 219.707L418.359 224.811Z" fill="#FCFCFD"/>
<path d="M438.975 230.572C435.549 229.598 432.113 228.632 428.673 227.672L430.099 222.572C433.546 223.534 436.989 224.503 440.424 225.479L438.975 230.572Z" fill="#FCFCFD"/>
<path d="M459.51 236.542C456.109 235.526 452.688 234.52 449.252 233.522L450.732 228.438C454.178 229.439 457.612 230.449 461.027 231.469L459.51 236.542Z" fill="#FCFCFD"/>
<path d="M479.912 242.84C476.552 241.764 473.162 240.7 469.746 239.646L471.308 234.587C474.741 235.645 478.15 236.716 481.529 237.798L479.912 242.84Z" fill="#FCFCFD"/>
<path d="M500.13 249.616C496.828 248.454 493.481 247.306 490.094 246.173L491.777 241.152C495.187 242.294 498.56 243.45 501.89 244.622L500.13 249.616Z" fill="#FCFCFD"/>
<path d="M520.145 257.089C516.894 255.795 513.579 254.521 510.208 253.264L512.06 248.303C515.465 249.572 518.815 250.861 522.105 252.17L520.145 257.089Z" fill="#FCFCFD"/>
<path d="M539.7 265.492C536.532 264.013 533.273 262.559 529.934 261.128L532.021 256.261C535.409 257.713 538.719 259.19 541.943 260.695L539.7 265.492Z" fill="#FCFCFD"/>
<path d="M558.421 275.171C555.469 273.465 552.393 271.792 549.204 270.149L551.631 265.442C554.889 267.121 558.04 268.835 561.072 270.586L558.421 275.171Z" fill="#FCFCFD"/>
<path d="M1224.33 41.9095C1220.95 43.0702 1217.61 44.2717 1214.3 45.511L1212.44 40.5527C1215.8 39.2971 1219.18 38.0796 1222.6 36.9031L1224.33 41.9095Z" fill="#FCFCFD"/>
<path d="M1204.37 49.3776C1201.05 50.7168 1197.78 52.0922 1194.54 53.5003L1192.43 48.6448C1195.71 47.219 1199.03 45.8262 1202.38 44.4697L1204.37 49.3776Z" fill="#FCFCFD"/>
<path d="M1244.65 35.5406C1241.22 36.5105 1237.82 37.5255 1234.45 38.5828L1232.86 33.531C1236.28 32.4591 1239.73 31.4297 1243.21 30.4461L1244.65 35.5406Z" fill="#FCFCFD"/>
<path d="M1184.81 57.8705C1181.57 59.3772 1178.36 60.9147 1175.2 62.4797L1172.85 57.7344C1176.06 56.1506 1179.3 54.5944 1182.58 53.0692L1184.81 57.8705Z" fill="#FCFCFD"/>
<path d="M1265.3 30.3442C1261.82 31.1115 1258.37 31.9282 1254.94 32.7913L1253.65 27.6573C1257.12 26.7816 1260.63 25.953 1264.16 25.1741L1265.3 30.3442Z" fill="#FCFCFD"/>
<path d="M575.995 286.906C573.334 284.814 570.485 282.765 567.461 280.758L570.392 276.347C573.521 278.424 576.486 280.555 579.27 282.744L575.995 286.906Z" fill="#FCFCFD"/>
<path d="M1165.7 67.3201C1162.53 68.984 1159.4 70.6732 1156.32 72.3838L1153.75 67.755C1156.87 66.0246 1160.03 64.3157 1163.24 62.6322L1165.7 67.3201Z" fill="#FCFCFD"/>
<path d="M1286.21 26.3926C1282.69 26.9458 1279.2 27.5519 1275.73 28.2083L1274.74 23.0062C1278.27 22.3397 1281.82 21.7243 1285.39 21.1625L1286.21 26.3926Z" fill="#FCFCFD"/>
<path d="M1147.06 77.6647C1143.96 79.4796 1140.91 81.3132 1137.91 83.1614L1135.13 78.6552C1138.16 76.7863 1141.25 74.9319 1144.38 73.0964L1147.06 77.6647Z" fill="#FCFCFD"/>
<path d="M1302.04 24.286C1300.27 24.4787 1298.51 24.6853 1296.75 24.9054L1296.09 19.652C1297.88 19.4283 1299.67 19.2185 1301.47 19.0227C1303.26 18.8284 1305.02 18.6636 1306.76 18.5278L1307.17 23.806C1305.49 23.9376 1303.78 24.0974 1302.04 24.286Z" fill="#FCFCFD"/>
<path d="M1128.89 88.8649C1125.86 90.8237 1122.9 92.7936 1119.99 94.7696L1117.02 90.3928C1119.95 88.3948 1122.95 86.4031 1126.01 84.4224L1128.89 88.8649Z" fill="#FCFCFD"/>
<path d="M1327.26 23.6056C1324.03 23.3949 1320.69 23.3063 1317.22 23.3467L1317.16 18.0526C1320.76 18.0108 1324.24 18.1025 1327.61 18.3224L1327.26 23.6056Z" fill="#FCFCFD"/>
<path d="M1111.24 100.871C1108.3 102.968 1105.43 105.068 1102.63 107.162L1099.45 102.923C1102.29 100.805 1105.19 98.6827 1108.16 96.5615L1111.24 100.871Z" fill="#FCFCFD"/>
<path d="M590.721 301.404C588.706 298.792 586.409 296.239 583.844 293.742L587.54 289.949C590.264 292.601 592.732 295.34 594.915 298.171L590.721 301.404Z" fill="#FCFCFD"/>
<path d="M1346.99 26.7045C1343.87 25.8909 1340.61 25.2158 1337.22 24.6891L1338.03 19.4572C1341.6 20.0105 1345.03 20.7214 1348.33 21.5816L1346.99 26.7045Z" fill="#FCFCFD"/>
<path d="M1094.17 113.638C1091.31 115.88 1088.54 118.109 1085.85 120.319L1082.49 116.231C1085.21 113.995 1088.01 111.74 1090.9 109.472L1094.17 113.638Z" fill="#FCFCFD"/>
<path d="M1077.69 127.203C1074.93 129.591 1072.27 131.945 1069.74 134.256L1066.17 130.343C1068.74 128.001 1071.43 125.616 1074.22 123.199L1077.69 127.203Z" fill="#FCFCFD"/>
<path d="M1365.44 33.8698C1362.6 32.3436 1359.6 30.9644 1356.45 29.7447L1358.36 24.8066C1361.71 26.104 1364.91 27.5743 1367.95 29.205L1365.44 33.8698Z" fill="#FCFCFD"/>
<path d="M1061.94 141.559C1059.27 144.134 1056.76 146.634 1054.42 149.045L1050.62 145.356C1053 142.903 1055.55 140.362 1058.26 137.749L1061.94 141.559Z" fill="#FCFCFD"/>
<path d="M599.706 319.38C598.916 316.16 597.736 313.029 596.187 309.978L600.91 307.58C602.631 310.97 603.958 314.481 604.85 318.118L599.706 319.38Z" fill="#FCFCFD"/>
<path d="M1047.17 156.791C1045.94 158.162 1044.78 159.49 1043.69 160.771C1042.52 162.142 1041.37 163.508 1040.23 164.868L1036.17 161.467C1037.32 160.097 1038.48 158.72 1039.66 157.339C1040.78 156.022 1041.97 154.66 1043.23 153.258L1047.17 156.791Z" fill="#FCFCFD"/>
<path d="M1381.5 45.3964C1379.11 43.1543 1376.56 41.0539 1373.85 39.1092L1376.94 34.8083C1379.84 36.8897 1382.56 39.1364 1385.12 41.5322L1381.5 45.3964Z" fill="#FCFCFD"/>
<path d="M1033.55 172.96C1031.38 175.635 1029.26 178.288 1027.19 180.919L1023.03 177.652C1025.11 174.997 1027.25 172.321 1029.44 169.624L1033.55 172.96Z" fill="#FCFCFD"/>
<path d="M599.719 339.296C600.495 335.846 600.872 332.516 600.882 329.297L606.178 329.312C606.167 332.936 605.742 336.65 604.886 340.457L599.719 339.296Z" fill="#FCFCFD"/>
<path d="M1394.2 60.6138C1392.37 57.8245 1390.41 55.1532 1388.29 52.6139L1392.37 49.228C1394.61 51.9296 1396.7 54.7642 1398.63 57.7145L1394.2 60.6138Z" fill="#FCFCFD"/>
<path d="M1020.72 189.328C1018.61 192.113 1016.57 194.873 1014.59 197.61L1010.3 194.504C1012.3 191.738 1014.37 188.95 1016.49 186.139L1020.72 189.328Z" fill="#FCFCFD"/>
<path d="M591.879 358.412C593.748 355.202 595.305 352.082 596.569 349.051L601.458 351.087C600.096 354.352 598.432 357.68 596.457 361.074L591.879 358.412Z" fill="#FCFCFD"/>
<path d="M1008.54 206.13C1006.54 209.021 1004.6 211.886 1002.72 214.727L998.302 211.811C1000.2 208.936 1002.16 206.038 1004.19 203.115L1008.54 206.13Z" fill="#FCFCFD"/>
<path d="M1403.4 78.3309C1402.13 75.208 1400.74 72.1707 1399.22 69.2322L1403.92 66.8004C1405.52 69.8884 1406.98 73.071 1408.3 76.3325L1403.4 78.3309Z" fill="#FCFCFD"/>
<path d="M586.306 366.968C585.31 368.353 584.259 369.754 583.152 371.171C581.969 372.188 580.732 373.242 579.445 374.335L582.872 378.371C584.238 377.211 585.549 376.092 586.803 375.014L586.999 374.845L587.159 374.641C588.369 373.1 589.518 371.571 590.607 370.057L586.306 366.968Z" fill="#FCFCFD"/>
<path d="M997.116 223.44C995.243 226.431 993.441 229.395 991.705 232.334L987.144 229.644C988.904 226.664 990.73 223.661 992.627 220.632L997.116 223.44Z" fill="#FCFCFD"/>
<path d="M563.288 387.933C566.109 385.559 568.809 383.294 571.369 381.145L574.775 385.198L572.36 387.226C570.534 388.759 568.645 390.345 566.697 391.983L563.288 387.933Z" fill="#FCFCFD"/>
<path d="M986.571 241.308C984.866 244.389 983.234 247.444 981.673 250.473L976.965 248.049C978.55 244.973 980.207 241.872 981.938 238.745L986.571 241.308Z" fill="#FCFCFD"/>
<path d="M547.245 401.549C549.988 399.195 552.656 396.92 555.244 394.725L558.67 398.762C556.089 400.951 553.428 403.218 550.696 405.565L547.245 401.549Z" fill="#FCFCFD"/>
<path d="M1409.52 97.47C1408.72 94.1823 1407.82 90.9482 1406.81 87.7802L1411.86 86.1743C1412.91 89.4649 1413.84 92.8165 1414.67 96.2154L1409.52 97.47Z" fill="#FCFCFD"/>
<path d="M531.382 415.383C534.068 413.001 536.707 410.683 539.292 408.429L542.772 412.419C540.197 414.664 537.57 416.972 534.896 419.343L531.382 415.383Z" fill="#FCFCFD"/>
<path d="M977.073 259.752C975.569 262.912 974.141 266.046 972.785 269.156L967.93 267.043C969.309 263.878 970.762 260.691 972.291 257.478L977.073 259.752Z" fill="#FCFCFD"/>
<path d="M515.693 429.563C518.333 427.129 520.942 424.749 523.515 422.424L527.066 426.351C524.505 428.665 521.91 431.033 519.283 433.454L515.693 429.563Z" fill="#FCFCFD"/>
<path d="M1413.13 117.343C1412.71 113.98 1412.2 110.643 1411.61 107.344L1416.82 106.403C1417.43 109.8 1417.95 113.231 1418.38 116.683L1413.13 117.343Z" fill="#FCFCFD"/>
<path d="M500.363 444.003C502.923 441.538 505.464 439.119 507.982 436.748L511.613 440.601C509.109 442.96 506.582 445.365 504.036 447.816L500.363 444.003Z" fill="#FCFCFD"/>
<path d="M968.8 278.753C967.526 281.98 966.329 285.183 965.204 288.364L960.21 286.6C961.357 283.359 962.576 280.097 963.873 276.811L968.8 278.753Z" fill="#FCFCFD"/>
<path d="M485.294 458.858C487.805 456.322 490.306 453.829 492.792 451.378L496.51 455.148C494.039 457.584 491.553 460.062 489.057 462.582L485.294 458.858Z" fill="#FCFCFD"/>
<path d="M470.653 474.02C473.089 471.431 475.52 468.882 477.945 466.372L481.754 470.049C479.345 472.543 476.93 475.076 474.51 477.647L470.653 474.02Z" fill="#FCFCFD"/>
<path d="M1414.7 137.544C1414.58 134.165 1414.4 130.786 1414.14 127.421L1419.42 127.014C1419.69 130.46 1419.87 133.915 1419.99 137.367L1414.7 137.544Z" fill="#FCFCFD"/>
<path d="M961.911 298.26C960.875 301.582 959.915 304.883 959.027 308.165L953.914 306.783C954.82 303.437 955.799 300.072 956.855 296.686L961.911 298.26Z" fill="#FCFCFD"/>
<path d="M456.396 489.585C458.747 486.946 461.1 484.343 463.451 481.776L467.356 485.351C465.021 487.9 462.685 490.485 460.35 493.106L456.396 489.585Z" fill="#FCFCFD"/>
<path d="M442.563 505.567C444.842 502.855 447.127 500.177 449.415 497.533L453.42 500.997C451.148 503.622 448.88 506.28 446.618 508.972L442.563 505.567Z" fill="#FCFCFD"/>
<path d="M1414.57 157.848C1414.72 154.483 1414.8 151.094 1414.83 147.694L1420.12 147.728C1420.1 151.196 1420.01 154.65 1419.86 158.078L1414.57 157.848Z" fill="#FCFCFD"/>
<path d="M956.514 318.196C955.732 321.593 955.022 324.973 954.378 328.341L949.176 327.349C949.832 323.917 950.556 320.472 951.353 317.01L956.514 318.196Z" fill="#FCFCFD"/>
<path d="M429.209 521.963C431.409 519.175 433.62 516.419 435.838 513.695L439.945 517.037C437.743 519.74 435.55 522.475 433.368 525.241L429.209 521.963Z" fill="#FCFCFD"/>
<path d="M952.624 338.517C952.096 341.949 951.632 345.37 951.226 348.786L945.967 348.163C946.38 344.689 946.852 341.207 947.39 337.714L952.624 338.517Z" fill="#FCFCFD"/>
<path d="M1412.97 178.109C1413.35 174.782 1413.68 171.403 1413.95 167.984L1419.23 168.399C1418.95 171.878 1418.62 175.317 1418.24 178.702L1412.97 178.109Z" fill="#FCFCFD"/>
<path d="M416.406 538.744C418.508 535.893 420.624 533.073 422.753 530.284L426.963 533.494C424.852 536.261 422.753 539.057 420.669 541.884L416.406 538.744Z" fill="#FCFCFD"/>
<path d="M404.163 555.959C406.161 553.044 408.177 550.158 410.208 547.302L414.524 550.369C412.51 553.2 410.512 556.061 408.533 558.95L404.163 555.959Z" fill="#FCFCFD"/>
<path d="M1410.02 198.224C1410.61 194.971 1411.16 191.625 1411.66 188.204L1416.9 188.971C1416.39 192.451 1415.83 195.855 1415.23 199.167L1410.02 198.224Z" fill="#FCFCFD"/>
<path d="M950.171 359.097C949.873 362.543 949.629 365.987 949.431 369.433L944.144 369.132C944.344 365.638 944.592 362.142 944.895 358.642L950.171 359.097Z" fill="#FCFCFD"/>
<path d="M392.533 573.609C394.42 570.627 396.328 567.674 398.255 564.75L402.678 567.662C400.768 570.559 398.878 573.485 397.009 576.438L392.533 573.609Z" fill="#FCFCFD"/>
<path d="M1408.03 208.199C1407.69 209.769 1407.34 211.31 1406.98 212.819C1406.29 214.221 1405.63 215.848 1404.99 217.672L1410 219.406C1410.62 217.613 1411.24 216.122 1411.85 214.929L1411.99 214.649L1412.06 214.343C1412.45 212.706 1412.83 211.033 1413.21 209.327L1408.03 208.199Z" fill="#FCFCFD"/>
<path d="M948.974 379.806C948.865 383.259 948.798 386.718 948.765 390.186L943.469 390.138C943.502 386.634 943.57 383.136 943.681 379.641L948.974 379.806Z" fill="#FCFCFD"/>
<path d="M381.569 591.69C383.341 588.635 385.137 585.609 386.956 582.61L391.485 585.353C389.684 588.324 387.905 591.321 386.151 594.344L381.569 591.69Z" fill="#FCFCFD"/>
<path d="M371.326 610.196C372.974 607.068 374.651 603.967 376.353 600.892L380.987 603.455C379.302 606.498 377.643 609.568 376.011 612.663L371.326 610.196Z" fill="#FCFCFD"/>
<path d="M1400.11 238.407C1400.75 234.614 1401.43 231.121 1402.14 227.958L1407.31 229.125C1406.62 232.177 1405.95 235.571 1405.33 239.283L1400.11 238.407Z" fill="#FCFCFD"/>
<path d="M948.765 400.591C948.796 404.047 948.855 407.515 948.936 411L943.641 411.125C943.559 407.618 943.5 404.124 943.469 400.639L948.765 400.591Z" fill="#FCFCFD"/>
<path d="M361.858 629.118C363.374 625.919 364.92 622.745 366.495 619.598L371.232 621.966C369.673 625.08 368.144 628.219 366.644 631.383L361.858 629.118Z" fill="#FCFCFD"/>
<path d="M1397.34 259.459C1397.72 255.781 1398.12 252.261 1398.56 248.912L1403.81 249.592C1403.38 252.888 1402.98 256.358 1402.61 259.989L1397.34 259.459Z" fill="#FCFCFD"/>
<path d="M949.236 421.402C949.354 424.862 949.487 428.34 949.63 431.842L944.338 432.059C944.195 428.549 944.061 425.058 943.943 421.583L949.236 421.402Z" fill="#FCFCFD"/>
<path d="M353.221 648.439C354.595 645.172 356.002 641.93 357.44 638.713L362.275 640.872C360.853 644.053 359.462 647.259 358.104 650.489L353.221 648.439Z" fill="#FCFCFD"/>
<path d="M1395.7 280.563C1395.9 276.96 1396.14 273.457 1396.4 270.062L1401.68 270.468C1401.42 273.827 1401.19 277.295 1400.99 280.863L1395.7 280.563Z" fill="#FCFCFD"/>
<path d="M345.476 668.125C346.696 664.798 347.952 661.495 349.243 658.217L354.171 660.154C352.896 663.394 351.654 666.658 350.449 669.946L345.476 668.125Z" fill="#FCFCFD"/>
<path d="M950.341 448.165C950.408 449.667 950.476 451.173 950.543 452.686L945.252 452.923L945.05 448.404C944.961 446.428 944.873 444.459 944.786 442.499L950.077 442.263C950.164 444.224 950.252 446.19 950.341 448.165Z" fill="#FCFCFD"/>
<path d="M1394.87 301.645C1394.95 298.043 1395.06 294.511 1395.2 291.056L1400.49 291.26C1400.35 294.686 1400.25 298.188 1400.17 301.761L1394.87 301.645Z" fill="#FCFCFD"/>
<path d="M338.669 688.158C339.728 684.776 340.824 681.419 341.957 678.085L346.972 679.787C345.852 683.081 344.769 686.397 343.724 689.737L338.669 688.158Z" fill="#FCFCFD"/>
<path d="M950.998 463.175C951.142 466.616 951.28 470.086 951.407 473.587L946.114 473.781C945.988 470.292 945.85 466.832 945.707 463.398L950.998 463.175Z" fill="#FCFCFD"/>
<path d="M1394.74 322.713C1394.71 319.163 1394.7 315.663 1394.72 312.218L1400.02 312.249C1400 315.667 1400 319.141 1400.04 322.664L1394.74 322.713Z" fill="#FCFCFD"/>
<path d="M332.849 708.503C333.738 705.074 334.667 701.668 335.635 698.285L340.727 699.739C339.771 703.081 338.853 706.444 337.975 709.83L332.849 708.503Z" fill="#FCFCFD"/>
<path d="M951.748 484.058C951.846 487.522 951.93 491.017 951.995 494.548L946.7 494.646C946.635 491.136 946.552 487.658 946.454 484.21L951.748 484.058Z" fill="#FCFCFD"/>
<path d="M328.057 729.118C328.77 725.648 329.526 722.201 330.323 718.776L335.481 719.973C334.695 723.355 333.949 726.758 333.245 730.183L328.057 729.118Z" fill="#FCFCFD"/>
<path d="M1395.24 343.821C1395.11 340.281 1395 336.777 1394.91 333.314L1400.21 333.186C1400.29 336.624 1400.4 340.102 1400.53 343.616L1395.24 343.821Z" fill="#FCFCFD"/>
<path d="M952.126 504.99C952.149 508.476 952.15 511.995 952.125 515.552L946.828 515.516C946.853 511.985 946.852 508.489 946.83 505.026L952.126 504.99Z" fill="#FCFCFD"/>
<path d="M324.329 749.954C324.862 746.452 325.439 742.972 326.058 739.513L331.271 740.443C330.66 743.858 330.091 747.293 329.565 750.749L324.329 749.954Z" fill="#FCFCFD"/>
<path d="M1396.36 364.911C1396.12 361.366 1395.91 357.847 1395.72 354.358L1401.01 354.076C1401.2 357.54 1401.41 361.033 1401.64 364.553L1396.36 364.911Z" fill="#FCFCFD"/>
<path d="M951.976 525.957C951.901 529.432 951.798 532.944 951.665 536.493L946.372 536.296C946.505 532.776 946.606 529.292 946.681 525.843L951.976 525.957Z" fill="#FCFCFD"/>
<path d="M321.691 770.957C322.04 767.432 322.434 763.927 322.872 760.443L328.127 761.101C327.695 764.54 327.306 767.999 326.961 771.478L321.691 770.957Z" fill="#FCFCFD"/>
<path d="M1398.09 385.948C1397.75 382.412 1397.43 378.893 1397.14 375.396L1402.42 374.961C1402.71 378.433 1403.02 381.925 1403.36 385.435L1398.09 385.948Z" fill="#FCFCFD"/>
<path d="M951.187 546.926C951 550.391 950.781 553.892 950.528 557.431L945.245 557.055C945.496 553.547 945.713 550.077 945.899 546.642L951.187 546.926Z" fill="#FCFCFD"/>
<path d="M320.156 792.071C320.32 788.531 320.53 785.011 320.785 781.51L326.067 781.892C325.816 785.347 325.609 788.821 325.447 792.315L320.156 792.071Z" fill="#FCFCFD"/>
<path d="M1400.44 406.892C1399.99 403.381 1399.58 399.881 1399.18 396.395L1404.45 395.803C1404.84 399.263 1405.25 402.736 1405.7 406.219L1400.44 406.892Z" fill="#FCFCFD"/>
<path d="M949.689 567.863C949.381 571.316 949.039 574.806 948.66 578.333L943.394 577.769C943.77 574.274 944.109 570.816 944.414 567.394L949.689 567.863Z" fill="#FCFCFD"/>
<path d="M319.732 807.988C319.745 806.205 319.769 804.427 319.805 802.654L325.1 802.759C325.065 804.509 325.041 806.264 325.028 808.024C325.016 809.805 325.028 811.577 325.063 813.34L319.768 813.449C319.732 811.637 319.72 809.817 319.732 807.988Z" fill="#FCFCFD"/>
<path d="M1403.45 427.767C1402.89 424.282 1402.36 420.801 1401.86 417.327L1407.1 416.571C1407.6 420.017 1408.13 423.47 1408.68 426.925L1403.45 427.767Z" fill="#FCFCFD"/>
<path d="M947.448 588.73C947.016 592.173 946.547 595.653 946.04 599.169L940.798 598.416C941.3 594.931 941.765 591.484 942.193 588.071L947.448 588.73Z" fill="#FCFCFD"/>
<path d="M321.391 834.917C320.924 831.387 320.553 827.82 320.282 824.215L325.563 823.816C325.827 827.322 326.187 830.791 326.641 834.222L321.391 834.917Z" fill="#FCFCFD"/>
<path d="M1407.16 448.542C1406.48 445.085 1405.83 441.625 1405.21 438.165L1410.43 437.236C1411.04 440.665 1411.68 444.095 1412.35 447.521L1407.16 448.542Z" fill="#FCFCFD"/>
<path d="M944.458 609.493C943.899 612.934 943.303 616.409 942.668 619.921L937.456 618.981C938.086 615.5 938.676 612.056 939.23 608.647L944.458 609.493Z" fill="#FCFCFD"/>
<path d="M325.438 856.078C324.565 852.616 323.788 849.111 323.11 845.565L328.312 844.569C328.971 848.015 329.726 851.42 330.574 854.783L325.438 856.078Z" fill="#FCFCFD"/>
<path d="M940.73 630.133C940.047 633.572 939.325 637.045 938.564 640.553L933.388 639.433C934.143 635.954 934.858 632.511 935.535 629.103L940.73 630.133Z" fill="#FCFCFD"/>
<path d="M1411.61 469.181C1410.8 465.755 1410.02 462.32 1409.28 458.879L1414.46 457.763C1415.2 461.171 1415.96 464.573 1416.76 467.966L1411.61 469.181Z" fill="#FCFCFD"/>
<path d="M331.923 876.63C330.647 873.284 329.465 869.892 328.38 866.452L333.431 864.858C334.485 868.198 335.633 871.493 336.872 874.742L331.923 876.63Z" fill="#FCFCFD"/>
<path d="M936.288 650.643C935.495 654.03 934.665 657.45 933.796 660.904L928.659 659.614C929.521 656.188 930.345 652.796 931.132 649.437L936.288 650.643Z" fill="#FCFCFD"/>
<path d="M1416.87 489.639C1415.92 486.25 1415.01 482.846 1414.13 479.43L1419.26 478.111C1420.13 481.491 1421.03 484.859 1421.97 488.211L1416.87 489.639Z" fill="#FCFCFD"/>
<path d="M931.161 671.033C930.268 674.358 929.339 677.713 928.373 681.1L923.28 679.651C924.238 676.289 925.16 672.96 926.046 669.662L931.161 671.033Z" fill="#FCFCFD"/>
<path d="M340.764 896.28C339.104 893.1 337.535 889.867 336.058 886.585L340.888 884.411C342.322 887.6 343.848 890.741 345.46 893.831L340.764 896.28Z" fill="#FCFCFD"/>
<path d="M1423.03 509.859C1421.92 506.516 1420.86 503.151 1419.83 499.767L1424.89 498.226C1425.91 501.57 1426.96 504.895 1428.06 508.197L1423.03 509.859Z" fill="#FCFCFD"/>
<path d="M925.372 691.329C924.391 694.582 923.376 697.864 922.325 701.175L917.277 699.576C918.32 696.288 919.328 693.031 920.302 689.802L925.372 691.329Z" fill="#FCFCFD"/>
<path d="M351.797 914.78C349.787 911.804 347.86 908.773 346.02 905.69L350.569 902.976C352.358 905.974 354.231 908.921 356.187 911.816L351.797 914.78Z" fill="#FCFCFD"/>
<path d="M1430.17 529.764C1428.89 526.482 1427.66 523.171 1426.46 519.835L1431.45 518.047C1432.63 521.34 1433.85 524.606 1435.11 527.843L1430.17 529.764Z" fill="#FCFCFD"/>
<path d="M919.067 711.197C917.97 714.493 916.838 717.819 915.671 721.174L910.669 719.435C911.828 716.103 912.953 712.8 914.042 709.527L919.067 711.197Z" fill="#FCFCFD"/>
<path d="M364.808 931.934C362.487 929.194 360.242 926.396 358.076 923.543L362.296 920.342C364.404 923.119 366.589 925.843 368.851 928.512L364.808 931.934Z" fill="#FCFCFD"/>
<path d="M912.201 730.938C911.011 734.22 909.786 737.53 908.528 740.868L903.572 739.001C904.823 735.684 906.039 732.395 907.222 729.135L912.201 730.938Z" fill="#FCFCFD"/>
<path d="M1438.42 549.254C1436.95 546.056 1435.53 542.822 1434.14 539.555L1439.02 537.493C1440.38 540.712 1441.79 543.896 1443.23 547.043L1438.42 549.254Z" fill="#FCFCFD"/>
<path d="M379.552 947.609C376.962 945.123 374.442 942.579 371.993 939.977L375.851 936.349C378.237 938.884 380.695 941.365 383.221 943.789L379.552 947.609Z" fill="#FCFCFD"/>
<path d="M904.772 750.644C903.524 753.833 902.246 757.047 900.935 760.287L896.025 758.303C897.328 755.082 898.6 751.887 899.839 748.717L904.772 750.644Z" fill="#FCFCFD"/>
<path d="M1447.9 568.192C1446.21 565.106 1444.58 561.975 1443 558.803L1447.73 556.436C1449.29 559.553 1450.9 562.629 1452.55 565.658L1447.9 568.192Z" fill="#FCFCFD"/>
<path d="M896.904 770.084C896.216 771.73 895.52 773.382 894.815 775.041C894.102 776.721 893.383 778.39 892.658 780.05L887.804 777.933C888.522 776.289 889.234 774.636 889.94 772.973C890.105 772.585 890.269 772.197 890.433 771.81C890.563 771.503 890.693 771.196 890.823 770.889C890.963 770.557 891.102 770.226 891.241 769.895C891.501 769.277 891.76 768.66 892.018 768.044L896.904 770.084Z" fill="#FCFCFD"/>
<path d="M395.782 961.722C392.965 959.502 390.21 957.222 387.52 954.884L390.995 950.888C393.621 953.17 396.311 955.396 399.062 957.564L395.782 961.722Z" fill="#FCFCFD"/>
<path d="M1458.74 586.399C1456.83 583.459 1454.96 580.465 1453.15 577.42L1457.7 574.712C1459.48 577.697 1461.31 580.63 1463.18 583.508L1458.74 586.399Z" fill="#FCFCFD"/>
<path d="M888.241 789.893C886.747 793.136 885.23 796.34 883.691 799.506L878.927 797.194C880.45 794.06 881.952 790.889 883.431 787.679L888.241 789.893Z" fill="#FCFCFD"/>
<path d="M413.262 974.233C410.255 972.281 407.302 970.269 404.406 968.198L407.489 963.892C410.319 965.916 413.206 967.883 416.148 969.792L413.262 974.233Z" fill="#FCFCFD"/>
<path d="M878.978 808.951C877.32 812.19 875.638 815.388 873.933 818.544L869.273 816.029C870.959 812.907 872.623 809.744 874.264 806.54L878.978 808.951Z" fill="#FCFCFD"/>
<path d="M1471.13 603.672C1468.95 600.91 1466.82 598.083 1464.75 595.196L1469.06 592.112C1471.08 594.934 1473.16 597.694 1475.29 600.389L1471.13 603.672Z" fill="#FCFCFD"/>
<path d="M431.78 985.13C428.616 983.447 425.5 981.704 422.433 979.9L425.119 975.337C428.12 977.101 431.171 978.808 434.269 980.456L431.78 985.13Z" fill="#FCFCFD"/>
<path d="M868.751 827.888C867.002 830.961 865.23 833.993 863.437 836.985L858.894 834.264C860.667 831.307 862.418 828.309 864.148 825.27L868.751 827.888Z" fill="#FCFCFD"/>
<path d="M451.144 994.419C447.854 993.004 444.605 991.527 441.4 989.991L443.691 985.216C446.831 986.722 450.015 988.169 453.239 989.556L451.144 994.419Z" fill="#FCFCFD"/>
<path d="M1485.17 619.672C1482.7 617.142 1480.29 614.535 1477.94 611.857L1481.93 608.367C1484.21 610.976 1486.56 613.512 1488.96 615.972L1485.17 619.672Z" fill="#FCFCFD"/>
<path d="M857.761 846.205C855.84 849.245 853.897 852.239 851.931 855.19L847.523 852.256C849.465 849.341 851.386 846.382 853.284 843.378L857.761 846.205Z" fill="#FCFCFD"/>
<path d="M471.185 1002.12C467.796 1000.97 464.443 999.753 461.127 998.48L463.026 993.537C466.278 994.785 469.567 995.975 472.891 997.104L471.185 1002.12Z" fill="#FCFCFD"/>
<path d="M845.969 863.91C843.886 866.878 841.781 869.798 839.654 872.672L835.397 869.523C837.497 866.686 839.576 863.802 841.633 860.871L845.969 863.91Z" fill="#FCFCFD"/>
<path d="M1500.92 634.019C1498.15 631.789 1495.45 629.47 1492.82 627.068L1496.39 623.157C1498.95 625.488 1501.56 627.736 1504.25 629.898L1500.92 634.019Z" fill="#FCFCFD"/>
<path d="M491.754 1008.24C488.29 1007.35 484.855 1006.4 481.452 1005.39L482.964 1000.31C486.304 1001.31 489.675 1002.24 493.075 1003.11L491.754 1008.24Z" fill="#FCFCFD"/>
<path d="M833.168 881.203C830.985 883.999 828.78 886.749 826.554 889.452L822.465 886.088C824.662 883.42 826.838 880.706 828.994 877.946L833.168 881.203Z" fill="#FCFCFD"/>
<path d="M1518.35 646.315C1515.3 644.455 1512.33 642.497 1509.43 640.446L1512.48 636.121C1515.29 638.106 1518.17 640 1521.11 641.798L1518.35 646.315Z" fill="#FCFCFD"/>
<path d="M512.719 1012.82C509.197 1012.18 505.699 1011.49 502.227 1010.73L503.357 1005.56C506.766 1006.3 510.201 1006.98 513.66 1007.61L512.719 1012.82Z" fill="#FCFCFD"/>
<path d="M819.57 897.704C817.213 900.414 814.835 903.073 812.436 905.684L808.536 902.103C810.902 899.528 813.249 896.904 815.574 894.23L819.57 897.704Z" fill="#FCFCFD"/>
<path d="M533.957 1015.86C530.395 1015.48 526.853 1015.04 523.333 1014.53L524.085 1009.29C527.544 1009.79 531.024 1010.22 534.523 1010.6L533.957 1015.86Z" fill="#FCFCFD"/>
<path d="M805.157 913.389C802.63 915.991 800.081 918.54 797.513 921.037L793.821 917.243C796.353 914.781 798.865 912.267 801.357 909.701L805.157 913.389Z" fill="#FCFCFD"/>
<path d="M1537.3 656.194C1534 654.756 1530.78 653.212 1527.63 651.568L1530.08 646.874C1533.13 648.463 1536.24 649.954 1539.42 651.343L1537.3 656.194Z" fill="#FCFCFD"/>
<path d="M555.356 1017.4C551.773 1017.27 548.204 1017.07 544.652 1016.82L545.032 1011.54C548.523 1011.79 552.03 1011.98 555.552 1012.11L555.356 1017.4Z" fill="#FCFCFD"/>
<path d="M789.75 928.372C787.113 930.792 784.457 933.16 781.783 935.474L778.317 931.472C780.952 929.191 783.57 926.858 786.168 924.473L789.75 928.372Z" fill="#FCFCFD"/>
<path d="M576.812 1017.44C573.223 1017.56 569.644 1017.61 566.077 1017.61L566.09 1012.31C569.595 1012.32 573.113 1012.27 576.642 1012.15L576.812 1017.44Z" fill="#FCFCFD"/>
<path d="M773.534 942.4C770.766 944.655 767.98 946.855 765.178 949L761.958 944.798C764.718 942.684 767.463 940.517 770.189 938.296L773.534 942.4Z" fill="#FCFCFD"/>
<path d="M1557.38 663.375C1553.91 662.395 1550.51 661.307 1547.18 660.116L1548.97 655.131C1552.19 656.282 1555.47 657.333 1558.82 658.281L1557.38 663.375Z" fill="#FCFCFD"/>
<path d="M598.224 1016.02C594.644 1016.38 591.07 1016.68 587.505 1016.91L587.154 1011.63C590.66 1011.4 594.174 1011.1 597.694 1010.75L598.224 1016.02Z" fill="#FCFCFD"/>
<path d="M756.545 955.404C753.625 957.5 750.689 959.541 747.738 961.524L744.784 957.131C747.689 955.178 750.58 953.169 753.455 951.104L756.545 955.404Z" fill="#FCFCFD"/>
<path d="M738.809 967.328C735.749 969.25 732.675 971.113 729.587 972.918L726.914 968.348C729.954 966.571 732.98 964.737 735.992 962.845L738.809 967.328Z" fill="#FCFCFD"/>
<path d="M619.475 1013.14C615.926 1013.75 612.379 1014.29 608.836 1014.76L608.128 1009.52C611.612 1009.05 615.1 1008.52 618.59 1007.92L619.475 1013.14Z" fill="#FCFCFD"/>
<path d="M1573.04 666.972C1571.25 666.652 1569.48 666.305 1567.72 665.932L1568.82 660.753C1570.52 661.115 1572.24 661.451 1573.97 661.76L1573.04 666.972Z" fill="#FCFCFD"/>
<path d="M720.285 978.16C717.125 979.875 713.953 981.531 710.769 983.128L708.394 978.397C711.527 976.825 714.649 975.195 717.759 973.507L720.285 978.16Z" fill="#FCFCFD"/>
<path d="M640.462 1008.85C636.968 1009.69 633.472 1010.46 629.978 1011.18L628.919 1005.99C632.355 1005.29 635.793 1004.53 639.23 1003.7L640.462 1008.85Z" fill="#FCFCFD"/>
<path d="M701.104 987.785C697.859 989.284 694.605 990.723 691.342 992.104L689.279 987.228C692.489 985.87 695.691 984.454 698.883 982.979L701.104 987.785Z" fill="#FCFCFD"/>
<path d="M661.118 1003.17C657.695 1004.24 654.268 1005.24 650.838 1006.18L649.435 1001.08C652.808 1000.15 656.179 999.164 659.546 998.117L661.118 1003.17Z" fill="#FCFCFD"/>
<path d="M681.359 996.137C678.023 997.421 674.68 998.644 671.332 999.809L669.593 994.808C672.887 993.663 676.175 992.459 679.457 991.196L681.359 996.137Z" fill="#FCFCFD"/>
</svg>
