<svg width="361" height="319" viewBox="0 0 361 319" fill="none" xmlns="http://www.w3.org/2000/svg">
<path d="M348.857 221.95C349.151 219.3 347.508 217.41 346.649 216.796L345.545 215.324C349.593 206.98 357.542 190.144 356.953 189.555C356.364 188.966 338.553 187.592 329.721 186.978L322.73 185.506L299.178 207.225C288.629 215.569 266.059 234.319 260.171 242.565C252.811 252.873 265.323 265.389 276.362 262.076C287.402 258.763 315.002 258.763 324.202 264.285C333.401 269.807 343.337 250.296 346.649 249.192C349.299 248.308 351.924 241.461 352.905 238.148L349.961 234.835C351.433 233.485 353.862 230.638 351.801 230.049C349.225 229.313 348.489 225.263 348.857 221.95Z" fill="white"/>
<path fill-rule="evenodd" clip-rule="evenodd" d="M314.455 226.045C311.724 224.974 308.784 224.381 305.828 224.151C307.419 223.873 309.015 223.603 310.624 223.465C311.746 223.369 312.787 223.379 313.631 224.231C314.194 224.798 314.458 225.529 314.828 226.2C314.707 226.146 314.581 226.094 314.455 226.045ZM343.768 216.027C339.295 216.254 334.818 217.318 330.772 219.246C329.117 220.036 327.617 221.177 327.178 223.053C326.955 224.011 327.01 225.001 327.128 225.969C327.217 226.702 327.239 227.637 327.876 228.133C327.984 228.217 328.1 228.282 328.221 228.329C326.729 229.002 325.307 229.812 324.044 230.647C322.89 231.409 321.703 232.585 321.17 233.91C321.126 233.76 321.082 233.619 321.037 233.486C320.129 230.8 318.731 228.6 316.527 227.121C316.917 226.946 317.186 226.531 317.06 225.959C316.537 223.566 314.329 221.488 311.835 221.636C309.104 221.796 306.171 222.791 303.701 224.048C302.801 224.028 301.903 224.04 301.015 224.08C300.862 224.085 300.869 224.292 301.015 224.309C301.735 224.401 302.456 224.502 303.176 224.621C304.888 224.895 306.595 225.243 308.265 225.675C310.269 226.193 312.341 226.714 314.213 227.62C317.845 229.38 320.092 233.982 319.631 237.986C319.554 238.643 319.3 240.628 318.39 240.423C317.62 240.25 317.314 238.643 317.046 238.048C316.325 236.468 315.028 235.436 313.471 234.737C311.643 233.915 309.687 233.36 307.792 232.713C306.719 232.345 305.646 231.977 304.57 231.612C303.47 231.234 302.424 230.713 301.252 230.977C300.544 231.138 300.462 231.982 300.86 232.466C301.464 233.204 302.362 233.421 303.233 233.725C304.382 234.125 305.53 234.525 306.677 234.925C308.45 235.542 310.308 236.063 312.037 236.818L311.983 236.942C311.842 236.902 311.677 237.043 311.705 237.216C311.964 238.813 312.324 240.66 311.924 242.26C311.608 243.528 310.495 244.933 309.05 244.56C309.277 244.353 309.361 243.995 309.208 243.664C308.635 242.44 301.136 237.606 300.467 239.401C300.445 239.465 300.514 239.512 300.568 239.502C301.138 239.383 302.093 240.356 302.549 240.665C303.208 241.109 303.876 241.543 304.528 242C305.241 242.499 305.937 243.022 306.615 243.563C307.148 243.988 307.55 244.429 308.162 244.644C307.841 244.797 307.587 245.081 307.479 245.444C307.202 246.39 306.669 247.192 305.744 247.609C304.775 248.044 303.682 247.77 302.661 247.876C301.269 248.016 300.055 248.678 299.041 249.624C296.912 251.613 295.844 255.119 292.867 256.059C291.088 256.62 289.114 256.267 287.313 256.013C285.303 255.729 283.344 255.504 281.319 255.8C279.379 256.084 277.547 256.756 275.775 257.575C274.115 258.343 272.279 259.212 270.807 260.357C270.503 259.422 270.197 258.496 269.965 257.541C269.418 255.282 269.122 252.981 269.05 250.66C268.984 248.451 269.107 246.232 269.297 244.032C269.391 242.933 269.539 241.84 269.632 240.741C269.657 240.465 269.706 240.168 269.743 239.872C272.373 238.319 275.136 237.13 277.921 235.905C277.929 235.903 277.936 235.898 277.944 235.895C278.03 235.856 278.114 235.819 278.2 235.782C278.198 235.777 278.195 235.772 278.19 235.767C278.509 235.572 278.731 235.312 278.864 235.021C282.878 232.357 286.233 228.721 288.734 224.48C289.783 222.702 290.792 220.858 292.163 219.301C293.624 217.639 295.358 216.652 297.504 216.138C300.013 215.536 302.599 215.175 305.169 214.97C306.573 214.86 308.142 214.686 309.672 214.694C310.737 214.701 311.781 214.793 312.738 215.057C314.157 215.447 314.986 216.526 315.876 217.617C316.727 218.664 317.574 219.713 318.368 220.804C319.12 221.838 319.831 222.907 320.448 224.028C320.818 224.7 321.161 225.391 321.449 226.104C321.55 226.356 321.684 226.642 321.745 226.904C321.807 227.168 321.693 227.447 321.989 227.447C320.768 227.464 320.781 229.417 321.994 229.346C326.746 229.069 319.939 219.787 318.945 218.493C317.536 216.661 316.083 214.272 313.829 213.42C313.797 213.408 313.762 213.396 313.73 213.385C314.386 212.763 314.904 212.018 315.4 211.26C315.911 210.48 316.52 209.586 316.688 208.66C316.794 208.071 316.061 207.735 315.713 208.251C315.208 209.004 314.963 209.956 314.586 210.784C314.201 211.623 313.732 212.415 313.362 213.262C312.472 212.988 311.51 212.862 310.53 212.82C311.766 211.147 313.878 207.917 314.132 207.503C315.301 205.582 316.414 203.602 317.477 201.62C318.627 199.472 319.611 197.235 320.712 195.063C321.336 193.831 321.965 192.589 322.658 191.394C322.897 190.984 323.154 190.575 323.445 190.202C323.502 190.128 323.573 190.066 323.64 189.997C323.716 189.955 323.795 189.908 323.84 189.884C324.239 189.654 324.38 189.121 324.661 188.782C325.11 188.237 325.638 188.173 326.314 188.165C327.755 188.15 329.2 188.207 330.639 188.247C332.753 188.306 334.865 188.39 336.976 188.501C337.615 188.536 338.252 188.57 338.891 188.61C341.962 188.793 345.031 189.032 348.093 189.326C350.801 189.585 353.51 190.007 356.221 190.21C352.551 198.936 348.48 207.505 343.871 215.775C343.825 215.859 343.79 215.943 343.768 216.027ZM323.401 238.509C322.808 238.781 322.234 239.119 321.698 239.505C321.787 238.905 321.809 238.272 321.785 237.638C322.226 238.112 322.791 238.384 323.401 238.509ZM348.675 223.498C348.633 223.502 348.593 223.524 348.574 223.566C347.755 225.257 348.097 227.146 349.435 228.472C350.135 229.163 351.662 229.943 351.613 231.079C351.571 231.997 350.572 232.767 350.145 233.525C349.748 234.231 349.6 235.006 349.918 235.772C350.325 236.752 351.463 237.142 351.852 238.105C352.346 239.327 351.544 240.801 350.982 241.864C350.459 242.849 349.782 243.834 349.334 244.876C346.326 246.434 343.635 248.824 341.321 251.251C338.787 253.905 336.614 257.027 332.59 256.948C332.188 256.941 331.882 257.153 331.699 257.447C330.579 257.499 329.457 257.521 328.337 257.526C326.368 257.536 324.4 257.516 322.433 257.454C322.295 256.978 322.396 256.331 322.389 255.929C322.364 254.633 322.352 253.339 322.298 252.043C322.283 251.683 322.268 251.32 322.253 250.959C322.961 252.24 324.343 252.823 325.917 252.734C328.448 252.586 330.994 252.171 333.5 251.798C334.82 251.603 336.138 251.381 337.453 251.144C338.533 250.952 340.058 251.001 340.813 250.135C340.99 249.932 341 249.562 340.721 249.426C339.974 249.058 339.503 249.263 338.681 249.421C337.679 249.616 336.675 249.801 335.669 249.974C333.737 250.31 331.801 250.621 329.859 250.895C328.754 251.05 327.646 251.204 326.539 251.324C325.571 251.428 324.481 251.569 323.702 250.841C322.13 249.369 323.011 246.903 324.005 245.417C324.025 245.388 324.025 245.36 324.017 245.335C324.955 245.116 325.89 244.859 326.822 244.679C328.616 244.333 330.422 244.042 332.23 243.783C335.945 243.252 339.685 242.901 343.42 242.549C344.345 242.459 344.355 241.003 343.42 241.09C338.054 241.581 332.662 242.047 327.367 243.082C326.04 243.338 324.723 243.63 323.413 243.958C322.794 244.111 322.13 244.351 321.481 244.358C321.442 244.358 321.402 244.358 321.363 244.355C320.092 244.316 319.907 243.227 320.605 242.321C320.692 242.21 320.781 242.099 320.872 241.993C322.105 240.521 323.642 239.539 325.226 238.522C327 238.28 328.769 237.742 330.505 237.347C334.793 236.369 339.081 235.391 343.371 234.416C344.212 234.224 343.854 232.93 343.013 233.12C339.757 233.859 336.5 234.597 333.244 235.335L328.478 236.416C327.525 236.631 326.336 237.063 325.216 237.219C324.664 237.295 324.128 237.305 323.645 237.191C322.083 236.821 322.004 234.868 322.678 233.708C323.433 232.405 324.859 231.59 326.124 230.852C328.317 229.57 330.651 228.649 332.931 227.588C333.335 227.499 333.74 227.41 334.144 227.321C336.498 226.803 339.187 226.549 341.402 225.598C342.066 225.317 341.703 224.27 341.047 224.285C339.327 224.322 337.529 224.934 335.849 225.297C334.031 225.692 332.21 226.084 330.392 226.477C330.209 226.516 329.129 226.862 328.966 226.786C328.862 226.736 328.825 226.376 328.791 226.139C328.68 225.359 328.598 224.539 328.719 223.756C328.986 222.001 330.449 221.177 331.929 220.503C335.225 219.004 338.839 218.066 342.436 217.691C343.265 217.604 344.094 217.55 344.928 217.523C345.907 217.493 346.714 217.321 347.21 218.286C347.989 219.807 348.418 221.762 348.675 223.498ZM344.098 278.635C343.38 276.149 343.575 273.495 343.083 270.96C342.829 269.652 342.482 268.355 342.104 267.078C341.799 266.046 341.289 264.949 341.231 263.873C341.228 263.801 341.313 263.76 341.371 263.793C342.384 264.373 343.162 265.629 343.74 266.614C344.432 267.792 344.96 269.027 345.386 270.325C346.235 272.91 346.932 276.029 345.837 278.635C345.511 279.41 344.367 279.565 344.098 278.635ZM321.903 245.713C322.51 245.654 323.117 245.538 323.724 245.402C323.045 246.064 322.419 246.861 322.071 247.745C322.017 247.066 321.947 246.39 321.856 245.716C321.871 245.716 321.888 245.716 321.903 245.713ZM316.071 297.45C315 296.703 314.221 295.658 313.313 294.736C312.42 293.829 313.816 292.433 314.709 293.34C315.483 294.126 316.155 295.108 317.067 295.745C317.505 296.05 317.708 296.604 317.421 297.096C317.167 297.53 316.508 297.755 316.071 297.45ZM310.102 268.727C312.056 267.882 313.977 266.962 316.022 266.353C317.244 265.989 317.761 267.895 316.547 268.257C314.664 268.818 312.898 269.654 311.099 270.433C309.944 270.932 308.94 269.23 310.102 268.727ZM289.471 268.136C288.993 266.956 290.903 266.448 291.374 267.611C291.916 268.95 292.537 270.254 293.079 271.592C293.557 272.772 291.647 273.28 291.176 272.117C290.634 270.779 290.013 269.475 289.471 268.136ZM269.107 291.692C268.789 292.117 268.258 292.347 267.757 292.046C267.337 291.795 267.081 291.125 267.403 290.695C268.344 289.441 269.297 288.201 270.399 287.083C271.293 286.176 272.688 287.573 271.795 288.479C270.81 289.478 269.947 290.571 269.107 291.692ZM266.195 159.52C267.101 160.139 267.895 160.891 268.669 161.665C269.568 162.565 268.173 163.961 267.273 163.061C266.621 162.409 265.963 161.747 265.199 161.225C264.758 160.924 264.56 160.362 264.845 159.874C265.101 159.437 265.755 159.219 266.195 159.52ZM295.822 191.301C295.31 192.327 294.849 193.333 294.819 194.5C294.788 195.771 292.815 195.771 292.846 194.5C292.884 192.974 293.446 191.65 294.118 190.304C294.685 189.166 296.387 190.167 295.822 191.301ZM306.692 165.777C307.753 165.069 308.74 166.78 307.688 167.482C306.836 168.05 305.983 168.62 305.13 169.188C304.07 169.896 303.083 168.185 304.134 167.483C304.987 166.914 305.839 166.345 306.692 165.777ZM259.544 210.404C259.363 211.659 257.461 211.122 257.641 209.879C257.918 207.958 258.257 206.062 258.778 204.191C259.119 202.967 261.022 203.49 260.681 204.716C260.16 206.587 259.821 208.483 259.544 210.404ZM252.624 233.027C251.354 233 251.354 231.025 252.624 231.052C253.774 231.077 254.904 231.379 256.013 231.656C257.246 231.965 256.72 233.869 255.488 233.561C254.551 233.326 253.596 233.048 252.624 233.027ZM250.07 278.599C249.633 278.812 249.186 279.003 248.745 279.205C247.861 279.609 246.978 280.014 246.096 280.42C244.257 281.264 242.419 282.112 240.583 282.962C236.907 284.665 233.203 286.308 229.518 287.992C225.76 289.71 222.013 291.45 218.27 293.199C216.506 294.023 214.73 294.817 212.956 295.619C211.44 296.305 209.566 297.504 207.902 297.617C207.816 297.623 207.787 297.514 207.836 297.459C208.465 296.743 209.468 296.327 210.295 295.862C211.139 295.386 211.999 294.939 212.855 294.486C214.639 293.54 216.426 292.601 218.228 291.688C221.832 289.863 225.444 288.051 229.056 286.241C232.739 284.395 236.418 282.537 240.134 280.757C241.884 279.918 243.635 279.083 245.388 278.25C246.337 277.798 247.287 277.348 248.236 276.898C248.647 276.704 249.053 276.494 249.472 276.32C250.029 276.09 250.453 276.137 251.028 275.994C251.965 275.763 252.371 276.956 251.651 277.475C251.059 277.903 250.747 278.269 250.07 278.599ZM236.894 298.85C236.692 298.358 237.116 297.759 237.584 297.636C238.144 297.488 238.593 297.829 238.798 298.325C239.339 299.642 240.109 300.851 241.101 301.871C241.988 302.783 240.593 304.18 239.706 303.268C238.463 301.989 237.57 300.494 236.894 298.85ZM227.201 267.15C226.302 266.25 227.697 264.853 228.597 265.753L231.155 268.313C232.054 269.213 230.658 270.609 229.759 269.709L227.201 267.15ZM200.96 262.977C199.121 263.516 196.976 264.013 195.722 265.582C195.661 265.659 195.558 265.561 195.595 265.484C197.2 262.154 201.803 260.986 204.99 259.82C207.244 258.995 209.557 258.31 211.889 257.699C211.656 255.037 212.299 252.183 212.522 249.534C212.761 246.705 212.955 243.869 213.055 241.031C213.157 238.137 213.181 235.223 213.086 232.328C212.991 229.443 212.617 226.594 212.453 223.718C212.438 223.44 212.824 223.427 212.908 223.657C213.876 226.325 214.29 229.28 214.605 232.093C214.93 234.991 215.038 237.881 214.996 240.796C214.953 243.793 214.779 246.783 214.54 249.77C214.427 251.186 214.295 252.6 214.171 254.015C214.077 255.095 214.033 256.166 213.813 257.212C215.219 256.866 216.629 256.539 218.035 256.222C222.516 255.21 227.017 254.271 231.479 253.176C233.67 252.639 235.829 251.996 238.01 251.425C240.064 250.887 242.231 250.235 244.34 249.995C245.092 249.909 245.188 250.939 244.69 251.288C242.976 252.492 240.7 253.331 238.721 254.005C236.735 254.681 234.67 255.167 232.634 255.668C228.388 256.713 224.102 257.568 219.822 258.458C215.548 259.347 211.266 260.229 207.04 261.326C205.005 261.854 202.977 262.384 200.96 262.977ZM190.883 210.141C189.784 210.786 188.792 209.079 189.887 208.435C191.32 207.594 192.846 206.962 194.386 206.345C195.567 205.872 196.075 207.783 194.91 208.25C193.527 208.804 192.17 209.385 190.883 210.141ZM186.904 283.514C185.802 284.154 184.81 282.446 185.908 281.809C187.451 280.914 189.141 280.317 190.74 279.534C191.877 278.977 192.876 280.681 191.736 281.239C190.137 282.023 188.447 282.619 186.904 283.514ZM185.115 241.864C186.18 242.877 187.602 243.354 188.942 243.886C190.111 244.349 189.598 246.258 188.417 245.79C186.747 245.127 185.046 244.522 183.719 243.26C182.796 242.383 184.194 240.989 185.115 241.864ZM196.9 185.3C198.071 185.76 197.558 187.669 196.375 187.205C195.063 186.69 193.708 186.298 192.396 185.783C191.225 185.323 191.738 183.414 192.921 183.878C194.233 184.393 195.588 184.785 196.9 185.3ZM217.69 162.833C218.934 162.623 219.464 164.526 218.215 164.737C216.664 164.999 215.138 165.306 213.667 165.875C212.48 166.335 211.971 164.424 213.143 163.971C214.613 163.401 216.14 163.095 217.69 162.833ZM224.559 217.535C223.418 216.974 224.419 215.271 225.555 215.83C226.752 216.419 227.992 216.874 229.298 217.152C230.542 217.417 230.012 219.321 228.774 219.057C227.304 218.743 225.905 218.197 224.559 217.535ZM231.047 186.722C232.276 186.385 232.795 188.291 231.572 188.627C229.419 189.217 227.203 189.523 225.035 190.049C223.799 190.348 223.277 188.443 224.51 188.144C226.679 187.619 228.895 187.313 231.047 186.722ZM258.57 177.053C259.82 177.284 259.287 179.187 258.046 178.957C256.724 178.713 255.385 178.709 254.045 178.708C252.773 178.707 252.775 176.732 254.045 176.733C255.567 176.734 257.07 176.775 258.57 177.053ZM348.334 187.371C345.11 187.062 341.881 186.815 338.647 186.63C338.496 186.622 338.348 186.613 338.197 186.605C338.18 186.571 338.158 186.538 338.136 186.504C337.08 184.953 336.303 183.403 335.629 181.65C334.986 179.981 334.361 178.261 333.37 176.755C332.239 175.039 330.711 173.697 329.038 172.533C328.023 173.216 327.081 174.016 326.219 174.864C325.311 175.756 323.916 174.36 324.823 173.468C325.589 172.714 326.407 172.018 327.271 171.389C326.273 170.783 325.255 170.212 324.262 169.645C320.539 167.52 316.727 165.554 312.837 163.757C311.029 162.92 309.198 162.177 307.355 161.424C306.363 161.02 305.384 160.498 304.392 160.03C304.464 159.328 304.254 158.543 303.716 158.082C303.319 157.743 303.011 157.617 302.537 157.378C302.431 157.341 302.367 157.319 302.337 157.306C302.36 157.311 302.424 157.331 302.529 157.366C302.781 157.482 302.801 157.447 302.589 157.264C302.577 156.865 301.789 156.02 301.61 155.608C300.983 154.193 300.788 152.697 299.863 151.409C298.587 149.634 296.446 148.962 294.45 149.565C294.243 147.429 294.189 145.2 293.385 143.294C293.362 143.242 293.291 143.22 293.259 143.277C292.42 144.706 292.348 146.298 292.284 147.948C292.223 149.495 292.282 151.078 292.484 152.616C292.356 152.715 292.225 152.809 292.089 152.9C291.453 153.319 290.767 153.643 290.047 153.883C288.675 154.337 287.237 154.534 285.799 154.603C282.086 154.781 278.259 154.406 274.608 153.769C270.915 153.124 265.253 152.157 261.967 150.308C259.799 149.088 257.798 147.599 255.77 146.158C256.506 143.788 256.693 141.24 255.953 139.238C255.864 138.999 255.489 138.954 255.418 139.238C254.954 141.149 254.818 143.069 254.201 144.958C254.191 144.985 254.182 145.015 254.172 145.042C253.979 144.911 253.787 144.783 253.594 144.654C253.15 144.361 252.546 144.581 252.28 145C248.019 151.717 241.272 152.102 234.187 153.302C226.433 154.616 218.64 156.033 211.184 158.602C204.055 161.062 197.241 164.641 191.843 169.988C190.621 171.199 189.478 172.489 188.4 173.836C189.443 173.967 190.478 174.172 191.5 174.493C192.71 174.873 192.19 176.78 190.975 176.398C189.662 175.985 188.335 175.781 186.994 175.679C183.326 180.7 180.466 186.393 177.993 191.997C173.25 202.741 170.163 214.183 168.742 225.832C169.522 225.364 170.316 224.918 171.13 224.504C172.261 223.928 173.258 225.633 172.126 226.209C170.869 226.849 169.648 227.554 168.465 228.319C167.948 233.418 167.747 238.55 167.869 243.674C168.157 255.889 169.805 268.462 173.533 280.117C175.361 285.837 177.784 291.51 181.393 296.344C183.026 298.534 184.881 300.508 187.067 302.155C188.125 302.955 189.245 303.669 190.427 304.271C191.949 305.051 193.933 305.308 195.245 306.411C195.677 306.774 196.01 307.253 196.261 307.794C196.116 308.821 196.099 309.85 196.38 310.877C196.469 311.198 196.71 311.46 197.009 311.586C197.014 311.674 197.014 311.761 197.014 311.845C197.014 311.884 197.073 311.894 197.081 311.855C197.093 311.778 197.105 311.702 197.118 311.623C197.214 311.655 197.315 311.67 197.419 311.67C201.166 311.684 204.918 311.592 208.67 311.465C208.38 310.576 208.066 309.694 207.764 308.804C207.354 307.596 209.261 307.082 209.667 308.279C210.02 309.319 210.389 310.35 210.718 311.393C214.738 311.244 218.757 311.064 222.769 310.932C231.303 310.647 239.834 310.554 248.369 310.374C261.625 310.092 274.976 309.517 288.252 310.08C288.711 309.105 289.225 308.152 289.712 307.19C290.287 306.055 291.99 307.056 291.417 308.187C291.078 308.855 290.727 309.515 290.394 310.182C293.083 310.322 295.769 310.507 298.449 310.759C303.023 311.188 307.553 311.951 312.121 312.425C316.767 312.909 321.311 312.823 325.919 312.055C326.748 311.917 327.237 311.415 327.439 310.793C327.446 310.791 327.451 310.786 327.456 310.778C327.693 310.502 327.915 310.272 328.144 310.072C328.418 309.895 328.714 309.744 329.062 309.611C329.711 309.364 330.387 309.213 331.073 309.112C331.828 308.999 332.593 308.988 333.347 308.895C333.984 308.813 334.606 308.692 335.227 308.544C336.345 308.278 337.406 307.93 338.462 307.468C339.382 307.066 340.213 306.488 340.998 305.858C342.621 304.671 344.027 303.155 345.256 301.58C345.971 300.659 346.645 299.704 347.256 298.709C348.322 296.986 349.23 295.196 350.148 293.391C350.481 292.856 350.785 292.309 351.062 291.75C349.269 291.221 347.458 290.79 345.557 290.759C344.286 290.739 344.286 288.764 345.557 288.784C347.737 288.819 349.8 289.329 351.849 289.936C351.949 289.671 352.045 289.404 352.134 289.133C352.378 288.568 352.58 287.987 352.748 287.4C352.846 287.133 352.945 286.866 353.044 286.6C353.266 285.676 353.488 284.751 353.712 283.825C354.159 282.344 354.512 280.84 354.771 279.317C354.988 278.315 355.156 277.305 355.269 276.283C355.615 273.807 355.896 271.336 355.916 268.833C355.886 267.29 355.787 265.749 355.619 264.216C355.548 263.174 355.427 262.137 355.264 261.108C355.052 259.577 354.842 258.062 354.49 256.551C354.226 255.529 353.962 254.507 353.698 253.485C353.039 251.354 352.262 249.266 351.366 247.224C351.317 247.096 351.068 246.814 350.917 246.812C350.804 246.809 350.646 246.913 350.698 247.051C350.703 247.064 350.707 247.078 350.713 247.091C350.661 246.975 350.611 246.856 350.56 246.74C350.515 246.632 350.343 246.414 350.209 246.417C350.202 246.417 350.194 246.417 350.185 246.419C350.219 246.395 350.251 246.362 350.283 246.326C351.169 245.276 351.744 243.896 352.378 242.682C352.903 241.679 353.399 240.623 353.542 239.49C353.668 238.495 353.498 237.515 352.874 236.71C352.163 235.794 350.826 235.364 351.569 234.041C352.412 232.535 353.653 231.229 352.417 229.518C351.788 228.647 350.792 228.168 350.051 227.41C349.2 226.534 348.796 225.361 348.818 224.164C348.87 224.193 348.939 224.179 348.964 224.105C349.679 221.942 349.161 219.567 348.428 217.461C348.029 216.319 347.182 216.005 346.198 215.948C350.461 207.616 354.45 199.151 358.005 190.491C358.123 190.207 358.239 189.923 358.355 189.639C358.528 189.214 358.163 188.649 357.741 188.555C354.667 187.881 351.465 187.667 348.334 187.371Z" fill="#02040F"/>
<path fill-rule="evenodd" clip-rule="evenodd" d="M312.771 84.1763C312.184 76.5865 313.093 68.6313 310.168 61.4173C305.07 49.4478 290.772 45.4569 279.687 40.8999C275.247 39.5869 260.305 39.4034 255.105 37.6656C243.337 33.7325 240.526 29.0462 231.175 36.535C229.597 37.8143 228.61 39.2046 227.889 41.1043L227.919 41.1125C227.713 41.9044 227.934 42.6946 228.397 43.2982C224.343 47.4452 222.646 53.6624 224.726 59.1826C231.515 73.5478 231.196 81.315 229.008 96.7582C226.152 111.175 232.679 116.442 243.488 124.287C243.048 125.14 242.957 126.275 243.531 127.029C256.03 144.606 279.598 152.998 299.791 144.076C307.988 140.426 311.647 131.691 313.736 123.809C316.168 114.983 316.916 105.684 314.935 96.6938C314.136 92.536 313.096 88.4084 312.771 84.1763Z" fill="white"/>
<path fill-rule="evenodd" clip-rule="evenodd" d="M240.671 0.0874529C242.188 -0.140534 243.334 0.801454 243.879 2.12917L243.907 2.20066C244.083 2.65244 244.277 3.09186 244.487 3.52389C248.284 1.66002 253.701 2.13895 256.104 5.91359C257.819 8.60942 256.773 11.8089 256.126 14.6676L255.702 16.5512C256.522 17.0735 257.141 18.0089 257.112 18.9775L257.108 19.052L256.936 21.6787C257.483 21.1233 257.984 20.5184 258.431 19.8741C258.739 19.3088 259.072 18.7533 259.43 18.2151C261.534 15.0478 266.258 17.8004 264.522 21.1924C264.189 21.8466 263.814 22.4662 263.411 23.0637C262.958 23.945 262.585 24.851 262.299 25.7817C263.12 26.1397 263.752 26.9346 263.819 28.1344C263.974 30.9364 262.504 33.2742 260.165 34.7431C259.477 35.1751 258.766 35.2591 258.122 35.0986C258.009 35.2517 257.895 35.4047 257.787 35.5602C258.719 36.3181 259.56 37.1822 260.283 38.14C262.459 37.8142 264.647 37.6611 266.836 37.6562C269.51 36.3453 272.712 36.3724 275.586 36.8637C277.436 37.1797 279.213 37.7944 281.033 38.2363C282.953 38.7004 284.901 38.7177 286.843 39.0337C289.29 39.4312 291.437 40.5618 292.786 42.3665C294.269 42.4109 295.828 43.0182 297.12 43.8427C300.13 45.7634 303.123 47.7112 306.125 49.6442C307.277 50.3863 307.708 51.571 307.496 52.8924L307.482 52.9769L307.381 53.525L307.618 53.8623C308.537 55.1607 309.537 56.5207 310.131 57.9538C311.232 59.5412 312.226 61.2051 313.107 62.9209C314.293 65.2266 315.273 67.6707 315.936 70.1789C316.102 70.8133 316.267 71.4527 316.375 72.0995C316.531 73.0129 316.291 73.7215 316.161 74.5978C315.998 75.7088 315.939 76.8345 315.766 77.9479C315.65 78.686 315.023 79.0489 314.367 79.0687C314.614 80.9473 314.792 82.8384 314.962 84.7146C315.201 87.3956 315.364 90.084 315.505 92.7724C316.23 93.8266 317.712 94.661 318.783 94.9498C320.266 95.3473 321.82 94.9153 323.221 94.4092C324.102 94.0907 324.825 95.1992 324.396 95.9398C323.046 98.2653 320.16 98.2554 317.974 97.226C317.049 96.7915 316.237 96.162 315.635 95.3424C315.672 96.1225 315.712 96.9026 315.751 97.6852L315.788 98.394C316.232 106.672 317.192 115.235 315.638 123.431C312.946 137.629 301.205 148.439 286.863 149.279C279.336 149.719 273.069 147.495 269.952 146.254C266.836 145.013 268.047 142.482 270.211 143.206C273.938 144.452 280.785 146.308 286.912 145.506C301.354 143.617 313.6 136.394 312.342 105.284C312.163 100.872 311.614 96.4582 311.496 92.0466C311.382 87.7338 311.424 83.4185 311.234 79.1082L311.171 77.6375C311.097 75.9191 311.017 74.1927 310.889 72.4723C310.733 71.8057 310.605 71.1293 310.415 70.4751C309.899 68.6952 309.226 66.9646 308.39 65.3131C308.205 65.4538 307.997 65.555 307.773 65.5945C306.068 65.9006 304.47 65.8142 302.873 65.1032C302.128 64.7749 301.472 64.3379 300.86 63.7973C300.569 63.543 300.374 63.2961 300.221 63.0394C299.449 63.0517 298.677 62.8197 298.194 62.2642C297.642 61.6311 297.55 60.9772 297.766 60.3718L297.789 60.3115L297.735 60.2917C297.083 61.9778 295.786 63.4615 294.362 64.4638C292.112 66.0537 289.298 66.5128 286.599 66.5548C283.619 66.5992 280.476 66.1401 277.535 65.671C276.758 65.5476 275.986 65.4069 275.228 65.2168C275.199 65.2464 275.169 65.281 275.137 65.3106C272.613 67.7274 269.063 68.3496 265.861 66.9696C264.011 66.1722 262.459 64.8884 261.088 63.4171C261.068 64.1873 261.028 64.9576 260.962 65.7204L260.934 66.0233C260.798 67.444 260.535 68.9511 259.462 69.9764C257.728 71.6379 255.211 70.9713 253.21 69.89C253.213 69.9419 253.213 69.9962 253.213 70.0505C253.753 71.8872 254.296 73.7264 254.839 75.5656L254.956 75.9574C255.35 77.2633 255.783 78.5709 255.902 79.9377C256.129 82.5495 254.392 85.1293 251.491 84.2529C249.969 83.7949 248.75 82.5145 247.58 81.4889L246.843 80.8511C248.75 87.0895 250.072 93.5501 250.196 100.06C250.203 100.413 249.9 100.68 249.564 100.692C248.78 100.724 247.936 100.569 247.147 100.255C247.102 100.253 247.058 100.25 247.011 100.243C245.664 100.048 244.413 99.5614 243.31 98.843C243.564 99.6502 243.678 100.517 243.611 101.423C243.594 101.642 243.251 101.719 243.202 101.477C242.565 98.3443 238.902 95.9768 235.744 96.5767C232.354 97.221 229.858 100.139 229.246 103.459C228.59 107.027 229.846 111.152 232.172 113.905C233.243 115.173 234.651 116.233 236.324 116.499C237.089 116.62 237.883 116.578 238.626 116.361C238.941 116.267 239.237 116.136 239.538 116.013C239.977 115.835 240.491 115.808 240.905 115.62C241.845 115.198 242.79 116.065 242.314 117.03C241.899 117.872 241.527 118.44 240.838 118.874C241.396 119.555 241.902 120.503 242.089 120.758C243.046 122.051 244.018 123.273 245.109 124.456C246.219 125.656 247.43 126.752 248.711 127.766L249.249 128.192C250.482 129.171 251.556 130.078 252.426 131.482C253.112 132.59 252.224 134.094 250.938 134.076C246.917 134.02 243.994 130.484 241.912 127.396C241.616 126.954 241.337 126.488 241.078 126.009C240.984 126.159 240.88 126.3 240.764 126.428L240.994 127.045C241.675 128.862 238.742 130.05 237.89 128.354C237.271 127.124 236.553 125.954 235.754 124.848C235.283 124.782 234.821 124.495 234.565 124.125C233.916 123.184 233.188 122.234 232.574 121.232C232.234 120.908 231.883 120.597 231.526 120.294C231.422 120.385 231.316 120.476 231.215 120.572C230.766 121.597 230.211 122.533 229.522 123.414L229.375 123.602C228.056 125.265 226.339 126.967 224.213 127.374C223.565 127.497 222.94 126.69 223.515 126.174C225.003 124.836 226.762 123.925 228.133 122.431C228.809 121.696 229.43 120.885 229.963 120.036L230.085 119.839C230.174 119.694 230.265 119.548 230.359 119.4C229.739 118.978 229.12 118.553 228.501 118.128C226.796 119.586 224.577 120.252 222.691 121.46L222.504 121.582C220.799 122.723 219.003 120.2 220.37 118.815C221.876 117.294 223.134 115.48 224.469 113.789C223.841 112.633 223.544 111.265 223.433 109.882C223.389 109.491 223.355 109.099 223.32 108.708C222.363 108.723 221.401 108.394 220.587 107.829L220.279 107.609C219.289 107.925 218.251 108.078 217.256 108.051C214.918 107.982 213.961 105.309 215.424 103.617C216.916 101.889 219.529 101.512 221.598 102.351C221.665 102.316 221.734 102.279 221.801 102.242C221.702 101.788 221.724 101.376 221.836 101.014L221.804 100.793C221.348 100.095 221.049 99.2967 220.936 98.4537C220.846 97.7859 220.864 97.124 221.019 96.4646C221.07 96.2452 221.177 96.0178 221.258 95.7889C221.09 95.3638 220.991 94.9244 220.961 94.4825C220.914 94.4265 220.867 94.3689 220.822 94.3067C219.795 92.8638 220.003 91.1251 220.98 89.9574C220.985 89.8831 220.992 89.8088 221.002 89.7349C220.944 89.6061 220.892 89.476 220.844 89.3444C219.889 88.3804 219.188 87.2203 219.319 85.7828C219.395 84.937 219.743 84.1757 220.268 83.6066C220.175 83.3306 220.166 83.0109 220.279 82.7441C219.44 80.5109 219.546 77.8212 220.15 75.3236C220.017 74.9435 219.948 74.5312 219.963 74.0942C220.032 72.2402 221.635 70.5368 223.535 70.559C223.764 70.561 223.978 70.5909 224.184 70.6346L224.186 70.5904C224.259 70.034 224.412 69.5197 224.635 69.0583C224.525 69.0186 224.424 68.9615 224.335 68.8858C223.118 69.5355 221.83 70.0322 220.479 70.3707C219.486 70.6195 218.469 69.4901 219.086 68.5574C219.373 68.1247 219.689 67.7361 220.029 67.3811C219.545 67.3838 219.054 67.4166 218.557 67.4806C217.664 67.5966 216.667 66.9868 216.087 66.1623C215.367 66.8634 214.644 67.562 213.921 68.2607C212.091 70.0357 209.325 68.7297 209.036 66.3894C208.491 66.2438 207.983 65.9969 207.537 65.6439C204.65 66.898 201.544 67.5867 198.369 67.7176C196.09 67.8114 194.757 65.1551 195.823 63.2788C196.539 62.0198 197.427 60.8891 198.451 59.9066C196.862 60.3929 195.221 60.7435 193.546 60.9681C192.641 61.0891 191.36 60.3386 190.998 59.5067C189.611 56.3072 189.73 52.972 191.326 49.859C191.388 49.7355 191.457 49.617 191.523 49.4985C191.689 49.0863 191.869 48.6789 192.064 48.279C190.1 46.23 189.93 43.1836 190.988 40.6334C190.564 39.9447 190.401 39.1152 190.689 38.3647C191.511 36.2046 192.695 34.2099 194.19 32.4966C194.047 32.2201 193.921 31.9263 193.815 31.6103C192.974 29.0552 193.948 25.9718 195.915 24.1919C197.15 23.0711 198.571 22.3996 200.089 21.97C200.728 20.8394 201.549 19.8198 202.506 18.9607C202.543 18.8792 202.58 18.7978 202.622 18.7163C204.112 15.9069 206.826 14.401 209.735 14.0529C209.848 12.9543 210.588 11.9051 211.664 11.5645C211.96 10.614 212.401 9.70552 213.008 8.88097C213.963 7.58243 215.549 6.9702 217.044 7.8219C217.863 8.28848 218.648 8.82419 219.383 9.41668C219.713 9.26172 220.088 9.16146 220.51 9.12947L220.617 9.1229L223.049 8.99947C224.068 8.5477 225.084 8.07371 226.103 7.61206C226.715 7.10598 227.398 6.68383 228.143 6.3703C228.987 6.01728 229.85 5.81731 230.716 5.75066C231.419 5.52107 232.128 5.31863 232.848 5.16064C234.54 4.79033 236.312 4.58296 238.068 4.60024C238.104 4.1453 238.122 3.68491 238.118 3.21908L238.115 2.98571C238.075 1.49214 239.267 0.299761 240.671 0.0874529ZM238.966 119.585C238.724 119.637 238.48 119.679 238.236 119.708C238.31 119.891 238.384 120.074 238.455 120.256C238.653 120.368 238.853 120.474 239.052 120.572C238.993 120.237 238.959 119.899 238.966 119.585ZM226.291 115.816L226.127 116.118C226.101 116.168 226.075 116.217 226.049 116.265C226.397 116.237 226.747 116.245 227.092 116.284L227.091 116.248C227.047 116.233 227.003 116.219 226.96 116.198C226.722 116.083 226.5 115.955 226.291 115.816ZM233.141 102.028C235.324 102.155 237.173 102.49 239.158 103.445L239.329 103.529C241.083 104.4 243.984 106.01 243.74 108.318C243.671 108.975 243.194 109.666 242.444 109.614C240.389 109.473 239.215 107.4 237.824 106.106C236.42 104.802 234.696 103.462 232.996 102.566C232.756 102.44 232.85 102.04 233.112 102.027L233.141 102.028ZM223.244 71.6156C222.721 71.6329 222.896 72.1415 223.165 71.7169C223.187 71.6823 223.214 71.6477 223.244 71.6156ZM251.475 37.6656C246.522 37.7959 241.537 40.7226 237.826 43.6808C234.598 46.2544 231.811 49.3156 229.343 52.615C228.708 54.2582 228.162 55.9357 227.702 57.6255C227.398 58.7414 227.208 59.8696 226.954 60.9953L226.875 61.3404C226.676 61.7137 226.527 62.1153 226.419 62.5303C226.869 62.9816 227.453 63.3048 228.095 63.4581C228.302 63.5074 228.474 63.6143 228.61 63.756C229.127 62.8925 229.579 61.981 229.842 61.0148L229.851 60.9701C230.845 59.341 231.925 57.7625 233.082 56.2381C236.275 52.029 239.79 48.1926 244.016 45.0006C247.221 42.5812 250.803 40.6853 254.612 39.4534C253.679 38.7007 252.621 38.1052 251.475 37.6656Z" fill="#02040F"/>
<path fill-rule="evenodd" clip-rule="evenodd" d="M296.128 129.206C294.311 129.733 292.36 129.78 290.508 129.236C288.827 128.742 287.102 127.656 285.865 126.22C284.767 124.943 284.055 123.392 284.083 121.736C284.087 121.547 284.154 121.389 284.258 121.267C284.37 121.135 284.526 121.044 284.694 121.005C284.866 120.964 285.048 120.979 285.203 121.049C285.343 121.113 285.463 121.221 285.539 121.38C285.729 121.63 285.918 121.876 286.108 122.115C287.636 124.003 289.116 125.414 291.414 125.92C292.66 126.195 293.905 126.073 295.048 125.654C296.271 125.206 297.376 124.417 298.243 123.408C298.634 122.951 299.096 122.765 299.548 122.762C300.06 122.759 300.567 122.997 300.948 123.377C301.323 123.752 301.574 124.26 301.597 124.792C301.617 125.259 301.464 125.746 301.06 126.181C299.726 127.614 297.998 128.664 296.128 129.206ZM296.072 105.558C297.935 106.691 300.773 109.333 298.769 112.142C296.41 114.619 293.014 111.779 291.34 110.495C289.788 109.5 288.045 112.06 289.484 113.222C301.579 122.182 306.487 105.854 297.014 104.226C295.971 104.046 295.584 105.207 296.072 105.558ZM278.645 100.572C278.046 100.189 277.342 100.057 276.562 100.412C275.952 100.69 274.882 101.615 274.137 102.832C273.628 103.664 273.266 104.641 273.342 105.658C273.359 105.894 273.272 106.068 273.134 106.197C273.026 106.298 272.869 106.373 272.684 106.396C272.528 106.416 272.353 106.398 272.21 106.354C271.939 106.269 271.796 106.093 271.742 105.95C271.221 104.564 271.445 103.018 272.03 101.623C272.818 99.741 274.25 98.1642 275.188 97.6559C276.794 96.7856 278.688 96.7456 280.295 97.6321C281.664 98.3867 282.52 99.6049 283.371 100.847C283.552 101.111 283.731 101.373 283.917 101.63C284.289 102.146 284.326 102.657 284.182 103.096C284.022 103.582 283.615 103.992 283.107 104.207C282.636 104.405 282.091 104.433 281.608 104.229C281.2 104.057 280.825 103.722 280.588 103.152C280.189 102.193 279.525 101.135 278.645 100.572ZM309.055 102.706C308.645 102.92 308.324 102.984 307.869 102.848C307.618 102.772 307.369 102.627 307.174 102.432C306.981 102.239 306.842 101.999 306.788 101.733C306.655 101.076 306.296 100.461 305.784 100.059C305.346 99.7166 304.793 99.5349 304.181 99.6374C303.519 99.7479 302.889 100.172 302.455 100.673C302.31 100.84 302.197 101.03 302.082 101.219C301.869 101.572 301.661 101.901 301.366 102.16C301.254 102.259 301.086 102.327 300.923 102.327C300.856 102.327 300.789 102.316 300.725 102.296C300.067 101.635 299.94 101.134 299.961 100.636C299.984 100.115 300.189 99.5866 300.521 99.0939C301.3 97.938 302.779 96.9904 303.777 96.7757C305.144 96.4818 306.502 96.8346 307.59 97.5986C308.71 98.3846 309.54 99.605 309.798 100.98C309.86 101.312 309.834 101.669 309.708 101.979C309.585 102.282 309.37 102.541 309.055 102.706ZM281.66 88.2486C280.839 89.0484 279.869 89.1723 278.886 89.2824C278.341 89.3442 277.905 89.394 277.476 89.4908C276.298 89.757 275.133 90.1579 274.071 90.7352C272.96 91.3388 271.749 92.0666 270.878 92.9991C270.671 93.221 270.476 93.4538 270.281 93.6872C270.102 93.8999 269.931 94.1048 269.75 94.3023C269.542 94.5291 269.345 94.7669 269.148 95.004C269.027 95.2041 269.003 95.2534 268.978 95.3046C268.942 95.3816 268.899 95.4677 268.85 95.5602C268.783 95.6867 268.705 95.8253 268.623 95.9509C268.486 96.1806 268.413 96.2438 268.349 96.2721C268.244 96.319 268.145 96.342 268.048 96.3295C267.957 96.3178 267.872 96.2742 267.787 96.2029C267.366 95.8468 267.242 95.2625 267.255 94.6422C267.274 93.701 267.621 92.6588 267.941 92.0182C268.684 90.5297 269.716 88.9822 270.956 87.8712C272.371 86.6031 273.919 85.643 275.697 84.9814C276.802 84.5702 278.082 84.1927 279.286 84.2404C280.152 84.2747 280.98 84.5325 281.663 85.1762C282.082 85.5714 282.284 86.1334 282.284 86.6951C282.284 87.268 282.075 87.8443 281.66 88.2486ZM310.723 95.572C310.671 95.6576 310.599 95.7165 310.518 95.752C310.434 95.7891 310.34 95.7998 310.25 95.7846C310.16 95.7694 310.075 95.7287 310.007 95.6664C309.942 95.6067 309.892 95.5275 309.87 95.4306C309.326 93.037 308.268 91.2562 306.011 90.1078C304.901 89.5429 303.624 89.184 302.416 88.8978C302.065 88.8146 301.693 88.7607 301.32 88.7061C300.148 88.535 298.969 88.339 298.205 87.3916C297.745 86.8209 297.552 86.091 297.661 85.4235C297.764 84.795 298.131 84.2188 298.798 83.8734C300.459 83.0141 302.523 83.8573 304.2 84.5756C304.325 84.6289 304.447 84.6812 304.566 84.7317C306.206 85.4245 307.702 86.339 308.932 87.6469C309.908 88.6845 310.812 90.2183 311.176 91.7962C311.479 93.109 311.408 94.4491 310.723 95.572Z" fill="#02040F"/>
<path fill-rule="evenodd" clip-rule="evenodd" d="M17.2492 279.478C17.8961 279.155 18.5703 278.785 19.3089 278.759C20.5775 278.715 20.5792 276.74 19.3089 276.784C18.201 276.823 17.228 277.285 16.2531 277.772C15.1155 278.341 16.1161 280.044 17.2492 279.478ZM19.3089 223.887C18.4433 223.888 17.5707 223.997 16.9058 224.603C16.5106 224.963 16.542 225.635 16.9058 225.999C17.2954 226.389 17.9077 226.358 18.3017 225.999C18.1731 226.116 18.3004 226 18.3471 225.974C18.3582 225.969 18.3643 225.964 18.3673 225.962C18.3772 225.959 18.387 225.957 18.4031 225.953C18.5062 225.927 18.6081 225.902 18.7124 225.883C18.7141 225.888 18.9327 225.868 18.984 225.866C19.0926 225.862 19.2006 225.862 19.3089 225.862C19.8443 225.862 20.2957 225.41 20.2957 224.874C20.2957 224.341 19.8423 223.887 19.3089 223.887ZM28.5885 246.04C28.8712 247.281 30.7735 246.752 30.4916 245.515C30.0816 243.716 30.1563 241.873 30.4916 240.068C30.7225 238.823 28.8202 238.295 28.5885 239.543C28.1864 241.708 28.0964 243.881 28.5885 246.04ZM31.0812 175.062C32.551 174.713 34.0048 174.672 35.5082 174.671C36.7802 174.671 36.7782 172.696 35.5082 172.696C33.8314 172.697 32.1945 172.769 30.5565 173.158C29.3195 173.452 29.8465 175.356 31.0812 175.062ZM36.0063 223.168C36.8586 222.741 37.7115 222.314 38.5638 221.888C39.7016 221.319 38.7007 219.616 37.5679 220.182L35.0101 221.462C33.8728 222.031 34.8734 223.734 36.0063 223.168ZM36.3613 262.06C37.4426 263.62 38.963 264.589 40.7876 265.073C42.0186 265.4 42.5392 263.494 41.3123 263.169C40.0075 262.823 38.8483 262.192 38.0655 261.063C37.3459 260.025 35.6357 261.013 36.3613 262.06ZM43.1808 192.525C43.4734 191.978 43.9137 191.747 44.4604 191.735C45.7304 191.706 45.7307 189.731 44.4604 189.76C43.2146 189.788 42.0721 190.414 41.4768 191.529C40.8776 192.65 42.582 193.647 43.1808 192.525ZM55.6988 205.95C56.0526 206.335 56.7387 206.326 57.0944 205.95C57.3122 205.72 57.4953 205.463 57.6394 205.181C57.6941 205.074 57.7457 204.965 57.8059 204.861C57.8328 204.815 57.8626 204.769 57.8932 204.725C57.9036 204.715 57.925 204.693 57.9472 204.67C58.3264 204.269 58.3168 203.676 57.9472 203.273C57.5932 202.888 56.9072 202.897 56.5514 203.273C56.3338 203.503 56.1505 203.76 56.0067 204.042C55.9519 204.149 55.9004 204.258 55.8399 204.362C55.813 204.408 55.7832 204.454 55.7526 204.498C55.7422 204.507 55.721 204.53 55.6988 204.553C55.3194 204.954 55.329 205.546 55.6988 205.95ZM56.7513 235.112C58.0365 235.701 59.4462 235.701 60.7315 235.112C61.2182 234.889 61.3337 234.186 61.0853 233.761C60.7976 233.269 60.2196 233.185 59.7353 233.407C59.1524 233.674 58.3294 233.673 57.7472 233.407C57.2607 233.184 56.6883 233.263 56.3972 233.761C56.1473 234.189 56.2665 234.89 56.7513 235.112ZM60.2571 255.754C60.4779 256.277 60.9547 256.555 61.5123 256.576C62.0647 256.597 62.4759 256.107 62.4991 255.589C62.5139 255.254 62.3331 254.968 62.0733 254.791C62.073 254.773 62.0726 254.754 62.0726 254.736C62.0723 254.182 61.6206 253.772 61.0858 253.748C60.5531 253.724 60.0987 254.219 60.099 254.736C60.0992 255.084 60.1207 255.43 60.2571 255.754ZM65.349 288.571C66.9239 288.596 68.4628 288.972 70.038 288.997C71.3107 289.018 71.3068 287.043 70.038 287.023C68.4631 286.997 66.9241 286.621 65.349 286.596C64.0762 286.575 64.0802 288.55 65.349 288.571ZM71.8983 162.011C72.8203 162.889 73.959 163.323 75.082 163.872C76.2198 164.428 77.2192 162.724 76.0782 162.166C75.1269 161.701 74.0737 161.357 73.2937 160.614C72.3735 159.737 70.9764 161.132 71.8983 162.011ZM74.373 184.775C75.0198 184.451 75.6941 184.082 76.4324 184.056C77.7012 184.012 77.7029 182.037 76.4324 182.081C75.3248 182.12 74.3518 182.582 73.3768 183.069C72.2388 183.637 73.2396 185.34 74.373 184.775ZM86.237 276.137C86.5291 275.59 86.9695 275.359 87.5162 275.347C88.7864 275.318 88.7869 273.343 87.5162 273.372C86.2703 273.4 85.1279 274.026 84.5326 275.14C83.9336 276.262 85.6378 277.259 86.237 276.137ZM90.3456 233.251C90.7383 232.891 90.7109 232.221 90.3456 231.855C89.9193 231.428 89.493 231.002 89.0664 230.575C88.6766 230.185 88.0651 230.213 87.6711 230.575C87.2783 230.936 87.3057 231.606 87.6711 231.972C88.0976 232.398 88.5237 232.825 88.95 233.251C89.3402 233.642 89.9516 233.613 90.3456 233.251ZM95.1897 300.089C96.6134 300.056 97.9481 299.647 99.2887 299.2C100.49 298.8 99.9718 296.894 98.7639 297.296C97.5988 297.684 96.4284 298.085 95.1897 298.114C93.9195 298.143 93.919 300.118 95.1897 300.089ZM101.584 257.856C102.87 257.82 103.937 257.165 104.84 256.287C105.752 255.399 104.355 254.004 103.444 254.891C102.928 255.393 102.332 255.861 101.584 255.881C100.314 255.917 100.313 257.892 101.584 257.856ZM97.6133 203.545C97.5978 204.071 97.3757 204.634 97.0496 204.98C96.1775 205.904 97.5714 207.302 98.4452 206.376C99.166 205.612 99.5566 204.59 99.5869 203.545C99.6234 202.271 97.6496 202.277 97.6133 203.545ZM112.667 160.531C113.08 159.722 113.621 158.773 114.445 158.326C115.563 157.719 114.565 156.014 113.448 156.62C112.329 157.228 111.529 158.426 110.963 159.534C110.386 160.665 112.089 161.663 112.667 160.531ZM115.225 181.07C115.683 181.057 116.138 180.978 116.579 180.859C116.768 180.807 116.955 180.748 117.144 180.697C117.224 180.675 117.568 180.632 117.357 180.643C117.891 180.615 118.344 180.214 118.344 179.656C118.344 179.143 117.89 178.64 117.357 178.668C116.624 178.708 115.958 179.074 115.225 179.095C113.956 179.131 113.955 181.106 115.225 181.07ZM121.62 212.638H123.751C125.023 212.638 125.021 210.663 123.751 210.663H121.62C120.348 210.663 120.35 212.638 121.62 212.638ZM124.106 299.954C124.752 300.277 125.514 300.584 126.038 301.079C126.961 301.953 128.358 300.558 127.433 299.683C126.767 299.052 125.914 298.655 125.102 298.249C124.624 298.009 124.036 298.117 123.752 298.603C123.496 299.042 123.63 299.715 124.106 299.954ZM128.869 275C128.951 274.977 129.039 274.961 129.122 274.95C129.458 274.904 129.809 274.92 130.146 274.92C131.418 274.919 131.416 272.944 130.146 272.945C129.145 272.945 128.103 272.96 127.316 273.661C126.917 274.017 126.956 274.696 127.316 275.057C127.709 275.45 128.314 275.412 128.712 275.057C128.67 275.095 128.814 275.016 128.869 275ZM130.145 241.44C129.859 240.848 129.854 240.463 129.854 239.805C129.853 238.532 127.879 238.534 127.88 239.805C127.881 240.76 128.022 241.572 128.441 242.437C128.675 242.918 129.359 243.044 129.791 242.791C130.276 242.507 130.377 241.919 130.145 241.44ZM135.852 195.112C136.996 195.502 138.018 196.053 139.026 196.719C140.09 197.422 141.078 195.711 140.022 195.014C138.872 194.254 137.682 193.652 136.376 193.208C135.169 192.797 134.656 194.705 135.852 195.112ZM142.508 161.873C143.359 161.897 144.237 162.223 144.994 162.592C146.133 163.145 147.133 161.442 145.99 160.886C144.908 160.36 143.723 159.932 142.508 159.898C141.236 159.863 141.241 161.838 142.508 161.873ZM145.492 250.604C145.827 250.619 146.113 250.438 146.29 250.178C146.309 250.178 146.327 250.178 146.345 250.178C146.898 250.177 147.308 249.725 147.332 249.19C147.356 248.657 146.861 248.202 146.345 248.203C145.997 248.203 145.651 248.224 145.327 248.361C144.805 248.582 144.527 249.059 144.506 249.617C144.485 250.17 144.975 250.581 145.492 250.604ZM150.346 182.314C151.558 182.711 152.072 180.803 150.871 180.41C149.46 179.949 148.018 179.591 146.607 179.13C145.395 178.734 144.881 180.642 146.083 181.035C147.493 181.496 148.935 181.853 150.346 182.314ZM154.772 219.591C155.148 220.804 157.052 220.283 156.675 219.066C156.311 217.892 156.285 216.71 156.284 215.489C156.283 214.217 154.31 214.219 154.311 215.489C154.311 216.878 154.358 218.255 154.772 219.591ZM167.967 264.239C168.039 264.731 168.429 265.085 168.939 265.108C169.458 265.132 169.944 264.638 169.926 264.121C169.889 263.127 169.079 262.316 168.086 262.28C167.534 262.26 167.123 262.749 167.099 263.268C167.077 263.772 167.498 264.166 167.967 264.239ZM174.645 207.483C175.688 207.832 176.802 208.163 177.619 208.936C178.543 209.808 179.941 208.414 179.015 207.539C177.937 206.521 176.55 206.04 175.169 205.579C173.96 205.175 173.446 207.083 174.645 207.483ZM179.17 245.849C179.457 246.34 180.038 246.428 180.52 246.204C181.168 245.902 181.882 245.912 182.58 245.912C183.852 245.911 183.85 243.936 182.58 243.937C181.504 243.938 180.51 244.039 179.524 244.498C179.039 244.724 178.921 245.422 179.17 245.849ZM181.728 292.41C182.28 292.43 182.691 291.941 182.715 291.423C182.737 290.918 182.317 290.525 181.847 290.451C181.775 289.959 181.385 289.605 180.875 289.582C180.356 289.559 179.869 290.053 179.888 290.57C179.925 291.564 180.734 292.374 181.728 292.41ZM1.92676 299.878C2.26201 298.67 3.02924 297.695 3.60899 296.609C3.80339 296.243 3.87099 296.015 3.97632 295.747C4.11942 296.034 4.39719 296.249 4.81485 296.25C5.61613 296.25 6.55334 296.198 7.30109 296.541C7.78734 296.764 8.36017 296.685 8.65103 296.187C8.90094 295.759 8.78152 295.058 8.29701 294.836C7.19501 294.331 6.01036 294.275 4.81485 294.274C4.51956 294.274 4.29605 294.383 4.13817 294.547C3.68127 288.286 3.69261 282.021 4.12483 275.756C4.58592 269.061 5.64697 262.499 6.75711 255.89C7.29468 252.686 7.99283 249.449 7.85715 246.186C7.72147 242.944 6.33255 239.923 7.31688 236.671C7.71161 235.368 8.38756 234.173 8.82669 232.884C9.29788 231.497 9.25594 230.127 9.04132 228.69C8.59972 225.765 7.86726 222.874 9.03908 220.018C9.5569 218.751 10.3959 217.62 10.8003 216.312C11.3035 214.685 11.2345 212.885 11.3183 211.199C11.4886 207.797 11.533 204.373 11.8145 200.979C11.94 199.458 12.2139 198.016 12.838 196.622C13.4377 195.279 14.3281 194.057 14.7253 192.632C15.12 191.23 15.1545 189.751 15.3667 188.317C15.5887 186.801 15.9366 185.308 16.4053 183.851C18.2161 178.212 21.5342 173.147 25.4542 168.755C29.621 164.087 34.6018 160.571 39.8886 157.295C42.6687 155.573 45.4485 153.85 48.2265 152.127C48.2858 152.45 48.4918 152.747 48.8872 152.88C49.9305 153.228 51.0444 153.56 51.8622 154.332C52.7858 155.204 54.1834 153.81 53.2578 152.936C52.2922 152.023 51.0787 151.543 49.8437 151.121C51.1095 150.323 52.3889 149.496 53.8173 149.035C55.0683 148.63 56.9133 148.983 57.9275 148.065C58.7241 147.341 58.976 146.001 59.2816 145.018C59.664 143.799 59.9946 142.513 60.4806 141.328C60.8112 140.518 61.2923 139.74 61.8991 139.113C62.1656 138.086 62.6543 137.148 63.5177 136.578C65.7773 135.082 68.5526 136.568 69.5468 138.701C70.3683 138.698 71.2342 138.879 72.0335 138.928C73.6766 139.032 75.322 139.079 76.9675 139.074C80.187 139.064 83.4089 138.854 86.6012 138.427C92.3098 137.662 97.8482 136.119 103.461 134.916C103.493 134.842 103.53 134.768 103.574 134.694C104.783 132.665 107.795 133.008 109.692 133.776C110.506 134.104 111.335 134.519 111.801 135.289C112.295 135.622 112.722 136.027 113.005 136.454C113.593 137.336 114.046 139.113 115.238 139.261C116.023 139.358 116.819 139.207 117.616 139.321C118.613 139.459 119.506 139.809 120.426 140.209C127.432 143.253 134.675 146.638 142.279 147.818C144.062 148.094 145.878 148.381 147.427 149.381C148.686 150.193 149.658 151.309 150.696 152.368C151.708 153.4 152.541 153.856 153.985 154.041C155.736 154.266 157.253 154.75 158.534 156.024C159.597 157.083 160.29 158.436 161.124 159.665C161.973 160.919 163.219 161.625 164.511 162.354C167.568 164.077 170.415 166.158 172.894 168.654C178.117 173.917 181.279 180.681 184.467 187.273C187.913 194.402 191.135 201.618 193.37 209.232C195.561 216.707 196.863 224.397 197.465 232.159C198.099 240.303 198.188 248.479 198.716 256.628C198.98 260.699 199.18 264.775 199.382 268.848C199.58 272.872 199.868 276.904 199.822 280.933C199.733 288.722 198.176 296.535 195.455 303.828C194.776 305.642 194.024 307.432 193.222 309.194C192.519 310.742 190.114 310.57 189.359 309.194C189.186 308.878 189.05 308.553 188.937 308.222C186.963 308.239 184.97 308.086 183.009 308.269C179.545 308.592 176.074 308.772 172.601 308.987C165.728 309.414 158.842 309.698 151.967 310.091C151.3 310.129 150.632 310.167 149.966 310.207C154.865 295.031 154.23 278.624 155.005 262.841C155.068 261.569 153.094 261.576 153.032 262.841C152.253 278.692 152.916 295.14 147.843 310.341C145.875 310.474 143.909 310.637 141.951 310.876C140.367 311.066 138.776 311.29 137.177 311.211C135.364 311.125 133.592 310.71 131.824 310.35C128.609 309.696 125.513 309.992 122.286 310.394C118.835 310.826 115.371 311.066 111.898 311.216C97.9888 311.826 83.9861 312.382 70.0822 311.451C66.7172 311.226 63.3596 310.91 60.0168 310.481C56.5729 310.039 53.166 309.296 49.7248 308.874C46.3327 308.459 43.2141 309.597 39.8615 309.807C36.4425 310.021 32.9317 309.308 29.5445 308.898C28.4395 308.764 27.3333 308.634 26.2269 308.504C27.6513 298.735 28.4612 288.891 29.248 279.052C29.3493 277.782 27.375 277.793 27.2744 279.052C26.494 288.814 25.7021 298.584 24.2799 308.277C18.4146 307.594 12.5437 306.904 6.73961 305.839C5.08672 305.538 3.4437 305.047 2.45444 303.571C1.72198 302.477 1.57373 301.137 1.92676 299.878Z" fill="#02040F"/>
<path fill-rule="evenodd" clip-rule="evenodd" d="M69.2526 104.206C69.8944 100.367 69.7488 92.2641 69.7364 91.7716C69.658 88.6584 71.752 76.4908 74.4383 77.7628C79.2349 74.3572 85.4111 73.8733 91.167 73.7892C103.123 73.6144 115.701 76.1133 124.481 84.616C128.812 89.0196 132.924 95.3098 132.237 101.599C136.058 107.795 141.455 116.302 135.939 123.022C134.071 125.163 131.245 125.849 128.957 127.425C124.346 130.762 121.302 135.739 116.651 139.053C104.263 149.068 84.0571 150.237 73.0671 137.531C64.5377 128.3 66.678 115.27 68.8443 104.184C70.3008 96.7317 68.0005 111.696 69.2526 104.206Z" fill="white"/>
<path fill-rule="evenodd" clip-rule="evenodd" d="M107.941 58.2449C104.788 57.4347 101.537 56.863 98.2769 56.8129L98.0255 56.8095C95.5721 56.7791 92.4602 56.8331 90.2498 58.1453C90.1334 58.0156 89.9391 57.9419 89.7554 58.0181C87.1539 59.0969 84.3164 59.8268 81.5984 60.5574C78.8929 61.2843 76.1032 61.7116 73.303 61.796C72.2495 61.8279 71.2924 62.9138 71.9033 63.9649C72.0486 64.2153 72.1897 64.468 72.3302 64.7213C72.0752 64.6811 71.8203 64.6401 71.5652 64.6007C70.7261 64.4716 69.836 65.3281 69.843 66.1524C69.8471 66.6708 69.8761 67.1844 69.9321 67.6933C69.6112 67.6697 69.2892 67.7011 68.9737 67.8154C67.3764 68.3937 67.3876 70.2614 67.4303 71.6842C67.4894 73.6586 68.1153 75.7794 69.4029 77.3223C68.3285 78.3276 67.5408 79.5541 67.0319 81.0332C66.6623 82.1133 66.4274 83.2722 66.4533 84.4181L66.4627 84.7613C66.5038 86.0055 66.6427 87.3879 67.4868 88.3256C67.92 88.809 68.4746 89.006 69.0144 88.981C68.54 91.8186 68.1814 94.6785 67.8355 97.5289L67.672 98.8914C66.8883 105.48 66.2111 112.117 65.9499 118.744C65.7054 124.938 66.6131 131.009 70.1443 136.233C73.3605 140.99 78.1457 144.623 83.6918 146.2C86.6806 147.05 89.7664 147.261 92.8514 146.981C94.3468 146.844 95.858 146.593 97.2938 146.149C98.8832 145.655 100.048 144.866 101.164 143.651C101.692 143.074 101.52 141.78 100.526 141.848C99.0218 141.951 97.6461 142.098 96.1902 142.465L95.9816 142.519C94.5306 142.902 93.0349 143.165 91.5354 143.232C88.464 143.368 85.3772 142.907 82.4985 141.827C77.8114 140.066 73.883 136.484 71.4736 132.115C68.6134 126.937 68.5586 121.226 68.9059 115.462C69.2858 109.137 69.8233 102.816 70.4904 96.5131L70.6028 95.4627C70.9509 92.2193 71.2929 88.9735 71.6143 85.7266C71.7148 84.7082 71.8402 83.6828 72.0224 82.6707C73.2361 82.0422 74.3413 81.146 75.0907 80.008C76.4426 80.6521 77.8744 81.1407 79.1943 81.5396C82.2517 82.4639 85.4578 82.8174 88.6354 82.5055C89.4674 82.9015 90.3185 83.2558 91.1851 83.5678C91.4176 83.6859 91.6502 83.8021 91.8827 83.9162C93.9581 84.9361 96.0712 85.8188 98.2828 86.4998L98.8261 86.666C99.9903 87.0186 101.256 87.3722 102.507 87.5279C102.709 87.6183 102.928 87.6973 103.168 87.7693C104.296 88.1069 105.478 88.2569 106.654 88.2202C107.8 88.1841 108.686 87.0736 108.113 85.9605C107.695 85.1483 107.273 84.3379 106.847 83.5293C108.438 84.2925 110.088 84.9441 111.758 85.5107C113.443 86.0822 115.157 86.5795 116.874 87.0442C117.793 87.2909 118.716 87.5154 119.632 87.762C120.288 87.9377 121.303 88.0646 121.821 88.5299C122.394 89.041 122.505 90.1689 122.696 90.8709C122.947 91.7829 123.179 92.698 123.386 93.6221C123.799 95.466 124.119 97.3316 124.344 99.2107C124.569 101.092 124.687 102.986 124.708 104.881C124.73 106.774 124.577 108.67 124.672 110.559C124.724 111.561 125.767 112.129 126.593 111.474C126.69 111.398 126.788 111.32 126.885 111.241L127.029 111.122C127.737 110.545 128.427 109.93 129.006 109.228C129.111 109.098 129.212 108.962 129.307 108.824C129.322 108.825 129.334 108.821 129.349 108.812L129.505 108.707C131.22 107.564 134.062 106.106 135.565 108.232C136.044 108.91 136.263 109.752 136.439 110.562L136.746 112.013C136.945 112.959 137.128 113.91 137.215 114.873C137.411 117.029 137.126 119.487 135.564 121.125C134.941 121.781 134.105 122.228 133.194 122.31C132.686 122.353 132.192 122.241 131.695 122.151C131.19 122.061 130.695 122.138 130.19 122.062C129.385 121.94 128.982 122.889 129.252 123.514C129.398 123.849 129.575 124.141 129.781 124.391C129.598 124.533 129.421 124.688 129.251 124.851C128.766 124.979 128.32 125.285 127.976 125.703C127.699 126.041 127.544 126.416 127.501 126.817C127.467 126.915 127.437 127.016 127.409 127.119L126.934 127.807C126.829 127.958 126.725 128.107 126.621 128.253C125.415 129.951 124.099 131.372 122.489 132.692C120.938 133.962 119.269 135.085 117.803 136.458L117.63 136.621C116.263 137.919 114.81 139.501 115.213 141.514C115.317 142.032 116.01 142.437 116.493 142.116C118.048 141.084 118.893 139.363 120.233 138.082C121.613 136.762 123.125 135.59 124.508 134.274C125.816 133.033 126.871 131.603 127.693 130.013C127.97 130.353 128.387 130.606 128.976 130.727C129.989 130.933 130.971 130.385 131.462 129.524C131.742 129.666 132.028 129.795 132.317 129.901C133.839 130.456 134.903 128.785 134.386 127.483C134.11 126.784 133.751 126.172 133.293 125.648C134.817 125.519 136.397 124.818 137.442 123.894C140.064 121.572 140.601 117.905 140.211 114.598C140.004 112.845 139.582 111.06 139 109.393C138.899 109.103 138.789 108.811 138.667 108.522C138.743 108.524 138.822 108.495 138.874 108.435C139.358 107.842 139.933 107.366 140.304 106.693C140.645 106.076 141.022 105.453 141.299 104.807C141.87 103.483 142.195 101.973 142.433 100.554C142.923 97.6496 142.945 94.7392 142.65 91.8122C142.148 86.8269 140.557 81.9979 138.066 77.7031C138.217 77.6333 138.363 77.5472 138.501 77.4434L138.569 77.39L138.68 77.3C139.489 76.6408 139.491 75.3258 138.822 74.58L138.611 74.3447C138.343 74.0492 138.111 73.814 137.671 73.4845C137.606 73.4358 137.539 73.3898 137.472 73.3465C137.734 72.9176 137.844 72.4057 137.707 71.8275C137.232 69.8132 134.374 69.7339 132.52 70.5043C130.613 68.613 128.475 66.9459 126.136 65.5641C120.565 62.2746 114.198 59.8504 107.941 58.2449ZM134.81 112.048C133.759 111.643 132.3 112.302 131.315 112.692C130.067 113.188 128.987 113.961 127.937 114.782C127.414 115.193 127.287 115.903 127.379 116.52C127.388 116.581 127.397 116.645 127.408 116.709C127.507 117.368 128.206 117.918 128.85 117.934C130.198 117.967 130.899 116.839 131.712 115.895C131.794 116.059 131.898 116.212 132.031 116.329L132.121 116.408C132.425 116.665 132.763 116.876 133.182 116.879C133.478 116.88 133.766 116.819 134.034 116.696C134.706 116.386 135.038 115.555 134.896 114.858C134.809 114.419 134.573 114.067 134.255 113.815L134.383 113.737C134.656 113.567 134.907 113.386 135.109 113.11L135.155 113.045L135.139 113.044C135.361 112.704 135.253 112.219 134.81 112.048Z" fill="#02040F"/>
<path fill-rule="evenodd" clip-rule="evenodd" d="M83.3536 129.956C84.8345 130.471 86.4465 130.594 88.0028 130.225C89.4144 129.889 90.8889 129.066 91.9744 127.931C92.9387 126.923 93.5946 125.671 93.6432 124.3C93.6488 124.144 93.5997 124.01 93.519 123.904C93.4322 123.79 93.3068 123.709 93.1699 123.669C93.0292 123.628 92.878 123.632 92.7467 123.684C92.6278 123.73 92.5237 123.815 92.4546 123.942C92.2865 124.141 92.1192 124.336 91.9516 124.526C90.6054 126.021 89.3199 127.124 87.3968 127.443C86.3534 127.616 85.3284 127.461 84.4013 127.065C83.4089 126.641 82.5284 125.941 81.8554 125.069C81.5512 124.674 81.1769 124.5 80.803 124.478C80.3794 124.453 79.9503 124.628 79.6182 124.926C79.2918 125.22 79.0621 125.629 79.0202 126.068C78.9835 126.453 79.0882 126.863 79.4043 127.241C80.4456 128.484 81.83 129.427 83.3536 129.956ZM84.4251 110.399C82.8346 111.256 80.3715 113.318 81.9079 115.728C83.7524 117.879 86.6857 115.678 88.1262 114.688C89.4534 113.932 90.7852 116.125 89.5434 117.024C79.1482 123.911 75.795 110.193 83.7033 109.256C84.574 109.153 84.8442 110.13 84.4251 110.399ZM99.0603 107.031C99.5723 106.74 100.161 106.662 100.791 106.989C101.284 107.245 102.129 108.057 102.692 109.096C103.078 109.806 103.334 110.629 103.228 111.467C103.203 111.662 103.268 111.81 103.376 111.922C103.462 112.011 103.588 112.08 103.74 112.107C103.868 112.13 104.014 112.123 104.134 112.092C104.362 112.034 104.488 111.895 104.539 111.778C105.03 110.655 104.911 109.366 104.488 108.187C103.918 106.596 102.801 105.23 102.047 104.769C100.756 103.98 99.191 103.864 97.8223 104.528C96.6572 105.093 95.8964 106.063 95.1384 107.053C94.9772 107.264 94.8173 107.473 94.6526 107.677C94.3225 108.088 94.2697 108.51 94.3698 108.879C94.4808 109.288 94.7996 109.644 95.2113 109.844C95.5918 110.028 96.0422 110.075 96.4506 109.928C96.7956 109.803 97.12 109.541 97.3407 109.081C97.7124 108.305 98.3083 107.458 99.0603 107.031ZM73.8066 107.477C74.1366 107.672 74.3992 107.739 74.7815 107.646C74.9929 107.594 75.2049 107.485 75.3744 107.333C75.5424 107.181 75.668 106.989 75.7243 106.771C75.8629 106.233 76.1869 105.74 76.628 105.43C77.005 105.166 77.47 105.039 77.9726 105.151C78.5149 105.271 79.0178 105.649 79.3551 106.082C79.4679 106.227 79.5537 106.389 79.6401 106.55C79.8016 106.851 79.9593 107.132 80.1921 107.359C80.2803 107.446 80.4166 107.509 80.5516 107.517C80.6065 107.519 80.6626 107.513 80.7165 107.5C81.2897 106.981 81.4162 106.572 81.4202 106.16C81.4244 105.727 81.2773 105.282 81.0239 104.86C80.4294 103.87 79.2468 103.022 78.4303 102.801C77.3121 102.499 76.1736 102.732 75.24 103.317C74.2794 103.918 73.5399 104.892 73.2663 106.018C73.2004 106.289 73.2068 106.586 73.2977 106.848C73.3864 107.104 73.5528 107.328 73.8066 107.477ZM97.1002 96.7075C97.7442 97.4046 98.5422 97.5491 99.35 97.6828C99.7989 97.7576 100.157 97.8177 100.508 97.9164C101.471 98.1876 102.417 98.5697 103.272 99.0933C104.165 99.6406 105.135 100.295 105.815 101.104C105.977 101.297 106.128 101.498 106.28 101.699C106.418 101.883 106.551 102.06 106.692 102.231C106.854 102.428 107.007 102.633 107.159 102.837C107.251 103.008 107.269 103.05 107.287 103.093C107.314 103.159 107.346 103.232 107.382 103.31C107.432 103.418 107.491 103.536 107.553 103.643C107.656 103.839 107.714 103.895 107.766 103.921C107.851 103.964 107.932 103.988 108.013 103.982C108.088 103.976 108.161 103.943 108.234 103.888C108.597 103.612 108.725 103.134 108.742 102.62C108.767 101.841 108.525 100.964 108.288 100.42C107.737 99.1568 106.951 97.8322 105.973 96.8595C104.857 95.7492 103.618 94.888 102.175 94.2637C101.279 93.8757 100.236 93.508 99.2382 93.4952C98.5197 93.486 97.824 93.6633 97.2308 94.1661C96.8666 94.4748 96.6756 94.931 96.6513 95.3955C96.6264 95.8694 96.7745 96.3551 97.1002 96.7075ZM72.7355 101.504C72.7749 101.578 72.8321 101.629 72.897 101.662C72.9651 101.697 73.0424 101.709 73.1178 101.701C73.1927 101.692 73.2652 101.662 73.3239 101.614C73.3802 101.567 73.4245 101.504 73.447 101.424C74.0014 99.4684 74.9535 98.0413 76.8708 97.1893C77.8139 96.7702 78.8858 96.5287 79.8982 96.3444C80.1924 96.2908 80.5018 96.2624 80.8134 96.2334C81.79 96.1426 82.7746 96.0317 83.4475 95.2812C83.8529 94.8291 84.0443 94.2338 83.9829 93.677C83.9251 93.1527 83.6464 92.6601 83.1094 92.3456C81.7724 91.5628 80.0281 92.1707 78.6092 92.6921C78.5039 92.7308 78.4006 92.7688 78.2995 92.8053C76.9124 93.3073 75.635 93.9988 74.5608 95.0272C73.7085 95.8431 72.894 97.0725 72.5244 98.3619C72.2168 99.4345 72.2177 100.546 72.7355 101.504Z" fill="#02040F"/>
<path fill-rule="evenodd" clip-rule="evenodd" d="M78.9039 133.03C80.8936 131.435 83.203 128.141 85.7927 130.979C86.4282 131.776 86.6123 133.497 87.6276 133.886C88.9759 134.403 90.4115 133.023 90.9373 131.933C93.1746 125.838 85.3572 123.725 80.8006 124.49C78.5528 125.278 76.7414 128.832 76.5439 130.726C76.4137 131.999 77.3952 133.932 78.9039 133.03ZM65.0627 122.731C65.0856 122.649 65.1154 122.576 65.1502 122.51C66.0076 122.236 66.6558 122.596 67.0352 123.223C67.0138 123.373 66.9609 123.523 66.9248 123.67C67.2069 124.356 67.4498 125.198 67.8494 125.798C67.9339 125.809 68.0224 125.805 68.1082 125.785C75.1956 126.902 72.1073 119.261 79.4325 117.788C85.0683 117.158 95.1116 118.744 97.4425 124.699C99.0343 134.101 109.944 128.18 113.667 123.529C117.601 119.325 120.277 114.076 122.859 108.982C123.404 107.904 124.886 108.773 124.665 109.824C126.574 114.217 126.234 119.357 126.516 124.076C126.925 133.482 127.113 146.653 118.12 151.912C106.123 164.124 77.6035 167.161 65.1568 154.71C61.1444 144.747 62.3237 132.912 65.0627 122.731Z" fill="#02040F"/>
<path fill-rule="evenodd" clip-rule="evenodd" d="M73.9952 94.6259C69.2041 94.3748 66.4159 95.2622 65.4098 95.29L65.3795 95.2906C64.9614 95.2954 64.5857 95.3106 64.1856 95.4418C62.7142 95.9219 62.4 97.4227 63.1917 98.4204C63.1473 100.397 62.767 102.689 63.1084 104.692C63.2202 113.066 67.0698 114.68 69.273 115.311C70.3791 115.627 71.7008 115.8 72.9044 115.589C74.9372 115.62 76.9764 115.09 78.7505 114.073C81.2214 112.657 83.1209 110.38 83.8443 107.597C84.1876 106.27 84.3884 104.882 84.3112 103.511L84.299 103.322C85.0954 102.991 85.9993 102.968 86.9291 102.984C87.3732 102.991 87.8109 103 88.2345 103.041C88.6469 103.109 89.0537 103.192 89.4605 103.298C89.9024 103.457 90.3148 103.703 90.6878 104.078L90.6877 104.596C90.6935 105.892 90.7952 107.196 90.9902 108.477C91.2783 110.367 91.8058 112.186 93.0579 113.581C93.4703 114.273 93.9926 114.899 94.6376 115.451C96.9805 117.459 100.261 118.323 103.319 118.223C109.527 118.019 113.356 113.299 114.289 111.244L114.345 111.12C115.022 109.591 115.602 107.593 117.498 107.356L117.902 107.305C118.768 107.189 119.571 107.007 120.118 106.196C120.357 105.842 120.492 105.439 120.542 105.024C120.834 105.062 121.125 105.099 121.416 105.135C123.719 105.75 137.665 106.9 138.78 106.958C138.78 106.958 140.875 107.973 141.817 107.321C142.47 106.868 142.71 106.231 142.403 105.479C141.94 104.347 139.572 103.557 138.516 103.29C138.516 103.29 121.287 102.531 120.06 102.231C119.335 101.4 117.957 101.436 116.818 101.251C115.904 100.524 114.601 100.002 113.568 99.6431C113.359 99.5509 113.151 99.4615 112.949 99.3769C111.063 98.5914 109.084 98.124 107.065 97.8229C104.984 97.5144 102.881 97.4944 100.787 97.6704C99.9042 97.7434 99.0279 97.8517 98.1553 98.0077C96.6011 98.1303 95.0489 98.3852 93.4839 98.702L93.1707 98.7662C91.5222 99.1074 89.8319 99.3887 88.1638 99.0114C86.8056 98.7057 85.5154 98.1091 84.2818 97.4724L84.1212 97.3892C81.4095 95.9746 77.1209 94.7897 73.9952 94.6259ZM98.1899 100.546C99.2268 100.374 99.5817 101.978 98.5415 102.151C97.8049 102.273 97.1685 102.608 96.7189 103.208L96.6714 103.273C96.0652 104.135 94.6934 103.238 95.3038 102.372C95.9906 101.396 97.0127 100.741 98.1899 100.546ZM68.2178 97.9926C68.5925 97.7569 69.1295 97.9746 69.3204 98.3454C69.5305 98.7537 69.3561 99.187 69.004 99.4284L68.9682 99.4519C68.6463 99.6546 68.3234 100.031 68.2644 100.431L68.2584 100.481C68.1626 101.531 66.5279 101.451 66.6242 100.396C66.7182 99.3632 67.3622 98.5304 68.2178 97.9926Z" fill="url(#paint0_linear_82_1382)"/>
<defs>
<linearGradient id="paint0_linear_82_1382" x1="142.157" y1="113.363" x2="71.4735" y2="109.658" gradientUnits="userSpaceOnUse">
<stop stop-color="#0268A2"/>
<stop offset="1" stop-color="#940EBD"/>
</linearGradient>
</defs>
</svg>
