<svg width="390" height="369" viewBox="0 0 390 369" fill="none" xmlns="http://www.w3.org/2000/svg">
<path d="M79.529 349.812C79.529 349.812 95.65 347.08 138.205 353.896C199.781 363.759 223.032 372.691 241.19 366.639C259.348 360.586 266.919 348.48 266.919 348.48C266.919 348.48 309.798 365.13 350.149 360.586C390.501 356.041 388.993 345.953 388.993 345.953C388.993 345.953 387.563 286.592 369.551 259.305C351.54 232.019 336.075 207.455 306.781 193.45C277.487 179.444 276.762 176.898 266.39 174.165C256.018 171.433 249.652 169.983 249.652 169.983L238.732 133.961C238.732 133.961 248.193 98.4864 239.643 89.75C231.092 81.0137 209.81 46.6365 194.159 48.086C178.508 49.5355 123.024 58.8203 122.3 61.5529C121.575 64.2854 125.571 113.765 128.852 121.953C132.123 130.141 135.042 142.873 136.491 147.79C137.951 152.706 143.768 177.446 143.768 177.446C143.768 177.446 162.23 196.084 169.938 196.084C177.646 196.084 179.35 194.811 146.452 207.661C113.563 220.511 101.859 232.254 91.7324 246.181C68.7065 277.845 79.529 349.812 79.529 349.812Z" fill="white"/>
<path d="M6.05371 309.147L1.00977 347.315C1.00977 347.315 12.7725 358.843 30.059 359.558C47.3456 360.273 61.5078 352.114 61.5078 352.114L56.7087 312.507L6.05371 309.147Z" fill="white"/>
<path d="M79.2841 231.392C94.024 231.392 105.973 219.443 105.973 204.703C105.973 189.963 94.024 178.014 79.2841 178.014C64.5442 178.014 52.5952 189.963 52.5952 204.703C52.5952 219.443 64.5442 231.392 79.2841 231.392Z" fill="url(#paint0_linear_174_1224)" stroke="#082E49" stroke-width="2" stroke-linecap="round" stroke-linejoin="round"/>
<path d="M147.813 227.66C162.553 227.66 174.502 215.711 174.502 200.972C174.502 186.232 162.553 174.283 147.813 174.283C133.074 174.283 121.125 186.232 121.125 200.972C121.125 215.711 133.074 227.66 147.813 227.66Z" fill="url(#paint1_linear_174_1224)" stroke="#082E49" stroke-width="2" stroke-linecap="round" stroke-linejoin="round"/>
<path d="M57.2514 314.892C57.8262 308.502 46.5831 302.269 32.1392 300.97C17.6954 299.671 5.52036 303.797 4.94556 310.187C4.37076 316.576 15.6138 322.809 30.0577 324.109C44.5015 325.408 56.6766 321.282 57.2514 314.892Z" fill="#082E49"/>
<path d="M31.352 241.921C31.5479 241.529 29.1777 234.429 35.299 226.535C41.4105 218.641 55.8176 204.831 66.072 207.005C76.3264 209.179 77.3156 215.487 81.0668 223.577C84.8179 231.667 90.1459 242.91 91.9186 253.566C93.6913 264.222 91.7227 282.175 79.4899 287.493C67.2571 292.821 65.0926 299.922 58.7754 299.922C52.4582 299.922 42.3997 297.16 35.8964 286.905C29.3736 276.641 31.1561 242.313 31.352 241.921Z" fill="#017CBE" stroke="#082E49" stroke-width="2" stroke-miterlimit="10" stroke-linecap="round" stroke-linejoin="round"/>
<path d="M45.4163 314.75C50.754 307.277 49.0596 288.306 51.7628 279.187C54.466 270.069 69.6762 250.726 70.5479 246.436C71.7819 240.403 69.4313 237.709 69.4313 237.709C69.4313 237.709 73.7505 232.518 71.1061 229.081C69.6664 227.2 67.9916 227.406 67.9916 227.406C67.9916 227.406 70.2932 224.144 67.8349 222.293C64.8183 220.031 60.6362 222.019 60.6362 222.019C60.6362 222.019 59.9899 218.865 58.3542 218.719C53.7314 218.297 43.0559 225.026 36.3078 230.05C29.5596 235.075 18.1006 245.407 14.4963 256.073C10.8823 266.749 12.1653 303.114 14.4572 308.256C16.749 313.398 20.9408 318.795 30.0004 318.932C39.0599 319.079 42.8404 318.344 45.4163 314.75Z" fill="white" stroke="#082E49" stroke-width="2" stroke-miterlimit="10" stroke-linecap="round" stroke-linejoin="round"/>
<path d="M69.441 237.719C69.441 237.719 49.6276 262.342 48.4033 264.477" stroke="#082E49" stroke-width="2" stroke-miterlimit="10" stroke-linecap="round" stroke-linejoin="round"/>
<path d="M67.923 227.25C67.923 227.25 43.2125 255.319 41.9883 257.454" stroke="#082E49" stroke-width="2" stroke-miterlimit="10" stroke-linecap="round" stroke-linejoin="round"/>
<path d="M60.6361 222.029C60.6361 222.029 35.054 246.935 32.2822 251.519" stroke="#082E49" stroke-width="2" stroke-miterlimit="10" stroke-linecap="round" stroke-linejoin="round"/>
<path d="M193.287 209.062C193.287 209.062 186.52 192.833 182.465 193.058C178.41 193.284 174.796 194.41 176.383 198.69C177.969 202.97 186.079 224.84 189.908 230.932C193.738 237.014 200.956 244.007 215.158 251.451C229.359 258.894 246.499 275.123 246.499 275.123C246.499 275.123 254.902 267.807 258.065 261.92C261.229 256.034 261.64 251.069 261.64 251.069C261.64 251.069 257.047 244.947 253.981 237.288C250.916 229.629 253.785 215.281 253.021 205.516C252.258 195.752 239.623 179.875 232.738 178.916C225.853 177.956 202.308 183.891 198.478 187.339C194.649 190.786 192.739 208.2 195.031 212.598C197.322 216.995 200.006 217.573 200.006 217.573C200.006 217.573 202.298 225.418 205.559 225.996C208.821 226.574 211.113 224.468 211.113 224.468C211.113 224.468 216.284 230.403 219.917 225.81C223.551 221.216 218.958 208.2 218.958 208.2L232.16 207.818" stroke="#082E49" stroke-width="2" stroke-miterlimit="10" stroke-linecap="round" stroke-linejoin="round"/>
<path d="M211.103 224.458C211.103 224.458 206.735 209.13 209.565 202.852C212.396 196.574 231.847 195.468 231.847 195.468" stroke="#082E49" stroke-width="2" stroke-miterlimit="10" stroke-linecap="round" stroke-linejoin="round"/>
<path d="M200.633 218.552C200.633 218.552 199.8 202.901 202.797 196.702C205.794 190.502 221.876 189.807 221.876 189.807" stroke="#082E49" stroke-width="2" stroke-miterlimit="10" stroke-linecap="round" stroke-linejoin="round"/>
<path d="M223.727 179.347C223.727 179.347 208.096 169.621 203.542 171.345C198.987 173.069 174.492 186.359 175.109 189.807C175.726 193.254 179.664 193.744 184.835 191.775C190.006 189.807 198.478 187.329 198.478 187.329" stroke="#082E49" stroke-width="2" stroke-miterlimit="10" stroke-linecap="round" stroke-linejoin="round"/>
<path d="M5.84808 308.991C5.84808 308.991 1 334.739 1 347.06" stroke="#082E49" stroke-width="2" stroke-miterlimit="10" stroke-linecap="round" stroke-linejoin="round"/>
<path d="M56.6109 313.604C56.5717 314.083 61.0573 344.239 61.4589 351.673" stroke="#082E49" stroke-width="2" stroke-miterlimit="10" stroke-linecap="round" stroke-linejoin="round"/>
<path d="M236.753 266.592C236.753 266.592 229.858 287.268 234.873 292.703C239.888 298.139 248.301 288.178 253.315 278.992C258.33 269.805 262.659 252.175 262.659 252.175C262.659 252.175 253.687 268.522 250.867 271.342C248.046 274.163 246.489 275.123 246.489 275.123L236.753 266.592Z" fill="#082E49"/>
<path d="M261.63 251.059L323.999 290.833" stroke="#082E49" stroke-width="2" stroke-miterlimit="10" stroke-linecap="round" stroke-linejoin="round"/>
<path d="M61.6841 198.484C61.6841 198.484 66.4342 196.741 76.4829 195.223C86.5317 193.704 93.0839 195.223 93.0839 195.223" stroke="#082E49" stroke-width="2" stroke-miterlimit="10" stroke-linecap="round" stroke-linejoin="round"/>
<path d="M68.8828 196.388C68.8828 196.388 69.1179 208.543 78.8238 207.612C88.5297 206.682 86.6591 194.165 86.6591 194.165C86.6591 194.165 79.6465 194.283 76.4928 195.213C73.3293 196.153 68.8828 196.388 68.8828 196.388Z" fill="#082E49"/>
<path d="M128.95 196.153C128.95 196.153 133.769 194.635 143.886 193.577C154.003 192.52 160.467 194.341 160.467 194.341" stroke="#082E49" stroke-width="2" stroke-miterlimit="10" stroke-linecap="round" stroke-linejoin="round"/>
<path d="M136.237 194.39C136.237 194.39 135.913 206.545 145.649 206.055C155.384 205.565 154.091 192.99 154.091 192.99C154.091 192.99 147.079 192.784 143.886 193.568C140.693 194.361 136.237 194.39 136.237 194.39Z" fill="#082E49"/>
<path d="M103.094 192.353C103.094 192.353 105.091 188.053 112.848 187.906C120.125 187.76 122.447 191.579 122.447 191.579" stroke="#082E49" stroke-width="2" stroke-linecap="round" stroke-linejoin="round"/>
<path d="M71.8406 178.984C71.8406 178.984 111.203 149.073 117.599 148.691C123.994 148.309 124.631 155.723 124.631 155.723" stroke="#082E49" stroke-width="2" stroke-linecap="round" stroke-linejoin="round"/>
<path d="M214.697 173.646C214.697 173.646 254.059 143.735 260.455 143.353C266.851 142.971 267.487 150.385 267.487 150.385" stroke="#082E49" stroke-width="2" stroke-linecap="round" stroke-linejoin="round"/>
<path d="M154.65 109.123C154.65 109.123 154.473 119.093 152.24 126.83C150.007 134.568 148.283 137.663 148.283 137.663C148.283 137.663 155.159 140.581 161.868 140.072" stroke="#082E49" stroke-width="2" stroke-linecap="round" stroke-linejoin="round"/>
<path d="M152.24 157.447L179.233 147.986C179.233 147.986 181.809 161.394 172.357 165.351C162.896 169.308 152.24 157.447 152.24 157.447Z" stroke="#082E49" stroke-width="2" stroke-linecap="round" stroke-linejoin="round"/>
<path d="M214.727 167.682C214.727 167.682 225.627 159.406 227.234 141.443" stroke="#082E49" stroke-width="2" stroke-linecap="round" stroke-linejoin="round"/>
<path d="M123.181 87.5464C123.181 87.5464 132.623 134.891 143.514 174.048" stroke="#082E49" stroke-width="2" stroke-linecap="round" stroke-linejoin="round"/>
<path d="M238.888 134.774C238.888 134.774 252.982 177.153 251.513 183.225C250.044 189.298 246.91 189.924 246.91 189.924" stroke="#082E49" stroke-width="2" stroke-linecap="round" stroke-linejoin="round"/>
<path d="M252.875 170.982C254.197 170.541 388.581 198.601 388.581 345.366" stroke="#082E49" stroke-width="2" stroke-linecap="round" stroke-linejoin="round"/>
<path d="M245.852 136.086C242.258 139.171 236.753 137.957 234.716 133.677C233.316 130.729 232.219 127.536 232.885 125.724C234.364 121.718 241.533 116.224 238.791 108.418C236.048 100.612 228.027 93.8539 225.921 104.196C223.815 114.539 222.337 116.645 217.058 114.324C211.778 112.002 214.952 72.542 204.815 65.9995C194.678 59.4571 180.339 72.1208 171.055 74.0209C161.77 75.9209 151.222 84.9903 133.073 71.9152C114.925 58.8303 114.719 55.0302 110.919 44.0608C107.119 33.0914 105.855 23.8066 105.855 23.8066C105.855 23.8066 128.01 23.5912 147.637 12.2006C167.264 0.810127 210.094 -6.15347 233.306 12.6218C256.518 31.397 258.624 37.7338 259.26 57.1457C259.897 76.5576 259.681 79.7211 261.366 86.479C263.051 93.2369 262.189 112.296 256.302 122.776C252.659 129.269 248.937 133.432 245.852 136.086Z" fill="#082E49"/>
<path d="M116.188 52.2975C116.188 52.2975 107.119 63.2669 109.009 85.6366C110.909 108.006 128.255 142.717 131.888 131.786C132.28 130.611 119.949 71.1022 125.032 60.3385C130.115 49.5748 116.188 52.2975 116.188 52.2975Z" fill="#082E49"/>
<path d="M234.55 291.106L266.351 346.58" stroke="#082E49" stroke-width="2" stroke-linecap="round" stroke-linejoin="round"/>
<defs>
<linearGradient id="paint0_linear_174_1224" x1="52.5952" y1="214.619" x2="99.7474" y2="214.619" gradientUnits="userSpaceOnUse">
<stop offset="0.595" stop-color="#B016E3"/>
<stop offset="1" stop-color="#440055"/>
</linearGradient>
<linearGradient id="paint1_linear_174_1224" x1="121.125" y1="210.888" x2="168.277" y2="210.888" gradientUnits="userSpaceOnUse">
<stop offset="0.595" stop-color="#B016E3"/>
<stop offset="1" stop-color="#440055"/>
</linearGradient>
</defs>
</svg>
