<svg width="520" height="459" viewBox="0 0 520 459" fill="none" xmlns="http://www.w3.org/2000/svg">
<path d="M502.509 320.136C502.934 316.318 500.566 313.596 499.329 312.713L497.739 310.591C503.57 298.572 515.019 274.321 514.171 273.473C513.323 272.624 487.667 270.645 474.946 269.761L464.874 267.64L430.95 298.926C415.754 310.945 383.243 337.953 374.762 349.831C364.16 364.679 382.183 382.708 398.085 377.935C413.987 373.163 453.743 373.163 466.995 381.117C480.246 389.071 494.558 360.967 499.329 359.376C503.146 358.103 506.927 348.24 508.34 343.468L504.1 338.696C506.22 336.751 509.718 332.651 506.75 331.802C503.04 330.742 501.979 324.909 502.509 320.136Z" fill="white"/>
<path fill-rule="evenodd" clip-rule="evenodd" d="M452.955 326.035C449.021 324.491 444.785 323.638 440.528 323.307C442.82 322.905 445.119 322.518 447.436 322.319C449.053 322.18 450.552 322.194 451.768 323.421C452.578 324.239 452.958 325.291 453.491 326.259C453.317 326.18 453.136 326.106 452.955 326.035ZM495.178 311.604C488.736 311.932 482.286 313.464 476.458 316.241C474.074 317.379 471.913 319.022 471.281 321.725C470.961 323.105 471.039 324.531 471.209 325.925C471.338 326.98 471.369 328.328 472.286 329.043C472.443 329.164 472.61 329.256 472.784 329.324C470.634 330.295 468.587 331.461 466.767 332.663C465.105 333.762 463.395 335.454 462.628 337.364C462.564 337.147 462.5 336.945 462.436 336.752C461.128 332.884 459.113 329.715 455.94 327.585C456.501 327.333 456.889 326.735 456.707 325.91C455.954 322.464 452.773 319.47 449.181 319.684C445.247 319.915 441.022 321.348 437.465 323.158C436.168 323.129 434.874 323.147 433.595 323.204C433.375 323.211 433.385 323.51 433.595 323.535C434.633 323.667 435.67 323.812 436.708 323.983C439.174 324.378 441.633 324.879 444.039 325.501C446.924 326.248 449.909 326.998 452.607 328.303C457.837 330.839 461.075 337.468 460.41 343.235C460.3 344.181 459.934 347.04 458.622 346.745C457.514 346.496 457.073 344.181 456.686 343.324C455.649 341.048 453.779 339.562 451.537 338.555C448.904 337.371 446.086 336.571 443.356 335.64C441.811 335.11 440.265 334.58 438.716 334.053C437.131 333.51 435.624 332.759 433.936 333.14C432.916 333.371 432.799 334.587 433.371 335.284C434.242 336.347 435.535 336.66 436.79 337.097C438.446 337.673 440.098 338.25 441.75 338.826C444.305 339.715 446.981 340.465 449.472 341.553L449.394 341.731C449.191 341.674 448.953 341.877 448.993 342.126C449.366 344.426 449.885 347.086 449.309 349.391C448.854 351.218 447.251 353.242 445.169 352.705C445.496 352.406 445.617 351.89 445.396 351.414C444.572 349.65 433.769 342.687 432.806 345.273C432.774 345.365 432.873 345.433 432.952 345.419C433.773 345.248 435.148 346.649 435.805 347.093C436.754 347.734 437.717 348.359 438.655 349.017C439.682 349.736 440.684 350.49 441.662 351.268C442.429 351.88 443.008 352.516 443.889 352.826C443.428 353.046 443.061 353.455 442.905 353.978C442.507 355.34 441.74 356.496 440.407 357.097C439.011 357.722 437.436 357.328 435.965 357.481C433.961 357.683 432.213 358.637 430.752 359.999C427.685 362.864 426.147 367.914 421.858 369.269C419.295 370.076 416.453 369.567 413.859 369.201C410.962 368.792 408.141 368.469 405.223 368.895C402.43 369.305 399.79 370.272 397.238 371.452C394.847 372.558 392.203 373.81 390.082 375.46C389.645 374.112 389.204 372.779 388.869 371.402C388.081 368.149 387.655 364.834 387.551 361.492C387.456 358.309 387.633 355.113 387.906 351.944C388.042 350.361 388.255 348.786 388.39 347.204C388.425 346.805 388.497 346.379 388.55 345.952C392.338 343.715 396.318 342.001 400.33 340.238C400.341 340.234 400.351 340.227 400.362 340.223C400.486 340.166 400.607 340.113 400.732 340.06C400.728 340.052 400.725 340.046 400.717 340.038C401.176 339.758 401.496 339.384 401.688 338.964C407.469 335.127 412.302 329.89 415.905 323.78C417.416 321.22 418.869 318.563 420.845 316.32C422.949 313.926 425.447 312.504 428.538 311.764C432.152 310.897 435.876 310.377 439.579 310.082C441.601 309.923 443.861 309.673 446.065 309.684C447.6 309.695 449.102 309.826 450.482 310.207C452.525 310.769 453.719 312.323 455.002 313.894C456.228 315.402 457.447 316.914 458.591 318.485C459.674 319.975 460.698 321.515 461.587 323.129C462.12 324.097 462.613 325.093 463.029 326.12C463.175 326.483 463.367 326.895 463.456 327.272C463.545 327.653 463.381 328.055 463.807 328.055C462.048 328.079 462.066 330.892 463.815 330.789C470.659 330.391 460.854 317.02 459.422 315.157C457.393 312.518 455.3 309.076 452.052 307.849C452.006 307.831 451.956 307.814 451.91 307.799C452.855 306.903 453.602 305.83 454.316 304.738C455.052 303.614 455.929 302.327 456.171 300.993C456.324 300.143 455.268 299.66 454.767 300.403C454.039 301.487 453.687 302.86 453.143 304.052C452.589 305.26 451.914 306.402 451.381 307.621C450.098 307.227 448.712 307.046 447.301 306.985C449.082 304.574 452.123 299.923 452.489 299.325C454.174 296.559 455.776 293.707 457.308 290.851C458.964 287.757 460.382 284.536 461.967 281.406C462.866 279.632 463.772 277.843 464.771 276.122C465.115 275.532 465.485 274.942 465.904 274.405C465.986 274.298 466.089 274.209 466.185 274.109C466.295 274.049 466.409 273.981 466.473 273.946C467.048 273.616 467.251 272.847 467.656 272.36C468.303 271.574 469.063 271.482 470.037 271.471C472.112 271.45 474.195 271.531 476.266 271.588C479.312 271.674 482.354 271.794 485.395 271.954C486.316 272.004 487.233 272.054 488.153 272.111C492.577 272.374 496.998 272.719 501.408 273.143C505.31 273.516 509.211 274.124 513.117 274.416C507.829 286.986 501.966 299.329 495.327 311.242C495.26 311.362 495.21 311.483 495.178 311.604ZM465.84 343.989C464.987 344.38 464.159 344.867 463.388 345.422C463.516 344.558 463.548 343.648 463.513 342.734C464.149 343.416 464.962 343.808 465.84 343.989ZM502.246 322.365C502.186 322.372 502.129 322.404 502.101 322.464C500.921 324.9 501.415 327.621 503.341 329.53C504.35 330.526 506.55 331.65 506.478 333.285C506.418 334.608 504.979 335.718 504.364 336.809C503.792 337.826 503.579 338.943 504.037 340.046C504.624 341.457 506.262 342.019 506.823 343.406C507.534 345.166 506.379 347.289 505.569 348.822C504.816 350.24 503.842 351.659 503.195 353.16C498.863 355.404 494.986 358.846 491.653 362.342C488.004 366.165 484.873 370.663 479.077 370.549C478.498 370.538 478.057 370.844 477.794 371.267C476.181 371.342 474.564 371.374 472.951 371.381C470.115 371.395 467.279 371.367 464.447 371.278C464.248 370.592 464.394 369.66 464.383 369.08C464.348 367.213 464.33 365.35 464.252 363.483C464.23 362.964 464.209 362.441 464.188 361.922C465.208 363.768 467.198 364.607 469.465 364.479C473.111 364.266 476.778 363.668 480.388 363.131C482.29 362.85 484.187 362.53 486.081 362.189C487.638 361.911 489.834 361.983 490.921 360.734C491.177 360.443 491.191 359.91 490.79 359.714C489.713 359.184 489.034 359.479 487.851 359.707C486.408 359.988 484.962 360.254 483.512 360.504C480.729 360.987 477.94 361.435 475.143 361.83C473.551 362.054 471.956 362.274 470.36 362.448C468.967 362.598 467.397 362.8 466.274 361.752C464.01 359.632 465.279 356.079 466.711 353.939C466.739 353.896 466.739 353.857 466.729 353.821C468.079 353.505 469.426 353.135 470.769 352.875C473.352 352.378 475.954 351.958 478.558 351.585C483.91 350.82 489.297 350.315 494.677 349.807C496.01 349.679 496.024 347.581 494.677 347.705C486.948 348.413 479.18 349.085 471.554 350.575C469.642 350.945 467.744 351.364 465.858 351.837C464.966 352.058 464.01 352.403 463.075 352.414C463.019 352.414 462.961 352.414 462.905 352.41C461.075 352.353 460.808 350.785 461.814 349.48C461.938 349.319 462.066 349.159 462.198 349.007C463.975 346.887 466.188 345.472 468.469 344.007C471.025 343.658 473.573 342.883 476.074 342.314C482.251 340.906 488.427 339.498 494.606 338.093C495.818 337.816 495.303 335.952 494.091 336.226C489.4 337.29 484.71 338.353 480.019 339.416L473.153 340.974C471.782 341.283 470.069 341.905 468.455 342.13C467.66 342.239 466.888 342.254 466.192 342.09C463.943 341.557 463.829 338.744 464.799 337.072C465.886 335.195 467.94 334.021 469.763 332.958C472.922 331.113 476.284 329.786 479.568 328.257C480.15 328.129 480.733 328.001 481.316 327.873C484.706 327.126 488.579 326.76 491.771 325.391C492.726 324.986 492.204 323.478 491.259 323.499C488.782 323.553 486.191 324.434 483.771 324.957C481.152 325.526 478.53 326.091 475.911 326.657C475.648 326.714 474.092 327.212 473.857 327.101C473.708 327.03 473.654 326.511 473.605 326.17C473.444 325.046 473.327 323.866 473.502 322.738C473.885 320.21 475.993 319.022 478.125 318.051C482.872 315.893 488.078 314.542 493.259 314.001C494.453 313.877 495.647 313.799 496.849 313.759C498.259 313.716 499.421 313.468 500.136 314.858C501.259 317.048 501.877 319.865 502.246 322.365ZM495.653 401.787C494.619 398.207 494.9 394.384 494.192 390.732C493.826 388.848 493.327 386.979 492.782 385.14C492.342 383.654 491.608 382.074 491.525 380.524C491.52 380.42 491.642 380.36 491.725 380.408C493.185 381.244 494.306 383.053 495.138 384.471C496.134 386.17 496.895 387.948 497.509 389.817C498.732 393.541 499.736 398.033 498.159 401.787C497.689 402.904 496.041 403.128 495.653 401.787ZM463.683 354.365C464.557 354.28 465.431 354.113 466.306 353.917C465.328 354.871 464.426 356.019 463.924 357.292C463.847 356.315 463.747 355.34 463.616 354.369C463.637 354.369 463.662 354.369 463.683 354.365ZM455.282 428.89C453.74 427.813 452.617 426.308 451.31 424.98C450.024 423.674 452.034 421.662 453.32 422.969C454.435 424.101 455.404 425.517 456.716 426.433C457.348 426.874 457.641 427.67 457.227 428.379C456.861 429.005 455.912 429.329 455.282 428.89ZM446.685 387.516C449.499 386.299 452.267 384.973 455.212 384.096C456.972 383.571 457.717 386.317 455.968 386.838C453.255 387.647 450.711 388.851 448.12 389.972C446.456 390.692 445.01 388.241 446.685 387.516ZM416.966 386.664C416.278 384.965 419.03 384.233 419.708 385.908C420.488 387.836 421.383 389.715 422.164 391.643C422.852 393.342 420.101 394.075 419.423 392.399C418.642 390.471 417.747 388.593 416.966 386.664ZM387.634 420.595C387.175 421.207 386.411 421.538 385.689 421.106C385.084 420.743 384.715 419.779 385.179 419.16C386.534 417.353 387.906 415.567 389.495 413.956C390.782 412.65 392.791 414.663 391.505 415.968C390.087 417.406 388.844 418.981 387.634 420.595ZM383.439 230.209C384.744 231.101 385.887 232.184 387.002 233.299C388.298 234.595 386.287 236.607 384.991 235.31C384.052 234.371 383.105 233.417 382.004 232.665C381.369 232.231 381.083 231.423 381.494 230.719C381.863 230.089 382.805 229.776 383.439 230.209ZM426.114 275.988C425.377 277.466 424.713 278.915 424.671 280.596C424.626 282.426 421.783 282.427 421.828 280.596C421.883 278.397 422.693 276.49 423.66 274.552C424.478 272.912 426.929 274.354 426.114 275.988ZM441.772 239.221C443.301 238.202 444.722 240.667 443.207 241.678C441.979 242.497 440.751 243.316 439.523 244.136C437.995 245.155 436.573 242.69 438.088 241.679C439.316 240.86 440.544 240.041 441.772 239.221ZM373.858 303.505C373.597 305.313 370.858 304.539 371.117 302.749C371.516 299.981 372.004 297.251 372.754 294.555C373.246 292.791 375.987 293.545 375.496 295.312C374.745 298.007 374.258 300.738 373.858 303.505ZM363.891 336.092C362.061 336.053 362.061 333.209 363.891 333.247C365.547 333.282 367.175 333.718 368.772 334.117C370.549 334.562 369.791 337.304 368.016 336.861C366.666 336.523 365.291 336.122 363.891 336.092ZM360.211 401.736C359.583 402.043 358.938 402.318 358.302 402.609C357.03 403.191 355.758 403.774 354.487 404.358C351.838 405.575 349.19 406.796 346.545 408.021C341.251 410.474 335.915 412.84 330.607 415.266C325.195 417.74 319.797 420.247 314.405 422.767C311.865 423.953 309.306 425.097 306.751 426.252C304.567 427.241 301.868 428.967 299.47 429.13C299.347 429.138 299.306 428.982 299.376 428.902C300.282 427.871 301.727 427.272 302.917 426.602C304.133 425.917 305.372 425.273 306.605 424.62C309.176 423.257 311.75 421.905 314.345 420.59C319.537 417.961 324.739 415.351 329.941 412.744C335.248 410.085 340.547 407.408 345.9 404.844C348.42 403.636 350.943 402.433 353.467 401.233C354.834 400.582 356.202 399.933 357.57 399.286C358.161 399.006 358.746 398.704 359.35 398.453C360.153 398.121 360.763 398.189 361.591 397.984C362.942 397.651 363.526 399.369 362.49 400.117C361.636 400.733 361.187 401.26 360.211 401.736ZM341.233 430.907C340.941 430.197 341.552 429.335 342.226 429.157C343.033 428.944 343.68 429.435 343.974 430.15C344.754 432.048 345.864 433.788 347.293 435.258C348.57 436.572 346.561 438.584 345.282 437.27C343.492 435.427 342.205 433.274 341.233 430.907ZM327.27 385.244C325.975 383.947 327.985 381.936 329.281 383.232L332.965 386.919C334.261 388.216 332.25 390.227 330.955 388.93L327.27 385.244ZM289.471 379.233C286.822 380.01 283.733 380.725 281.927 382.986C281.839 383.097 281.691 382.955 281.744 382.845C284.056 378.048 290.686 376.366 295.276 374.686C298.523 373.497 301.855 372.511 305.214 371.631C304.878 367.796 305.804 363.685 306.126 359.869C306.47 355.794 306.75 351.709 306.893 347.622C307.04 343.452 307.076 339.255 306.938 335.084C306.802 330.929 306.263 326.825 306.027 322.683C306.004 322.283 306.561 322.264 306.681 322.595C308.077 326.438 308.673 330.695 309.127 334.747C309.594 338.921 309.75 343.084 309.69 347.282C309.628 351.599 309.377 355.906 309.033 360.209C308.87 362.249 308.68 364.286 308.502 366.324C308.365 367.879 308.302 369.422 307.985 370.928C310.011 370.431 312.042 369.96 314.066 369.502C320.522 368.045 327.004 366.692 333.433 365.116C336.588 364.342 339.699 363.416 342.84 362.593C345.798 361.818 348.92 360.878 351.957 360.533C353.041 360.409 353.179 361.892 352.461 362.396C349.993 364.13 346.715 365.338 343.864 366.309C341.003 367.283 338.028 367.984 335.095 368.705C328.979 370.21 322.805 371.441 316.641 372.723C310.485 374.004 304.317 375.275 298.23 376.854C295.298 377.615 292.377 378.379 289.471 379.233ZM274.956 303.126C273.373 304.055 271.944 301.596 273.521 300.669C275.585 299.457 277.784 298.546 280.001 297.658C281.703 296.977 282.435 299.729 280.757 300.402C278.765 301.2 276.81 302.037 274.956 303.126ZM269.225 408.816C267.638 409.737 266.208 407.278 267.79 406.36C270.013 405.071 272.446 404.211 274.749 403.083C276.388 402.28 277.827 404.734 276.184 405.539C273.881 406.667 271.447 407.527 269.225 408.816ZM266.647 348.821C268.181 350.28 270.229 350.967 272.16 351.733C273.844 352.4 273.106 355.151 271.404 354.476C268.999 353.521 266.548 352.65 264.637 350.833C263.307 349.569 265.321 347.561 266.647 348.821ZM283.623 267.344C285.31 268.006 284.571 270.756 282.867 270.087C280.977 269.345 279.025 268.781 277.136 268.039C275.449 267.377 276.188 264.627 277.892 265.295C279.781 266.037 281.733 266.602 283.623 267.344ZM313.57 234.981C315.362 234.679 316.125 237.42 314.326 237.725C312.092 238.102 309.894 238.543 307.776 239.363C306.065 240.025 305.331 237.274 307.02 236.62C309.138 235.8 311.337 235.358 313.57 234.981ZM323.465 313.777C321.821 312.968 323.263 310.516 324.899 311.32C326.623 312.169 328.41 312.824 330.291 313.225C332.082 313.607 331.319 316.349 329.535 315.969C327.418 315.517 325.403 314.731 323.465 313.777ZM332.81 269.392C334.58 268.907 335.328 271.652 333.566 272.136C330.466 272.985 327.273 273.427 324.15 274.184C322.37 274.615 321.617 271.871 323.394 271.441C326.517 270.684 329.71 270.243 332.81 269.392ZM372.456 255.464C374.255 255.797 373.489 258.538 371.7 258.207C369.797 257.855 367.868 257.849 365.938 257.848C364.105 257.847 364.109 255.003 365.938 255.003C368.13 255.004 370.295 255.064 372.456 255.464ZM501.756 270.326C497.112 269.882 492.46 269.526 487.801 269.259C487.584 269.248 487.371 269.235 487.154 269.223C487.13 269.174 487.098 269.127 487.065 269.078C485.545 266.844 484.425 264.612 483.455 262.087C482.528 259.683 481.629 257.204 480.2 255.035C478.571 252.564 476.371 250.63 473.96 248.954C472.498 249.938 471.141 251.09 469.899 252.311C468.593 253.596 466.582 251.585 467.889 250.3C468.992 249.214 470.17 248.212 471.415 247.306C469.978 246.432 468.511 245.611 467.08 244.794C461.718 241.732 456.228 238.901 450.624 236.313C448.019 235.107 445.382 234.037 442.728 232.952C441.299 232.369 439.888 231.618 438.46 230.943C438.563 229.933 438.261 228.802 437.486 228.137C436.914 227.65 436.47 227.469 435.788 227.124C435.635 227.07 435.542 227.038 435.5 227.021C435.532 227.028 435.624 227.056 435.777 227.106C436.139 227.273 436.168 227.223 435.862 226.96C435.844 226.384 434.71 225.168 434.451 224.574C433.549 222.536 433.268 220.381 431.936 218.525C430.098 215.968 427.014 215.002 424.139 215.869C423.84 212.793 423.762 209.582 422.604 206.837C422.572 206.762 422.469 206.73 422.423 206.812C421.214 208.871 421.111 211.164 421.019 213.54C420.93 215.769 421.015 218.049 421.307 220.264C421.122 220.406 420.934 220.542 420.738 220.673C419.821 221.278 418.834 221.743 417.796 222.089C415.82 222.743 413.748 223.027 411.677 223.127C406.329 223.383 400.817 222.842 395.558 221.925C390.238 220.997 382.083 219.603 377.349 216.939C374.225 215.183 371.344 213.038 368.422 210.962C369.482 207.548 369.752 203.878 368.686 200.994C368.558 200.649 368.017 200.585 367.914 200.994C367.246 203.746 367.051 206.513 366.163 209.233C366.148 209.272 366.134 209.315 366.12 209.354C365.843 209.166 365.566 208.981 365.288 208.796C364.649 208.373 363.778 208.69 363.394 209.294C357.257 218.97 347.538 219.524 337.332 221.253C326.163 223.144 314.938 225.186 304.199 228.887C293.929 232.43 284.114 237.586 276.339 245.288C274.579 247.032 272.933 248.89 271.379 250.83C272.882 251.019 274.373 251.315 275.845 251.777C277.587 252.325 276.838 255.07 275.089 254.52C273.198 253.926 271.285 253.632 269.354 253.485C264.071 260.717 259.951 268.918 256.389 276.99C249.557 292.466 245.109 308.948 243.063 325.727C244.187 325.053 245.331 324.412 246.503 323.815C248.132 322.986 249.569 325.441 247.938 326.271C246.127 327.193 244.368 328.209 242.664 329.31C241.919 336.655 241.631 344.048 241.805 351.428C242.221 369.023 244.595 387.134 249.964 403.922C252.598 412.162 256.087 420.334 261.286 427.296C263.639 430.45 266.311 433.295 269.459 435.667C270.984 436.819 272.597 437.847 274.299 438.714C276.492 439.838 279.349 440.208 281.239 441.798C281.861 442.321 282.341 443.01 282.703 443.789C282.494 445.268 282.469 446.751 282.874 448.23C283.002 448.693 283.35 449.07 283.78 449.251C283.787 449.379 283.787 449.503 283.787 449.624C283.787 449.681 283.873 449.696 283.883 449.639C283.901 449.528 283.919 449.418 283.936 449.305C284.075 449.351 284.221 449.372 284.37 449.372C289.768 449.393 295.173 449.261 300.578 449.077C300.16 447.796 299.707 446.526 299.272 445.245C298.682 443.504 301.429 442.764 302.013 444.489C302.522 445.987 303.054 447.471 303.527 448.974C309.318 448.759 315.107 448.5 320.887 448.309C333.178 447.9 345.467 447.765 357.762 447.505C376.855 447.1 396.088 446.271 415.211 447.082C415.872 445.678 416.613 444.305 417.314 442.92C418.142 441.285 420.594 442.726 419.769 444.356C419.281 445.318 418.776 446.269 418.296 447.23C422.169 447.431 426.038 447.697 429.899 448.06C436.487 448.678 443.012 449.777 449.593 450.46C456.284 451.157 462.83 451.033 469.468 449.927C470.662 449.728 471.366 449.006 471.657 448.11C471.668 448.106 471.675 448.099 471.682 448.088C472.023 447.69 472.343 447.36 472.673 447.071C473.068 446.815 473.495 446.598 473.996 446.406C474.93 446.051 475.904 445.834 476.892 445.688C477.979 445.525 479.081 445.51 480.168 445.375C481.085 445.258 481.98 445.083 482.876 444.87C484.486 444.486 486.014 443.985 487.535 443.32C488.86 442.74 490.057 441.908 491.188 441.001C493.526 439.291 495.551 437.108 497.321 434.838C498.352 433.512 499.322 432.136 500.203 430.703C501.738 428.221 503.046 425.643 504.368 423.043C504.848 422.273 505.285 421.484 505.686 420.679C503.102 419.917 500.494 419.296 497.755 419.252C495.924 419.222 495.925 416.378 497.755 416.407C500.896 416.457 503.867 417.192 506.819 418.066C506.963 417.684 507.101 417.299 507.229 416.909C507.58 416.095 507.872 415.259 508.113 414.413C508.255 414.029 508.398 413.644 508.54 413.26C508.86 411.93 509.179 410.597 509.503 409.263C510.146 407.13 510.654 404.964 511.027 402.77C511.34 401.326 511.582 399.872 511.745 398.4C512.243 394.833 512.648 391.273 512.676 387.668C512.634 385.445 512.491 383.226 512.25 381.018C512.147 379.517 511.973 378.024 511.738 376.541C511.432 374.336 511.13 372.153 510.622 369.976C510.242 368.505 509.862 367.032 509.481 365.56C508.533 362.491 507.413 359.483 506.123 356.542C506.052 356.357 505.693 355.951 505.477 355.948C505.313 355.944 505.085 356.094 505.16 356.293C505.167 356.311 505.174 356.332 505.182 356.35C505.107 356.183 505.036 356.012 504.961 355.845C504.897 355.688 504.649 355.376 504.457 355.379C504.446 355.379 504.435 355.379 504.421 355.382C504.471 355.347 504.517 355.301 504.563 355.248C505.839 353.736 506.667 351.748 507.58 349.999C508.337 348.555 509.052 347.033 509.258 345.401C509.438 343.968 509.194 342.556 508.295 341.397C507.271 340.077 505.345 339.459 506.415 337.553C507.63 335.383 509.418 333.502 507.637 331.038C506.731 329.783 505.295 329.093 504.229 328.001C503.003 326.739 502.42 325.05 502.453 323.325C502.527 323.368 502.627 323.347 502.662 323.24C503.693 320.124 502.946 316.704 501.891 313.67C501.315 312.024 500.096 311.572 498.679 311.491C504.819 299.489 510.565 287.295 515.686 274.821C515.857 274.412 516.024 274.003 516.19 273.594C516.439 272.982 515.913 272.168 515.306 272.033C510.878 271.062 506.266 270.753 501.756 270.326Z" fill="#02040F"/>
<path fill-rule="evenodd" clip-rule="evenodd" d="M450.528 121.681C449.684 110.748 450.992 99.2889 446.78 88.8975C439.435 71.6561 418.84 65.9074 402.874 59.3434C396.477 57.452 374.954 57.1877 367.464 54.6845C350.514 49.0191 346.464 42.2688 332.995 53.0559C330.721 54.8987 329.299 56.9014 328.261 59.6378L328.304 59.6495C328.008 60.7903 328.325 61.9286 328.993 62.798C323.153 68.7715 320.709 77.727 323.706 85.6786C333.484 106.371 333.024 117.559 329.873 139.804C325.759 160.571 335.161 168.157 350.731 179.457C350.097 180.687 349.966 182.322 350.792 183.407C368.797 208.726 402.745 220.814 431.832 207.963C443.639 202.705 448.91 190.122 451.918 178.769C455.422 166.057 456.499 152.661 453.646 139.711C452.496 133.722 450.997 127.777 450.528 121.681Z" fill="white"/>
<path fill-rule="evenodd" clip-rule="evenodd" d="M346.673 0.555306C348.858 0.226903 350.509 1.58378 351.294 3.49629L351.335 3.59927C351.587 4.25002 351.868 4.88299 352.17 5.5053C357.639 2.8205 365.443 3.51037 368.904 8.94753C371.374 12.8307 369.867 17.4393 368.936 21.5572L368.325 24.2705C369.506 25.0228 370.397 26.3702 370.355 27.7653L370.35 27.8727L370.101 31.6563C370.89 30.8562 371.612 29.985 372.255 29.0569C372.699 28.2425 373.179 27.4424 373.694 26.6672C376.725 22.1048 383.53 26.0698 381.029 30.9558C380.549 31.8981 380.009 32.7907 379.429 33.6513C378.776 34.9208 378.239 36.2258 377.827 37.5665C379.01 38.0821 379.92 39.2271 380.016 40.9554C380.24 44.9914 378.122 48.359 374.753 50.4748C373.762 51.0972 372.738 51.2181 371.811 50.9869C371.647 51.2074 371.484 51.4279 371.327 51.6519C372.671 52.7436 373.882 53.9882 374.924 55.3679C378.058 54.8985 381.21 54.6781 384.362 54.671C388.214 52.7827 392.826 52.8218 396.966 53.5295C399.632 53.9846 402.19 54.8701 404.813 55.5066C407.577 56.1752 410.385 56.2 413.181 56.6552C416.706 57.2277 419.798 58.8564 421.742 61.4559C423.877 61.5199 426.123 62.3947 427.985 63.5824C432.321 66.349 436.631 69.1547 440.956 71.939C442.616 73.008 443.236 74.7145 442.931 76.6179L442.91 76.7397L442.765 77.5291L443.107 78.015C444.43 79.8853 445.87 81.8443 446.727 83.9086C448.312 86.1952 449.744 88.5919 451.013 91.0634C452.722 94.3847 454.133 97.9052 455.088 101.518C455.327 102.432 455.565 103.353 455.721 104.285C455.945 105.6 455.6 106.621 455.412 107.883C455.177 109.484 455.092 111.105 454.843 112.709C454.676 113.772 453.774 114.295 452.828 114.323C453.184 117.029 453.44 119.753 453.685 122.456C454.03 126.318 454.264 130.19 454.467 134.063C455.511 135.581 457.647 136.783 459.189 137.199C461.325 137.772 463.564 137.15 465.582 136.421C466.851 135.962 467.892 137.558 467.274 138.625C465.33 141.975 461.172 141.961 458.024 140.478C456.691 139.852 455.522 138.945 454.655 137.765C454.708 138.888 454.765 140.012 454.822 141.139L454.875 142.16C455.515 154.084 456.897 166.419 454.658 178.225C450.782 198.676 433.869 214.248 413.21 215.457C402.368 216.091 393.34 212.887 388.851 211.1C384.362 209.312 386.107 205.667 389.223 206.709C394.592 208.504 404.454 211.178 413.281 210.023C434.083 207.302 451.723 196.897 449.911 152.085C449.654 145.73 448.863 139.372 448.692 133.017C448.529 126.805 448.589 120.589 448.315 114.38L448.224 112.262C448.117 109.787 448.003 107.3 447.818 104.822C447.594 103.862 447.409 102.887 447.136 101.945C446.393 99.3809 445.423 96.8881 444.218 94.5091C443.952 94.7118 443.653 94.8576 443.33 94.9145C440.874 95.3555 438.571 95.231 436.272 94.2069C435.199 93.7339 434.254 93.1045 433.373 92.3258C432.953 91.9595 432.673 91.6039 432.452 91.2341C431.34 91.2518 430.228 90.9176 429.531 90.1175C428.737 89.2055 428.605 88.2636 428.916 87.3916L428.948 87.3046L428.87 87.2762C427.932 89.705 426.063 91.8421 424.013 93.2859C420.772 95.576 416.717 96.2374 412.829 96.2978C408.537 96.3618 404.009 95.7004 399.774 95.0248C398.654 94.847 397.542 94.6443 396.451 94.3705C396.408 94.4131 396.366 94.4629 396.32 94.5056C392.684 97.987 387.571 98.8831 382.958 96.8953C380.293 95.7467 378.058 93.8975 376.082 91.7781C376.054 92.8876 375.997 93.9971 375.901 95.0959L375.861 95.5322C375.664 97.5787 375.286 99.7496 373.74 101.226C371.242 103.62 367.617 102.66 364.735 101.102C364.739 101.177 364.739 101.255 364.739 101.333C365.517 103.979 366.299 106.628 367.081 109.277L367.249 109.842C367.818 111.723 368.441 113.606 368.612 115.575C368.939 119.337 366.438 123.053 362.259 121.791C360.067 121.131 358.31 119.287 356.625 117.81L355.564 116.891C358.311 125.877 360.215 135.183 360.393 144.56C360.404 145.069 359.967 145.453 359.483 145.471C358.353 145.517 357.138 145.293 356.001 144.841C355.937 144.838 355.873 144.834 355.805 144.823C353.865 144.542 352.063 143.842 350.475 142.807C350.841 143.97 351.004 145.218 350.909 146.523C350.884 146.84 350.39 146.95 350.319 146.601C349.402 142.089 344.125 138.679 339.576 139.543C334.694 140.471 331.097 144.674 330.216 149.457C329.271 154.595 331.08 160.538 334.431 164.502C335.973 166.33 338.002 167.856 340.411 168.24C341.513 168.414 342.657 168.354 343.727 168.041C344.182 167.906 344.608 167.717 345.042 167.539C345.674 167.283 346.413 167.244 347.01 166.974C348.364 166.366 349.725 167.614 349.039 169.004C348.442 170.217 347.906 171.035 346.914 171.661C347.717 172.642 348.446 174.008 348.716 174.374C350.095 176.237 351.495 177.998 353.066 179.701C354.665 181.429 356.409 183.008 358.254 184.47L359.029 185.083C360.805 186.492 362.352 187.799 363.605 189.821C364.593 191.418 363.314 193.584 361.463 193.559C355.67 193.477 351.459 188.385 348.46 183.936C348.034 183.3 347.632 182.628 347.259 181.938C347.124 182.155 346.975 182.357 346.808 182.542L347.138 183.431C348.119 186.048 343.894 187.759 342.668 185.316C341.776 183.545 340.742 181.859 339.59 180.266C338.912 180.17 338.247 179.758 337.878 179.224C336.943 177.87 335.895 176.501 335.01 175.057C334.519 174.591 334.015 174.143 333.5 173.705C333.35 173.837 333.198 173.969 333.052 174.107C332.405 175.583 331.606 176.931 330.614 178.2L330.402 178.471C328.502 180.867 326.028 183.318 322.967 183.904C322.032 184.082 321.133 182.919 321.961 182.176C324.104 180.249 326.638 178.936 328.613 176.785C329.587 175.725 330.481 174.558 331.249 173.334L331.424 173.051C331.552 172.841 331.684 172.632 331.819 172.418C330.927 171.81 330.035 171.198 329.143 170.587C326.688 172.686 323.49 173.646 320.774 175.385L320.504 175.562C318.049 177.205 315.462 173.57 317.43 171.575C319.601 169.385 321.412 166.772 323.335 164.337C322.431 162.67 322.003 160.7 321.842 158.709C321.779 158.145 321.73 157.581 321.68 157.017C320.302 157.038 318.916 156.565 317.743 155.751L317.299 155.435C315.874 155.89 314.378 156.11 312.946 156.071C309.577 155.972 308.198 152.12 310.305 149.685C312.455 147.195 316.219 146.651 319.2 147.86C319.296 147.81 319.396 147.757 319.491 147.704C319.349 147.049 319.381 146.456 319.543 145.935L319.496 145.617C318.84 144.61 318.409 143.461 318.246 142.246C318.116 141.284 318.143 140.331 318.365 139.381C318.439 139.065 318.593 138.738 318.71 138.408C318.468 137.796 318.326 137.163 318.281 136.526C318.214 136.445 318.146 136.363 318.082 136.273C316.603 134.194 316.902 131.69 318.31 130.008C318.316 129.901 318.326 129.794 318.34 129.688C318.258 129.502 318.182 129.314 318.113 129.125C316.738 127.736 315.728 126.065 315.916 123.995C316.027 122.776 316.527 121.68 317.284 120.86C317.15 120.462 317.137 120.002 317.3 119.618C316.091 116.401 316.244 112.526 317.114 108.929C316.922 108.381 316.823 107.787 316.844 107.158C316.944 104.487 319.253 102.034 321.99 102.066C322.319 102.069 322.627 102.112 322.924 102.175L322.928 102.111C323.033 101.309 323.253 100.569 323.574 99.904C323.416 99.8468 323.27 99.7646 323.142 99.6554C321.388 100.591 319.533 101.307 317.588 101.794C316.157 102.153 314.692 100.526 315.581 99.1825C315.994 98.5591 316.449 97.9994 316.94 97.488C316.242 97.492 315.535 97.5392 314.819 97.6313C313.532 97.7985 312.096 96.9201 311.261 95.7324C310.224 96.7423 309.183 97.7487 308.141 98.755C305.505 101.312 301.521 99.4307 301.105 96.0596C300.32 95.8498 299.588 95.4942 298.945 94.9857C294.787 96.7921 290.313 97.7843 285.74 97.9727C282.456 98.1079 280.537 94.2816 282.072 91.579C283.103 89.7654 284.382 88.1367 285.857 86.7214C283.568 87.422 281.205 87.9269 278.792 88.2505C277.488 88.4248 275.644 87.3438 275.122 86.1454C273.124 81.5368 273.295 76.7326 275.594 72.2484C275.683 72.0706 275.783 71.8999 275.879 71.7292C276.117 71.1354 276.376 70.5486 276.657 69.9726C273.828 67.021 273.583 62.6329 275.107 58.9595C274.496 57.9674 274.262 56.7726 274.677 55.6915C275.861 52.58 277.566 49.7067 279.72 47.2389C279.514 46.8406 279.333 46.4174 279.18 45.9622C277.968 42.2818 279.372 37.8403 282.204 35.2764C283.984 33.6619 286.031 32.6947 288.217 32.0759C289.137 30.4473 290.32 28.9786 291.699 27.7411C291.752 27.6238 291.806 27.5065 291.866 27.3891C294.012 23.3423 297.921 21.1732 302.111 20.6718C302.274 19.0893 303.34 17.578 304.89 17.0873C305.316 15.7182 305.952 14.4096 306.827 13.2219C308.202 11.3514 310.487 10.4695 312.64 11.6963C313.82 12.3684 314.95 13.1401 316.009 13.9935C316.485 13.7703 317.024 13.6259 317.632 13.5798L317.786 13.5704L321.29 13.3926C322.757 12.7418 324.221 12.0591 325.689 11.3941C326.57 10.6651 327.554 10.057 328.628 9.6054C329.843 9.09689 331.087 8.80885 332.334 8.71284C333.347 8.38213 334.367 8.09053 335.404 7.86295C337.842 7.32954 340.394 7.03083 342.924 7.05573C342.975 6.4004 343.001 5.73724 342.996 5.06624L342.991 4.73008C342.934 2.57869 344.651 0.861124 346.673 0.555306ZM344.217 172.685C343.869 172.76 343.517 172.82 343.165 172.863C343.272 173.126 343.379 173.389 343.482 173.652C343.766 173.812 344.054 173.965 344.342 174.107C344.256 173.624 344.207 173.137 344.217 172.685ZM325.96 167.256L325.724 167.691C325.685 167.762 325.648 167.833 325.611 167.902C326.112 167.863 326.616 167.874 327.114 167.93L327.112 167.877C327.048 167.856 326.985 167.836 326.923 167.806C326.58 167.641 326.261 167.456 325.96 167.256ZM335.827 147.394C338.971 147.578 341.635 148.06 344.494 149.436L344.74 149.557C347.266 150.812 351.445 153.13 351.093 156.455C350.994 157.401 350.308 158.397 349.228 158.322C346.268 158.119 344.576 155.132 342.572 153.269C340.55 151.391 338.066 149.461 335.618 148.17C335.271 147.988 335.408 147.413 335.784 147.394L335.827 147.394ZM321.57 103.588C320.817 103.613 321.069 104.345 321.457 103.733C321.489 103.684 321.528 103.634 321.57 103.588ZM362.236 54.6845C355.101 54.8722 347.92 59.0879 342.575 63.3491C337.926 67.0563 333.91 71.4657 330.355 76.2184C329.44 78.5853 328.655 81.0016 327.992 83.4357C327.554 85.043 327.281 86.6681 326.915 88.2897L326.801 88.7868C326.514 89.3245 326.3 89.903 326.144 90.5008C326.792 91.1508 327.633 91.6163 328.558 91.8372C328.856 91.9083 329.104 92.0622 329.3 92.2664C330.044 91.0225 330.695 89.7096 331.074 88.3178L331.088 88.2534C332.52 85.9068 334.075 83.633 335.742 81.4372C340.34 75.3742 345.404 69.8481 351.491 65.2501C356.107 61.7652 361.267 59.0342 366.754 57.2598C365.411 56.1755 363.886 55.3178 362.236 54.6845Z" fill="#02040F"/>
<path fill-rule="evenodd" clip-rule="evenodd" d="M426.556 186.543C423.938 187.302 421.128 187.37 418.46 186.586C416.04 185.876 413.555 184.311 411.773 182.242C410.191 180.403 409.166 178.169 409.206 175.784C409.211 175.511 409.308 175.284 409.458 175.107C409.619 174.917 409.844 174.787 410.085 174.73C410.333 174.672 410.596 174.693 410.819 174.794C411.021 174.886 411.194 175.042 411.303 175.27C411.576 175.63 411.849 175.984 412.123 176.329C414.324 179.049 416.455 181.081 419.765 181.81C421.561 182.206 423.354 182.031 425 181.427C426.762 180.781 428.354 179.645 429.602 178.191C430.166 177.534 430.831 177.266 431.483 177.261C432.22 177.256 432.949 177.599 433.499 178.148C434.039 178.687 434.4 179.419 434.433 180.185C434.462 180.857 434.243 181.56 433.659 182.186C431.739 184.251 429.249 185.763 426.556 186.543ZM426.475 152.48C429.159 154.112 433.247 157.918 430.36 161.964C426.963 165.532 422.07 161.441 419.659 159.591C417.424 158.157 414.912 161.845 416.986 163.519C434.407 176.426 441.477 152.906 427.832 150.56C426.33 150.302 425.772 151.975 426.475 152.48ZM401.373 145.297C400.51 144.745 399.496 144.556 398.371 145.068C397.493 145.468 395.952 146.801 394.879 148.553C394.145 149.752 393.625 151.158 393.733 152.623C393.759 152.963 393.633 153.214 393.435 153.4C393.278 153.546 393.052 153.654 392.787 153.687C392.561 153.716 392.309 153.69 392.104 153.626C391.714 153.504 391.507 153.251 391.429 153.044C390.678 151.048 391.002 148.821 391.844 146.812C392.979 144.101 395.042 141.829 396.393 141.097C398.706 139.844 401.434 139.786 403.75 141.063C405.721 142.15 406.954 143.905 408.18 145.693C408.44 146.074 408.699 146.451 408.966 146.822C409.502 147.565 409.556 148.302 409.348 148.934C409.118 149.634 408.532 150.224 407.799 150.534C407.122 150.819 406.336 150.86 405.64 150.566C405.052 150.318 404.513 149.834 404.172 149.014C403.597 147.632 402.64 146.108 401.373 145.297V145.297ZM445.176 148.371C444.586 148.679 444.123 148.772 443.468 148.576C443.106 148.467 442.748 148.258 442.467 147.978C442.19 147.699 441.989 147.354 441.911 146.97C441.719 146.023 441.202 145.137 440.464 144.559C439.834 144.066 439.038 143.804 438.155 143.952C437.203 144.111 436.295 144.722 435.67 145.443C435.461 145.684 435.297 145.958 435.133 146.23C434.825 146.739 434.526 147.211 434.101 147.585C433.94 147.727 433.697 147.826 433.462 147.826C433.367 147.826 433.27 147.81 433.178 147.781C432.23 146.829 432.047 146.107 432.078 145.39C432.11 144.639 432.406 143.878 432.884 143.169C434.006 141.504 436.137 140.139 437.574 139.829C439.543 139.406 441.498 139.914 443.066 141.015C444.679 142.147 445.874 143.905 446.247 145.886C446.337 146.363 446.299 146.878 446.117 147.325C445.94 147.761 445.63 148.135 445.176 148.371ZM405.715 127.547C404.534 128.699 403.135 128.877 401.72 129.036C400.934 129.125 400.307 129.196 399.689 129.336C397.992 129.719 396.314 130.297 394.784 131.128C393.183 131.998 391.44 133.046 390.185 134.389C389.887 134.709 389.606 135.044 389.324 135.38C389.067 135.687 388.82 135.982 388.559 136.267C388.26 136.593 387.976 136.936 387.693 137.277C387.518 137.566 387.484 137.637 387.448 137.71C387.395 137.821 387.334 137.945 387.263 138.078C387.167 138.261 387.054 138.46 386.936 138.641C386.739 138.972 386.633 139.063 386.542 139.104C386.391 139.171 386.247 139.205 386.108 139.187C385.977 139.17 385.854 139.107 385.733 139.004C385.126 138.491 384.947 137.65 384.966 136.756C384.993 135.4 385.493 133.899 385.954 132.976C387.025 130.832 388.511 128.603 390.297 127.003C392.335 125.176 394.565 123.793 397.127 122.84C398.718 122.248 400.561 121.704 402.296 121.773C403.544 121.822 404.735 122.194 405.72 123.121C406.324 123.69 406.614 124.5 406.614 125.309C406.614 126.134 406.313 126.964 405.715 127.547ZM447.579 138.096C447.504 138.219 447.4 138.304 447.284 138.355C447.163 138.408 447.027 138.424 446.898 138.402C446.768 138.38 446.645 138.321 446.548 138.231C446.454 138.145 446.383 138.031 446.351 137.892C445.567 134.444 444.043 131.879 440.792 130.225C439.193 129.411 437.354 128.894 435.613 128.482C435.107 128.362 434.573 128.284 434.034 128.206C432.347 127.959 430.648 127.677 429.548 126.312C428.885 125.49 428.607 124.439 428.764 123.477C428.912 122.572 429.441 121.742 430.402 121.244C432.794 120.007 435.767 121.221 438.183 122.256C438.363 122.333 438.538 122.408 438.711 122.481C441.073 123.479 443.228 124.796 444.999 126.68C446.405 128.174 447.707 130.384 448.232 132.657C448.668 134.548 448.565 136.478 447.579 138.096Z" fill="#02040F"/>
<path fill-rule="evenodd" clip-rule="evenodd" d="M24.8467 403.001C25.7784 402.536 26.7496 402.004 27.8136 401.967C29.6408 401.903 29.6433 399.058 27.8136 399.122C26.2177 399.178 24.8161 399.843 23.4118 400.545C21.7732 401.363 23.2145 403.816 24.8467 403.001M27.8136 322.926C26.5666 322.927 25.3097 323.085 24.3521 323.957C23.7828 324.476 23.8279 325.444 24.3521 325.969C24.9132 326.53 25.7952 326.486 26.3627 325.969C26.1775 326.137 26.3609 325.97 26.4281 325.933C26.444 325.924 26.4529 325.918 26.4572 325.914C26.4714 325.911 26.4856 325.908 26.5087 325.902C26.6573 325.865 26.804 325.828 26.9543 325.801C26.9568 325.808 27.2717 325.78 27.3456 325.777C27.5019 325.772 27.6576 325.771 27.8136 325.771C28.5847 325.77 29.235 325.12 29.235 324.348C29.235 323.58 28.5819 322.926 27.8136 322.926M41.1803 354.836C41.5876 356.623 44.3277 355.862 43.9216 354.08C43.331 351.489 43.4386 348.834 43.9216 346.233C44.2542 344.441 41.514 343.68 41.1803 345.477C40.6011 348.597 40.4714 351.727 41.1803 354.836M44.7709 252.597C46.8881 252.094 48.9822 252.034 51.1477 252.033C52.98 252.033 52.9771 249.188 51.1477 249.189C48.7324 249.189 46.3746 249.293 44.015 249.854C42.2333 250.277 42.9923 253.019 44.7709 252.597M51.8652 321.89C53.093 321.275 54.3214 320.661 55.5492 320.046C57.1881 319.227 55.7464 316.774 54.1146 317.59L50.4303 319.434C48.7921 320.253 50.2334 322.706 51.8652 321.89M52.3766 377.912C53.9341 380.159 56.1242 381.555 58.7524 382.252C60.5256 382.723 61.2754 379.978 59.5082 379.509C57.6288 379.011 55.9589 378.103 54.8314 376.476C53.7948 374.98 51.3314 376.404 52.3766 377.912M62.1997 277.751C62.6211 276.963 63.2554 276.63 64.0429 276.613C65.8723 276.571 65.8727 273.726 64.0429 273.768C62.2484 273.808 60.6027 274.71 59.7452 276.316C58.882 277.931 61.3372 279.367 62.1997 277.751M80.2312 297.088C80.7408 297.644 81.729 297.63 82.2415 297.088C82.5552 296.757 82.8189 296.387 83.0264 295.981C83.1053 295.827 83.1796 295.67 83.2663 295.52C83.305 295.454 83.348 295.388 83.3921 295.324C83.407 295.311 83.4379 295.279 83.4699 295.245C84.0161 294.667 84.0023 293.814 83.4699 293.233C82.96 292.678 81.9717 292.692 81.4593 293.233C81.1459 293.565 80.8819 293.935 80.6747 294.341C80.5958 294.494 80.5215 294.651 80.4345 294.801C80.3957 294.868 80.3527 294.934 80.3087 294.998C80.2938 295.011 80.2632 295.043 80.2312 295.077C79.6847 295.654 79.6985 296.508 80.2312 297.088M81.7472 339.095C83.5986 339.943 85.6291 339.943 87.4805 339.095C88.1816 338.774 88.3479 337.761 87.99 337.149C87.5757 336.44 86.7431 336.319 86.0455 336.639C85.2058 337.023 84.0204 337.023 83.1817 336.639C82.481 336.318 81.6565 336.432 81.2372 337.149C80.8772 337.765 81.0489 338.776 81.7472 339.095M86.7971 368.829C87.1152 369.583 87.8021 369.983 88.6052 370.014C89.4008 370.044 89.9932 369.338 90.0266 368.591C90.0479 368.109 89.7875 367.697 89.4133 367.441C89.4129 367.415 89.4122 367.389 89.4122 367.362C89.4118 366.565 88.7612 365.974 87.9908 365.94C87.2236 365.905 86.569 366.618 86.5693 367.362C86.5697 367.864 86.6006 368.362 86.7971 368.829M94.1317 416.1C96.4003 416.136 98.617 416.677 100.886 416.714C102.719 416.744 102.714 413.899 100.886 413.869C98.6174 413.832 96.4007 413.291 94.1317 413.255C92.2984 413.225 92.3041 416.07 94.1317 416.1M103.566 233.797C104.894 235.063 106.534 235.686 108.152 236.477C109.791 237.278 111.23 234.824 109.587 234.021C108.216 233.351 106.699 232.856 105.576 231.785C104.25 230.522 102.238 232.531 103.566 233.797M107.13 266.587C108.062 266.121 109.033 265.589 110.097 265.552C111.924 265.488 111.927 262.643 110.097 262.707C108.501 262.763 107.1 263.429 105.695 264.13C104.056 264.949 105.498 267.402 107.13 266.587M124.22 398.19C124.641 397.401 125.275 397.068 126.062 397.051C127.892 397.009 127.893 394.164 126.062 394.206C124.268 394.247 122.622 395.149 121.765 396.754C120.902 398.37 123.357 399.805 124.22 398.19M130.138 336.415C130.704 335.895 130.664 334.93 130.138 334.403C129.524 333.789 128.91 333.174 128.295 332.56C127.734 331.998 126.853 332.039 126.285 332.56C125.72 333.08 125.759 334.045 126.285 334.572C126.9 335.186 127.514 335.8 128.128 336.415C128.69 336.977 129.57 336.936 130.138 336.415M137.116 432.691C139.166 432.643 141.089 432.054 143.02 431.411C144.75 430.835 144.004 428.088 142.264 428.668C140.586 429.226 138.9 429.804 137.116 429.846C135.286 429.888 135.285 432.733 137.116 432.691M146.327 371.857C148.179 371.805 149.716 370.861 151.016 369.597C152.33 368.318 150.318 366.308 149.006 367.585C148.262 368.309 147.404 368.982 146.327 369.012C144.497 369.063 144.496 371.908 146.327 371.857M140.607 293.624C140.584 294.382 140.264 295.193 139.795 295.691C138.539 297.022 140.546 299.037 141.805 297.703C142.843 296.603 143.406 295.13 143.45 293.624C143.502 291.79 140.659 291.798 140.607 293.624M162.291 231.666C162.886 230.5 163.665 229.133 164.851 228.489C166.462 227.614 165.025 225.159 163.416 226.032C161.804 226.908 160.651 228.633 159.836 230.23C159.005 231.859 161.459 233.296 162.291 231.666M165.976 261.251C166.636 261.232 167.29 261.119 167.926 260.946C168.198 260.872 168.467 260.787 168.739 260.713C168.855 260.682 169.35 260.62 169.046 260.636C169.816 260.595 170.468 260.018 170.468 259.214C170.468 258.474 169.814 257.75 169.046 257.791C167.991 257.848 167.032 258.376 165.976 258.406C164.148 258.457 164.146 261.302 165.976 261.251M175.187 306.722H178.257C180.089 306.722 180.086 303.877 178.257 303.877H175.187C173.355 303.877 173.358 306.722 175.187 306.722M178.768 432.496C179.699 432.962 180.796 433.404 181.551 434.117C182.88 435.375 184.893 433.366 183.561 432.106C182.6 431.197 181.372 430.625 180.203 430.04C179.514 429.695 178.666 429.851 178.258 430.55C177.889 431.183 178.082 432.153 178.768 432.496M185.628 396.552C185.747 396.519 185.873 396.496 185.994 396.479C186.477 396.414 186.983 396.437 187.468 396.436C189.3 396.435 189.297 393.59 187.468 393.591C186.026 393.592 184.526 393.612 183.392 394.623C182.817 395.135 182.873 396.114 183.392 396.634C183.957 397.199 184.83 397.145 185.403 396.634C185.342 396.688 185.549 396.574 185.628 396.552M187.467 348.21C187.054 347.358 187.048 346.802 187.047 345.855C187.046 344.022 184.203 344.025 184.204 345.855C184.205 347.23 184.409 348.401 185.012 349.646C185.349 350.34 186.334 350.521 186.957 350.156C187.656 349.747 187.802 348.901 187.467 348.21M195.687 281.478C197.336 282.039 198.808 282.833 200.26 283.792C201.792 284.804 203.215 282.34 201.695 281.336C200.038 280.242 198.324 279.375 196.443 278.734C194.704 278.142 193.964 280.891 195.687 281.478M205.276 233.599C206.501 233.633 207.765 234.103 208.857 234.634C210.497 235.431 211.937 232.977 210.291 232.177C208.732 231.419 207.026 230.803 205.276 230.754C203.442 230.703 203.45 233.548 205.276 233.599M209.574 361.411C210.056 361.432 210.468 361.172 210.723 360.797C210.75 360.797 210.776 360.796 210.802 360.796C211.599 360.796 212.189 360.145 212.224 359.374C212.258 358.606 211.546 357.951 210.802 357.951C210.3 357.952 209.803 357.982 209.336 358.179C208.583 358.497 208.183 359.185 208.153 359.988C208.122 360.785 208.828 361.377 209.574 361.411M216.565 263.043C218.311 263.614 219.052 260.866 217.321 260.3C215.289 259.635 213.212 259.121 211.18 258.456C209.434 257.886 208.693 260.634 210.424 261.2C212.456 261.864 214.533 262.379 216.565 263.043M222.94 316.739C223.482 318.485 226.225 317.735 225.682 315.982C225.157 314.29 225.12 312.588 225.119 310.83C225.118 308.996 222.275 309 222.276 310.83C222.277 312.83 222.344 314.813 222.94 316.739M241.947 381.051C242.051 381.76 242.612 382.27 243.347 382.303C244.095 382.337 244.796 381.625 244.769 380.881C244.716 379.449 243.55 378.282 242.119 378.229C241.323 378.2 240.731 378.904 240.698 379.652C240.665 380.378 241.271 380.945 241.947 381.051M251.566 299.298C253.068 299.799 254.673 300.277 255.851 301.39C257.182 302.646 259.195 300.638 257.861 299.378C256.308 297.911 254.311 297.219 252.322 296.554C250.58 295.972 249.84 298.721 251.566 299.298M258.085 354.562C258.498 355.268 259.334 355.395 260.03 355.072C260.962 354.638 261.992 354.653 262.997 354.651C264.829 354.65 264.826 351.805 262.997 351.807C261.446 351.808 260.015 351.954 258.595 352.615C257.896 352.941 257.726 353.946 258.085 354.562M261.769 421.63C262.565 421.659 263.157 420.955 263.19 420.208C263.223 419.481 262.617 418.914 261.94 418.808C261.837 418.1 261.275 417.589 260.541 417.556C259.792 417.522 259.092 418.234 259.119 418.979C259.172 420.411 260.337 421.577 261.769 421.63M2.77552 432.386C3.25845 430.647 4.3636 429.243 5.19868 427.678C5.47871 427.151 5.57608 426.823 5.72782 426.437C5.93392 426.85 6.33405 427.16 6.93567 427.16C8.08987 427.161 9.43987 427.086 10.517 427.581C11.2174 427.902 12.0425 427.788 12.4615 427.07C12.8214 426.454 12.6494 425.444 11.9515 425.124C10.3641 424.396 8.65773 424.316 6.93567 424.315C6.51031 424.315 6.18836 424.472 5.96093 424.707C5.30281 415.689 5.31915 406.665 5.94174 397.64C6.6059 387.996 8.13428 378.544 9.73339 369.025C10.5077 364.409 11.5134 359.747 11.3179 355.046C11.1225 350.377 9.12183 346.025 10.5397 341.341C11.1083 339.464 12.082 337.743 12.7145 335.886C13.3932 333.888 13.3328 331.914 13.0236 329.845C12.3876 325.631 11.3325 321.467 13.0204 317.352C13.7663 315.528 14.9749 313.899 15.5573 312.015C16.2823 309.671 16.1828 307.079 16.3036 304.65C16.5488 299.75 16.6127 294.818 17.0182 289.928C17.1991 287.738 17.5935 285.661 18.4926 283.652C19.3564 281.717 20.6389 279.957 21.2111 277.905C21.7796 275.885 21.8294 273.755 22.135 271.689C22.4548 269.506 22.9559 267.355 23.631 265.256C26.2394 257.135 31.0189 249.838 36.6655 243.511C42.6675 236.787 49.8422 231.723 57.4575 227.004C61.462 224.523 65.4661 222.041 69.4678 219.56C69.5531 220.026 69.8498 220.453 70.4195 220.644C71.9223 221.146 73.5267 221.623 74.7047 222.736C76.0352 223.993 78.0483 221.984 76.715 220.725C75.3241 219.41 73.5761 218.719 71.7972 218.111C73.6205 216.961 75.4634 215.77 77.5209 215.106C79.3229 214.523 81.9807 215.031 83.4415 213.708C84.589 212.666 84.9518 210.735 85.3921 209.32C85.9429 207.563 86.4191 205.711 87.1191 204.004C87.5953 202.838 88.2882 201.717 89.1624 200.814C89.5462 199.335 90.2502 197.984 91.4939 197.162C94.7486 195.007 98.7464 197.148 100.178 200.22C101.362 200.217 102.609 200.476 103.76 200.547C106.127 200.697 108.497 200.764 110.868 200.757C115.505 200.743 120.146 200.441 124.744 199.826C132.967 198.723 140.945 196.501 149.029 194.769C149.076 194.662 149.129 194.556 149.193 194.449C150.934 191.526 155.273 192.02 158.006 193.126C159.178 193.599 160.372 194.196 161.044 195.306C161.755 195.786 162.369 196.369 162.778 196.984C163.624 198.254 164.278 200.814 165.994 201.027C167.124 201.166 168.272 200.949 169.42 201.113C170.855 201.312 172.142 201.817 173.467 202.393C183.559 206.778 193.993 211.653 204.945 213.353C207.514 213.751 210.129 214.163 212.361 215.604C214.173 216.774 215.574 218.381 217.07 219.906C218.527 221.393 219.728 222.051 221.806 222.317C224.33 222.641 226.515 223.338 228.359 225.173C229.891 226.698 230.889 228.647 232.09 230.418C233.313 232.225 235.107 233.242 236.97 234.291C241.372 236.773 245.473 239.77 249.045 243.366C256.567 250.947 261.123 260.691 265.714 270.185C270.679 280.455 275.32 290.849 278.539 301.816C281.695 312.584 283.571 323.661 284.438 334.841C285.351 346.572 285.479 358.35 286.24 370.088C286.62 375.952 286.908 381.823 287.199 387.691C287.484 393.487 287.899 399.294 287.832 405.097C287.704 416.317 285.462 427.571 281.542 438.076C280.565 440.69 279.481 443.268 278.326 445.807C277.313 448.036 273.848 447.787 272.761 445.807C272.512 445.352 272.317 444.882 272.153 444.406C269.311 444.431 266.439 444.21 263.614 444.473C258.625 444.939 253.625 445.199 248.622 445.508C238.721 446.123 228.803 446.532 218.9 447.098C217.939 447.152 216.978 447.207 216.017 447.265C223.075 425.405 222.16 401.772 223.277 379.037C223.366 377.205 220.523 377.215 220.434 379.037C219.312 401.869 220.267 425.563 212.96 447.458C210.125 447.65 207.294 447.885 204.472 448.228C202.191 448.502 199.899 448.826 197.596 448.712C194.984 448.588 192.433 447.99 189.885 447.471C185.254 446.529 180.795 446.955 176.147 447.535C171.175 448.157 166.186 448.502 161.183 448.719C141.148 449.597 120.978 450.398 100.95 449.057C96.1025 448.733 91.2661 448.278 86.451 447.659C81.4903 447.023 76.5828 445.953 71.6259 445.344C66.7398 444.747 62.2477 446.386 57.4184 446.689C52.4935 446.998 47.4364 445.97 42.5574 445.38C40.9657 445.187 39.3723 444.999 37.7785 444.813C39.8303 430.74 40.997 416.561 42.1302 402.388C42.2763 400.559 39.4323 400.575 39.2874 402.388C38.1634 416.45 37.0227 430.524 34.974 444.486C26.5254 443.502 18.0686 442.507 9.70816 440.974C7.32727 440.54 4.9606 439.833 3.53562 437.706C2.48056 436.131 2.267 434.2 2.77552 432.386" fill="#02040F"/>
<path fill-rule="evenodd" clip-rule="evenodd" d="M99.7543 150.532C100.679 145.002 100.469 133.331 100.451 132.621C100.338 128.137 103.355 110.61 107.224 112.442C114.133 107.537 123.03 106.84 131.321 106.719C148.543 106.467 166.661 110.066 179.307 122.314C185.546 128.657 191.469 137.718 190.48 146.777C195.983 155.701 203.758 167.955 195.812 177.635C193.121 180.72 189.051 181.708 185.755 183.978C179.113 188.785 174.729 195.954 168.029 200.728C150.184 215.153 121.079 216.837 105.249 198.536C92.9628 185.238 96.0457 166.469 99.1662 150.501C101.264 139.766 97.9507 161.321 99.7543 150.532Z" fill="white"/>
<path fill-rule="evenodd" clip-rule="evenodd" d="M155.483 84.3278C150.942 83.1608 146.259 82.3373 141.563 82.2652L141.201 82.2603C137.667 82.2165 133.184 82.2943 130 84.1844C129.833 83.9975 129.553 83.8914 129.288 84.0011C125.541 85.5551 121.454 86.6065 117.538 87.6589C113.641 88.706 109.623 89.3215 105.589 89.4431C104.072 89.4889 102.693 91.0532 103.573 92.5672C103.782 92.928 103.986 93.2919 104.188 93.6568C103.821 93.5989 103.454 93.5398 103.086 93.4831C101.877 93.2971 100.595 94.5308 100.605 95.7181C100.611 96.4649 100.653 97.2047 100.734 97.9377C100.271 97.9038 99.8077 97.9491 99.3533 98.1137C97.0524 98.9466 97.0685 101.637 97.1301 103.686C97.2151 106.53 98.1167 109.585 99.9715 111.808C98.4238 113.256 97.2893 115.023 96.5561 117.153C96.0238 118.709 95.6854 120.378 95.7227 122.029L95.7363 122.523C95.7955 124.315 95.9956 126.307 97.2115 127.657C97.8354 128.354 98.6343 128.637 99.4118 128.602C98.7286 132.689 98.2119 136.808 97.7137 140.914L97.4781 142.877C96.3494 152.368 95.3738 161.928 94.9977 171.474C94.6454 180.395 95.9529 189.14 101.039 196.665C105.672 203.517 112.565 208.751 120.554 211.022C124.859 212.247 129.304 212.551 133.748 212.147C135.902 211.95 138.079 211.589 140.147 210.948C142.436 210.237 144.114 209.101 145.722 207.35C146.482 206.52 146.235 204.655 144.802 204.754C142.636 204.902 140.654 205.114 138.557 205.643L138.257 205.72C136.167 206.272 134.012 206.651 131.852 206.747C127.428 206.943 122.982 206.28 118.835 204.723C112.083 202.187 106.425 197.027 102.954 190.734C98.8342 183.275 98.7552 175.048 99.2555 166.745C99.8028 157.635 100.577 148.531 101.538 139.451L101.7 137.938C102.201 133.266 102.694 128.591 103.157 123.914C103.302 122.447 103.482 120.97 103.745 119.512C105.493 118.607 107.085 117.316 108.164 115.676C110.112 116.604 112.174 117.308 114.075 117.883C118.479 119.214 123.098 119.723 127.675 119.274C128.873 119.844 130.099 120.355 131.348 120.804C131.682 120.974 132.017 121.142 132.352 121.306C135.342 122.775 138.386 124.047 141.571 125.027L142.354 125.267C144.031 125.775 145.854 126.284 147.656 126.508C147.947 126.639 148.262 126.752 148.608 126.856C150.233 127.342 151.935 127.558 153.63 127.506C155.281 127.454 156.556 125.854 155.732 124.251C155.13 123.081 154.521 121.913 153.907 120.749C156.199 121.848 158.577 122.787 160.981 123.603C163.409 124.426 165.877 125.142 168.351 125.812C169.674 126.167 171.004 126.49 172.324 126.846C173.269 127.099 174.731 127.281 175.477 127.952C176.302 128.688 176.462 130.313 176.737 131.324C177.098 132.638 177.433 133.956 177.732 135.287C178.326 137.943 178.787 140.63 179.111 143.337C179.435 146.047 179.605 148.775 179.636 151.504C179.666 154.231 179.447 156.963 179.584 159.683C179.659 161.126 181.161 161.945 182.351 161.002C182.491 160.891 182.632 160.779 182.771 160.666L182.979 160.495C183.999 159.664 184.992 158.778 185.826 157.766C185.977 157.579 186.123 157.383 186.26 157.184C186.281 157.185 186.299 157.18 186.32 157.166L186.545 157.015C189.015 155.369 193.109 153.269 195.274 156.332C195.964 157.308 196.279 158.521 196.533 159.688L196.976 161.777C197.262 163.141 197.526 164.511 197.65 165.897C197.933 169.003 197.523 172.544 195.273 174.904C194.375 175.848 193.171 176.492 191.859 176.609C191.127 176.671 190.416 176.51 189.7 176.381C188.973 176.252 188.26 176.362 187.531 176.253C186.373 176.077 185.791 177.445 186.18 178.344C186.391 178.827 186.646 179.247 186.943 179.608C186.679 179.812 186.425 180.035 186.18 180.27C185.48 180.454 184.838 180.895 184.343 181.498C183.943 181.984 183.721 182.524 183.658 183.102C183.609 183.244 183.566 183.389 183.526 183.537L182.841 184.528C182.691 184.745 182.541 184.96 182.391 185.171C180.653 187.616 178.759 189.664 176.439 191.565C174.206 193.395 171.801 195.012 169.689 196.989L169.44 197.224C167.47 199.094 165.377 201.373 165.958 204.273C166.108 205.018 167.106 205.601 167.803 205.14C170.042 203.652 171.26 201.174 173.19 199.329C175.177 197.427 177.356 195.739 179.348 193.844C181.231 192.055 182.751 189.997 183.935 187.705C184.335 188.195 184.934 188.56 185.783 188.734C187.242 189.032 188.657 188.242 189.365 187.002C189.767 187.206 190.179 187.392 190.596 187.544C192.789 188.343 194.321 185.937 193.576 184.061C193.178 183.055 192.661 182.173 192.001 181.418C194.196 181.233 196.472 180.222 197.978 178.891C201.756 175.547 202.528 170.264 201.967 165.501C201.668 162.976 201.061 160.405 200.222 158.004C200.076 157.587 199.918 157.165 199.743 156.749C199.851 156.752 199.966 156.711 200.041 156.623C200.737 155.769 201.566 155.084 202.101 154.115C202.592 153.227 203.135 152.329 203.534 151.397C204.356 149.491 204.824 147.315 205.167 145.272C205.873 141.088 205.904 136.896 205.479 132.68C204.756 125.499 202.465 118.543 198.876 112.356C199.095 112.256 199.305 112.132 199.503 111.982L199.601 111.905L199.761 111.776C200.927 110.826 200.93 108.932 199.966 107.858L199.662 107.519C199.276 107.093 198.942 106.754 198.308 106.28C198.214 106.21 198.118 106.143 198.021 106.081C198.398 105.463 198.557 104.726 198.36 103.893C197.675 100.991 193.559 100.877 190.888 101.987C188.141 99.2625 185.062 96.8612 181.693 94.8708C173.668 90.1324 164.496 86.6405 155.483 84.3278ZM194.187 161.829C192.672 161.245 190.571 162.194 189.152 162.756C187.355 163.47 185.799 164.583 184.286 165.766C183.533 166.358 183.35 167.38 183.483 168.269C183.496 168.358 183.509 168.451 183.525 168.543C183.667 169.491 184.675 170.284 185.602 170.306C187.543 170.355 188.553 168.73 189.725 167.37C189.842 167.606 189.992 167.826 190.184 167.995L190.314 168.108C190.751 168.479 191.238 168.782 191.841 168.787C192.268 168.789 192.683 168.701 193.069 168.524C194.036 168.076 194.515 166.88 194.311 165.876C194.185 165.244 193.846 164.736 193.387 164.373L193.571 164.261C193.965 164.017 194.326 163.756 194.618 163.359L194.684 163.264L194.66 163.263C194.981 162.773 194.825 162.074 194.187 161.829Z" fill="#02040F"/>
<path fill-rule="evenodd" clip-rule="evenodd" d="M120.067 187.624C122.2 188.365 124.522 188.543 126.763 188.011C128.797 187.528 130.921 186.342 132.484 184.707C133.873 183.255 134.818 181.451 134.888 179.477C134.896 179.251 134.826 179.059 134.709 178.907C134.584 178.742 134.404 178.625 134.206 178.568C134.004 178.509 133.786 178.514 133.597 178.589C133.426 178.656 133.276 178.777 133.176 178.961C132.934 179.247 132.693 179.528 132.451 179.802C130.512 181.956 128.661 183.544 125.891 184.004C124.388 184.253 122.911 184.03 121.576 183.46C120.146 182.849 118.878 181.84 117.908 180.584C117.47 180.016 116.931 179.765 116.393 179.733C115.782 179.697 115.164 179.949 114.686 180.379C114.216 180.801 113.885 181.391 113.825 182.024C113.772 182.578 113.923 183.169 114.378 183.712C115.878 185.503 117.872 186.862 120.067 187.624ZM121.61 159.453C119.319 160.687 115.771 163.658 117.984 167.13C120.641 170.228 124.866 167.057 126.941 165.631C128.853 164.542 130.771 167.701 128.983 168.996C114.009 178.916 109.179 159.156 120.57 157.807C121.824 157.658 122.214 159.066 121.61 159.453ZM142.691 154.601C143.429 154.182 144.276 154.069 145.184 154.542C145.894 154.91 147.112 156.08 147.923 157.576C148.478 158.599 148.848 159.785 148.695 160.992C148.659 161.272 148.752 161.485 148.908 161.647C149.031 161.775 149.213 161.874 149.432 161.913C149.617 161.946 149.827 161.936 149.999 161.892C150.328 161.808 150.509 161.607 150.583 161.44C151.291 159.822 151.119 157.966 150.51 156.267C149.688 153.975 148.08 152.007 146.993 151.343C145.134 150.206 142.879 150.04 140.908 150.996C139.23 151.809 138.134 153.207 137.042 154.634C136.81 154.937 136.579 155.238 136.342 155.533C135.867 156.124 135.791 156.731 135.935 157.263C136.095 157.852 136.554 158.366 137.147 158.653C137.695 158.919 138.344 158.987 138.932 158.774C139.429 158.594 139.896 158.218 140.214 157.554C140.75 156.436 141.608 155.217 142.691 154.601V154.601ZM106.315 155.244C106.79 155.525 107.168 155.621 107.719 155.487C108.023 155.413 108.329 155.256 108.573 155.036C108.815 154.818 108.996 154.541 109.077 154.227C109.277 153.452 109.743 152.742 110.379 152.296C110.922 151.915 111.592 151.733 112.315 151.893C113.097 152.066 113.821 152.611 114.307 153.234C114.469 153.443 114.593 153.676 114.717 153.909C114.95 154.343 115.177 154.747 115.513 155.074C115.64 155.199 115.836 155.291 116.03 155.301C116.109 155.305 116.19 155.296 116.268 155.277C117.094 154.53 117.276 153.941 117.282 153.347C117.288 152.724 117.076 152.082 116.711 151.474C115.854 150.048 114.151 148.827 112.975 148.509C111.364 148.073 109.724 148.409 108.379 149.251C106.996 150.118 105.931 151.52 105.536 153.142C105.441 153.533 105.451 153.961 105.582 154.338C105.709 154.706 105.949 155.029 106.315 155.244ZM139.868 139.731C140.795 140.735 141.945 140.943 143.109 141.136C143.755 141.244 144.271 141.33 144.776 141.472C146.164 141.863 147.527 142.413 148.757 143.168C150.044 143.956 151.441 144.899 152.421 146.064C152.654 146.342 152.872 146.631 153.09 146.921C153.289 147.186 153.481 147.441 153.685 147.687C153.918 147.971 154.138 148.266 154.358 148.561C154.49 148.807 154.515 148.867 154.541 148.93C154.58 149.024 154.626 149.129 154.678 149.242C154.75 149.397 154.835 149.567 154.925 149.722C155.074 150.004 155.157 150.084 155.231 150.122C155.353 150.184 155.47 150.218 155.586 150.209C155.695 150.201 155.8 150.154 155.905 150.074C156.429 149.676 156.613 148.988 156.637 148.248C156.673 147.126 156.324 145.862 155.983 145.079C155.19 143.259 154.057 141.351 152.649 139.95C151.041 138.351 149.256 137.11 147.178 136.211C145.887 135.652 144.385 135.122 142.947 135.104C141.912 135.091 140.91 135.346 140.056 136.07C139.531 136.515 139.256 137.172 139.221 137.841C139.185 138.524 139.399 139.223 139.868 139.731ZM104.772 146.641C104.829 146.746 104.911 146.821 105.004 146.868C105.103 146.918 105.214 146.936 105.322 146.924C105.43 146.911 105.535 146.868 105.619 146.798C105.7 146.731 105.764 146.64 105.797 146.526C106.595 143.708 107.967 141.652 110.728 140.425C112.087 139.821 113.631 139.474 115.089 139.208C115.513 139.131 115.959 139.09 116.408 139.048C117.814 138.917 119.233 138.758 120.202 137.677C120.786 137.025 121.061 136.168 120.973 135.366C120.89 134.611 120.488 133.901 119.715 133.448C117.789 132.32 115.276 133.196 113.232 133.947C113.081 134.003 112.932 134.058 112.786 134.11C110.788 134.833 108.948 135.829 107.401 137.311C106.173 138.486 105 140.257 104.468 142.114C104.025 143.659 104.026 145.26 104.772 146.641Z" fill="#02040F"/>
<path fill-rule="evenodd" clip-rule="evenodd" d="M113.657 192.052C116.523 189.755 119.849 185.01 123.58 189.098C124.495 190.245 124.76 192.725 126.223 193.285C128.165 194.03 130.233 192.041 130.99 190.471C134.213 181.692 122.952 178.648 116.389 179.75C113.151 180.886 110.542 186.005 110.257 188.733C110.07 190.566 111.484 193.35 113.657 192.052M93.7192 177.216C93.7522 177.099 93.7951 176.994 93.8452 176.899C95.0803 176.504 96.0141 177.021 96.5605 177.925C96.5297 178.141 96.4536 178.357 96.4014 178.57C96.8079 179.557 97.1576 180.77 97.7333 181.634C97.8551 181.65 97.9825 181.644 98.1061 181.615C108.315 183.225 103.867 172.219 114.418 170.096C122.536 169.189 137.003 171.473 140.361 180.052C142.653 193.594 158.368 185.065 163.732 178.366C169.398 172.311 173.252 164.75 176.971 157.412C177.757 155.86 179.891 157.111 179.572 158.624C182.323 164.953 181.832 172.357 182.239 179.154C182.828 192.703 183.099 211.674 170.146 219.25C152.864 236.841 111.784 241.216 93.8548 223.28C88.0751 208.93 89.7738 191.882 93.7192 177.216" fill="#02040F"/>
<path fill-rule="evenodd" clip-rule="evenodd" d="M106.586 136.733C99.6844 136.371 95.6682 137.649 94.2189 137.689L94.1754 137.69C93.5731 137.697 93.0319 137.719 92.4555 137.908C90.3361 138.6 89.8835 140.761 91.0238 142.199C90.9599 145.045 90.4122 148.347 90.9039 151.232C91.0649 163.294 96.61 165.619 99.7836 166.528C101.377 166.984 103.281 167.232 105.014 166.93C107.943 166.974 110.88 166.21 113.436 164.746C116.995 162.705 119.731 159.425 120.773 155.417C121.267 153.506 121.557 151.506 121.445 149.531L121.428 149.259C122.575 148.782 123.877 148.749 125.216 148.772C125.856 148.783 126.487 148.795 127.097 148.854C127.691 148.952 128.277 149.072 128.863 149.224C129.499 149.454 130.093 149.808 130.63 150.348L130.63 151.095C130.639 152.961 130.785 154.84 131.066 156.685C131.481 159.408 132.241 162.027 134.045 164.037C134.639 165.034 135.391 165.935 136.32 166.73C139.695 169.623 144.42 170.867 148.825 170.723C157.767 170.429 163.283 163.63 164.627 160.671L164.708 160.491C165.682 158.29 166.518 155.411 169.25 155.07L169.831 154.997C171.078 154.83 172.235 154.566 173.022 153.399C173.367 152.889 173.562 152.309 173.633 151.711C174.054 151.766 174.474 151.819 174.893 151.871C178.21 152.756 198.298 154.413 199.904 154.497C199.904 154.497 202.923 155.958 204.279 155.019C205.219 154.367 205.565 153.449 205.123 152.366C204.456 150.735 201.045 149.597 199.524 149.214C199.524 149.214 174.707 148.12 172.94 147.687C171.895 146.49 169.911 146.543 168.269 146.276C166.954 145.229 165.076 144.476 163.588 143.96C163.286 143.827 162.988 143.698 162.697 143.576C159.98 142.445 157.129 141.772 154.222 141.338C151.223 140.894 148.195 140.865 145.178 141.118C143.906 141.224 142.644 141.379 141.387 141.604C139.148 141.781 136.912 142.148 134.658 142.604L134.207 142.697C131.832 143.188 129.398 143.593 126.995 143.05C125.038 142.61 123.18 141.75 121.403 140.833L121.172 140.713C117.266 138.676 111.088 136.969 106.586 136.733ZM141.437 145.261C142.93 145.013 143.442 147.324 141.943 147.572C140.882 147.748 139.966 148.23 139.318 149.095L139.25 149.189C138.376 150.43 136.4 149.139 137.28 147.89C138.269 146.485 139.741 145.542 141.437 145.261ZM98.2637 141.582C98.8034 141.243 99.5769 141.556 99.8519 142.091C100.155 142.679 99.9033 143.303 99.3962 143.651L99.3447 143.685C98.881 143.976 98.4159 144.519 98.3308 145.095L98.3222 145.167C98.1842 146.679 95.8295 146.564 95.9681 145.044C96.1036 143.557 97.0313 142.357 98.2637 141.582Z" fill="url(#paint0_linear_169_665)"/>
<defs>
<linearGradient id="paint0_linear_169_665" x1="204.769" y1="163.722" x2="102.953" y2="158.386" gradientUnits="userSpaceOnUse">
<stop stop-color="#0268A2"/>
<stop offset="1" stop-color="#940EBD"/>
</linearGradient>
</defs>
</svg>
