<svg width="592" height="522" viewBox="0 0 592 522" fill="none" xmlns="http://www.w3.org/2000/svg">
<path d="M572.087 364.047C572.57 359.701 569.875 356.602 568.467 355.595L566.656 353.181C573.294 339.497 586.329 311.888 585.364 310.922C584.398 309.957 555.19 307.703 540.707 306.697L529.241 304.282L490.619 339.9C473.32 353.583 436.307 384.331 426.652 397.854C414.582 414.757 435.1 435.282 453.204 429.849C471.308 424.416 516.568 424.416 531.655 433.471C546.742 442.527 563.035 410.531 568.467 408.72C572.812 407.271 577.116 396.043 578.726 390.609L573.898 385.176C576.312 382.963 580.295 378.294 576.915 377.328C572.691 376.121 571.484 369.48 572.087 364.047Z" fill="white"/>
<path fill-rule="evenodd" clip-rule="evenodd" d="M515.671 370.762C511.193 369.005 506.371 368.034 501.524 367.657C504.133 367.199 506.75 366.758 509.389 366.531C511.229 366.374 512.936 366.39 514.32 367.787C515.243 368.718 515.675 369.916 516.282 371.017C516.084 370.928 515.878 370.843 515.671 370.762ZM563.741 354.334C556.407 354.707 549.064 356.451 542.429 359.613C539.714 360.908 537.255 362.779 536.535 365.855C536.17 367.427 536.259 369.05 536.453 370.637C536.599 371.839 536.636 373.373 537.679 374.187C537.857 374.325 538.048 374.43 538.246 374.507C535.798 375.612 533.468 376.94 531.396 378.308C529.503 379.559 527.557 381.486 526.683 383.66C526.611 383.413 526.538 383.183 526.465 382.964C524.976 378.56 522.682 374.953 519.07 372.527C519.709 372.24 520.15 371.56 519.944 370.621C519.086 366.697 515.465 363.289 511.375 363.532C506.896 363.795 502.086 365.426 498.036 367.487C496.56 367.455 495.087 367.475 493.631 367.54C493.38 367.548 493.392 367.888 493.631 367.916C494.812 368.066 495.994 368.232 497.175 368.426C499.983 368.876 502.782 369.446 505.521 370.155C508.806 371.005 512.204 371.859 515.275 373.345C521.23 376.232 524.916 383.778 524.159 390.344C524.034 391.421 523.617 394.676 522.124 394.34C520.862 394.057 520.36 391.421 519.919 390.445C518.738 387.854 516.61 386.162 514.057 385.016C511.059 383.668 507.851 382.757 504.744 381.697C502.984 381.094 501.225 380.49 499.461 379.891C497.656 379.272 495.941 378.418 494.019 378.851C492.858 379.114 492.725 380.498 493.376 381.292C494.367 382.502 495.84 382.859 497.268 383.357C499.153 384.012 501.034 384.669 502.916 385.324C505.824 386.336 508.871 387.19 511.706 388.429L511.618 388.632C511.387 388.567 511.116 388.798 511.161 389.081C511.585 391.7 512.176 394.729 511.52 397.352C511.003 399.433 509.178 401.737 506.807 401.125C507.18 400.785 507.317 400.198 507.066 399.656C506.127 397.647 493.829 389.721 492.733 392.664C492.696 392.769 492.809 392.846 492.899 392.83C493.833 392.636 495.399 394.231 496.147 394.737C497.227 395.466 498.323 396.178 499.392 396.927C500.561 397.745 501.702 398.603 502.814 399.49C503.688 400.186 504.348 400.911 505.351 401.263C504.825 401.514 504.408 401.979 504.23 402.574C503.777 404.125 502.903 405.441 501.386 406.125C499.796 406.837 498.004 406.388 496.329 406.562C494.048 406.793 492.057 407.878 490.394 409.429C486.903 412.691 485.151 418.44 480.268 419.983C477.351 420.902 474.115 420.323 471.162 419.906C467.865 419.44 464.652 419.072 461.331 419.557C458.151 420.023 455.145 421.124 452.24 422.468C449.518 423.727 446.508 425.153 444.093 427.031C443.595 425.496 443.093 423.978 442.713 422.412C441.815 418.708 441.329 414.934 441.212 411.129C441.103 407.506 441.305 403.866 441.616 400.259C441.77 398.457 442.013 396.664 442.167 394.862C442.207 394.409 442.288 393.923 442.349 393.438C446.662 390.891 451.192 388.94 455.76 386.932C455.772 386.928 455.784 386.919 455.796 386.916C455.938 386.85 456.076 386.79 456.217 386.729C456.213 386.721 456.209 386.713 456.201 386.705C456.723 386.385 457.087 385.96 457.305 385.482C463.888 381.114 469.39 375.151 473.492 368.195C475.211 365.281 476.866 362.256 479.115 359.702C481.51 356.977 484.354 355.358 487.874 354.516C491.988 353.528 496.228 352.937 500.444 352.601C502.746 352.419 505.318 352.135 507.827 352.148C509.575 352.16 511.286 352.309 512.856 352.743C515.182 353.382 516.541 355.152 518.002 356.941C519.397 358.658 520.785 360.378 522.088 362.168C523.321 363.864 524.487 365.617 525.498 367.455C526.105 368.556 526.667 369.69 527.141 370.859C527.307 371.273 527.525 371.742 527.626 372.171C527.727 372.604 527.541 373.062 528.027 373.062C526.024 373.09 526.044 376.292 528.035 376.175C535.827 375.721 524.665 360.5 523.034 358.378C520.724 355.374 518.341 351.455 514.644 350.059C514.591 350.038 514.535 350.018 514.482 350.002C515.558 348.982 516.408 347.759 517.221 346.516C518.058 345.237 519.057 343.771 519.333 342.253C519.507 341.286 518.305 340.735 517.735 341.581C516.905 342.816 516.505 344.379 515.886 345.735C515.255 347.111 514.486 348.411 513.879 349.799C512.419 349.35 510.841 349.144 509.235 349.075C511.262 346.33 514.724 341.035 515.141 340.355C517.059 337.205 518.884 333.958 520.627 330.707C522.512 327.185 524.127 323.517 525.931 319.955C526.955 317.935 527.986 315.898 529.123 313.939C529.515 313.267 529.936 312.595 530.414 311.983C530.507 311.862 530.624 311.761 530.733 311.647C530.859 311.579 530.988 311.502 531.061 311.462C531.716 311.085 531.947 310.211 532.408 309.656C533.144 308.761 534.01 308.656 535.119 308.643C537.481 308.619 539.852 308.712 542.21 308.777C545.678 308.874 549.141 309.012 552.604 309.194C553.651 309.251 554.695 309.307 555.743 309.372C560.78 309.672 565.813 310.064 570.833 310.547C575.275 310.971 579.717 311.664 584.163 311.996C578.144 326.307 571.468 340.359 563.911 353.921C563.834 354.058 563.777 354.196 563.741 354.334ZM530.341 391.202C529.37 391.648 528.427 392.202 527.549 392.834C527.695 391.851 527.731 390.814 527.691 389.773C528.415 390.551 529.341 390.996 530.341 391.202ZM571.788 366.585C571.719 366.592 571.654 366.629 571.622 366.697C570.279 369.471 570.841 372.568 573.034 374.742C574.183 375.875 576.687 377.154 576.606 379.017C576.537 380.523 574.899 381.786 574.199 383.029C573.548 384.187 573.305 385.458 573.827 386.713C574.494 388.32 576.359 388.96 576.999 390.539C577.808 392.542 576.493 394.96 575.571 396.704C574.713 398.32 573.604 399.935 572.868 401.643C567.936 404.198 563.523 408.117 559.728 412.097C555.573 416.449 552.009 421.569 545.411 421.44C544.751 421.428 544.249 421.776 543.95 422.258C542.113 422.343 540.273 422.379 538.436 422.388C535.208 422.403 531.979 422.371 528.755 422.27C528.528 421.489 528.694 420.428 528.682 419.768C528.642 417.643 528.621 415.521 528.532 413.396C528.508 412.805 528.484 412.21 528.46 411.619C529.621 413.72 531.886 414.675 534.467 414.529C538.618 414.287 542.793 413.606 546.903 412.995C549.068 412.675 551.228 412.311 553.384 411.922C555.156 411.606 557.657 411.688 558.895 410.266C559.186 409.935 559.202 409.328 558.745 409.104C557.519 408.501 556.746 408.837 555.399 409.097C553.757 409.416 552.11 409.72 550.459 410.004C547.291 410.554 544.116 411.064 540.932 411.513C539.12 411.768 537.303 412.019 535.487 412.218C533.901 412.388 532.113 412.618 530.834 411.425C528.257 409.011 529.702 404.967 531.332 402.53C531.364 402.482 531.364 402.437 531.352 402.396C532.889 402.036 534.423 401.615 535.952 401.319C538.893 400.753 541.854 400.275 544.82 399.85C550.913 398.979 557.046 398.405 563.17 397.826C564.687 397.68 564.704 395.292 563.17 395.433C554.371 396.239 545.528 397.004 536.846 398.7C534.67 399.121 532.509 399.599 530.361 400.137C529.346 400.389 528.257 400.781 527.193 400.794C527.129 400.794 527.063 400.794 526.999 400.789C524.916 400.725 524.612 398.939 525.757 397.454C525.899 397.271 526.044 397.089 526.194 396.915C528.217 394.502 530.737 392.891 533.334 391.223C536.243 390.826 539.144 389.943 541.992 389.296C549.023 387.692 556.055 386.089 563.09 384.49C564.469 384.174 563.883 382.053 562.503 382.365C557.163 383.576 551.823 384.786 546.482 385.996L538.667 387.77C537.105 388.122 535.155 388.83 533.318 389.086C532.412 389.211 531.534 389.227 530.741 389.041C528.18 388.434 528.051 385.231 529.155 383.328C530.393 381.191 532.732 379.855 534.807 378.644C538.404 376.543 542.231 375.033 545.969 373.292C546.632 373.147 547.296 373.001 547.959 372.855C551.819 372.005 556.229 371.588 559.861 370.03C560.95 369.568 560.355 367.851 559.279 367.876C556.459 367.937 553.51 368.94 550.755 369.535C547.773 370.183 544.788 370.827 541.806 371.471C541.507 371.535 539.735 372.102 539.468 371.977C539.298 371.896 539.237 371.305 539.18 370.916C538.998 369.637 538.865 368.293 539.063 367.009C539.5 364.131 541.899 362.779 544.326 361.673C549.731 359.216 555.658 357.678 561.557 357.062C562.916 356.921 564.275 356.832 565.643 356.787C567.248 356.738 568.572 356.455 569.385 358.038C570.663 360.532 571.367 363.739 571.788 366.585ZM564.282 457.003C563.104 452.927 563.424 448.575 562.618 444.418C562.201 442.273 561.633 440.145 561.012 438.051C560.512 436.36 559.676 434.561 559.581 432.796C559.576 432.678 559.715 432.61 559.81 432.664C561.472 433.616 562.748 435.675 563.695 437.29C564.829 439.223 565.696 441.248 566.394 443.376C567.787 447.616 568.93 452.73 567.134 457.003C566.6 458.275 564.723 458.53 564.282 457.003ZM527.885 403.016C528.88 402.919 529.875 402.728 530.871 402.506C529.758 403.591 528.731 404.898 528.16 406.348C528.071 405.235 527.957 404.125 527.808 403.02C527.832 403.02 527.861 403.02 527.885 403.016ZM518.32 487.858C516.565 486.633 515.287 484.92 513.798 483.408C512.335 481.921 514.623 479.63 516.087 481.118C517.357 482.407 518.459 484.019 519.954 485.062C520.673 485.563 521.006 486.471 520.535 487.277C520.118 487.99 519.038 488.359 518.32 487.858ZM508.533 440.757C511.737 439.37 514.888 437.861 518.241 436.862C520.244 436.265 521.093 439.392 519.101 439.985C516.013 440.905 513.117 442.277 510.167 443.553C508.273 444.372 506.627 441.581 508.533 440.757ZM474.7 439.786C473.916 437.852 477.049 437.019 477.821 438.926C478.71 441.121 479.728 443.26 480.617 445.455C481.4 447.389 478.268 448.223 477.496 446.316C476.607 444.121 475.588 441.982 474.7 439.786ZM441.306 478.416C440.784 479.112 439.913 479.49 439.091 478.997C438.403 478.584 437.982 477.486 438.511 476.782C440.053 474.724 441.616 472.691 443.424 470.857C444.89 469.37 447.177 471.662 445.713 473.147C444.098 474.785 442.683 476.578 441.306 478.416ZM436.531 261.668C438.016 262.684 439.318 263.917 440.587 265.186C442.062 266.662 439.773 268.952 438.298 267.476C437.228 266.406 436.15 265.321 434.897 264.465C434.173 263.97 433.848 263.05 434.316 262.249C434.736 261.532 435.808 261.175 436.531 261.668ZM485.115 313.786C484.275 315.469 483.519 317.119 483.471 319.032C483.42 321.115 480.183 321.117 480.235 319.032C480.297 316.528 481.219 314.358 482.32 312.151C483.251 310.284 486.042 311.926 485.115 313.786ZM502.94 271.928C504.68 270.768 506.299 273.575 504.574 274.725C503.176 275.657 501.778 276.591 500.379 277.523C498.64 278.684 497.022 275.877 498.746 274.727C500.144 273.794 501.542 272.861 502.94 271.928ZM425.623 345.113C425.326 347.171 422.207 346.29 422.502 344.252C422.957 341.101 423.512 337.993 424.366 334.924C424.925 332.916 428.047 333.774 427.487 335.785C426.633 338.854 426.078 341.963 425.623 345.113ZM414.275 382.212C412.192 382.168 412.192 378.929 414.275 378.973C416.161 379.014 418.014 379.51 419.832 379.964C421.855 380.47 420.993 383.592 418.972 383.087C417.434 382.703 415.869 382.246 414.275 382.212ZM410.086 456.946C409.371 457.294 408.637 457.608 407.913 457.939C406.464 458.602 405.017 459.265 403.569 459.931C400.553 461.316 397.539 462.706 394.528 464.1C388.5 466.893 382.426 469.586 376.383 472.348C370.222 475.165 364.076 478.019 357.938 480.888C355.046 482.239 352.132 483.54 349.224 484.856C346.738 485.981 343.665 487.947 340.935 488.132C340.795 488.142 340.748 487.964 340.828 487.873C341.859 486.699 343.504 486.017 344.859 485.254C346.244 484.474 347.654 483.741 349.058 482.998C351.984 481.446 354.915 479.907 357.87 478.409C363.78 475.416 369.702 472.445 375.625 469.477C381.666 466.45 387.699 463.403 393.793 460.484C396.662 459.109 399.534 457.738 402.408 456.372C403.965 455.632 405.522 454.893 407.08 454.155C407.753 453.837 408.418 453.493 409.106 453.208C410.02 452.83 410.715 452.907 411.657 452.674C413.195 452.294 413.86 454.25 412.68 455.102C411.708 455.804 411.197 456.404 410.086 456.946ZM388.48 490.155C388.148 489.347 388.843 488.365 389.61 488.163C390.529 487.921 391.266 488.479 391.601 489.294C392.489 491.454 393.752 493.435 395.379 495.109C396.833 496.605 394.546 498.896 393.091 497.399C391.052 495.301 389.587 492.85 388.48 490.155ZM372.585 438.169C371.109 436.693 373.398 434.403 374.873 435.879L379.068 440.076C380.543 441.553 378.254 443.843 376.779 442.367L372.585 438.169ZM329.552 431.326C326.536 432.211 323.019 433.025 320.963 435.599C320.862 435.725 320.694 435.564 320.754 435.438C323.386 429.978 330.934 428.062 336.16 426.149C339.857 424.796 343.65 423.674 347.474 422.671C347.092 418.305 348.146 413.626 348.513 409.281C348.904 404.642 349.222 399.992 349.386 395.338C349.553 390.592 349.593 385.813 349.437 381.065C349.282 376.334 348.668 371.662 348.4 366.947C348.374 366.491 349.008 366.469 349.145 366.846C350.733 371.221 351.412 376.067 351.929 380.681C352.461 385.433 352.638 390.172 352.57 394.952C352.499 399.866 352.214 404.769 351.822 409.668C351.636 411.991 351.42 414.309 351.217 416.63C351.062 418.401 350.99 420.157 350.629 421.872C352.935 421.306 355.248 420.77 357.552 420.249C364.902 418.589 372.282 417.049 379.6 415.254C383.193 414.374 386.734 413.319 390.31 412.382C393.678 411.5 397.232 410.43 400.689 410.037C401.923 409.896 402.08 411.585 401.263 412.158C398.453 414.133 394.721 415.507 391.476 416.613C388.218 417.721 384.832 418.519 381.493 419.341C374.53 421.055 367.501 422.456 360.483 423.915C353.474 425.373 346.452 426.82 339.523 428.619C336.186 429.485 332.86 430.355 329.552 431.326ZM313.026 344.681C311.225 345.74 309.598 342.939 311.393 341.884C313.743 340.505 316.246 339.468 318.77 338.457C320.707 337.681 321.541 340.814 319.631 341.58C317.363 342.488 315.137 343.441 313.026 344.681ZM306.502 465.006C304.695 466.054 303.067 463.254 304.869 462.209C307.399 460.742 310.169 459.762 312.791 458.478C314.657 457.564 316.295 460.359 314.425 461.275C311.803 462.559 309.032 463.538 306.502 465.006ZM303.567 396.704C305.314 398.364 307.645 399.146 309.844 400.019C311.761 400.779 310.92 403.91 308.983 403.142C306.244 402.055 303.455 401.062 301.278 398.994C299.765 397.555 302.057 395.269 303.567 396.704ZM322.893 303.945C324.814 304.699 323.973 307.83 322.033 307.068C319.881 306.224 317.659 305.581 315.508 304.736C313.588 303.983 314.429 300.852 316.369 301.613C318.52 302.457 320.742 303.1 322.893 303.945ZM356.987 267.101C359.027 266.757 359.896 269.878 357.847 270.225C355.305 270.654 352.802 271.156 350.39 272.09C348.443 272.844 347.608 269.711 349.53 268.967C351.941 268.034 354.445 267.531 356.987 267.101ZM368.252 356.807C366.381 355.886 368.022 353.094 369.885 354.011C371.848 354.976 373.882 355.723 376.023 356.179C378.063 356.614 377.194 359.735 375.163 359.302C372.752 358.788 370.459 357.893 368.252 356.807ZM378.891 306.277C380.906 305.725 381.758 308.849 379.752 309.4C376.222 310.368 372.588 310.871 369.032 311.732C367.006 312.223 366.148 309.099 368.172 308.609C371.727 307.748 375.362 307.245 378.891 306.277ZM424.026 290.42C426.075 290.799 425.202 293.92 423.166 293.543C420.999 293.142 418.803 293.136 416.606 293.134C414.52 293.134 414.523 289.895 416.606 289.896C419.102 289.897 421.566 289.965 424.026 290.42ZM571.23 307.34C565.942 306.834 560.646 306.429 555.342 306.126C555.095 306.113 554.853 306.097 554.606 306.085C554.578 306.029 554.541 305.976 554.505 305.919C552.774 303.376 551.499 300.834 550.395 297.96C549.339 295.223 548.315 292.402 546.689 289.932C544.834 287.118 542.33 284.917 539.585 283.009C537.921 284.129 536.376 285.441 534.962 286.831C533.474 288.294 531.185 286.004 532.673 284.541C533.93 283.305 535.27 282.164 536.687 281.133C535.051 280.138 533.381 279.203 531.753 278.272C525.647 274.787 519.397 271.564 513.017 268.617C510.052 267.244 507.05 266.026 504.028 264.791C502.401 264.128 500.796 263.273 499.169 262.504C499.287 261.354 498.943 260.067 498.061 259.31C497.41 258.755 496.904 258.549 496.127 258.156C495.953 258.095 495.848 258.059 495.799 258.038C495.836 258.047 495.941 258.079 496.115 258.136C496.528 258.326 496.56 258.269 496.212 257.97C496.192 257.314 494.901 255.93 494.606 255.254C493.578 252.933 493.259 250.48 491.742 248.367C489.65 245.456 486.138 244.355 482.865 245.343C482.526 241.841 482.437 238.185 481.118 235.06C481.081 234.975 480.964 234.938 480.912 235.031C479.536 237.376 479.419 239.987 479.314 242.691C479.212 245.229 479.309 247.824 479.641 250.346C479.431 250.508 479.216 250.663 478.994 250.812C477.95 251.5 476.826 252.031 475.644 252.424C473.395 253.168 471.036 253.492 468.678 253.605C462.589 253.897 456.314 253.282 450.327 252.237C444.271 251.18 434.986 249.593 429.597 246.561C426.041 244.562 422.76 242.12 419.434 239.756C420.64 235.869 420.948 231.691 419.734 228.408C419.588 228.015 418.973 227.943 418.856 228.408C418.096 231.542 417.873 234.691 416.862 237.788C416.845 237.833 416.829 237.882 416.813 237.926C416.498 237.712 416.182 237.501 415.866 237.29C415.138 236.809 414.147 237.169 413.71 237.857C406.723 248.873 395.659 249.504 384.04 251.472C371.324 253.626 358.544 255.949 346.319 260.164C334.627 264.196 323.453 270.067 314.601 278.835C312.597 280.821 310.723 282.936 308.955 285.144C310.666 285.36 312.363 285.696 314.038 286.223C316.022 286.846 315.169 289.972 313.178 289.346C311.025 288.669 308.848 288.334 306.649 288.167C300.634 296.401 295.944 305.737 291.889 314.927C284.111 332.546 279.047 351.309 276.718 370.412C277.997 369.645 279.299 368.914 280.634 368.235C282.488 367.291 284.124 370.086 282.267 371.031C280.206 372.081 278.203 373.237 276.263 374.491C275.415 382.853 275.087 391.269 275.286 399.672C275.759 419.703 278.462 440.322 284.575 459.434C287.572 468.814 291.545 478.118 297.464 486.045C300.142 489.635 303.184 492.874 306.769 495.574C308.504 496.886 310.341 498.056 312.279 499.044C314.775 500.323 318.028 500.744 320.18 502.554C320.888 503.149 321.434 503.934 321.847 504.821C321.608 506.505 321.58 508.193 322.041 509.877C322.187 510.404 322.583 510.833 323.072 511.039C323.081 511.185 323.081 511.327 323.081 511.464C323.081 511.529 323.178 511.545 323.19 511.481C323.21 511.355 323.23 511.229 323.25 511.1C323.408 511.153 323.574 511.177 323.744 511.177C329.889 511.2 336.042 511.05 342.196 510.842C341.72 509.383 341.204 507.937 340.71 506.478C340.038 504.497 343.165 503.654 343.83 505.618C344.409 507.323 345.015 509.013 345.553 510.724C352.146 510.479 358.737 510.184 365.317 509.967C379.31 509.501 393.3 509.347 407.297 509.052C429.035 508.591 450.93 507.647 472.701 508.57C473.454 506.971 474.297 505.409 475.096 503.831C476.039 501.97 478.83 503.611 477.891 505.466C477.335 506.562 476.76 507.644 476.213 508.738C480.623 508.967 485.028 509.27 489.423 509.683C496.924 510.387 504.352 511.638 511.844 512.416C519.462 513.209 526.914 513.068 534.471 511.809C535.831 511.582 536.632 510.76 536.963 509.74C536.975 509.736 536.984 509.728 536.991 509.715C537.38 509.262 537.744 508.886 538.12 508.558C538.569 508.266 539.055 508.019 539.625 507.8C540.689 507.396 541.798 507.149 542.923 506.983C544.16 506.797 545.415 506.78 546.653 506.627C547.696 506.493 548.716 506.294 549.735 506.052C551.568 505.615 553.308 505.044 555.039 504.286C556.548 503.627 557.911 502.68 559.198 501.647C561.86 499.7 564.166 497.214 566.181 494.631C567.354 493.121 568.458 491.554 569.462 489.923C571.209 487.097 572.698 484.162 574.203 481.202C574.749 480.326 575.248 479.428 575.703 478.511C572.762 477.644 569.793 476.937 566.675 476.886C564.59 476.853 564.591 473.614 566.675 473.648C570.251 473.705 573.633 474.541 576.994 475.537C577.158 475.102 577.315 474.663 577.46 474.219C577.86 473.292 578.192 472.341 578.467 471.377C578.629 470.94 578.791 470.503 578.953 470.065C579.317 468.551 579.681 467.033 580.049 465.515C580.781 463.086 581.359 460.62 581.785 458.123C582.141 456.479 582.416 454.823 582.602 453.147C583.168 449.087 583.629 445.034 583.662 440.929C583.613 438.399 583.451 435.873 583.176 433.358C583.059 431.65 582.861 429.95 582.594 428.262C582.246 425.752 581.902 423.266 581.323 420.788C580.89 419.113 580.458 417.436 580.025 415.76C578.945 412.267 577.67 408.841 576.201 405.493C576.121 405.283 575.712 404.821 575.465 404.817C575.279 404.813 575.02 404.983 575.105 405.21C575.113 405.23 575.121 405.254 575.13 405.275C575.045 405.084 574.964 404.89 574.879 404.7C574.806 404.522 574.523 404.166 574.304 404.17C574.292 404.17 574.28 404.17 574.264 404.174C574.32 404.133 574.373 404.08 574.426 404.02C575.878 402.3 576.821 400.036 577.86 398.044C578.722 396.401 579.535 394.668 579.77 392.81C579.976 391.179 579.697 389.571 578.673 388.251C577.508 386.749 575.316 386.045 576.533 383.875C577.917 381.405 579.952 379.264 577.925 376.458C576.893 375.029 575.259 374.244 574.045 373.001C572.65 371.564 571.986 369.641 572.023 367.677C572.107 367.726 572.221 367.702 572.261 367.58C573.434 364.034 572.585 360.139 571.383 356.686C570.728 354.812 569.34 354.297 567.726 354.205C574.716 340.541 581.258 326.659 587.088 312.457C587.283 311.991 587.473 311.526 587.662 311.06C587.946 310.364 587.347 309.437 586.655 309.283C581.615 308.178 576.363 307.826 571.23 307.34Z" fill="#02040F"/>
<path fill-rule="evenodd" clip-rule="evenodd" d="M512.909 138.113C511.948 125.667 513.437 112.621 508.642 100.791C500.28 81.1621 476.834 74.6175 458.656 67.1445C451.374 64.9913 426.871 64.6904 418.344 61.8405C399.046 55.3907 394.436 47.7058 379.102 59.9865C376.514 62.0844 374.894 64.3645 373.713 67.4797L373.761 67.4931C373.424 68.7918 373.786 70.0877 374.546 71.0775C367.897 77.878 365.115 88.0735 368.526 97.1262C379.659 120.683 379.135 133.421 375.548 158.746C370.864 182.389 381.568 191.025 399.294 203.889C398.572 205.29 398.423 207.151 399.364 208.386C419.861 237.211 458.51 250.973 491.625 236.343C505.066 230.356 511.067 216.031 514.492 203.106C518.481 188.633 519.707 173.383 516.459 158.64C515.149 151.822 513.443 145.053 512.909 138.113Z" fill="white"/>
<path fill-rule="evenodd" clip-rule="evenodd" d="M394.673 0.216599C397.161 -0.157275 399.04 1.38748 399.934 3.56479L399.981 3.68203C400.268 4.42289 400.588 5.1435 400.932 5.85197C407.158 2.79543 416.042 3.58082 419.982 9.77083C422.794 14.1917 421.079 19.4384 420.019 24.1265L419.323 27.2154C420.668 28.0719 421.682 29.6058 421.635 31.1941L421.629 31.3164L421.346 35.6239C422.244 34.713 423.065 33.7212 423.797 32.6645C424.303 31.7375 424.849 30.8266 425.436 29.944C428.887 24.7499 436.634 29.2639 433.786 34.8264C433.24 35.8992 432.625 36.9154 431.966 37.8951C431.221 39.3403 430.61 40.8261 430.141 42.3524C431.488 42.9394 432.524 44.243 432.633 46.2105C432.888 50.8054 430.477 54.6393 426.642 57.0481C425.513 57.7565 424.348 57.8942 423.292 57.631C423.106 57.882 422.92 58.133 422.742 58.3881C424.271 59.6309 425.65 61.0479 426.836 62.6187C430.404 62.0843 433.992 61.8333 437.581 61.8252C441.966 59.6755 447.217 59.72 451.931 60.5256C454.965 61.0438 457.878 62.0519 460.863 62.7765C464.011 63.5376 467.207 63.566 470.391 64.0842C474.404 64.736 477.924 66.5901 480.136 69.5495C482.568 69.6224 485.125 70.6183 487.245 71.9705C492.18 75.1201 497.088 78.3143 502.011 81.4842C503.901 82.7012 504.607 84.644 504.26 86.8109L504.236 86.9495L504.07 87.8483L504.46 88.4015C505.966 90.5307 507.606 92.7609 508.581 95.1111C510.385 97.7142 512.016 100.443 513.46 103.257C515.406 107.038 517.012 111.046 518.1 115.159C518.371 116.199 518.642 117.248 518.82 118.308C519.075 119.806 518.683 120.968 518.468 122.405C518.201 124.227 518.104 126.073 517.821 127.899C517.631 129.11 516.603 129.705 515.527 129.737C515.932 132.818 516.223 135.919 516.502 138.996C516.895 143.392 517.162 147.801 517.392 152.21C518.582 153.938 521.013 155.307 522.769 155.78C525.2 156.432 527.749 155.724 530.047 154.894C531.491 154.372 532.677 156.189 531.973 157.404C529.76 161.217 525.026 161.201 521.442 159.513C519.925 158.801 518.594 157.768 517.607 156.424C517.667 157.703 517.732 158.983 517.797 160.266L517.857 161.428C518.586 175.004 520.16 189.046 517.611 202.487C513.197 225.769 493.943 243.497 470.423 244.874C458.081 245.596 447.803 241.948 442.692 239.913C437.581 237.878 439.567 233.729 443.115 234.915C449.227 236.958 460.456 240.002 470.504 238.688C494.187 235.59 514.269 223.744 512.206 172.727C511.913 165.492 511.012 158.254 510.818 151.02C510.632 143.947 510.701 136.87 510.389 129.802L510.286 127.39C510.164 124.572 510.034 121.741 509.823 118.92C509.568 117.827 509.358 116.717 509.046 115.645C508.201 112.726 507.096 109.888 505.725 107.179C505.421 107.41 505.082 107.576 504.713 107.641C501.918 108.143 499.296 108.001 496.679 106.835C495.457 106.297 494.381 105.58 493.378 104.694C492.9 104.277 492.581 103.872 492.33 103.451C491.064 103.471 489.797 103.091 489.004 102.18C488.1 101.141 487.95 100.069 488.304 99.0763L488.341 98.9773L488.252 98.945C487.184 101.71 485.056 104.143 482.722 105.787C479.032 108.394 474.416 109.147 469.99 109.216C465.103 109.289 459.949 108.536 455.127 107.766C453.852 107.564 452.586 107.333 451.344 107.022C451.295 107.07 451.247 107.127 451.194 107.175C447.056 111.139 441.234 112.159 435.983 109.896C432.949 108.588 430.404 106.483 428.155 104.07C428.122 105.333 428.057 106.596 427.948 107.847L427.903 108.344C427.679 110.674 427.248 113.145 425.489 114.827C422.644 117.551 418.518 116.458 415.237 114.685C415.241 114.77 415.241 114.859 415.241 114.948C416.127 117.96 417.017 120.976 417.907 123.992L418.099 124.635C418.746 126.776 419.456 128.921 419.651 131.162C420.023 135.445 417.175 139.676 412.417 138.239C409.922 137.488 407.922 135.388 406.004 133.706L404.795 132.66C407.923 142.89 410.091 153.485 410.293 164.161C410.305 164.74 409.808 165.177 409.258 165.197C407.971 165.25 406.587 164.995 405.293 164.48C405.22 164.476 405.147 164.472 405.07 164.46C402.861 164.14 400.81 163.343 399.002 162.165C399.419 163.489 399.605 164.91 399.496 166.395C399.467 166.756 398.905 166.881 398.824 166.484C397.78 161.347 391.772 157.465 386.594 158.448C381.035 159.505 376.941 164.29 375.938 169.735C374.862 175.585 376.921 182.35 380.736 186.864C382.492 188.945 384.802 190.682 387.545 191.119C388.799 191.317 390.102 191.248 391.319 190.892C391.837 190.738 392.323 190.524 392.816 190.321C393.536 190.03 394.378 189.985 395.058 189.678C396.599 188.985 398.148 190.406 397.368 191.989C396.688 193.37 396.077 194.301 394.948 195.014C395.863 196.131 396.692 197.685 396.999 198.102C398.569 200.224 400.163 202.228 401.951 204.167C403.772 206.134 405.758 207.932 407.858 209.596L408.74 210.294C410.763 211.899 412.524 213.386 413.95 215.689C415.075 217.506 413.619 219.972 411.511 219.944C404.917 219.85 400.123 214.053 396.708 208.989C396.223 208.264 395.765 207.499 395.341 206.713C395.187 206.96 395.017 207.191 394.827 207.402L395.203 208.414C396.32 211.393 391.51 213.341 390.114 210.559C389.098 208.543 387.921 206.624 386.61 204.811C385.838 204.701 385.081 204.232 384.66 203.624C383.596 202.082 382.403 200.523 381.396 198.88C380.837 198.349 380.263 197.839 379.676 197.341C379.506 197.491 379.332 197.641 379.166 197.799C378.43 199.479 377.52 201.013 376.391 202.459L376.149 202.767C373.987 205.494 371.17 208.285 367.685 208.952C366.621 209.155 365.597 207.831 366.54 206.985C368.98 204.79 371.864 203.297 374.113 200.847C375.222 199.641 376.239 198.312 377.114 196.919L377.314 196.596C377.459 196.358 377.609 196.119 377.763 195.876C376.747 195.184 375.732 194.487 374.716 193.791C371.921 196.181 368.281 197.274 365.189 199.254L364.881 199.455C362.086 201.325 359.141 197.188 361.382 194.916C363.853 192.422 365.915 189.448 368.104 186.675C367.075 184.778 366.587 182.535 366.405 180.268C366.333 179.626 366.277 178.984 366.22 178.342C364.651 178.366 363.073 177.828 361.738 176.901L361.232 176.541C359.61 177.059 357.907 177.31 356.276 177.265C352.441 177.152 350.871 172.768 353.271 169.994C355.718 167.161 360.002 166.541 363.397 167.918C363.506 167.861 363.619 167.8 363.728 167.739C363.567 166.995 363.603 166.319 363.787 165.725L363.733 165.363C362.987 164.217 362.496 162.909 362.31 161.526C362.163 160.431 362.193 159.346 362.446 158.265C362.53 157.905 362.705 157.532 362.839 157.157C362.563 156.459 362.401 155.739 362.351 155.014C362.274 154.922 362.197 154.828 362.124 154.726C360.44 152.36 360.78 149.508 362.383 147.593C362.39 147.472 362.401 147.35 362.418 147.229C362.324 147.017 362.238 146.804 362.16 146.588C360.593 145.007 359.444 143.105 359.658 140.748C359.784 139.361 360.354 138.112 361.216 137.179C361.063 136.726 361.048 136.202 361.233 135.764C359.858 132.102 360.032 127.691 361.022 123.596C360.803 122.972 360.69 122.296 360.714 121.58C360.828 118.539 363.457 115.746 366.572 115.782C366.947 115.785 367.299 115.834 367.636 115.906L367.64 115.834C367.76 114.921 368.011 114.078 368.377 113.321C368.197 113.256 368.03 113.163 367.884 113.038C365.888 114.104 363.776 114.918 361.561 115.473C359.933 115.881 358.265 114.029 359.277 112.5C359.747 111.79 360.265 111.153 360.823 110.571C360.03 110.575 359.224 110.629 358.408 110.734C356.944 110.924 355.31 109.924 354.359 108.572C353.177 109.722 351.992 110.867 350.807 112.013C347.805 114.924 343.27 112.782 342.796 108.945C341.902 108.706 341.069 108.301 340.337 107.722C335.603 109.778 330.51 110.908 325.303 111.123C321.565 111.276 319.381 106.92 321.128 103.844C322.301 101.779 323.758 99.9247 325.437 98.3134C322.831 99.1109 320.141 99.6858 317.394 100.054C315.909 100.253 313.81 99.0219 313.215 97.6576C310.941 92.4108 311.136 86.9414 313.753 81.8364C313.854 81.634 313.968 81.4397 314.077 81.2453C314.348 80.5693 314.643 79.9013 314.963 79.2454C311.742 75.8853 311.463 70.8895 313.199 66.7075C312.503 65.578 312.236 64.2178 312.709 62.9871C314.057 59.4447 315.998 56.1736 318.45 53.364C318.215 52.9106 318.009 52.4288 317.835 51.9106C316.456 47.7205 318.054 42.6641 321.278 39.7452C323.305 37.9072 325.635 36.806 328.123 36.1016C329.171 34.2475 330.518 32.5755 332.088 31.1666C332.148 31.033 332.209 30.8994 332.278 30.7658C334.721 26.1588 339.172 23.6892 343.941 23.1184C344.127 21.3169 345.341 19.5963 347.105 19.0376C347.591 17.479 348.315 15.9892 349.31 14.637C350.876 12.5075 353.477 11.5035 355.928 12.9002C357.272 13.6654 358.558 14.5439 359.764 15.5155C360.305 15.2614 360.919 15.097 361.612 15.0445L361.787 15.0337L365.775 14.8313C367.446 14.0905 369.113 13.3132 370.784 12.5561C371.787 11.7262 372.908 11.0339 374.13 10.5198C375.513 9.94086 376.929 9.61294 378.349 9.50363C379.502 9.12713 380.663 8.79516 381.845 8.53606C384.62 7.9288 387.525 7.58874 390.405 7.61708C390.464 6.87101 390.493 6.11603 390.488 5.35212L390.482 4.96942C390.417 2.52014 392.371 0.564761 394.673 0.216599ZM391.878 196.179C391.481 196.264 391.081 196.333 390.68 196.382C390.802 196.681 390.923 196.981 391.04 197.281C391.364 197.463 391.692 197.637 392.019 197.799C391.922 197.248 391.866 196.694 391.878 196.179ZM371.093 189.999L370.824 190.494C370.78 190.575 370.737 190.656 370.695 190.734C371.265 190.69 371.84 190.702 372.406 190.767L372.405 190.706C372.332 190.682 372.259 190.659 372.189 190.625C371.799 190.437 371.435 190.227 371.093 189.999ZM382.326 167.387C385.905 167.596 388.938 168.145 392.193 169.712L392.472 169.849C395.349 171.278 400.106 173.917 399.706 177.703C399.593 178.779 398.812 179.913 397.582 179.828C394.212 179.597 392.286 176.197 390.005 174.075C387.703 171.938 384.875 169.739 382.087 168.27C381.693 168.063 381.849 167.408 382.277 167.387L382.326 167.387ZM366.095 117.515C365.237 117.543 365.525 118.377 365.966 117.681C366.002 117.624 366.047 117.568 366.095 117.515ZM412.391 61.8406C404.269 62.0543 396.094 66.8537 390.009 71.7049C384.715 75.9253 380.144 80.9454 376.096 86.356C375.055 89.0507 374.161 91.8016 373.405 94.5727C372.908 96.4026 372.596 98.2527 372.18 100.099L372.05 100.665C371.723 101.277 371.48 101.936 371.303 102.616C372.04 103.356 372.997 103.886 374.05 104.137C374.39 104.218 374.672 104.394 374.895 104.626C375.743 103.21 376.484 101.715 376.915 100.131L376.931 100.057C378.561 97.3859 380.331 94.7974 382.229 92.2975C387.464 85.395 393.229 79.1037 400.159 73.8692C405.414 69.9017 411.288 66.7926 417.535 64.7724C416.006 63.538 414.27 62.5616 412.391 61.8406Z" fill="#02040F"/>
<path fill-rule="evenodd" clip-rule="evenodd" d="M485.617 211.957C482.637 212.821 479.438 212.898 476.4 212.006C473.645 211.197 470.816 209.416 468.788 207.059C466.987 204.966 465.82 202.422 465.866 199.707C465.871 199.397 465.982 199.138 466.152 198.937C466.336 198.721 466.592 198.572 466.866 198.508C467.149 198.442 467.447 198.465 467.702 198.581C467.932 198.685 468.129 198.863 468.252 199.123C468.564 199.532 468.874 199.936 469.186 200.328C471.692 203.425 474.118 205.739 477.886 206.569C479.931 207.019 481.973 206.819 483.846 206.132C485.852 205.397 487.664 204.103 489.085 202.448C489.727 201.7 490.485 201.395 491.226 201.39C492.066 201.384 492.896 201.774 493.522 202.399C494.136 203.012 494.548 203.846 494.585 204.718C494.618 205.484 494.369 206.283 493.705 206.997C491.518 209.347 488.684 211.068 485.617 211.957ZM485.525 173.176C488.58 175.035 493.235 179.368 489.949 183.975C486.08 188.036 480.511 183.379 477.766 181.273C475.221 179.64 472.362 183.839 474.723 185.745C494.556 200.439 502.604 173.662 487.071 170.992C485.36 170.697 484.725 172.602 485.525 173.176ZM456.948 165C455.966 164.371 454.811 164.156 453.531 164.739C452.53 165.194 450.776 166.711 449.555 168.706C448.719 170.071 448.127 171.672 448.25 173.34C448.279 173.727 448.136 174.013 447.91 174.224C447.732 174.391 447.475 174.513 447.173 174.552C446.916 174.584 446.629 174.555 446.395 174.482C445.951 174.343 445.716 174.055 445.627 173.819C444.772 171.547 445.141 169.012 446.099 166.724C447.392 163.637 449.74 161.052 451.279 160.218C453.911 158.791 457.017 158.725 459.654 160.179C461.898 161.417 463.301 163.414 464.697 165.451C464.994 165.883 465.288 166.313 465.593 166.735C466.202 167.581 466.263 168.42 466.027 169.14C465.765 169.937 465.098 170.609 464.264 170.961C463.493 171.286 462.598 171.332 461.806 170.998C461.137 170.716 460.523 170.165 460.134 169.231C459.48 167.658 458.39 165.923 456.948 165V165ZM506.816 168.499C506.144 168.85 505.617 168.956 504.871 168.732C504.459 168.608 504.051 168.37 503.732 168.051C503.416 167.735 503.187 167.341 503.099 166.904C502.881 165.826 502.291 164.817 501.451 164.16C500.734 163.598 499.828 163.3 498.823 163.468C497.738 163.649 496.705 164.345 495.994 165.165C495.756 165.44 495.569 165.752 495.382 166.061C495.031 166.641 494.691 167.179 494.207 167.604C494.024 167.766 493.748 167.878 493.48 167.878C493.371 167.878 493.261 167.861 493.156 167.828C492.077 166.744 491.869 165.921 491.904 165.106C491.94 164.25 492.277 163.384 492.822 162.576C494.099 160.681 496.525 159.127 498.162 158.775C500.403 158.293 502.629 158.871 504.414 160.124C506.25 161.413 507.611 163.414 508.035 165.67C508.137 166.213 508.094 166.799 507.887 167.308C507.685 167.805 507.333 168.23 506.816 168.499ZM461.891 144.791C460.546 146.103 458.954 146.306 457.343 146.487C456.448 146.588 455.734 146.67 455.031 146.828C453.098 147.265 451.188 147.922 449.446 148.869C447.624 149.859 445.639 151.052 444.211 152.582C443.871 152.945 443.551 153.327 443.231 153.71C442.938 154.059 442.657 154.395 442.36 154.719C442.019 155.091 441.696 155.481 441.374 155.869C441.175 156.198 441.135 156.278 441.095 156.362C441.035 156.489 440.965 156.63 440.884 156.781C440.775 156.989 440.646 157.216 440.512 157.422C440.288 157.799 440.167 157.903 440.063 157.949C439.891 158.026 439.728 158.064 439.569 158.043C439.42 158.024 439.28 157.952 439.142 157.835C438.451 157.252 438.248 156.293 438.269 155.276C438.3 153.733 438.869 152.024 439.394 150.973C440.613 148.532 442.304 145.994 444.338 144.172C446.659 142.093 449.197 140.518 452.113 139.433C453.926 138.759 456.024 138.14 457.998 138.218C459.419 138.274 460.776 138.697 461.896 139.753C462.584 140.401 462.914 141.323 462.914 142.244C462.914 143.183 462.571 144.128 461.891 144.791ZM509.552 156.801C509.466 156.941 509.348 157.038 509.216 157.096C509.078 157.157 508.924 157.174 508.776 157.149C508.628 157.125 508.488 157.058 508.377 156.956C508.271 156.858 508.19 156.728 508.153 156.569C507.26 152.644 505.526 149.723 501.825 147.84C500.004 146.914 497.911 146.325 495.929 145.856C495.353 145.719 494.744 145.631 494.131 145.542C492.21 145.261 490.276 144.939 489.024 143.386C488.269 142.45 487.952 141.253 488.131 140.158C488.3 139.128 488.902 138.183 489.996 137.616C492.72 136.207 496.104 137.59 498.855 138.768C499.059 138.855 499.259 138.941 499.455 139.024C502.145 140.16 504.598 141.66 506.615 143.804C508.215 145.506 509.697 148.021 510.294 150.609C510.791 152.762 510.674 154.959 509.552 156.801Z" fill="#02040F"/>
<path fill-rule="evenodd" clip-rule="evenodd" d="M28.2865 458.386C29.3472 457.856 30.4529 457.25 31.6642 457.208C33.7444 457.135 33.7472 453.896 31.6642 453.969C29.8473 454.033 28.2517 454.79 26.6529 455.589C24.7875 456.521 26.4283 459.314 28.2865 458.386M31.6642 367.223C30.2446 367.224 28.8136 367.404 27.7234 368.397C27.0753 368.988 27.1266 370.09 27.7234 370.687C28.3622 371.326 29.3663 371.276 30.0124 370.687C29.8016 370.879 30.0103 370.689 30.0868 370.646C30.105 370.637 30.1151 370.63 30.12 370.625C30.1362 370.621 30.1523 370.618 30.1786 370.611C30.3477 370.569 30.5148 370.527 30.6859 370.496C30.6888 370.504 31.0472 370.472 31.1314 370.469C31.3094 370.463 31.4866 370.462 31.6642 370.462C32.5421 370.461 33.2824 369.721 33.2824 368.842C33.2824 367.968 32.5388 367.223 31.6642 367.223M46.8817 403.552C47.3453 405.586 50.4649 404.72 50.0025 402.691C49.3301 399.741 49.4527 396.718 50.0025 393.758C50.3811 391.717 47.2616 390.85 46.8817 392.897C46.2223 396.448 46.0746 400.012 46.8817 403.552M50.9694 287.156C53.3797 286.583 55.7638 286.515 58.2292 286.515C60.3151 286.514 60.3119 283.275 58.2292 283.276C55.4794 283.277 52.7952 283.395 50.1089 284.033C48.0804 284.515 48.9446 287.637 50.9694 287.156M59.046 366.043C60.4438 365.344 61.8423 364.644 63.2401 363.945C65.1059 363.012 63.4646 360.219 61.6069 361.148L57.4124 363.247C55.5474 364.18 57.1883 366.973 59.046 366.043M59.6281 429.822C61.4013 432.38 63.8947 433.97 66.8868 434.764C68.9056 435.299 69.7592 432.174 67.7473 431.641C65.6076 431.073 63.7065 430.04 62.4229 428.188C61.2428 426.485 58.4383 428.106 59.6281 429.822M70.8114 315.793C71.2912 314.896 72.0133 314.517 72.9098 314.497C74.9925 314.449 74.9929 311.211 72.9098 311.258C70.8668 311.305 68.9933 312.331 68.0171 314.159C67.0344 315.998 69.8295 317.633 70.8114 315.793M91.3396 337.808C91.9197 338.44 93.0448 338.424 93.6282 337.808C93.9854 337.431 94.2856 337.009 94.5218 336.547C94.6117 336.372 94.6962 336.193 94.7949 336.023C94.839 335.947 94.888 335.872 94.9381 335.799C94.9551 335.784 94.9903 335.748 95.0267 335.709C95.6485 335.051 95.6328 334.08 95.0267 333.419C94.4462 332.787 93.3211 332.802 92.7377 333.419C92.3809 333.796 92.0803 334.218 91.8445 334.68C91.7547 334.855 91.6701 335.033 91.571 335.204C91.5269 335.28 91.4779 335.355 91.4278 335.428C91.4108 335.443 91.376 335.479 91.3396 335.518C90.7174 336.176 90.7331 337.147 91.3396 337.808M93.0654 385.631C95.1732 386.596 97.4848 386.596 99.5926 385.631C100.391 385.266 100.58 384.112 100.173 383.415C99.701 382.608 98.7531 382.471 97.959 382.835C97.003 383.272 95.6534 383.272 94.6986 382.835C93.9008 382.469 92.9623 382.599 92.4849 383.415C92.0751 384.117 92.2705 385.267 93.0654 385.631M98.8146 419.482C99.1767 420.34 99.9587 420.796 100.873 420.83C101.779 420.865 102.453 420.061 102.491 419.211C102.516 418.662 102.219 418.193 101.793 417.902C101.793 417.872 101.792 417.842 101.792 417.812C101.791 416.904 101.051 416.232 100.174 416.193C99.3001 416.153 98.5549 416.965 98.5553 417.812C98.5557 418.384 98.5909 418.951 98.8146 419.482M107.165 473.298C109.747 473.339 112.271 473.955 114.854 473.997C116.941 474.031 116.935 470.792 114.854 470.759C112.272 470.716 109.748 470.101 107.165 470.059C105.078 470.025 105.084 473.264 107.165 473.298M117.905 265.753C119.417 267.194 121.284 267.904 123.126 268.804C124.992 269.717 126.631 266.923 124.759 266.008C123.199 265.245 121.472 264.682 120.193 263.463C118.684 262.025 116.393 264.312 117.905 265.753M121.963 303.083C123.024 302.553 124.13 301.947 125.34 301.905C127.421 301.832 127.424 298.593 125.34 298.666C123.524 298.729 121.928 299.488 120.33 300.286C118.463 301.218 120.105 304.011 121.963 303.083M141.419 452.908C141.898 452.01 142.62 451.631 143.517 451.611C145.6 451.564 145.6 448.325 143.517 448.372C141.473 448.419 139.6 449.446 138.624 451.273C137.641 453.113 140.436 454.747 141.419 452.908M148.156 382.579C148.8 381.988 148.756 380.889 148.156 380.29C147.457 379.59 146.758 378.891 146.059 378.191C145.42 377.551 144.417 377.598 143.771 378.191C143.126 378.783 143.171 379.881 143.771 380.481C144.47 381.181 145.169 381.88 145.868 382.579C146.508 383.22 147.51 383.173 148.156 382.579M156.1 492.186C158.435 492.131 160.624 491.461 162.822 490.729C164.792 490.073 163.942 486.946 161.962 487.606C160.051 488.242 158.132 488.9 156.1 488.947C154.017 488.995 154.016 492.234 156.1 492.186M166.587 422.929C168.696 422.87 170.446 421.796 171.925 420.356C173.422 418.9 171.131 416.612 169.636 418.066C168.79 418.89 167.813 419.656 166.587 419.69C164.504 419.748 164.503 422.987 166.587 422.929M160.075 333.864C160.049 334.727 159.685 335.65 159.15 336.217C157.72 337.733 160.006 340.026 161.439 338.507C162.621 337.255 163.261 335.578 163.311 333.864C163.371 331.776 160.134 331.785 160.075 333.864M184.761 263.327C185.439 261.999 186.326 260.443 187.676 259.71C189.51 258.715 187.874 255.919 186.043 256.913C184.208 257.91 182.894 259.874 181.967 261.692C181.02 263.546 183.814 265.183 184.761 263.327M188.957 297.008C189.708 296.987 190.453 296.858 191.177 296.661C191.486 296.577 191.792 296.481 192.102 296.396C192.235 296.36 192.798 296.29 192.452 296.308C193.328 296.262 194.07 295.605 194.07 294.689C194.07 293.847 193.326 293.023 192.452 293.07C191.251 293.134 190.159 293.735 188.957 293.769C186.875 293.828 186.874 297.067 188.957 297.008M199.443 348.775H202.938C205.024 348.775 205.021 345.537 202.938 345.537H199.443C197.357 345.537 197.361 348.775 199.443 348.775M203.52 491.964C204.58 492.495 205.829 492.998 206.688 493.81C208.202 495.242 210.493 492.955 208.976 491.52C207.883 490.486 206.485 489.835 205.153 489.168C204.369 488.776 203.404 488.953 202.939 489.749C202.519 490.469 202.738 491.573 203.52 491.964M211.33 451.043C211.466 451.006 211.609 450.979 211.746 450.961C212.296 450.886 212.872 450.912 213.424 450.912C215.51 450.91 215.507 447.672 213.424 447.673C211.783 447.674 210.075 447.697 208.785 448.847C208.13 449.431 208.193 450.545 208.785 451.137C209.428 451.78 210.421 451.719 211.073 451.137C211.004 451.199 211.24 451.068 211.33 451.043M213.424 396.008C212.954 395.038 212.946 394.405 212.945 393.327C212.944 391.24 209.707 391.243 209.709 393.327C209.71 394.892 209.942 396.225 210.629 397.642C211.012 398.433 212.134 398.639 212.843 398.223C213.638 397.758 213.804 396.794 213.424 396.008M222.782 320.036C224.659 320.675 226.334 321.579 227.987 322.671C229.732 323.823 231.352 321.017 229.621 319.874C227.735 318.629 225.783 317.642 223.642 316.912C221.662 316.239 220.82 319.368 222.782 320.036M233.698 265.528C235.092 265.567 236.532 266.102 237.775 266.706C239.642 267.613 241.281 264.82 239.408 263.909C237.633 263.046 235.69 262.345 233.698 262.289C231.611 262.23 231.62 265.469 233.698 265.528M238.591 411.036C239.14 411.061 239.609 410.764 239.899 410.338C239.93 410.338 239.96 410.337 239.989 410.337C240.896 410.337 241.568 409.595 241.608 408.718C241.647 407.844 240.836 407.098 239.989 407.098C239.418 407.099 238.851 407.133 238.321 407.358C237.463 407.72 237.008 408.502 236.973 409.417C236.939 410.324 237.742 410.998 238.591 411.036M246.55 299.049C248.538 299.699 249.382 296.57 247.411 295.926C245.097 295.169 242.733 294.583 240.42 293.827C238.432 293.177 237.588 296.306 239.559 296.95C241.872 297.706 244.237 298.292 246.55 299.049M253.808 360.179C254.425 362.167 257.548 361.313 256.93 359.318C256.332 357.392 256.29 355.453 256.288 353.452C256.287 351.365 253.051 351.368 253.052 353.452C253.053 355.73 253.13 357.987 253.808 360.179M275.447 433.397C275.565 434.203 276.204 434.784 277.041 434.822C277.892 434.86 278.69 434.05 278.659 433.202C278.599 431.572 277.271 430.243 275.643 430.184C274.736 430.151 274.062 430.952 274.024 431.803C273.987 432.63 274.677 433.276 275.447 433.397M286.398 340.323C288.108 340.894 289.935 341.438 291.276 342.705C292.791 344.135 295.082 341.849 293.565 340.415C291.797 338.745 289.523 337.956 287.258 337.2C285.275 336.537 284.432 339.666 286.398 340.323M293.819 403.239C294.29 404.043 295.241 404.188 296.033 403.82C297.095 403.326 298.267 403.343 299.411 403.341C301.497 403.34 301.494 400.101 299.411 400.103C297.646 400.104 296.017 400.271 294.4 401.023C293.604 401.394 293.41 402.539 293.819 403.239M298.013 479.594C298.919 479.627 299.593 478.825 299.631 477.974C299.669 477.147 298.979 476.502 298.208 476.381C298.091 475.575 297.451 474.993 296.615 474.956C295.763 474.917 294.966 475.728 294.997 476.575C295.056 478.206 296.384 479.534 298.013 479.594M3.15932 491.839C3.70912 489.86 4.96729 488.261 5.918 486.479C6.2368 485.879 6.34765 485.506 6.5204 485.066C6.75504 485.536 7.21057 485.889 7.89549 485.89C9.2095 485.89 10.7464 485.806 11.9726 486.368C12.77 486.734 13.7094 486.604 14.1864 485.787C14.5962 485.086 14.4004 483.936 13.6059 483.572C11.7987 482.743 9.85599 482.652 7.89549 482.651C7.41123 482.651 7.04471 482.829 6.78579 483.097C6.03655 472.831 6.05515 462.556 6.76394 452.282C7.52006 441.303 9.26007 430.543 11.0806 419.705C11.9621 414.45 13.107 409.143 12.8845 403.791C12.662 398.475 10.3844 393.52 11.9985 388.188C12.6458 386.051 13.7543 384.091 14.4745 381.978C15.2472 379.703 15.1784 377.456 14.8264 375.1C14.1023 370.302 12.9011 365.562 14.8228 360.878C15.6719 358.801 17.0479 356.947 17.7109 354.801C18.5362 352.133 18.4229 349.182 18.5605 346.417C18.8396 340.838 18.9125 335.223 19.3741 329.656C19.58 327.163 20.029 324.798 21.0526 322.511C22.0361 320.309 23.4961 318.305 24.1475 315.969C24.7948 313.669 24.8514 311.244 25.1993 308.892C25.5634 306.406 26.1339 303.957 26.9025 301.569C29.872 292.322 35.3133 284.015 41.7418 276.813C48.5748 269.157 56.7429 263.392 65.4126 258.02C69.9716 255.195 74.5301 252.37 79.0859 249.545C79.183 250.075 79.5208 250.562 80.1693 250.779C81.8802 251.351 83.7068 251.894 85.0479 253.161C86.5626 254.591 88.8544 252.304 87.3365 250.871C85.7531 249.375 83.763 248.587 81.7378 247.895C83.8136 246.586 85.9116 245.23 88.254 244.474C90.3056 243.81 93.3313 244.389 94.9944 242.883C96.3007 241.697 96.7138 239.498 97.215 237.887C97.8421 235.887 98.3842 233.778 99.1812 231.835C99.7233 230.507 100.512 229.232 101.507 228.203C101.944 226.519 102.746 224.981 104.162 224.046C107.867 221.592 112.418 224.03 114.049 227.527C115.396 227.523 116.816 227.819 118.127 227.9C120.821 228.07 123.52 228.147 126.218 228.139C131.497 228.122 136.781 227.778 142.016 227.078C151.378 225.823 160.46 223.293 169.664 221.321C169.716 221.2 169.777 221.078 169.85 220.957C171.832 217.629 176.772 218.192 179.883 219.451C181.218 219.989 182.577 220.669 183.342 221.932C184.151 222.479 184.851 223.143 185.316 223.843C186.279 225.289 187.023 228.203 188.977 228.446C190.264 228.604 191.571 228.357 192.877 228.544C194.512 228.77 195.976 229.345 197.485 230.001C208.975 234.993 220.853 240.543 233.322 242.478C236.246 242.932 239.224 243.401 241.764 245.041C243.828 246.373 245.422 248.203 247.125 249.939C248.783 251.632 250.151 252.381 252.517 252.684C255.39 253.053 257.878 253.846 259.978 255.935C261.721 257.672 262.858 259.89 264.225 261.906C265.618 263.963 267.66 265.121 269.78 266.315C274.793 269.141 279.461 272.554 283.527 276.647C292.092 285.278 297.278 296.37 302.505 307.18C308.157 318.871 313.44 330.705 317.105 343.19C320.698 355.449 322.834 368.06 323.821 380.788C324.861 394.143 325.007 407.552 325.872 420.915C326.305 427.591 326.633 434.275 326.965 440.955C327.288 447.554 327.762 454.165 327.685 460.772C327.539 473.545 324.987 486.358 320.524 498.317C319.411 501.292 318.178 504.227 316.863 507.118C315.71 509.656 311.765 509.373 310.527 507.118C310.244 506.6 310.022 506.065 309.836 505.523C306.599 505.551 303.33 505.3 300.114 505.6C294.434 506.13 288.742 506.426 283.046 506.778C271.775 507.478 260.483 507.944 249.208 508.588C248.114 508.65 247.02 508.713 245.927 508.778C253.962 483.891 252.92 456.986 254.191 431.104C254.294 429.017 251.056 429.029 250.955 431.104C249.678 457.097 250.765 484.071 242.446 508.998C239.218 509.217 235.995 509.484 232.783 509.875C230.186 510.187 227.576 510.555 224.955 510.426C221.981 510.284 219.077 509.604 216.176 509.013C210.904 507.94 205.827 508.426 200.536 509.086C194.876 509.794 189.196 510.187 183.5 510.434C160.69 511.434 137.728 512.345 114.927 510.818C109.408 510.45 103.902 509.932 98.4206 509.227C92.773 508.503 87.186 507.284 81.5428 506.592C75.9801 505.912 70.8661 507.778 65.3681 508.122C59.7613 508.474 54.004 507.304 48.4494 506.632C46.6374 506.412 44.8233 506.199 43.0089 505.987C45.3448 489.965 46.673 473.823 47.9631 457.687C48.1294 455.606 44.8917 455.624 44.7266 457.687C43.447 473.697 42.1484 489.719 39.8161 505.614C30.1977 504.494 20.5699 503.361 11.0519 501.616C8.34132 501.122 5.64695 500.317 4.02466 497.896C2.82353 496.102 2.5804 493.904 3.15932 491.839" fill="#02040F"/>
<path fill-rule="evenodd" clip-rule="evenodd" d="M113.566 170.959C114.618 164.663 114.38 151.376 114.359 150.569C114.231 145.463 117.665 125.51 122.07 127.596C129.936 122.011 140.064 121.217 149.503 121.079C169.11 120.793 189.737 124.891 204.134 138.834C211.237 146.056 217.98 156.371 216.854 166.684C223.119 176.844 231.97 190.795 222.923 201.815C219.861 205.327 215.226 206.452 211.474 209.036C203.913 214.509 198.922 222.671 191.294 228.105C170.978 244.528 137.844 246.445 119.821 225.609C105.834 210.471 109.344 189.103 112.896 170.924C115.285 158.702 111.512 183.242 113.566 170.959Z" fill="white"/>
<path fill-rule="evenodd" clip-rule="evenodd" d="M177.011 95.5883C171.841 94.2597 166.509 93.3222 161.163 93.2401L160.751 93.2346C156.728 93.1847 151.624 93.2733 148 95.4251C147.809 95.2123 147.49 95.0915 147.189 95.2164C142.923 96.9856 138.269 98.1825 133.812 99.3806C129.376 100.573 124.801 101.273 120.209 101.412C118.481 101.464 116.912 103.245 117.913 104.969C118.152 105.379 118.383 105.794 118.613 106.209C118.195 106.143 117.777 106.076 117.359 106.011C115.983 105.799 114.523 107.204 114.535 108.556C114.541 109.406 114.589 110.248 114.681 111.083C114.155 111.044 113.627 111.096 113.109 111.283C110.49 112.231 110.508 115.294 110.578 117.627C110.675 120.865 111.701 124.343 113.813 126.873C112.051 128.522 110.759 130.533 109.925 132.959C109.319 134.73 108.933 136.63 108.976 138.51L108.991 139.072C109.059 141.113 109.287 143.38 110.671 144.917C111.381 145.71 112.291 146.033 113.176 145.992C112.398 150.646 111.81 155.336 111.243 160.01L110.974 162.244C109.689 173.049 108.579 183.934 108.151 194.801C107.75 204.957 109.238 214.913 115.029 223.48C120.303 231.281 128.15 237.239 137.245 239.824C142.147 241.219 147.207 241.565 152.266 241.105C154.718 240.881 157.196 240.47 159.551 239.741C162.158 238.931 164.068 237.637 165.898 235.645C166.763 234.7 166.482 232.576 164.851 232.689C162.385 232.858 160.129 233.099 157.741 233.701L157.399 233.789C155.02 234.417 152.567 234.849 150.108 234.958C145.071 235.181 140.009 234.426 135.288 232.654C127.602 229.766 121.16 223.892 117.209 216.728C112.518 208.236 112.428 198.87 112.998 189.418C113.621 179.045 114.502 168.681 115.596 158.344L115.781 156.621C116.351 151.303 116.912 145.98 117.439 140.655C117.604 138.985 117.81 137.304 118.109 135.644C120.099 134.613 121.911 133.144 123.14 131.277C125.357 132.334 127.705 133.135 129.87 133.789C134.884 135.305 140.141 135.885 145.352 135.373C146.717 136.022 148.112 136.604 149.533 137.115C149.915 137.309 150.296 137.499 150.677 137.687C154.081 139.359 157.546 140.807 161.173 141.923L162.064 142.196C163.973 142.774 166.049 143.354 168.1 143.609C168.431 143.758 168.79 143.887 169.184 144.005C171.034 144.559 172.971 144.805 174.901 144.745C176.781 144.685 178.232 142.864 177.294 141.039C176.609 139.707 175.916 138.378 175.217 137.052C177.826 138.304 180.533 139.372 183.27 140.301C186.034 141.238 188.844 142.054 191.661 142.816C193.167 143.221 194.681 143.589 196.184 143.993C197.26 144.281 198.924 144.489 199.774 145.252C200.713 146.091 200.894 147.94 201.207 149.091C201.619 150.587 202 152.088 202.34 153.603C203.017 156.627 203.541 159.686 203.91 162.768C204.279 165.853 204.472 168.959 204.508 172.066C204.543 175.171 204.293 178.28 204.449 181.377C204.534 183.02 206.244 183.953 207.599 182.879C207.758 182.753 207.918 182.625 208.077 182.496L208.314 182.302C209.475 181.355 210.605 180.347 211.555 179.195C211.727 178.982 211.893 178.759 212.05 178.532C212.073 178.533 212.093 178.528 212.118 178.512L212.373 178.34C215.186 176.466 219.847 174.075 222.311 177.562C223.096 178.673 223.456 180.054 223.745 181.383L224.249 183.762C224.574 185.314 224.875 186.874 225.017 188.452C225.338 191.988 224.872 196.019 222.311 198.706C221.288 199.78 219.917 200.514 218.423 200.647C217.59 200.718 216.78 200.534 215.966 200.388C215.138 200.24 214.326 200.365 213.496 200.241C212.178 200.041 211.515 201.598 211.958 202.622C212.198 203.172 212.489 203.65 212.826 204.061C212.526 204.294 212.237 204.547 211.958 204.814C211.161 205.025 210.43 205.527 209.867 206.213C209.412 206.766 209.158 207.381 209.087 208.038C209.032 208.2 208.983 208.365 208.937 208.534L208.157 209.663C207.986 209.91 207.815 210.154 207.644 210.394C205.666 213.178 203.509 215.509 200.868 217.674C198.326 219.757 195.588 221.598 193.184 223.849L192.9 224.116C190.658 226.245 188.275 228.84 188.936 232.141C189.107 232.99 190.243 233.654 191.036 233.128C193.585 231.435 194.972 228.613 197.169 226.512C199.431 224.348 201.912 222.426 204.18 220.268C206.324 218.232 208.055 215.888 209.403 213.28C209.857 213.837 210.54 214.252 211.506 214.451C213.167 214.79 214.779 213.89 215.584 212.479C216.042 212.711 216.51 212.923 216.985 213.096C219.482 214.006 221.226 211.267 220.378 209.131C219.925 207.985 219.336 206.981 218.585 206.122C221.084 205.911 223.675 204.76 225.389 203.245C229.69 199.438 230.569 193.424 229.93 188.001C229.591 185.126 228.899 182.199 227.944 179.466C227.778 178.991 227.598 178.511 227.398 178.037C227.523 178.04 227.653 177.993 227.738 177.894C228.531 176.921 229.475 176.141 230.083 175.038C230.643 174.027 231.26 173.005 231.715 171.944C232.651 169.774 233.184 167.297 233.574 164.971C234.378 160.208 234.413 155.435 233.929 150.635C233.106 142.46 230.498 134.541 226.412 127.498C226.661 127.383 226.901 127.242 227.126 127.072L227.238 126.984L227.419 126.837C228.747 125.756 228.75 123.599 227.653 122.376L227.307 121.99C226.867 121.506 226.487 121.12 225.765 120.58C225.659 120.5 225.549 120.424 225.439 120.353C225.868 119.65 226.049 118.811 225.825 117.862C225.045 114.559 220.359 114.429 217.318 115.692C214.191 112.591 210.685 109.857 206.849 107.591C197.713 102.197 187.272 98.2213 177.011 95.5883ZM221.073 183.82C219.349 183.155 216.957 184.235 215.342 184.876C213.296 185.689 211.524 186.956 209.802 188.303C208.944 188.976 208.736 190.141 208.887 191.152C208.903 191.254 208.917 191.359 208.935 191.464C209.097 192.543 210.244 193.446 211.3 193.471C213.509 193.527 214.66 191.677 215.994 190.128C216.127 190.397 216.298 190.648 216.517 190.84L216.664 190.969C217.162 191.391 217.717 191.736 218.403 191.742C218.889 191.744 219.361 191.644 219.801 191.442C220.902 190.933 221.447 189.571 221.215 188.427C221.071 187.708 220.685 187.13 220.163 186.717L220.373 186.589C220.821 186.311 221.232 186.014 221.564 185.562L221.639 185.455L221.612 185.453C221.977 184.895 221.8 184.1 221.073 183.82Z" fill="#02040F"/>
<path fill-rule="evenodd" clip-rule="evenodd" d="M136.69 213.187C139.119 214.031 141.762 214.233 144.314 213.627C146.629 213.077 149.047 211.727 150.827 209.866C152.409 208.213 153.484 206.16 153.564 203.912C153.573 203.655 153.493 203.436 153.36 203.263C153.218 203.076 153.012 202.942 152.788 202.877C152.557 202.809 152.309 202.816 152.094 202.9C151.899 202.977 151.728 203.115 151.615 203.325C151.339 203.65 151.065 203.971 150.79 204.282C148.583 206.734 146.474 208.543 143.321 209.066C141.61 209.35 139.929 209.096 138.408 208.446C136.781 207.751 135.337 206.602 134.233 205.172C133.735 204.525 133.121 204.24 132.508 204.204C131.813 204.163 131.109 204.45 130.565 204.939C130.029 205.42 129.653 206.091 129.584 206.811C129.524 207.443 129.696 208.115 130.214 208.734C131.921 210.772 134.192 212.319 136.69 213.187ZM138.447 181.116C135.839 182.52 131.8 185.902 134.319 189.855C137.344 193.382 142.155 189.772 144.517 188.149C146.693 186.909 148.877 190.505 146.841 191.979C129.794 203.273 124.295 180.777 137.264 179.241C138.692 179.072 139.135 180.675 138.447 181.116ZM162.447 175.592C163.287 175.115 164.252 174.986 165.286 175.524C166.094 175.944 167.48 177.275 168.404 178.978C169.036 180.143 169.456 181.493 169.282 182.867C169.242 183.186 169.348 183.429 169.525 183.613C169.665 183.759 169.873 183.871 170.121 183.916C170.332 183.954 170.571 183.942 170.768 183.892C171.141 183.797 171.348 183.568 171.432 183.377C172.238 181.535 172.043 179.422 171.349 177.489C170.413 174.879 168.582 172.639 167.345 171.883C165.229 170.588 162.662 170.399 160.417 171.487C158.507 172.413 157.259 174.005 156.016 175.629C155.752 175.974 155.489 176.316 155.219 176.652C154.678 177.326 154.591 178.017 154.756 178.622C154.938 179.293 155.461 179.878 156.136 180.205C156.76 180.508 157.498 180.584 158.168 180.342C158.734 180.138 159.266 179.709 159.628 178.953C160.237 177.681 161.214 176.293 162.447 175.592ZM121.034 176.324C121.575 176.643 122.006 176.753 122.633 176.601C122.98 176.516 123.327 176.337 123.605 176.087C123.881 175.839 124.087 175.523 124.179 175.166C124.406 174.284 124.938 173.475 125.661 172.967C126.279 172.533 127.042 172.326 127.866 172.509C128.755 172.706 129.58 173.326 130.133 174.036C130.318 174.273 130.459 174.539 130.6 174.803C130.865 175.297 131.124 175.758 131.506 176.13C131.65 176.272 131.874 176.377 132.095 176.388C132.185 176.393 132.277 176.383 132.366 176.361C133.306 175.511 133.513 174.84 133.52 174.164C133.527 173.455 133.285 172.724 132.87 172.032C131.895 170.409 129.956 169.018 128.617 168.656C126.783 168.16 124.916 168.542 123.385 169.501C121.81 170.487 120.597 172.084 120.148 173.931C120.04 174.376 120.051 174.862 120.2 175.292C120.345 175.711 120.618 176.079 121.034 176.324ZM159.233 158.663C160.289 159.806 161.598 160.043 162.923 160.262C163.659 160.385 164.246 160.483 164.821 160.645C166.401 161.09 167.953 161.717 169.354 162.575C170.818 163.473 172.409 164.546 173.524 165.873C173.789 166.189 174.038 166.518 174.286 166.849C174.513 167.15 174.732 167.44 174.963 167.721C175.229 168.043 175.48 168.38 175.729 168.715C175.88 168.995 175.909 169.064 175.938 169.135C175.983 169.242 176.035 169.362 176.094 169.491C176.176 169.667 176.273 169.861 176.375 170.037C176.544 170.358 176.639 170.449 176.723 170.492C176.863 170.563 176.996 170.601 177.128 170.591C177.252 170.582 177.371 170.529 177.491 170.438C178.087 169.985 178.297 169.201 178.324 168.359C178.365 167.081 177.968 165.643 177.58 164.751C176.677 162.679 175.387 160.507 173.784 158.912C171.954 157.091 169.921 155.679 167.556 154.655C166.085 154.019 164.376 153.416 162.739 153.395C161.561 153.38 160.42 153.671 159.447 154.495C158.85 155.001 158.537 155.75 158.497 156.511C158.456 157.288 158.699 158.085 159.233 158.663ZM119.278 166.529C119.342 166.649 119.436 166.734 119.543 166.788C119.654 166.844 119.781 166.865 119.905 166.851C120.028 166.837 120.146 166.788 120.243 166.708C120.335 166.632 120.408 166.528 120.445 166.398C121.354 163.19 122.915 160.85 126.059 159.453C127.606 158.766 129.364 158.37 131.024 158.067C131.506 157.98 132.014 157.933 132.525 157.885C134.126 157.736 135.741 157.555 136.844 156.324C137.509 155.582 137.823 154.606 137.722 153.693C137.627 152.833 137.17 152.026 136.29 151.51C134.097 150.226 131.237 151.223 128.91 152.078C128.737 152.141 128.568 152.204 128.402 152.264C126.127 153.087 124.033 154.221 122.271 155.907C120.873 157.245 119.538 159.261 118.932 161.376C118.427 163.135 118.429 164.958 119.278 166.529Z" fill="#02040F"/>
<path fill-rule="evenodd" clip-rule="evenodd" d="M129.393 218.228C132.656 215.613 136.443 210.211 140.69 214.865C141.732 216.171 142.034 218.994 143.699 219.632C145.91 220.48 148.264 218.216 149.126 216.428C152.795 206.434 139.976 202.968 132.503 204.222C128.817 205.516 125.847 211.343 125.523 214.449C125.309 216.536 126.919 219.706 129.393 218.228ZM106.695 201.338C106.732 201.204 106.781 201.085 106.838 200.977C108.244 200.528 109.307 201.116 109.93 202.145C109.895 202.391 109.808 202.637 109.748 202.879C110.211 204.003 110.609 205.384 111.265 206.368C111.403 206.386 111.548 206.379 111.689 206.346C123.312 208.179 118.247 195.649 130.26 193.232C139.502 192.2 155.972 194.8 159.794 204.566C162.405 219.983 180.295 210.274 186.401 202.647C192.852 195.753 197.24 187.146 201.474 178.792C202.369 177.024 204.798 178.449 204.436 180.172C207.567 187.377 207.008 195.806 207.472 203.544C208.142 218.969 208.45 240.567 193.703 249.192C174.029 269.219 127.26 274.199 106.849 253.78C100.269 237.443 102.203 218.034 106.695 201.338Z" fill="#02040F"/>
<path fill-rule="evenodd" clip-rule="evenodd" d="M121.344 155.249C113.487 154.838 108.915 156.293 107.265 156.338L107.215 156.339C106.529 156.347 105.913 156.372 105.257 156.587C102.844 157.374 102.329 159.836 103.627 161.472C103.555 164.713 102.931 168.471 103.491 171.756C103.674 185.488 109.987 188.135 113.6 189.17C115.414 189.689 117.581 189.972 119.555 189.627C122.889 189.677 126.233 188.808 129.142 187.141C133.194 184.818 136.309 181.084 137.495 176.52C138.058 174.345 138.388 172.067 138.261 169.82L138.241 169.51C139.547 168.967 141.029 168.929 142.554 168.955C143.282 168.967 144 168.982 144.695 169.049C145.371 169.161 146.038 169.297 146.705 169.47C147.43 169.731 148.106 170.134 148.718 170.749L148.718 171.599C148.727 173.724 148.894 175.863 149.214 177.964C149.686 181.063 150.551 184.045 152.605 186.334C153.281 187.469 154.137 188.495 155.195 189.4C159.037 192.693 164.417 194.11 169.432 193.945C179.612 193.611 185.892 185.871 187.422 182.501L187.514 182.297C188.623 179.791 189.574 176.513 192.684 176.125L193.346 176.042C194.766 175.852 196.083 175.552 196.979 174.223C197.372 173.643 197.593 172.982 197.675 172.301C198.154 172.364 198.632 172.424 199.109 172.483C202.886 173.491 225.755 175.377 227.583 175.473C227.583 175.473 231.02 177.137 232.564 176.068C233.634 175.325 234.028 174.28 233.525 173.046C232.766 171.191 228.882 169.895 227.15 169.458C227.15 169.458 198.898 168.213 196.886 167.721C195.696 166.358 193.437 166.417 191.568 166.114C190.07 164.922 187.932 164.065 186.239 163.477C185.895 163.326 185.555 163.179 185.224 163.04C182.131 161.752 178.885 160.986 175.575 160.492C172.162 159.986 168.714 159.953 165.279 160.242C163.832 160.362 162.395 160.539 160.964 160.795C158.415 160.996 155.87 161.414 153.303 161.934L152.79 162.039C150.086 162.598 147.314 163.06 144.579 162.441C142.352 161.94 140.236 160.961 138.213 159.917L137.949 159.781C133.503 157.461 126.47 155.518 121.344 155.249ZM161.02 164.958C162.721 164.676 163.303 167.307 161.597 167.589C160.389 167.789 159.345 168.338 158.608 169.323L158.53 169.43C157.536 170.843 155.287 169.373 156.288 167.951C157.414 166.352 159.09 165.278 161.02 164.958ZM111.87 160.77C112.484 160.384 113.365 160.741 113.678 161.349C114.022 162.018 113.736 162.729 113.159 163.125L113.1 163.163C112.572 163.496 112.043 164.113 111.946 164.769L111.936 164.851C111.779 166.573 109.098 166.441 109.256 164.711C109.41 163.018 110.467 161.652 111.87 160.77Z" fill="url(#paint0_linear_51_3531)"/>
<defs>
<linearGradient id="paint0_linear_51_3531" x1="233.121" y1="185.975" x2="117.209" y2="179.901" gradientUnits="userSpaceOnUse">
<stop stop-color="#0268A2"/>
<stop offset="1" stop-color="#940EBD"/>
</linearGradient>
</defs>
</svg>
