<svg width="988" height="618" viewBox="0 0 988 618" fill="none" xmlns="http://www.w3.org/2000/svg">
<g opacity="0.03">
<mask id="mask0_253_2933" style="mask-type:luminance" maskUnits="userSpaceOnUse" x="222" y="0" width="766" height="618">
<path d="M222.945 0H988V617.085H222.945V0Z" fill="white"/>
</mask>
<g mask="url(#mask0_253_2933)">
<path d="M943.286 106.934L857.288 20.6873L836.956 0.29323C836.768 0.10504 836.513 -0.000732422 836.248 -0.000732422H374.888C374.622 -0.000732422 374.367 0.105039 374.179 0.293229L353.847 20.6873L267.849 106.934L223.773 151.164C223.411 151.528 223.383 152.108 223.709 152.505L263.356 200.733L433.518 407.797C433.918 408.284 434.663 408.284 435.063 407.797L479.201 354.079C479.504 353.71 479.504 353.178 479.201 352.809L318.319 157.03C317.993 156.632 318.02 156.053 318.383 155.689L403.417 70.3769C403.605 70.1887 403.86 70.0829 404.126 70.0829H807.01C807.275 70.0829 807.53 70.1887 807.718 70.3769L892.752 155.689C893.115 156.053 893.143 156.632 892.816 157.03L606.34 505.621C605.94 506.107 605.195 506.107 604.795 505.62L554.511 444.407C554.111 443.92 553.366 443.92 552.965 444.407L508.796 498.125C508.493 498.494 508.493 499.026 508.796 499.395L551.179 550.964L604.795 616.207C605.195 616.694 605.94 616.694 606.34 616.207L659.956 550.964L947.779 200.733L987.426 152.505C987.752 152.108 987.725 151.528 987.362 151.164L943.286 106.934Z" fill="#69117E"/>
</g>
<mask id="mask1_253_2933" style="mask-type:luminance" maskUnits="userSpaceOnUse" x="0" y="0" width="766" height="618">
<path d="M0 0H765.304V617.085H0V0Z" fill="white"/>
</mask>
<g mask="url(#mask1_253_2933)">
<path d="M705.623 92.3759C705.435 92.1879 705.181 92.0822 704.915 92.0822H608.635C607.745 92.0822 607.299 93.1577 607.927 93.7881L669.618 155.689C669.981 156.053 670.008 156.633 669.682 157.03L383.206 505.621C382.806 506.108 382.061 506.108 381.661 505.621L95.1847 157.03C94.8584 156.633 94.8862 156.053 95.2491 155.689L180.283 70.3776C180.471 70.1894 180.726 70.0836 180.991 70.0836H273.055C273.32 70.0836 273.575 69.9778 273.763 69.7896L341.634 1.706C342.263 1.07559 341.816 0 340.926 0H151.753C151.488 0 151.233 0.105772 151.045 0.293962L130.713 20.6881L44.7462 106.935L0.639628 151.165C0.276605 151.529 0.24876 152.109 0.575235 152.506L40.2217 200.734L328.045 550.964L381.661 616.207C382.061 616.694 382.806 616.694 383.206 616.207L436.822 550.964L724.645 200.734L764.292 152.506C764.618 152.109 764.59 151.529 764.228 151.165L720.152 106.935L705.623 92.3759Z" fill="#7B0E9A"/>
</g>
</g>
</svg>
