<svg width="231" height="21" viewBox="0 0 231 21" fill="none" xmlns="http://www.w3.org/2000/svg">
<path d="M1.79152 16.885C39.7791 16.2219 77.769 15.6935 115.898 15.4322C134.49 15.2425 153.09 15.4568 171.679 15.1323C180.705 14.9748 189.865 14.8149 198.902 15.3309C203.217 15.5251 207.403 15.991 211.588 16.4569C216.853 17.0388 220.481 16.4364 225.725 15.8059C230.163 15.3242 231.953 9.76827 227.867 7.27936C223.916 4.7881 221.319 2.67745 216.59 1.9515C212.265 1.21849 207.95 1.02432 203.5 0.8325C194.465 0.451208 185.307 0.745798 176.286 1.17275C156.898 2.05018 137.654 3.46408 118.274 4.88033C79.3792 7.58048 40.4886 10.5501 1.73744 13.7867C-0.283172 13.822 -0.3638 16.9226 1.79152 16.885Z" fill="#B016E3"/>
</svg>
