<svg width="232" height="15" viewBox="0 0 232 15" fill="none" xmlns="http://www.w3.org/2000/svg">
<path d="M0.963688 14.9651C30.6603 15.0091 60.4303 13.1948 90.1375 12.2796C119.508 11.3408 148.934 10.4059 178.3 9.52332C186.506 9.25021 194.652 9.02937 202.855 8.81244C211.342 8.55898 219.918 8.6505 228.433 8.00372C232.521 7.66854 232.038 0.859124 227.976 0.800984C220.536 0.619477 213.044 1.16842 205.629 1.44035C198.157 1.70835 190.741 1.98028 183.269 2.24828C168.382 2.78821 153.49 3.38433 138.587 4.14902C109.35 5.6053 80.053 7.11383 50.8331 9.13592C34.1526 10.2845 17.4878 11.2083 0.864651 13.1514C-0.263048 13.129 -0.16401 14.9428 0.963688 14.9651Z" fill="#B016E3"/>
</svg>
