<svg width="141" height="26" viewBox="0 0 141 26" fill="none" xmlns="http://www.w3.org/2000/svg">
<path d="M54.7141 20.3327C49.5968 24.0283 42.1795 26 35.7934 26C26.839 26 18.7778 22.7551 12.6792 17.3584C12.2 16.9341 12.6293 16.3557 13.2043 16.6863C19.7861 20.4379 27.9239 22.6952 36.33 22.6952C41.9992 22.6952 48.236 21.5459 53.9704 19.1611C54.8367 18.8005 55.5612 19.7167 54.7141 20.3327Z" fill="#7D7D91"/>
<path d="M56.8419 17.9479C56.1903 17.1292 52.518 17.561 50.8696 17.7527C50.3676 17.8128 50.2909 17.3847 50.7432 17.0767C53.668 15.0598 58.4671 15.6419 59.0268 16.3179C59.5863 16.9977 58.8812 21.711 56.1327 23.9606C55.711 24.3061 55.3085 24.122 55.4964 23.664C56.1137 22.1542 57.4974 18.7703 56.8419 17.9479Z" fill="#7D7D91"/>
<path d="M50.9846 2.83923V0.878842C50.9846 0.58217 51.2146 0.383195 51.4905 0.383195H60.4488C60.7363 0.383195 60.9663 0.586038 60.9663 0.878842V2.5576C60.9625 2.83923 60.7209 3.20738 60.2917 3.78941L55.6496 10.2828C57.3746 10.2414 59.1954 10.4931 60.7592 11.3569C61.1119 11.5522 61.2077 11.8377 61.2346 12.1193V14.2112C61.2346 14.4965 60.9126 14.8309 60.5753 14.658C57.8191 13.2422 54.1584 13.0882 51.1112 14.673C50.8006 14.8383 50.4747 14.5078 50.4747 14.2223V12.2358C50.4747 11.9164 50.4785 11.3719 50.8044 10.8875L56.1824 3.33115H51.502C51.2144 3.33115 50.9846 3.13217 50.9846 2.83923ZM18.3064 15.0713H15.5809C15.3204 15.0525 15.1133 14.8608 15.0942 14.6169V0.91265C15.0942 0.638468 15.3281 0.420727 15.6194 0.420727H18.1608C18.4253 0.431901 18.6362 0.631019 18.6553 0.878842V2.67019H18.7052C19.3682 0.938865 20.6141 0.131361 22.293 0.131361C23.9988 0.131361 25.0645 0.938865 25.8311 2.67019C26.4903 0.938865 27.9892 0.131361 29.5953 0.131361C30.7375 0.131361 31.9872 0.593344 32.7499 1.62976C33.6123 2.78279 33.436 4.45767 33.436 5.92613L33.4323 14.5752C33.4323 14.8494 33.1984 15.071 32.9071 15.071H30.1855C29.9134 15.0522 29.695 14.838 29.695 14.5752V7.31208C29.695 6.73378 29.7485 5.29168 29.6184 4.74331C29.4152 3.82322 28.8056 3.56407 28.0161 3.56407C27.3568 3.56407 26.6667 3.99598 26.3868 4.68702C26.1071 5.37806 26.134 6.53466 26.134 7.31208V14.5755C26.134 14.8496 25.9001 15.0713 25.6088 15.0713H22.8873C22.6112 15.0525 22.3967 14.8383 22.3967 14.5755L22.3929 7.31208C22.3929 5.7836 22.6498 3.53399 20.714 3.53399C18.7553 3.53399 18.8319 5.7273 18.8319 7.31208V14.5755C18.8315 14.8496 18.5977 15.0713 18.3064 15.0713ZM68.6785 0.131504C72.7226 0.131504 74.9114 3.53399 74.9114 7.86059C74.9114 12.0405 72.4926 15.3568 68.6785 15.3568C64.7074 15.3568 62.5454 11.9543 62.5454 7.71419C62.5454 3.44761 64.7343 0.131504 68.6785 0.131504ZM68.7015 2.92933C66.6929 2.92933 66.5663 5.61084 66.5663 7.282C66.5663 8.95703 66.5394 12.5323 68.6784 12.5323C70.7904 12.5323 70.8901 9.64807 70.8901 7.89039C70.8901 6.73364 70.8402 5.35156 70.4839 4.25497C70.1773 3.30107 69.5678 2.92933 68.7015 2.92933ZM80.1551 15.0713H77.4411C77.169 15.0525 76.9506 14.8385 76.9506 14.5755L76.9468 0.867669C76.9697 0.616121 77.1959 0.420727 77.472 0.420727H79.9981C80.2356 0.431901 80.4311 0.589763 80.4848 0.803779V2.89925H80.5346C81.2974 1.02524 82.3668 0.131361 84.249 0.131361C85.4718 0.131361 86.664 0.563261 87.4306 1.74622C88.1435 2.84281 88.1435 4.68687 88.1435 6.01251V14.6391C88.1129 14.8794 87.8867 15.0711 87.6183 15.0711H84.8853C84.6362 15.0523 84.4293 14.872 84.4024 14.6391V7.19562C84.4024 5.69722 84.5786 3.50391 82.6965 3.50391C82.0335 3.50391 81.4239 3.93953 81.1211 4.60049C80.7379 5.43794 80.688 6.2718 80.688 7.19562V14.5753C80.6842 14.8496 80.4465 15.0713 80.1551 15.0713ZM89.8493 13.982C89.8493 13.2909 90.4511 12.7351 91.191 12.7351C91.9308 12.7351 92.5326 13.2908 92.5326 13.982C92.5326 14.6693 91.9308 15.2326 91.191 15.2326C90.4511 15.2326 89.8493 14.6693 89.8493 13.982ZM118.725 15.0748C118.441 15.0637 118.219 14.8496 118.219 14.5792V0.874975C118.234 0.630876 118.445 0.43935 118.706 0.424308H119.706C119.982 0.424308 120.204 0.619559 120.227 0.874975V2.87289C120.94 1.28811 122.267 0.0487052 123.942 0.0487052H124.145C125.924 0.0487052 127.223 1.33309 127.706 3.19965C128.461 1.35558 129.879 0.0487052 131.75 0.0487052H131.957C133.279 0.0487052 134.552 0.882424 135.211 2.15191C135.848 3.36496 135.825 4.97982 135.825 6.33569L135.821 14.5792C135.825 14.8421 135.606 15.0561 135.334 15.0748H134.138C133.877 15.0637 133.666 14.8835 133.632 14.6468V6.33569C133.632 5.35542 133.682 4.31514 133.275 3.4214C132.861 2.50875 132.068 1.93789 131.217 1.89649C130.266 1.94162 129.392 2.62134 128.825 3.53772C128.089 4.72068 128.116 5.78732 128.116 7.16941V14.6542C128.081 14.8794 127.878 15.0561 127.629 15.0748H126.441C126.157 15.0637 125.931 14.8496 125.931 14.5792L125.923 5.78732C125.923 4.97982 125.874 4.02964 125.494 3.30479C125.053 2.47852 124.264 1.93775 123.436 1.89635C122.577 1.9452 121.711 2.58739 121.197 3.33487C120.534 4.28878 120.407 5.46802 120.407 6.68106V14.579C120.407 14.8419 120.189 15.0559 119.917 15.0747L118.725 15.0748ZM110.514 15.3603C106.646 15.3603 104.914 11.4959 104.914 7.63125C104.914 3.5678 106.949 0.0487052 110.844 0.0487052H111.051C114.838 0.0487052 116.724 3.79686 116.724 7.66133C116.724 11.7549 114.635 15.3603 110.717 15.3603H110.514ZM110.798 13.4862C112.07 13.4451 113.075 12.6714 113.669 11.3831C114.202 10.2264 114.305 8.90059 114.305 7.63125C114.305 6.24931 114.152 4.80706 113.489 3.6241C112.895 2.59126 111.875 1.93403 110.794 1.89649C109.59 1.93789 108.513 2.73781 107.973 3.96962C107.486 5.03626 107.336 6.45215 107.336 7.63139C107.336 8.95717 107.513 10.4894 108.072 11.6424C108.617 12.7351 109.663 13.4449 110.798 13.4862ZM98.428 13.4262C100.165 13.3737 101.077 12.0104 101.453 10.2451C101.529 10.0235 101.702 9.8545 101.955 9.8545L103.101 9.85077C103.373 9.86209 103.622 10.0649 103.599 10.3128C103.07 13.321 101.219 15.3602 98.5815 15.3602H98.3745C94.5337 15.3602 92.8777 11.582 92.8777 7.74757C92.8777 3.94312 94.5566 0.048562 98.3975 0.048562H98.6045C101.272 0.048562 103.174 2.06152 103.588 5.06978C103.588 5.29511 103.373 5.49051 103.12 5.51672L101.92 5.50168C101.667 5.46788 101.503 5.25758 101.464 5.02108C101.177 3.34232 100.191 2.00536 98.5508 1.95279C95.9402 2.03559 95.1966 5.18266 95.1966 7.60503C95.1966 9.93729 95.8176 13.3435 98.428 13.4262ZM48.6961 12.5586C48.1978 11.8826 47.6688 11.3343 47.6688 10.0837V5.92255C47.6688 4.16114 47.7953 2.54255 46.469 1.32951C45.4225 0.34552 43.6899 0 42.3636 0C39.7723 0 36.8744 0.946313 36.2688 4.08608C36.2036 4.42028 36.4528 4.59677 36.675 4.64562L39.316 4.92352C39.5652 4.91221 39.7454 4.6757 39.7914 4.43533C40.0175 3.35378 40.9413 2.83178 41.9801 2.83178C42.5436 2.83178 43.1799 3.03462 43.5097 3.52654C43.893 4.07491 43.8432 4.82597 43.8432 5.46057V5.80609C42.2638 5.98257 40.1977 6.09531 38.718 6.73378C37.0085 7.4549 35.8125 8.93082 35.8125 11.0978C35.8125 13.8732 37.5948 15.2589 39.8911 15.2589C41.8268 15.2589 42.8887 14.8121 44.3837 13.3171C44.8782 14.0195 45.043 14.3613 45.9476 15.0975C46.1508 15.2026 46.4114 15.1913 46.5915 15.0337L46.5953 15.0412C47.1396 14.5679 48.1285 13.723 48.6844 13.2686C48.9069 13.0882 48.8686 12.799 48.6961 12.5586ZM43.3333 11.3569C42.9001 12.1081 42.2101 12.57 41.4475 12.57C40.4011 12.57 39.7875 11.7888 39.7875 10.6358C39.7875 8.35996 41.869 7.94683 43.8432 7.94683V8.52513C43.8433 9.56542 43.8701 10.4331 43.3333 11.3569ZM12.9667 12.5586C12.4684 11.8826 11.9395 11.3343 11.9395 10.0837V5.92255C11.9395 4.16114 12.066 2.54255 10.7397 1.32951C9.69327 0.34552 7.96052 0 6.63438 0C4.04307 0 1.14896 0.946313 0.539554 4.08608C0.478145 4.42028 0.723488 4.59677 0.945729 4.64562L3.5907 4.92352C3.83604 4.91221 4.01617 4.6757 4.06223 4.43533C4.28842 3.35378 5.21613 2.83178 6.25482 2.83178C6.81451 2.83178 7.45083 3.03462 7.78433 3.52654C8.16375 4.07491 8.11389 4.82597 8.11389 5.46057V5.80609C6.53466 5.98257 4.46855 6.09531 2.98889 6.73378C1.28319 7.4549 0.083374 8.93082 0.083374 11.0978C0.083374 13.8732 1.86964 15.2589 4.16194 15.2589C6.10159 15.2589 7.15957 14.8121 8.65458 13.3171C9.15287 14.0195 9.31385 14.3613 10.2185 15.0975C10.4217 15.2026 10.6822 15.1913 10.8624 15.0337L10.8701 15.0412C11.4145 14.5679 12.4033 13.723 12.9592 13.2686C13.1814 13.0882 13.143 12.799 12.9667 12.5586ZM7.60405 11.3569C7.17083 12.1081 6.48481 12.57 5.71822 12.57C4.67178 12.57 4.06223 11.7888 4.06223 10.6358C4.06223 8.35996 6.14355 7.94683 8.11389 7.94683V8.52513C8.11389 9.56542 8.14065 10.4331 7.60405 11.3569ZM138.654 0.570854C139.309 0.570854 139.854 1.08913 139.854 1.74264C139.854 2.38111 139.317 2.91816 138.654 2.91816C137.994 2.91816 137.458 2.39243 137.458 1.74264C137.458 1.08154 138.002 0.570854 138.654 0.570854ZM138.658 0.34552C137.891 0.34552 137.228 0.953906 137.228 1.74637C137.228 2.52379 137.879 3.14335 138.658 3.14335C139.439 3.14335 140.083 2.5162 140.083 1.74637C140.083 0.953906 139.428 0.34552 138.658 0.34552ZM138.121 2.53124H138.428V1.90036H138.711C138.822 1.90036 138.853 1.94549 138.876 2.03559C138.876 2.05808 138.93 2.45632 138.934 2.53124H139.275C139.233 2.45617 139.21 2.24202 139.194 2.11438C139.164 1.91526 139.148 1.77631 138.93 1.76141C139.041 1.72388 139.233 1.66371 139.233 1.37449C139.233 0.961355 138.861 0.961355 138.669 0.961355H138.121V2.53124ZM138.42 1.21305H138.677C138.761 1.21305 138.914 1.21305 138.914 1.42706C138.914 1.50972 138.876 1.64867 138.669 1.64867H138.42V1.21305Z" fill="#7D7D91"/>
</svg>
