<svg width="132" height="45" viewBox="0 0 132 45" fill="none" xmlns="http://www.w3.org/2000/svg">
<path d="M27.218 0C27.5067 2.6361 26.4492 5.28467 24.8817 7.18755C23.3142 9.0842 20.739 10.5706 18.226 10.3736C17.8677 7.78735 19.1553 5.09388 20.6046 3.41296C22.2244 1.50884 24.9588 0.093523 27.218 0Z" fill="#7D7D91"/>
<path d="M35.3589 15.3628C34.9288 15.6276 30.4801 18.3669 30.5303 23.9098C30.5921 30.7071 36.4756 32.9746 36.5556 33.0054L36.5449 33.041C36.4269 33.4245 35.5208 36.3708 33.4502 39.4071C31.5776 42.1477 29.6378 44.878 26.5786 44.9401C25.1119 44.9678 24.1303 44.5416 23.1093 44.0982C22.0402 43.6339 20.9279 43.1509 19.1705 43.1509C17.33 43.1509 16.1675 43.648 15.0471 44.127C14.0758 44.5423 13.1362 44.9441 11.8139 44.9969C8.85786 45.1107 6.61375 42.034 4.7256 39.3037C0.866756 33.7139 -2.07896 23.5117 1.8779 16.6343C3.84343 13.2111 7.35662 11.0497 11.169 10.9928C12.8128 10.9605 14.4036 11.5932 15.7965 12.1471C16.8603 12.5702 17.8087 12.9474 18.5772 12.9474C19.2667 12.9474 20.1907 12.5821 21.2677 12.1562C22.9625 11.4861 25.0363 10.666 27.1719 10.8842C28.637 10.9463 32.7435 11.4737 35.3848 15.3467L35.3589 15.3628Z" fill="#7D7D91"/>
<path fill-rule="evenodd" clip-rule="evenodd" d="M50.3351 29.5094L47.7226 37.4052H44.3935L52.9004 12.3036H56.8005L65.3435 37.4052H61.885L59.2078 29.5094H50.3351ZM58.5484 26.9755L56.0976 19.7518C55.5792 18.2265 55.2222 16.8307 54.8755 15.475L54.7976 15.1704H54.7254L53.4627 19.7281L51.0119 26.988L58.5484 26.9755Z" fill="#7D7D91"/>
<path fill-rule="evenodd" clip-rule="evenodd" d="M67.7257 19.3791L67.875 25.2648L67.8725 44.7924H71.107V34.9862H71.1792C72.2578 36.7694 74.3366 37.8144 76.7153 37.8144C80.9525 37.8144 84.8888 34.6134 84.8888 28.1341C84.8888 22.6587 81.6243 18.9714 77.2751 18.9714C74.3391 18.9714 72.2192 20.2745 70.8831 22.4716H70.8109L70.6617 19.3791H67.7257ZM71.2538 31.4074C71.1767 30.9984 71.1045 30.567 71.1045 30.0682H71.1207V26.9757C71.1307 26.521 71.2053 26.07 71.3422 25.6364C71.9766 23.1811 74.0455 21.5775 76.2848 21.5775C79.7408 21.5775 81.6343 24.6625 81.6343 28.2788C81.6343 32.4162 79.6164 35.2444 76.1604 35.2444C73.8166 35.2444 71.8473 33.6769 71.2538 31.4074Z" fill="#7D7D91"/>
<path fill-rule="evenodd" clip-rule="evenodd" d="M88.1196 19.3791L88.2689 25.2648L88.2664 44.7924H91.5009V34.9862H91.5731C92.6517 36.7694 94.7305 37.8144 97.1092 37.8144C101.346 37.8144 105.283 34.6134 105.283 28.1341C105.283 22.6587 102.018 18.9714 97.669 18.9714C94.733 18.9714 92.6131 20.2745 91.277 22.4716H91.2049L91.0556 19.3791H88.1196ZM91.6527 31.4074C91.5756 30.9984 91.5034 30.567 91.5034 30.0682H91.5196V26.9757C91.5296 26.521 91.6042 26.07 91.7411 25.6364C92.3755 23.1811 94.4444 21.5775 96.6837 21.5775C100.14 21.5775 102.033 24.6625 102.033 28.2788C102.033 32.4162 100.015 35.2444 96.5593 35.2444C94.2155 35.2444 92.2461 33.6769 91.6527 31.4074Z" fill="#7D7D91"/>
<path d="M111.938 10.967H108.667V37.4066H111.938V10.967Z" fill="#7D7D91"/>
<path fill-rule="evenodd" clip-rule="evenodd" d="M124.674 35.2456C121.408 35.2456 118.582 33.42 118.51 28.9883L131.126 28.9783C131.178 28.6429 131.25 28.1266 131.25 27.4533C131.25 24.1488 129.695 18.9739 123.823 18.9739C118.582 18.9739 115.388 23.261 115.388 28.6953C115.388 34.1296 118.695 37.7807 124.231 37.7807C127.1 37.7807 129.059 37.1871 130.21 36.6634L129.653 34.3154C128.425 34.8366 127.016 35.2456 124.674 35.2456ZM123.56 21.3157C127.239 21.3157 128.132 24.5578 128.095 26.6402H118.547C118.804 24.3708 120.254 21.3157 123.56 21.3157Z" fill="#7D7D91"/>
</svg>
