<svg width="88" height="30" viewBox="0 0 88 30" fill="none" xmlns="http://www.w3.org/2000/svg">
<path d="M18.1454 0C18.3378 1.7574 17.6328 3.52311 16.5878 4.7917C15.5428 6.05613 13.826 7.04706 12.1506 6.91571C11.9118 5.19156 12.7702 3.39592 13.7364 2.27531C14.8163 1.00589 16.6392 0.0623487 18.1454 0Z" fill="#7D7D91"/>
<path d="M23.5726 10.2419C23.2859 10.4184 20.3201 12.2446 20.3535 15.9399C20.3948 20.4714 24.3171 21.983 24.3704 22.0036L24.3632 22.0273C24.2846 22.283 23.6806 24.2472 22.3002 26.2714C21.0517 28.0985 19.7585 29.9187 17.7191 29.96C16.7413 29.9786 16.0869 29.6944 15.4062 29.3988C14.6935 29.0893 13.9519 28.7673 12.7803 28.7673C11.5533 28.7673 10.7783 29.0986 10.0314 29.418C9.38389 29.6949 8.75745 29.9627 7.87593 29.998C5.90524 30.0738 4.40916 28.0227 3.1504 26.2025C0.577837 22.476 -1.38598 15.6744 1.25193 11.0895C2.56229 8.80742 4.90442 7.36645 7.44603 7.32853C8.5419 7.30703 9.6024 7.72879 10.531 8.0981C11.2402 8.38015 11.8725 8.63161 12.3848 8.63161C12.8445 8.63161 13.4605 8.38804 14.1785 8.10414C15.3084 7.65737 16.6909 7.1107 18.1146 7.25614C19.0913 7.29751 21.829 7.64913 23.5899 10.2312L23.5726 10.2419Z" fill="#7D7D91"/>
<path fill-rule="evenodd" clip-rule="evenodd" d="M33.5568 19.6729L31.8151 24.9368H29.5957L35.2669 8.20242H37.867L43.5623 24.9368H41.2567L39.4719 19.6729H33.5568ZM39.0323 17.9837L37.3984 13.1679C37.0528 12.151 36.8148 11.2205 36.5837 10.3167L36.5317 10.1136H36.4836L35.6418 13.1521L34.0079 17.992L39.0323 17.9837Z" fill="#7D7D91"/>
<path fill-rule="evenodd" clip-rule="evenodd" d="M45.1505 12.9194L45.25 16.8432L45.2483 29.8616H47.4047V23.3242H47.4528C48.1719 24.5129 49.5578 25.2096 51.1435 25.2096C53.9684 25.2096 56.5925 23.0756 56.5925 18.7561C56.5925 15.1058 54.4162 12.6476 51.5167 12.6476C49.5594 12.6476 48.1462 13.5163 47.2554 14.9811H47.2073L47.1078 12.9194H45.1505ZM47.5026 20.9383C47.4511 20.6656 47.403 20.378 47.403 20.0454H47.4138V17.9838C47.4205 17.6807 47.4702 17.38 47.5615 17.091C47.9844 15.4541 49.3637 14.385 50.8566 14.385C53.1606 14.385 54.4229 16.4417 54.4229 18.8525C54.4229 21.6108 53.0776 23.4962 50.7736 23.4962C49.2111 23.4962 47.8982 22.4513 47.5026 20.9383Z" fill="#7D7D91"/>
<path fill-rule="evenodd" clip-rule="evenodd" d="M58.7464 12.9194L58.8459 16.8432L58.8443 29.8616H61.0006V23.3242H61.0488C61.7678 24.5129 63.1537 25.2096 64.7395 25.2096C67.5643 25.2096 70.1885 23.0756 70.1885 18.7561C70.1885 15.1058 68.0122 12.6476 65.1127 12.6476C63.1554 12.6476 61.7421 13.5163 60.8514 14.9811H60.8033L60.7037 12.9194H58.7464ZM61.1018 20.9383C61.0504 20.6656 61.0023 20.378 61.0023 20.0454H61.0131V17.9838C61.0197 17.6807 61.0695 17.38 61.1607 17.091C61.5837 15.4541 62.9629 14.385 64.4558 14.385C66.7598 14.385 68.0221 16.4417 68.0221 18.8525C68.0221 21.6108 66.6769 23.4962 64.3729 23.4962C62.8103 23.4962 61.4974 22.4513 61.1018 20.9383Z" fill="#7D7D91"/>
<path d="M74.6256 7.31136H72.4444V24.9377H74.6256V7.31136Z" fill="#7D7D91"/>
<path fill-rule="evenodd" clip-rule="evenodd" d="M83.1159 23.4971C80.9388 23.4971 79.0545 22.28 79.0064 19.3255L87.4171 19.3189C87.4519 19.0953 87.5 18.7511 87.5 18.3022C87.5 16.0992 86.4633 12.6492 82.5486 12.6492C79.0545 12.6492 76.9255 15.5073 76.9255 19.1302C76.9255 22.753 79.1299 25.1871 82.8207 25.1871C84.7332 25.1871 86.0395 24.7914 86.8066 24.4423L86.4351 22.8769C85.6165 23.2244 84.6776 23.4971 83.1159 23.4971ZM82.3736 14.2104C84.8261 14.2104 85.4216 16.3719 85.3967 17.7602H79.0313C79.2029 16.2472 80.1692 14.2104 82.3736 14.2104Z" fill="#7D7D91"/>
</svg>
