<svg width="175" height="60" viewBox="0 0 175 60" fill="none" xmlns="http://www.w3.org/2000/svg">
<path d="M36.2907 0C36.6756 3.5148 35.2656 7.04623 33.1756 9.5834C31.0856 12.1123 27.652 14.0941 24.3013 13.8314C23.8236 10.3831 25.5404 6.79185 27.4728 4.55062C29.6325 2.01178 33.2784 0.124697 36.2907 0Z" fill="#7D7D91"/>
<path d="M47.1452 20.4838C46.5717 20.8368 40.6401 24.4892 40.7071 31.8798C40.7895 40.9429 48.6341 43.9661 48.7408 44.0072L48.7265 44.0547C48.5692 44.566 47.3611 48.4943 44.6003 52.5429C42.1034 56.197 39.5171 59.8373 35.4381 59.9201C33.4826 59.9571 32.1737 59.3887 30.8124 58.7976C29.3869 58.1786 27.9039 57.5345 25.5606 57.5345C23.1067 57.5345 21.5567 58.1973 20.0628 58.8361C18.7678 59.3898 17.5149 59.9255 15.7519 59.9959C11.8105 60.1476 8.81833 56.0453 6.3008 52.405C1.15567 44.9519 -2.77195 31.3489 2.50386 22.1791C5.12457 17.6148 9.80884 14.7329 14.8921 14.6571C17.0838 14.6141 19.2048 15.4576 21.062 16.1962C22.4804 16.7603 23.7449 17.2632 24.7696 17.2632C25.689 17.2632 26.9209 16.7761 28.3569 16.2083C30.6167 15.3147 33.3818 14.2214 36.2292 14.5123C38.1827 14.595 43.658 15.2983 47.1798 20.4623L47.1452 20.4838Z" fill="#7D7D91"/>
<path fill-rule="evenodd" clip-rule="evenodd" d="M67.1135 39.3458L63.6301 49.8736H59.1913L70.5339 16.4048H75.734L87.1247 49.8736H82.5134L78.9437 39.3458H67.1135ZM78.0646 35.9674L74.7969 26.3357C74.1056 24.302 73.6297 22.4409 73.1674 20.6334L73.0635 20.2272H72.9673L71.2836 26.3041L68.0159 35.984L78.0646 35.9674Z" fill="#7D7D91"/>
<path fill-rule="evenodd" clip-rule="evenodd" d="M90.3009 25.8388L90.5 33.6864L90.4967 59.7232H94.8094V46.6483H94.9056C96.3438 49.0259 99.1155 50.4192 102.287 50.4192C107.937 50.4192 113.185 46.1512 113.185 37.5122C113.185 30.2116 108.832 25.2952 103.033 25.2952C99.1188 25.2952 96.2923 27.0326 94.5108 29.9622H94.4146L94.2156 25.8388H90.3009ZM95.0051 41.8766C94.9023 41.3312 94.8061 40.7559 94.8061 40.0909H94.8276V35.9676C94.841 35.3613 94.9404 34.7601 95.1229 34.1819C95.9689 30.9082 98.7274 28.7701 101.713 28.7701C106.321 28.7701 108.846 32.8834 108.846 37.705C108.846 43.2216 106.155 46.9925 101.547 46.9925C98.4222 46.9925 95.7964 44.9026 95.0051 41.8766Z" fill="#7D7D91"/>
<path fill-rule="evenodd" clip-rule="evenodd" d="M117.493 25.8388L117.692 33.6864L117.689 59.7232H122.001V46.6483H122.098C123.536 49.0259 126.307 50.4192 129.479 50.4192C135.129 50.4192 140.377 46.1512 140.377 37.5122C140.377 30.2116 136.024 25.2952 130.225 25.2952C126.311 25.2952 123.484 27.0326 121.703 29.9622H121.607L121.407 25.8388H117.493ZM122.204 41.8766C122.101 41.3312 122.005 40.7559 122.005 40.0909H122.026V35.9676C122.039 35.3613 122.139 34.7601 122.321 34.1819C123.167 30.9082 125.926 28.7701 128.912 28.7701C133.52 28.7701 136.044 32.8834 136.044 37.705C136.044 43.2216 133.354 46.9925 128.746 46.9925C125.621 46.9925 122.995 44.9026 122.204 41.8766Z" fill="#7D7D91"/>
<path d="M149.251 14.6227H144.889V49.8755H149.251V14.6227Z" fill="#7D7D91"/>
<path fill-rule="evenodd" clip-rule="evenodd" d="M166.232 46.9941C161.878 46.9941 158.109 44.5601 158.013 38.6511L174.834 38.6378C174.904 38.1905 175 37.5022 175 36.6044C175 32.1984 172.927 25.2985 165.097 25.2985C158.109 25.2985 153.851 31.0146 153.851 38.2603C153.851 45.5061 158.26 50.3743 165.641 50.3743C169.466 50.3743 172.079 49.5829 173.613 48.8846L172.87 45.7538C171.233 46.4488 169.355 46.9941 166.232 46.9941ZM164.747 28.4209C169.652 28.4209 170.843 32.7437 170.793 35.5203H158.063C158.406 32.4943 160.338 28.4209 164.747 28.4209Z" fill="#7D7D91"/>
</svg>
