<svg width="96" height="30" viewBox="0 0 96 30" fill="none" xmlns="http://www.w3.org/2000/svg">
<path d="M27.441 29.8503C24.5762 29.0521 22.3453 26.4432 22.0663 23.5746L21.9404 22.284H23.6276H25.3148L25.5547 23.2293C26.0629 25.2333 28.1556 26.7591 29.928 26.4188C31.6457 26.0911 33.299 24.2729 33.3176 22.6966C33.3219 22.3353 33.5582 22.2849 35.1234 22.2849H36.9242L36.7754 23.4032C36.4421 25.9113 34.682 28.3699 32.4734 29.4126C31.351 29.9419 28.6186 30.178 27.441 29.8503ZM11.434 21.4699C9.19934 20.9153 7.33301 19.3063 6.3793 17.1133C6.01514 16.273 5.91301 15.5756 5.91222 13.9212C5.91135 12.0777 5.99139 11.6265 6.52813 10.467C7.26991 8.86468 8.53174 7.59929 10.1939 6.79099C12.0105 5.90874 14.4923 5.92807 16.3953 6.87501C22.0114 9.56712 22.1407 18.0392 16.609 20.8901C15.0084 21.7135 13.1633 21.9345 11.4343 21.5035L11.434 21.4699ZM15.0062 17.677C16.6081 16.8704 17.4734 14.9135 17.0788 12.9902C16.6505 10.9023 15.1318 9.73432 13.004 9.85532C10.8036 9.98135 9.35118 11.5644 9.35118 13.8372C9.35118 16.9242 12.3959 18.9912 15.0062 17.677ZM27.9806 21.5774C25.611 21.1489 23.0774 18.9508 22.3563 16.7049C21.9043 15.2967 21.9027 12.5508 22.3525 11.1493C22.7578 9.88725 24.1423 8.12192 25.3741 7.29681C26.8226 6.32634 28.7225 5.93143 30.4714 6.23811C31.2932 6.38095 33.0202 6.49859 34.309 6.49859H36.6523V8.01437C36.6523 9.30244 36.589 9.55115 36.2248 9.67299C35.8076 9.81583 35.8092 9.84103 36.2802 10.9258C36.6436 11.766 36.7607 12.4928 36.7631 13.9246C36.766 15.5941 36.68 15.9999 36.0261 17.409C34.5886 20.5086 31.3426 22.1891 27.9806 21.5774ZM31.4509 17.4577C34.7567 15.4017 33.3215 9.79818 29.489 9.79818C27.0517 9.79818 25.4909 11.4081 25.4909 13.9212C25.4909 15.2118 25.8827 16.2192 26.6986 17.0284C27.8888 18.2072 29.9465 18.3946 31.4509 17.4577ZM56.6769 21.548C54.405 21.1531 52.6201 19.8062 51.5593 17.6905C51.0281 16.6301 50.9687 16.2646 50.9687 14.0388C50.9687 11.8131 51.0241 11.4476 51.5593 10.3872C52.7254 8.06058 54.4844 6.6994 56.895 6.25744C61.3555 5.44242 64.9787 8.74957 65.1281 13.7792L65.1756 15.3345L59.9041 15.4185C54.0985 15.5025 54.1099 15.5025 55.2139 16.8771C56.0224 17.8963 56.9824 18.3652 58.2892 18.377C59.432 18.3854 60.9245 17.7552 61.4998 17.0217C61.6589 16.82 61.902 16.652 62.0397 16.6604C62.3382 16.6671 64.3986 18.7131 64.3986 19.0029C64.3986 19.3642 62.5657 20.649 61.4128 21.0985C59.9923 21.653 58.1811 21.8379 56.6782 21.569L56.6769 21.548ZM61.5118 12.1231C61.5118 11.4677 60.4893 10.1822 59.6463 9.77549C58.2054 9.0781 56.6615 9.30497 55.5533 10.3637C55.0846 10.809 54.4091 11.9324 54.4091 12.2626C54.4091 12.3466 56.0072 12.3886 57.9605 12.3886C60.4561 12.3886 61.5118 12.308 61.5118 12.1231ZM72.436 21.5505C70.1199 21.1388 68.1489 19.5919 67.1229 17.3746C66.5869 16.2167 66.5062 15.7622 66.5062 13.9212C66.5062 12.0794 66.5869 11.6257 67.1229 10.467C67.8646 8.86468 69.1265 7.59929 70.7887 6.79099C72.5961 5.91295 75.0881 5.92891 76.9685 6.79099C77.7174 7.15229 78.662 7.80683 79.0669 8.25047L79.8032 9.0571L78.7119 10.2334C77.5386 11.4971 77.2637 11.6139 76.8135 11.04C76.1596 10.1998 74.8037 9.7066 73.4566 9.80995C71.3267 9.96959 70.146 11.2291 69.9916 13.496C69.8151 16.0865 71.1398 17.7796 73.4837 17.9602C74.8662 18.0694 75.8043 17.7081 76.8368 16.6864L77.4013 16.1235L78.6015 17.4132L79.8017 18.703L79.1462 19.434C78.2703 20.4128 76.7618 21.2018 75.1675 21.5144C74.4479 21.6572 73.8029 21.7581 73.7337 21.7413C73.6624 21.7413 73.0806 21.6236 72.4354 21.506L72.436 21.5505ZM1.06467 21.1892C0.983125 21.1052 0.916626 16.3856 0.916626 10.7056V0.38001H2.69231H4.468V10.8628V21.3463H2.84027C1.94507 21.3463 1.14605 21.2648 1.06467 21.1892ZM38.206 13.9153V6.48515L39.9262 6.56917L41.6464 6.65319L41.7018 14.0145L41.7572 21.3766H39.9784H38.1995V13.9464L38.206 13.9153ZM45.0352 15.6336L44.9719 9.92086L44.0187 9.83683L43.0656 9.75281L43.1289 8.17653L43.1922 6.60026L44.1356 6.51623L45.0789 6.43221V4.20811V1.98317H46.7436H48.4083V4.20811V6.43221L49.3517 6.51623L50.295 6.60026L50.3583 8.19081L50.4217 9.78054H49.4127H48.4037V15.5521V21.3237H46.743H45.0822L45.0189 15.6109L45.0352 15.6336ZM81.0443 10.8728V0.38001H82.8143H84.5844L84.6477 4.0409L84.711 7.70264L85.4631 7.11448C87.9584 5.15926 92.0075 6.14989 93.5692 9.09659L94.2556 10.3931L94.3268 15.8697L94.3981 21.3472H92.6076H90.8172V16.7461C90.8172 11.6114 90.6565 10.7997 89.5139 10.1729C88.0385 9.3663 85.7255 9.92086 85.0049 11.2635C84.803 11.6417 84.6795 13.2507 84.602 16.5175L84.4911 21.2296L82.771 21.3136L81.0508 21.3976V10.9039L81.0443 10.8728ZM94.1811 6.34398C93.6356 6.10872 93.429 5.08111 93.8066 4.47026C94.375 3.54937 95.9411 3.83169 95.9019 4.83997C95.894 5.06683 95.8101 4.99961 95.6874 4.67192C95.4182 3.95772 94.262 3.93251 93.9107 4.67192C93.7199 5.05002 93.7436 5.28529 94.0191 5.7323C94.449 6.42969 94.8837 6.4633 95.4725 5.83312C95.7163 5.57265 95.9166 5.45502 95.9166 5.56425C95.9166 5.88354 95.1361 6.5448 94.7894 6.52463C94.616 6.51623 94.3429 6.44061 94.1822 6.3818L94.1811 6.34398ZM94.3798 5.13321C94.364 4.51144 94.4431 4.3686 94.7503 4.42741C95.002 4.51144 95.1422 4.7299 95.1485 5.14161C95.156 5.60374 95.0852 5.71297 94.8928 5.53652C94.7115 5.37688 94.5904 5.40208 94.512 5.62055C94.4487 5.78859 94.3893 5.53652 94.379 5.14161L94.3798 5.13321ZM95.0282 4.85593C95.0282 4.7299 94.9284 4.62066 94.8065 4.62066C94.6846 4.62066 94.5848 4.7299 94.5848 4.85593C94.5848 4.98197 94.6846 5.0912 94.8065 5.0912C94.9284 5.0912 95.0282 4.98197 95.0282 4.85593ZM38.9407 4.62066C37.8208 4.14173 37.3467 2.15122 38.0726 0.974894C38.9062 -0.375361 41.1879 -0.308142 41.8674 1.08412C42.9576 3.32166 41.1145 5.54996 38.9407 4.62066Z" fill="#7D7D91"/>
</svg>
