<svg width="104" height="36" viewBox="0 0 104 36" fill="none" xmlns="http://www.w3.org/2000/svg">
<mask id="mask0_80_771" style="mask-type:luminance" maskUnits="userSpaceOnUse" x="12" y="0" width="45" height="36">
<path d="M12.6455 0.5H56.038V35.5H12.6455V0.5Z" fill="white"/>
</mask>
<g mask="url(#mask0_80_771)">
<path d="M53.502 6.56515L48.6244 1.67336L47.7476 0.793932C47.56 0.605742 47.3052 0.499969 47.0394 0.499969H21.655C21.3893 0.499969 21.1344 0.605741 20.9468 0.793931L20.07 1.67336L15.1924 6.56515L13.2954 8.46874C12.9326 8.83281 12.9049 9.41261 13.2313 9.80965L14.9376 11.8852L23.86 22.7427C24.2601 23.2295 25.0052 23.2295 25.4052 22.7426L26.6878 21.1816C26.991 20.8127 26.991 20.2808 26.6878 19.9119L18.5972 10.0663C18.2709 9.66925 18.2987 9.08949 18.6616 8.72549L22.6051 4.76904C22.7928 4.58079 23.0476 4.47499 23.3134 4.47499H45.381C45.6468 4.47499 45.9016 4.58079 46.0893 4.76904L50.0328 8.72546C50.3957 9.08948 50.4235 9.66926 50.0971 10.0663L35.1199 28.291C34.7199 28.7778 33.9746 28.7777 33.5747 28.2908L32.1799 26.5929C31.78 26.106 31.0349 26.1059 30.6347 26.5925L29.351 28.1538C29.0476 28.5228 29.0475 29.0548 29.3509 29.4239L31.2624 31.7497L33.5746 34.5634C33.9747 35.0502 34.7198 35.0502 35.1198 34.5634L37.432 31.7497L53.7569 11.8852L55.4631 9.80965C55.7895 9.41261 55.7618 8.83281 55.399 8.46874L53.502 6.56515Z" fill="url(#paint0_linear_80_771)"/>
</g>
<mask id="mask1_80_771" style="mask-type:luminance" maskUnits="userSpaceOnUse" x="0" y="0" width="44" height="36">
<path d="M0 0.5H43.4067V35.5H0V0.5Z" fill="white"/>
</mask>
<g mask="url(#mask1_80_771)">
<path d="M40.2981 6.01638C40.1105 5.82839 39.8558 5.72274 39.5903 5.72274H36.7925C35.9025 5.72274 35.4559 6.79819 36.0842 7.42865L37.3767 8.72549C37.7395 9.08952 37.7672 9.66926 37.4409 10.0663L22.4635 28.2912C22.0635 28.778 21.3184 28.778 20.9184 28.2912L5.94101 10.0664C5.61469 9.66929 5.6425 9.08951 6.00533 8.72549L9.94888 4.76907C10.1365 4.58082 10.3914 4.47502 10.6571 4.47502H15.0956C15.3614 4.47502 15.6162 4.36923 15.8038 4.18102L17.7727 2.206C18.4011 1.57559 17.9546 0.5 17.0645 0.5H8.99874C8.733 0.5 8.47819 0.605772 8.29057 0.793962L7.41379 1.67339L2.53793 6.56518L0.639629 8.46877C0.276607 8.83281 0.24876 9.41279 0.575235 9.80993L2.2813 11.8853L18.6062 31.7497L20.9184 34.5634C21.3184 35.0502 22.0635 35.0502 22.4635 34.5634L24.7758 31.7497L41.1006 11.8853L42.8069 9.80968C43.1333 9.41264 43.1055 8.83284 42.7427 8.46877L40.8458 6.56518L40.2981 6.01638Z" fill="#017CBE"/>
</g>
<path d="M64.8261 23.112C64.1634 23.112 63.5381 23.014 62.9501 22.818C62.3714 22.6127 61.8861 22.2907 61.4941 21.852C61.1021 21.404 60.8454 20.8207 60.7241 20.102H62.5021C62.6141 20.466 62.7914 20.7507 63.0341 20.956C63.2861 21.1613 63.5801 21.306 63.9161 21.39C64.2521 21.4647 64.5928 21.502 64.9381 21.502C65.2461 21.502 65.5354 21.4647 65.8061 21.39C66.0861 21.306 66.3148 21.1707 66.4921 20.984C66.6788 20.7973 66.7721 20.55 66.7721 20.242C66.7721 20.0087 66.7208 19.822 66.6181 19.682C66.5248 19.5327 66.3894 19.4113 66.2121 19.318C66.0441 19.2153 65.8388 19.136 65.5961 19.08C65.3628 19.0053 65.1108 18.94 64.8401 18.884C64.5694 18.828 64.3034 18.7673 64.0421 18.702C63.7808 18.6367 63.5334 18.5527 63.3001 18.45C63.0014 18.3473 62.7121 18.2307 62.4321 18.1C62.1614 17.96 61.9234 17.792 61.7181 17.596C61.5221 17.4 61.3634 17.1573 61.2421 16.868C61.1208 16.5787 61.0601 16.2333 61.0601 15.832C61.0601 15.3747 61.1348 14.9827 61.2841 14.656C61.4428 14.32 61.6481 14.0447 61.9001 13.83C62.1614 13.6153 62.4508 13.4473 62.7681 13.326C63.0948 13.2047 63.4308 13.116 63.7761 13.06C64.1308 13.004 64.4668 12.976 64.7841 12.976C65.4001 12.976 65.9601 13.0787 66.4641 13.284C66.9774 13.4893 67.3974 13.8067 67.7241 14.236C68.0508 14.6653 68.2374 15.216 68.2841 15.888H66.5901C66.5528 15.5707 66.4408 15.3187 66.2541 15.132C66.0674 14.936 65.8341 14.796 65.5541 14.712C65.2741 14.6187 64.9708 14.572 64.6441 14.572C64.4201 14.572 64.1961 14.5907 63.9721 14.628C63.7574 14.6653 63.5614 14.7307 63.3841 14.824C63.2161 14.9173 63.0761 15.0433 62.9641 15.202C62.8614 15.3513 62.8101 15.5427 62.8101 15.776C62.8101 15.9813 62.8614 16.1633 62.9641 16.322C63.0668 16.4713 63.2068 16.5973 63.3841 16.7C63.5708 16.8027 63.7901 16.896 64.0421 16.98C64.3688 17.1107 64.7234 17.2087 65.1061 17.274C65.4981 17.3393 65.8668 17.428 66.2121 17.54C66.5481 17.6333 66.8561 17.75 67.1361 17.89C67.4254 18.0207 67.6728 18.184 67.8781 18.38C68.0834 18.5667 68.2421 18.8 68.3541 19.08C68.4754 19.3507 68.5361 19.6773 68.5361 20.06C68.5361 20.62 68.4334 21.096 68.2281 21.488C68.0321 21.8707 67.7568 22.1833 67.4021 22.426C67.0568 22.6687 66.6601 22.846 66.2121 22.958C65.7734 23.0607 65.3114 23.112 64.8261 23.112ZM72.4173 23.098C72.0719 23.098 71.7453 23.0513 71.4373 22.958C71.1293 22.8647 70.8539 22.7293 70.6113 22.552C70.3686 22.3653 70.1726 22.1367 70.0233 21.866C69.8833 21.586 69.8133 21.2593 69.8133 20.886C69.8133 20.41 69.9066 20.0227 70.0933 19.724C70.2799 19.416 70.5319 19.1827 70.8493 19.024C71.1759 18.8653 71.5446 18.758 71.9553 18.702C72.3659 18.6367 72.7953 18.604 73.2433 18.604H74.6853C74.6853 18.2773 74.6339 17.9973 74.5313 17.764C74.4286 17.5213 74.2653 17.33 74.0413 17.19C73.8266 17.05 73.5466 16.98 73.2013 16.98C72.9773 16.98 72.7673 17.008 72.5713 17.064C72.3846 17.1107 72.2213 17.19 72.0813 17.302C71.9506 17.4047 71.8573 17.54 71.8013 17.708H70.0513C70.1166 17.3253 70.2473 16.9987 70.4433 16.728C70.6486 16.448 70.8959 16.2193 71.1853 16.042C71.4839 15.8647 71.8106 15.734 72.1653 15.65C72.5199 15.5567 72.8793 15.51 73.2433 15.51C74.3166 15.51 75.0959 15.818 75.5813 16.434C76.0759 17.05 76.3233 17.9133 76.3233 19.024V23H74.8113L74.7693 22.048C74.5546 22.3653 74.2979 22.5987 73.9993 22.748C73.7006 22.8973 73.4113 22.9907 73.1313 23.028C72.8513 23.0747 72.6133 23.098 72.4173 23.098ZM72.7533 21.712C73.1266 21.712 73.4579 21.642 73.7473 21.502C74.0366 21.362 74.2653 21.166 74.4333 20.914C74.6106 20.662 74.6993 20.3727 74.6993 20.046V19.808H73.3553C73.1313 19.808 72.9073 19.8173 72.6833 19.836C72.4686 19.8453 72.2726 19.8827 72.0953 19.948C71.9179 20.004 71.7733 20.0927 71.6613 20.214C71.5586 20.3353 71.5073 20.508 71.5073 20.732C71.5073 20.956 71.5633 21.138 71.6753 21.278C71.7966 21.418 71.9506 21.5253 72.1373 21.6C72.3333 21.6747 72.5386 21.712 72.7533 21.712ZM77.9539 25.716V15.622H79.5499L79.6339 16.616C79.9233 16.2333 80.2686 15.9533 80.6699 15.776C81.0713 15.5987 81.5146 15.51 81.9999 15.51C82.7279 15.51 83.3299 15.678 83.8059 16.014C84.2819 16.35 84.6366 16.8027 84.8699 17.372C85.1033 17.9413 85.2199 18.5853 85.2199 19.304C85.2199 20.0227 85.0986 20.6713 84.8559 21.25C84.6133 21.8193 84.2446 22.272 83.7499 22.608C83.2646 22.9347 82.6533 23.098 81.9159 23.098C81.5706 23.098 81.2533 23.0607 80.9639 22.986C80.6839 22.9113 80.4319 22.804 80.2079 22.664C79.9933 22.524 79.8113 22.3653 79.6619 22.188V25.716H77.9539ZM81.6499 21.558C82.1259 21.558 82.4993 21.4553 82.7699 21.25C83.0406 21.0353 83.2366 20.76 83.3579 20.424C83.4793 20.0787 83.5399 19.7147 83.5399 19.332C83.5399 18.9307 83.4746 18.5573 83.3439 18.212C83.2226 17.8667 83.0219 17.5867 82.7419 17.372C82.4619 17.1573 82.0886 17.05 81.6219 17.05C81.1926 17.05 80.8286 17.1573 80.5299 17.372C80.2406 17.5773 80.0213 17.8527 79.8719 18.198C79.7226 18.5433 79.6479 18.9167 79.6479 19.318C79.6479 19.7287 79.7179 20.1067 79.8579 20.452C79.9979 20.788 80.2173 21.0587 80.5159 21.264C80.8146 21.46 81.1926 21.558 81.6499 21.558ZM86.5946 23V13.102H88.3026V16.574C88.4986 16.322 88.7272 16.1167 88.9886 15.958C89.2499 15.7993 89.5252 15.6873 89.8146 15.622C90.1039 15.5473 90.3792 15.51 90.6406 15.51C91.3406 15.51 91.8912 15.664 92.2926 15.972C92.6939 16.28 92.9739 16.6907 93.1326 17.204C93.3006 17.7173 93.3846 18.296 93.3846 18.94V23H91.6766V19.234C91.6766 18.982 91.6579 18.7253 91.6206 18.464C91.5832 18.2027 91.5086 17.9693 91.3966 17.764C91.2939 17.5493 91.1352 17.3767 90.9206 17.246C90.7152 17.1153 90.4399 17.05 90.0946 17.05C89.7679 17.05 89.4879 17.12 89.2546 17.26C89.0212 17.3907 88.8346 17.5727 88.6946 17.806C88.5639 18.0393 88.4659 18.296 88.4006 18.576C88.3352 18.856 88.3026 19.136 88.3026 19.416V23H86.5946ZM94.9891 23V15.622H96.6971V23H94.9891ZM95.8431 14.768C95.5164 14.768 95.2551 14.67 95.0591 14.474C94.8631 14.278 94.7651 14.0213 94.7651 13.704C94.7651 13.396 94.8678 13.144 95.0731 12.948C95.2784 12.7427 95.5351 12.64 95.8431 12.64C96.1418 12.64 96.3984 12.738 96.6131 12.934C96.8278 13.13 96.9351 13.3867 96.9351 13.704C96.9351 14.0213 96.8324 14.278 96.6271 14.474C96.4218 14.67 96.1604 14.768 95.8431 14.768ZM98.3524 23V15.622H99.9064L100.004 16.588C100.191 16.308 100.401 16.0933 100.634 15.944C100.877 15.7853 101.134 15.6733 101.404 15.608C101.684 15.5427 101.964 15.51 102.244 15.51C102.347 15.51 102.44 15.51 102.524 15.51C102.618 15.51 102.692 15.5147 102.748 15.524V17.148H102.3C101.815 17.148 101.404 17.2413 101.068 17.428C100.732 17.6147 100.48 17.8807 100.312 18.226C100.144 18.5713 100.06 18.996 100.06 19.5V23H98.3524Z" fill="#082E49"/>
<defs>
<linearGradient id="paint0_linear_80_771" x1="12.6563" y1="24.5045" x2="50.9784" y2="24.5045" gradientUnits="userSpaceOnUse">
<stop stop-color="#0268A2"/>
<stop offset="1" stop-color="#940EBD"/>
</linearGradient>
</defs>
</svg>
