<svg width="86" height="24" viewBox="0 0 86 24" fill="none" xmlns="http://www.w3.org/2000/svg">
<mask id="mask0_165_641" style="mask-type:luminance" maskUnits="userSpaceOnUse" x="8" y="0" width="31" height="24">
<path d="M8.67108 0H38.426V24H8.67108V0Z" fill="white"/>
</mask>
<g mask="url(#mask0_165_641)">
<path d="M36.687 4.15895L33.3424 0.804581L32.8333 0.293931C32.6456 0.105741 32.3908 -3.05176e-05 32.1251 -3.05176e-05H14.9796C14.7138 -3.05176e-05 14.459 0.105741 14.2714 0.293931L13.7623 0.804581L10.4176 4.15895L9.31771 5.26268C8.95491 5.62675 8.92717 6.20656 9.25356 6.60359L10.2428 7.80701L16.1183 14.9566C16.5183 15.4434 17.2635 15.4434 17.6635 14.9566L18.1362 14.3812C18.4394 14.0122 18.4394 13.4804 18.1362 13.1115L12.933 6.77962C12.6067 6.38254 12.6345 5.80278 12.9973 5.43878L15.4085 3.01974C15.5961 2.8315 15.851 2.7257 16.1168 2.7257H30.9879C31.2537 2.7257 31.5085 2.8315 31.6961 3.01974L34.1073 5.43875C34.4701 5.80277 34.4979 6.38255 34.1716 6.77962L24.3251 18.7611C23.925 19.248 23.1798 19.2479 22.7798 18.761L22.3089 18.1878C21.909 17.7009 21.1639 17.7007 20.7638 18.1874L20.2904 18.7631C19.9871 19.132 19.987 19.6641 20.2903 20.0331L21.437 21.4284L22.7797 23.0623C23.1798 23.549 23.9249 23.549 24.3249 23.0623L25.6676 21.4284L36.8618 7.80701L37.8511 6.60359C38.1775 6.20656 38.1497 5.62675 37.7869 5.26268L36.687 4.15895Z" fill="#69117E"/>
</g>
<mask id="mask1_165_641" style="mask-type:luminance" maskUnits="userSpaceOnUse" x="0" y="0" width="30" height="24">
<path d="M0 0H29.7646V24H0V0Z" fill="white"/>
</mask>
<g mask="url(#mask1_165_641)">
<path d="M27.7251 3.87495C27.5375 3.68696 27.2828 3.58131 27.0172 3.58131H25.9861C25.096 3.58131 24.6495 4.65676 25.2778 5.28721L25.4288 5.43878C25.7916 5.80281 25.8194 6.38255 25.4931 6.7796L15.6464 18.7614C15.2463 19.2481 14.5013 19.2481 14.1012 18.7614L4.25452 6.77965C3.9282 6.38258 3.95601 5.8028 4.31884 5.43878L6.72997 3.01977C6.9176 2.83153 7.17245 2.72573 7.43823 2.72573H10.2208C10.4866 2.72573 10.7414 2.61994 10.929 2.43173L11.6525 1.706C12.2809 1.07559 11.8344 0 10.9443 0H6.30103C6.03529 0 5.78047 0.105772 5.59285 0.293962L5.08374 0.804612L1.74029 4.15898L0.639629 5.26271C0.276607 5.62675 0.24876 6.20673 0.575235 6.60387L1.56432 7.80704L12.7585 21.4284L14.1012 23.0623C14.5012 23.5491 15.2464 23.5491 15.6464 23.0623L16.9891 21.4284L28.1833 7.80704L29.1726 6.60362C29.499 6.20659 29.4712 5.62678 29.1084 5.26271L28.0085 4.15898L27.7251 3.87495Z" fill="#7B0E9A"/>
</g>
<path d="M47.214 17.112C46.5514 17.112 45.926 17.014 45.338 16.818C44.7594 16.6127 44.274 16.2907 43.882 15.852C43.49 15.404 43.2334 14.8207 43.112 14.102H44.89C45.002 14.466 45.1794 14.7507 45.422 14.956C45.674 15.1613 45.968 15.306 46.304 15.39C46.64 15.4647 46.9807 15.502 47.326 15.502C47.634 15.502 47.9234 15.4647 48.194 15.39C48.474 15.306 48.7027 15.1707 48.88 14.984C49.0667 14.7973 49.16 14.55 49.16 14.242C49.16 14.0087 49.1087 13.822 49.006 13.682C48.9127 13.5327 48.7774 13.4113 48.6 13.318C48.432 13.2153 48.2267 13.136 47.984 13.08C47.7507 13.0053 47.4987 12.94 47.228 12.884C46.9574 12.828 46.6914 12.7673 46.43 12.702C46.1687 12.6367 45.9214 12.5527 45.688 12.45C45.3894 12.3473 45.1 12.2307 44.82 12.1C44.5494 11.96 44.3114 11.792 44.106 11.596C43.91 11.4 43.7514 11.1573 43.63 10.868C43.5087 10.5787 43.448 10.2333 43.448 9.832C43.448 9.37467 43.5227 8.98267 43.672 8.656C43.8307 8.32 44.036 8.04467 44.288 7.83C44.5494 7.61533 44.8387 7.44733 45.156 7.326C45.4827 7.20467 45.8187 7.116 46.164 7.06C46.5187 7.004 46.8547 6.976 47.172 6.976C47.788 6.976 48.348 7.07867 48.852 7.284C49.3654 7.48933 49.7854 7.80667 50.112 8.236C50.4387 8.66533 50.6254 9.216 50.672 9.888H48.978C48.9407 9.57067 48.8287 9.31867 48.642 9.132C48.4554 8.936 48.222 8.796 47.942 8.712C47.662 8.61867 47.3587 8.572 47.032 8.572C46.808 8.572 46.584 8.59067 46.36 8.628C46.1454 8.66533 45.9494 8.73067 45.772 8.824C45.604 8.91733 45.464 9.04333 45.352 9.202C45.2494 9.35133 45.198 9.54267 45.198 9.776C45.198 9.98133 45.2494 10.1633 45.352 10.322C45.4547 10.4713 45.5947 10.5973 45.772 10.7C45.9587 10.8027 46.178 10.896 46.43 10.98C46.7567 11.1107 47.1114 11.2087 47.494 11.274C47.886 11.3393 48.2547 11.428 48.6 11.54C48.936 11.6333 49.244 11.75 49.524 11.89C49.8134 12.0207 50.0607 12.184 50.266 12.38C50.4714 12.5667 50.63 12.8 50.742 13.08C50.8634 13.3507 50.924 13.6773 50.924 14.06C50.924 14.62 50.8214 15.096 50.616 15.488C50.42 15.8707 50.1447 16.1833 49.79 16.426C49.4447 16.6687 49.048 16.846 48.6 16.958C48.1614 17.0607 47.6994 17.112 47.214 17.112ZM54.8052 17.098C54.4599 17.098 54.1332 17.0513 53.8252 16.958C53.5172 16.8647 53.2419 16.7293 52.9992 16.552C52.7565 16.3653 52.5605 16.1367 52.4112 15.866C52.2712 15.586 52.2012 15.2593 52.2012 14.886C52.2012 14.41 52.2945 14.0227 52.4812 13.724C52.6679 13.416 52.9199 13.1827 53.2372 13.024C53.5639 12.8653 53.9325 12.758 54.3432 12.702C54.7539 12.6367 55.1832 12.604 55.6312 12.604H57.0732C57.0732 12.2773 57.0219 11.9973 56.9192 11.764C56.8165 11.5213 56.6532 11.33 56.4292 11.19C56.2145 11.05 55.9345 10.98 55.5892 10.98C55.3652 10.98 55.1552 11.008 54.9592 11.064C54.7725 11.1107 54.6092 11.19 54.4692 11.302C54.3385 11.4047 54.2452 11.54 54.1892 11.708H52.4392C52.5045 11.3253 52.6352 10.9987 52.8312 10.728C53.0365 10.448 53.2839 10.2193 53.5732 10.042C53.8719 9.86467 54.1985 9.734 54.5532 9.65C54.9079 9.55667 55.2672 9.51 55.6312 9.51C56.7045 9.51 57.4839 9.818 57.9692 10.434C58.4639 11.05 58.7112 11.9133 58.7112 13.024V17H57.1992L57.1572 16.048C56.9425 16.3653 56.6859 16.5987 56.3872 16.748C56.0885 16.8973 55.7992 16.9907 55.5192 17.028C55.2392 17.0747 55.0012 17.098 54.8052 17.098ZM55.1412 15.712C55.5145 15.712 55.8459 15.642 56.1352 15.502C56.4245 15.362 56.6532 15.166 56.8212 14.914C56.9985 14.662 57.0872 14.3727 57.0872 14.046V13.808H55.7432C55.5192 13.808 55.2952 13.8173 55.0712 13.836C54.8565 13.8453 54.6605 13.8827 54.4832 13.948C54.3059 14.004 54.1612 14.0927 54.0492 14.214C53.9465 14.3353 53.8952 14.508 53.8952 14.732C53.8952 14.956 53.9512 15.138 54.0632 15.278C54.1845 15.418 54.3385 15.5253 54.5252 15.6C54.7212 15.6747 54.9265 15.712 55.1412 15.712ZM60.3419 19.716V9.622H61.9379L62.0219 10.616C62.3112 10.2333 62.6565 9.95333 63.0579 9.776C63.4592 9.59867 63.9025 9.51 64.3879 9.51C65.1159 9.51 65.7179 9.678 66.1939 10.014C66.6699 10.35 67.0245 10.8027 67.2579 11.372C67.4912 11.9413 67.6079 12.5853 67.6079 13.304C67.6079 14.0227 67.4865 14.6713 67.2439 15.25C67.0012 15.8193 66.6325 16.272 66.1379 16.608C65.6525 16.9347 65.0412 17.098 64.3039 17.098C63.9585 17.098 63.6412 17.0607 63.3519 16.986C63.0719 16.9113 62.8199 16.804 62.5959 16.664C62.3812 16.524 62.1992 16.3653 62.0499 16.188V19.716H60.3419ZM64.0379 15.558C64.5139 15.558 64.8872 15.4553 65.1579 15.25C65.4285 15.0353 65.6245 14.76 65.7459 14.424C65.8672 14.0787 65.9279 13.7147 65.9279 13.332C65.9279 12.9307 65.8625 12.5573 65.7319 12.212C65.6105 11.8667 65.4099 11.5867 65.1299 11.372C64.8499 11.1573 64.4765 11.05 64.0099 11.05C63.5805 11.05 63.2165 11.1573 62.9179 11.372C62.6285 11.5773 62.4092 11.8527 62.2599 12.198C62.1105 12.5433 62.0359 12.9167 62.0359 13.318C62.0359 13.7287 62.1059 14.1067 62.2459 14.452C62.3859 14.788 62.6052 15.0587 62.9039 15.264C63.2025 15.46 63.5805 15.558 64.0379 15.558ZM68.9825 17V7.102H70.6905V10.574C70.8865 10.322 71.1152 10.1167 71.3765 9.958C71.6378 9.79933 71.9132 9.68733 72.2025 9.622C72.4918 9.54733 72.7672 9.51 73.0285 9.51C73.7285 9.51 74.2792 9.664 74.6805 9.972C75.0818 10.28 75.3618 10.6907 75.5205 11.204C75.6885 11.7173 75.7725 12.296 75.7725 12.94V17H74.0645V13.234C74.0645 12.982 74.0458 12.7253 74.0085 12.464C73.9712 12.2027 73.8965 11.9693 73.7845 11.764C73.6818 11.5493 73.5232 11.3767 73.3085 11.246C73.1032 11.1153 72.8278 11.05 72.4825 11.05C72.1558 11.05 71.8758 11.12 71.6425 11.26C71.4092 11.3907 71.2225 11.5727 71.0825 11.806C70.9518 12.0393 70.8538 12.296 70.7885 12.576C70.7232 12.856 70.6905 13.136 70.6905 13.416V17H68.9825ZM77.377 17V9.622H79.085V17H77.377ZM78.231 8.768C77.9044 8.768 77.643 8.67 77.447 8.474C77.251 8.278 77.153 8.02133 77.153 7.704C77.153 7.396 77.2557 7.144 77.461 6.948C77.6664 6.74267 77.923 6.64 78.231 6.64C78.5297 6.64 78.7864 6.738 79.001 6.934C79.2157 7.13 79.323 7.38667 79.323 7.704C79.323 8.02133 79.2204 8.278 79.015 8.474C78.8097 8.67 78.5484 8.768 78.231 8.768ZM80.7403 17V9.622H82.2943L82.3923 10.588C82.579 10.308 82.789 10.0933 83.0223 9.944C83.265 9.78533 83.5216 9.67333 83.7923 9.608C84.0723 9.54267 84.3523 9.51 84.6323 9.51C84.735 9.51 84.8283 9.51 84.9123 9.51C85.0056 9.51 85.0803 9.51467 85.1363 9.524V11.148H84.6883C84.203 11.148 83.7923 11.2413 83.4563 11.428C83.1203 11.6147 82.8683 11.8807 82.7003 12.226C82.5323 12.5713 82.4483 12.996 82.4483 13.5V17H80.7403Z" fill="#7B0E9A"/>
</svg>
