<svg width="37" height="36" viewBox="0 0 37 36" fill="none" xmlns="http://www.w3.org/2000/svg">
<path d="M21.3065 10.9715C21.3065 10.1647 20.6611 10.1042 20.6611 10.1042H19.0275V10.5278L19.9552 10.5479C19.9552 10.5479 20.2174 10.2656 20.4998 10.6084C20.7821 10.9311 20.8224 11.0925 20.8224 11.0925C20.8224 11.0925 20.8628 11.6975 20.3182 11.1731C19.7334 10.6689 19.0476 10.8908 19.0476 10.8908V11.9597H20.6813C20.6611 11.9799 21.3065 11.8387 21.3065 10.9715Z" fill="#7D7D91"/>
<path d="M14.5704 20.3697C14.4494 20.2285 14.2477 20.0874 14.0057 20.0067C13.6023 19.9058 13.2191 20.0067 12.8561 20.3294C12.4931 20.6521 12.1905 21.1563 11.9889 21.842C11.888 22.1243 11.7872 22.447 11.7468 22.6689C11.7065 22.9512 11.7065 23.2134 11.7267 23.4151C11.7468 23.6369 11.8275 23.8386 11.9687 24C12.0695 24.1411 12.251 24.2621 12.4729 24.3226C12.7149 24.4033 12.9166 24.4033 13.1384 24.3226C13.2998 24.2823 13.4813 24.1815 13.6225 24C13.7838 23.7983 13.9452 23.6168 14.1065 23.3546C14.2275 23.1126 14.3687 22.8504 14.4897 22.5277C14.5704 22.2655 14.6309 21.9832 14.7317 21.7411C14.772 21.4588 14.772 21.1966 14.7519 20.9748C14.7317 20.7327 14.6712 20.5311 14.5704 20.3697Z" fill="#7D7D91"/>
<path d="M17.3738 11.4756C17.0915 11.7983 17.0915 11.9798 17.0915 11.9798H17.9184V11.1126C17.9184 11.0924 17.5755 11.1529 17.3738 11.4756Z" fill="#7D7D91"/>
<path d="M16.8696 11.0924C17.3738 10.7294 17.9385 10.5882 17.9385 10.5882C17.9385 10.5882 18.0595 10.1244 17.6965 10.1647C17.3335 10.1849 17.0108 10.205 17.0108 10.205C17.0108 10.205 16.8091 10.205 16.6881 10.4874C16.5268 10.7697 15.8209 12.0202 15.8209 12.0202L16.1839 12.0403C16.1839 12.0403 16.3856 11.4756 16.8696 11.0924Z" fill="#7D7D91"/>
<path d="M19.0679 12.7463L19.1082 14.7429C19.1082 14.7429 19.8544 14.8841 20.4191 14.4202C20.9838 13.9564 20.8427 14.0169 20.8427 14.0169C20.8427 14.0169 20.9233 13.9362 21.1049 14.0572C21.3065 14.1984 21.0242 14.5614 21.0242 14.5614C21.0242 14.5614 20.8225 14.8639 20.3183 15.1664C19.7738 15.4286 19.2091 15.469 19.2091 15.469L19.1889 15.7513C19.1889 15.7513 19.5519 15.953 20.1166 15.953C20.6612 15.9328 20.8023 15.8723 20.8023 15.8723C20.8023 15.8723 21.8712 15.5496 21.8712 14.2992C21.8712 13.0488 20.6208 12.7866 20.6208 12.7866H19.0679V12.7463Z" fill="#7D7D91"/>
<path d="M18.9065 0C9.00402 0 0.916626 8.08739 0.916626 18.0101C0.916626 27.9126 9.00402 36 18.9065 36C28.8292 36 36.9166 27.9126 36.9166 18.0101C36.9166 8.08739 28.8292 0 18.9065 0ZM19.1284 28.921C8.13679 29.163 3.51831 23.2134 3.51831 23.2134C3.51831 23.2134 1.34016 19.7042 3.59898 17.0622C5.8578 14.4605 13.5822 5.90924 13.5822 5.90924C13.5822 5.90924 15.6797 3.42857 18.6847 3.3479C21.7502 3.26723 23.5452 5.14286 23.5452 5.14286L34.1133 16.7193C34.1133 16.7193 35.9284 18.8773 35.1217 21.2168C34.3351 23.5361 30.12 28.7193 19.1284 28.921Z" fill="#7D7D91"/>
<path d="M23.1417 6.09077C23.1417 6.09077 21.5888 4.27564 18.7653 4.35632C15.9619 4.39665 14.1266 6.87733 14.1266 6.87733C14.1266 6.87733 6.84593 15.1059 4.76862 17.5059C2.69131 19.9059 4.76862 22.6689 4.76862 22.6689C4.76862 22.6689 9.02408 27.9933 19.1485 27.8118C29.2527 27.5698 33.2863 23.0118 33.9922 20.874C34.7384 18.7765 32.7417 16.9009 32.8022 16.921L23.1417 6.09077ZM11.5249 16.0941C11.5249 16.0941 12.3921 16.074 12.6745 15.6101C12.9569 15.1866 13.3804 14.521 13.3804 14.521C13.3804 14.521 13.1182 13.0689 13.1787 12.4437C13.219 11.8387 13.6829 8.59161 16.2039 7.5227C18.7249 6.47396 21.2258 7.32102 21.2258 7.32102C21.2258 7.32102 21.6695 7.58321 22.0123 7.32102C22.335 7.05884 22.456 6.81682 22.7182 7.30085C22.9401 7.78489 23.4443 8.59161 23.4443 8.59161C23.4443 8.59161 23.6863 9.29749 22.6577 8.71262C21.609 8.10758 19.935 7.76472 19.935 7.76472L19.1283 7.72438C19.1283 7.72438 17.3333 7.44203 15.9619 8.87396C14.6308 10.2656 14.7518 12.1412 14.7518 12.1412L15.9417 10.4269C15.9417 10.4269 16.0829 10.3261 16.0224 10.1042C15.9417 9.90254 15.9417 9.84203 15.9417 9.84203V9.51934L21.1249 9.47901C21.1249 9.47901 22.5165 9.4185 22.5165 10.8504C22.5165 12.2824 21.5485 12.363 21.5485 12.363C21.5485 12.363 23.0409 12.6857 23.0409 14.3395C23.0409 16.0336 21.2661 16.4773 21.2661 16.4773L17.3737 16.437C17.3737 16.437 17.051 16.1748 17.3938 16.0336C17.7569 15.9126 17.9384 15.8319 17.9384 15.6504C17.9384 15.4488 17.9384 15.4488 17.9384 15.4488C17.9384 15.4488 17.1115 15.3681 16.5064 14.6219C15.9216 13.916 16.0627 12.7462 16.0627 12.7462L15.2963 12.7261L14.8123 13.4723C14.8123 13.4723 15.0543 15.3076 15.9417 16.1345C16.809 16.9614 17.4342 17.7076 19.5518 17.6067C21.6695 17.5261 23.2224 16.437 23.2224 16.437L23.6258 16.074C23.6258 16.074 23.7669 15.7513 24.0896 15.953C24.3921 16.0941 23.7669 16.7395 23.7669 16.7395C23.7669 16.7395 22.4762 18.474 19.1888 18.6555C16.0224 18.837 13.7837 15.6706 13.7636 15.3076C13.6627 15.4689 13.3602 15.9328 13.6224 16.074C13.9854 16.2756 13.7837 16.558 13.7837 16.558L11.4241 16.5782C11.4241 16.5782 11.2829 16.6588 11.2829 16.3361C11.2627 16.074 11.5249 16.0941 11.5249 16.0941ZM6.96694 21.2773C6.98711 21.358 7.04761 21.4185 7.16862 21.5395C7.26946 21.6202 7.41064 21.7009 7.59215 21.8622C7.75349 21.9832 7.95517 22.1244 8.15685 22.2252C8.3182 22.3059 8.47954 22.3664 8.60055 22.3462C8.80223 22.3462 8.98374 22.2656 9.2661 22.1849C9.52828 22.084 9.70979 21.9832 9.91148 21.8622L10.1737 22.0235L9.14509 23.3748L4.62744 20.1277L4.78879 19.9059C4.86946 19.9462 4.99047 19.9866 5.07114 20.0672C5.21232 20.1076 5.29299 20.1681 5.33332 20.1681C5.414 20.1882 5.49467 20.1882 5.59551 20.1681C5.65601 20.1479 5.71652 20.0874 5.79719 20.0269L7.814 16.921C7.8745 16.8403 7.89467 16.8 7.91484 16.7193C7.91484 16.6387 7.89467 16.5782 7.814 16.4572C7.77366 16.3765 7.69299 16.2555 7.61232 16.195C7.53164 16.1143 7.45097 16.0538 7.3703 15.9933L7.51148 15.7311L10.214 17.6874L10.0325 17.9496C9.95181 17.9294 9.89131 17.8689 9.75013 17.8084C9.64929 17.7681 9.54845 17.7277 9.46778 17.6874C9.36694 17.6471 9.2661 17.6471 9.20559 17.6672C9.12492 17.7076 9.08458 17.7479 9.04425 17.8286L7.14845 20.6924C7.06778 20.8135 7.00727 20.9546 6.98711 21.0151C6.94677 21.116 6.94677 21.1967 6.96694 21.2773ZM15.8611 22.8706C15.74 23.2336 15.5585 23.5361 15.3165 23.8185C15.0745 24.0807 14.8325 24.3025 14.53 24.4639C14.2073 24.6656 13.8644 24.7462 13.4812 24.8067C13.1182 24.8269 12.7148 24.8067 12.2913 24.6656C11.9283 24.5849 11.5854 24.4034 11.3434 24.2219C11.0611 24.0202 10.8392 23.7983 10.6779 23.516C10.5165 23.2336 10.3955 22.9109 10.3753 22.5882C10.3552 22.2656 10.3955 21.9025 10.5165 21.5193C10.6577 21.1361 10.8392 20.8135 11.1014 20.5513C11.3636 20.2689 11.6459 20.0471 11.9283 19.8857C12.2711 19.7446 12.5938 19.6437 12.977 19.6034C13.34 19.5832 13.6829 19.6235 14.0661 19.7244C14.4291 19.8252 14.7518 19.9866 15.0543 20.1882C15.3569 20.3899 15.5384 20.6118 15.7199 20.8538C15.8611 21.1361 15.9821 21.4588 16.0022 21.8017C16.0627 22.1244 16.0022 22.4874 15.8611 22.8706ZM20.6611 21.5798C20.6207 21.3378 20.4997 21.116 20.3384 20.8941C20.1972 20.6319 20.056 20.5109 19.935 20.5109C19.8543 20.4908 19.7938 20.4908 19.6728 20.4908C19.5921 20.4908 19.4711 20.4908 19.3905 20.4908H19.2493L19.33 24.4437C19.33 24.5244 19.33 24.5849 19.3501 24.6454C19.3905 24.7261 19.4308 24.7664 19.5115 24.7866C19.572 24.8067 19.6527 24.8269 19.7535 24.8672C19.8543 24.8672 19.9552 24.8874 20.0358 24.8874V25.1698L17.4543 25.2101V24.9277C17.5148 24.9277 17.5955 24.9076 17.7165 24.9076C17.8375 24.8874 17.9182 24.8874 17.9585 24.8672C18.0392 24.8067 18.0997 24.7664 18.1199 24.7261C18.14 24.6454 18.14 24.5849 18.14 24.484L18.0795 20.5109H17.9384C17.8577 20.5109 17.7367 20.5109 17.656 20.5109C17.5552 20.5311 17.4543 20.5311 17.3938 20.5311C17.2728 20.5513 17.1316 20.6925 16.9905 20.9345C16.8695 21.1967 16.7485 21.4185 16.6678 21.6403H16.4056L16.3854 20.1882L20.8829 20.1076L20.9232 21.5798H20.6611ZM26.3686 20.0874L26.8527 21.842C26.9737 22.3866 26.893 22.8504 26.6106 23.2336C26.2879 23.6572 25.8644 23.9798 25.2594 24.1614C24.5535 24.363 23.9283 24.363 23.4644 24.1614C22.9804 24 22.6779 23.5967 22.5367 23.0723L21.8913 20.6521C21.8711 20.5513 21.8106 20.5109 21.8106 20.4504C21.7501 20.3899 21.6695 20.3698 21.5686 20.3496C21.4879 20.3496 21.4274 20.3496 21.3064 20.3496C21.2459 20.3496 21.1653 20.3698 21.0846 20.3698L21.0241 20.1076L23.6459 19.3815L23.7064 19.6437C23.6459 19.6639 23.5653 19.7042 23.4846 19.7244C23.4241 19.7647 23.3434 19.8051 23.2627 19.8454C23.1821 19.9059 23.1417 19.9866 23.1216 20.0471C23.1216 20.1277 23.1216 20.1882 23.1417 20.2891L23.7468 22.6891C23.8678 23.1328 24.0695 23.4756 24.3518 23.6168C24.6342 23.758 24.977 23.7782 25.4006 23.6572C25.8039 23.5765 26.0863 23.3345 26.2476 23.0521C26.4493 22.7294 26.4493 22.3462 26.3283 21.9025L25.9048 20.2891C25.8241 20.0067 25.7636 19.8051 25.6829 19.6639C25.6022 19.5429 25.5417 19.4219 25.4207 19.4017C25.34 19.3614 25.219 19.3614 25.0577 19.3614C24.8964 19.3614 24.7753 19.3614 24.6947 19.3815L24.6543 19.1193L26.8123 18.474L26.8728 18.716C26.7921 18.7361 26.7115 18.7967 26.5905 18.8572C26.4695 18.8975 26.3686 18.9782 26.2879 19.0588C26.2073 19.1395 26.1871 19.2605 26.1871 19.4219C26.1871 19.5832 26.2879 19.8051 26.3686 20.0874ZM32.2779 20.3093C32.1569 20.5513 31.9753 20.753 31.7938 20.9748C31.6325 21.1967 31.3501 21.3782 31.0073 21.6C30.6846 21.7614 30.4022 21.9227 30.0795 21.9832C29.7569 22.0639 29.5148 22.1244 29.293 22.1446L29.172 22.4672L28.8493 22.6689L28.0022 21.1563L28.3048 20.995C28.4459 21.116 28.6476 21.2168 28.809 21.2975C29.0106 21.3983 29.1922 21.4992 29.414 21.5395C29.6358 21.5798 29.8375 21.6202 30.0594 21.5798C30.3014 21.5597 30.5232 21.4992 30.7653 21.3378C31.0879 21.1361 31.3098 20.9345 31.4106 20.6924C31.4913 20.4706 31.4913 20.2689 31.4106 20.0471C31.33 19.9059 31.1686 19.7849 30.9871 19.7647C30.7854 19.7446 30.5031 19.7647 30.1602 19.8454C29.9182 19.9261 29.7367 19.9866 29.535 20.0471C29.3333 20.0874 29.172 20.1277 28.9703 20.1681C28.6073 20.2488 28.2644 20.2488 27.9619 20.1277C27.6795 20.0269 27.4779 19.8051 27.3165 19.563C27.2358 19.3614 27.1955 19.2 27.1955 18.9983C27.2157 18.7967 27.2762 18.6151 27.3972 18.3731C27.4577 18.1714 27.619 17.9698 27.8207 17.7681C28.0426 17.5261 28.2846 17.3647 28.5669 17.2034C28.8493 17.0017 29.1316 16.921 29.3938 16.8404C29.6762 16.7597 29.898 16.7193 30.0795 16.7193L30.1804 16.3967L30.5031 16.195L31.2896 17.6067L30.9669 17.7681C30.8258 17.6874 30.6442 17.5664 30.4829 17.4454C30.2812 17.3446 30.1199 17.2437 29.9787 17.2034C29.777 17.163 29.6157 17.163 29.414 17.1832C29.2123 17.1832 29.0308 17.2639 28.809 17.4051C28.5468 17.5261 28.3854 17.7076 28.2644 17.9496C28.1837 18.1513 28.1837 18.353 28.2644 18.5546C28.3451 18.6958 28.4863 18.8168 28.6879 18.837C28.8896 18.8572 29.1316 18.837 29.4947 18.7563C29.6964 18.716 29.898 18.6555 30.0997 18.5546C30.3014 18.5143 30.4829 18.474 30.6644 18.4336C31.0879 18.353 31.4106 18.353 31.693 18.4336C31.9753 18.5345 32.1972 18.7563 32.3585 19.0387C32.4392 19.2 32.4795 19.4017 32.4795 19.6437C32.4392 19.8656 32.3787 20.1076 32.2779 20.3093Z" fill="#7D7D91"/>
</svg>
