<svg width="96" height="26" viewBox="0 0 96 26" fill="none" xmlns="http://www.w3.org/2000/svg">
<path d="M81.3462 24.3474C82.6693 24.4768 83.9917 24.6158 85.311 24.7595L88.2237 17.504L90.9924 25.4288C92.4129 25.6083 93.8329 25.7968 95.2484 25.9936L90.3945 12.0969L95.25 0.000958372H91.1377L91.095 0.0603775L88.472 6.59488L86.1692 0.00191674H82.1088L86.3006 12.0023L81.3462 24.3474ZM78.2755 24.0631V0.000958372H74.2167V23.7255C75.5705 23.8309 76.9249 23.9443 78.2755 24.0631ZM47.7864 22.7176C48.8821 22.7176 49.9765 22.7259 51.069 22.7348V13.8948H55.9448V10.1303H51.0693V3.76992H56.6849V0.000958372H46.9947V22.7208C47.2579 22.7208 47.5223 22.7166 47.7864 22.7176ZM35.1848 22.9476C36.537 22.899 37.8904 22.8581 39.2458 22.8249V3.77056H43.0395V0.00191674H31.3911V3.77056H35.1854L35.1848 22.9476ZM4.14347 25.4847V11.1491L8.94927 24.9059C10.4272 24.7385 11.9073 24.581 13.3915 24.4321V0.00127783H9.49711V14.8506L4.3113 0.00127783H0.25V26H0.274384C1.56102 25.8205 2.85208 25.6499 4.14347 25.4847ZM27.4774 3.7696V0.00127783H17.7863V24.0248C21.0106 23.744 24.2386 23.5085 27.4694 23.3185V19.5466C25.596 19.6565 23.7264 19.783 21.8612 19.9239V13.8964H26.737V10.1297H21.8612V3.7696H27.4774ZM64.7286 19.3665V0H60.6521V22.9613C63.8948 23.0814 67.1249 23.2488 70.3442 23.4597V19.6856C68.4758 19.5639 66.6043 19.4585 64.7286 19.3665Z" fill="#7D7D91"/>
</svg>
