<svg width="101" height="16" viewBox="0 0 101 16" fill="none" xmlns="http://www.w3.org/2000/svg">
<path d="M82.8162 0.840861L83.013 12.0561H82.9162L79.66 0.840861H74.3227V14.9685H77.8538L77.657 3.36265H77.7538L81.2381 14.9685H86.3473V0.840861H82.8162ZM15.5339 0.840861L12.8652 15.1154H16.7214L18.6901 2.12832H18.7713L20.6931 15.1154H24.518L21.8806 0.840861H15.5339ZM37.1145 0.840861L35.3552 11.728H35.2583L33.4833 0.840861H27.6554L27.3773 15.1154H30.9584L31.0553 2.27519H31.0865L33.4802 15.1154H37.1082L39.5019 2.27519H39.5988L39.6956 15.1154H43.2768L42.9362 0.840861H37.1145ZM6.84042 11.0624C6.98729 11.3874 6.93729 11.8749 6.89042 12.103C6.79355 12.5905 6.44981 13.0623 5.50609 13.0623C4.59361 13.0623 4.07488 12.5405 4.07488 11.778V10.3937H0.25V11.4843C0.25 14.6904 2.7718 15.6341 5.45921 15.6341C8.03101 15.6341 10.1778 14.7404 10.5216 12.3967C10.7184 11.1593 10.5716 10.3468 10.5216 10.0531C9.85283 7.04065 4.403 6.19693 4.02801 4.51886C3.97801 4.22512 3.97801 3.95013 4.02801 3.75326C4.12488 3.2814 4.44987 2.79392 5.31234 2.79392C6.17482 2.79392 6.64668 3.31578 6.64668 4.07825V4.94072H10.2278V3.94701C10.2278 0.837734 7.41228 0.365875 5.40921 0.365875C2.86867 0.365875 0.771859 1.21272 0.39687 3.5064C0.299998 4.12512 0.25 4.70948 0.446869 5.42821C1.0156 8.37498 6.12794 9.23746 6.84354 11.0593L6.84042 11.0624ZM53.3077 11.0624C53.4546 11.3874 53.4046 11.828 53.3577 12.103C53.2608 12.5905 52.9171 13.0623 51.9734 13.0623C51.0609 13.0623 50.5422 12.5405 50.5422 11.778V10.3937H46.7173V11.4843C46.7173 14.6404 49.1922 15.6029 51.8765 15.6029C54.4483 15.6029 56.5482 14.7404 56.8889 12.3467C57.0857 11.1093 56.9389 10.3437 56.8889 10.0031C56.3201 7.04065 50.9172 6.14693 50.5422 4.51886C50.4922 4.22512 50.4922 3.95013 50.5422 3.75326C50.6234 3.2814 50.964 2.79392 51.8265 2.79392C52.639 2.79392 53.1608 3.31578 53.1608 4.07825V4.94072H56.692V3.94701C56.692 0.837734 53.9264 0.365875 51.9234 0.365875C49.3828 0.365875 47.3329 1.16272 46.9579 3.5064C46.861 4.12512 46.861 4.70948 46.9892 5.42821C47.5766 8.37498 52.589 9.18746 53.3046 11.0593L53.3077 11.0624ZM65.3355 12.9686C66.3448 12.9686 66.6198 12.2999 66.7198 11.928C66.7698 11.7811 66.7698 11.5374 66.7698 11.3905V0.843984H70.3978V11.1124C70.3978 11.3905 70.3978 11.9249 70.3478 12.0561C70.1197 14.7404 68.0041 15.6029 65.3823 15.6029C62.7606 15.6029 60.6637 14.7404 60.4169 12.0561C60.4169 11.9249 60.3669 11.3874 60.3669 11.1124V0.843984H63.9949V11.3905C63.9949 11.5874 63.9949 11.7811 64.0449 11.928C64.0449 12.303 64.3386 12.9686 65.3292 12.9686H65.3355ZM95.1377 12.8217C96.197 12.8217 96.522 12.153 96.6189 11.7811C96.6689 11.6342 96.6689 11.3905 96.6689 11.2593V9.19371H95.1877V7.09377H100.25V10.9186C100.25 11.2124 100.25 11.3905 100.2 11.878C99.9563 14.4998 97.7095 15.4091 95.1877 15.4091C92.6471 15.4091 90.4191 14.4967 90.1753 11.878C90.1253 11.3905 90.1253 11.2093 90.1253 10.9186V4.89697C90.1253 4.66886 90.1753 4.18138 90.1753 3.95326C90.5003 1.26897 92.6502 0.4065 95.1877 0.4065C97.7095 0.4065 99.9063 1.26897 100.2 3.95326C100.25 4.37512 100.25 4.89697 100.25 4.89697V5.38446H96.6689V4.57199C96.6689 4.57199 96.6689 4.23137 96.6189 4.0345C96.5689 3.70951 96.2783 2.99391 95.1877 2.99391C94.1283 2.99391 93.8533 3.66264 93.7565 4.0345C93.7065 4.23137 93.7065 4.47511 93.7065 4.71886V11.2624C93.7065 11.4405 93.7065 11.6374 93.7565 11.7842C93.7565 12.1592 94.1314 12.8248 95.1408 12.8248L95.1377 12.8217Z" fill="#7D7D91"/>
</svg>
