<svg width="24" height="24" viewBox="0 0 24 24" fill="none" xmlns="http://www.w3.org/2000/svg">
<path d="M22.0625 2.3374H19.5469V1.97803C19.5469 1.38254 19.0642 0.899902 18.4688 0.899902C17.8733 0.899902 17.3906 1.38254 17.3906 1.97803V2.3374H6.60938V1.97803C6.60938 1.38254 6.12673 0.899902 5.53125 0.899902C4.93577 0.899902 4.45312 1.38254 4.45312 1.97803V2.3374H1.9375C1.14292 2.3374 0.5 2.98032 0.5 3.7749V22.4624C0.5 23.257 1.14292 23.8999 1.9375 23.8999H22.0625C22.8571 23.8999 23.5 23.257 23.5 22.4624V3.7749C23.5 2.98032 22.8571 2.3374 22.0625 2.3374ZM6.96875 19.9468C6.96875 20.1455 6.80811 20.3062 6.60938 20.3062H4.45312C4.25439 20.3062 4.09375 20.1455 4.09375 19.9468V18.1499C4.09375 17.9512 4.25439 17.7905 4.45312 17.7905H6.60938C6.80811 17.7905 6.96875 17.9512 6.96875 18.1499V19.9468ZM6.96875 15.9937C6.96875 16.1924 6.80811 16.353 6.60938 16.353H4.45312C4.25439 16.353 4.09375 16.1924 4.09375 15.9937V14.1968C4.09375 13.998 4.25439 13.8374 4.45312 13.8374H6.60938C6.80811 13.8374 6.96875 13.998 6.96875 14.1968V15.9937ZM6.96875 12.0405C6.96875 12.2393 6.80811 12.3999 6.60938 12.3999H4.45312C4.25439 12.3999 4.09375 12.2393 4.09375 12.0405V10.2437C4.09375 10.0449 4.25439 9.88428 4.45312 9.88428H6.60938C6.80811 9.88428 6.96875 10.0449 6.96875 10.2437V12.0405ZM11.2812 19.9468C11.2812 20.1455 11.1206 20.3062 10.9219 20.3062H8.76562C8.56689 20.3062 8.40625 20.1455 8.40625 19.9468V18.1499C8.40625 17.9512 8.56689 17.7905 8.76562 17.7905H10.9219C11.1206 17.7905 11.2812 17.9512 11.2812 18.1499V19.9468ZM11.2812 15.9937C11.2812 16.1924 11.1206 16.353 10.9219 16.353H8.76562C8.56689 16.353 8.40625 16.1924 8.40625 15.9937V14.1968C8.40625 13.998 8.56689 13.8374 8.76562 13.8374H10.9219C11.1206 13.8374 11.2812 13.998 11.2812 14.1968V15.9937ZM11.2812 12.0405C11.2812 12.2393 11.1206 12.3999 10.9219 12.3999H8.76562C8.56689 12.3999 8.40625 12.2393 8.40625 12.0405V10.2437C8.40625 10.0449 8.56689 9.88428 8.76562 9.88428H10.9219C11.1206 9.88428 11.2812 10.0449 11.2812 10.2437V12.0405ZM15.5938 19.9468C15.5938 20.1455 15.4331 20.3062 15.2344 20.3062H13.0781C12.8794 20.3062 12.7188 20.1455 12.7188 19.9468V18.1499C12.7188 17.9512 12.8794 17.7905 13.0781 17.7905H15.2344C15.4331 17.7905 15.5938 17.9512 15.5938 18.1499V19.9468ZM15.5938 15.9937C15.5938 16.1924 15.4331 16.353 15.2344 16.353H13.0781C12.8794 16.353 12.7188 16.1924 12.7188 15.9937V14.1968C12.7188 13.998 12.8794 13.8374 13.0781 13.8374H15.2344C15.4331 13.8374 15.5938 13.998 15.5938 14.1968V15.9937ZM15.5938 12.0405C15.5938 12.2393 15.4331 12.3999 15.2344 12.3999H13.0781C12.8794 12.3999 12.7188 12.2393 12.7188 12.0405V10.2437C12.7188 10.0449 12.8794 9.88428 13.0781 9.88428H15.2344C15.4331 9.88428 15.5938 10.0449 15.5938 10.2437V12.0405ZM19.9062 15.9937C19.9062 16.1924 19.7456 16.353 19.5469 16.353H17.3906C17.1919 16.353 17.0312 16.1924 17.0312 15.9937V14.1968C17.0312 13.998 17.1919 13.8374 17.3906 13.8374H19.5469C19.7456 13.8374 19.9062 13.998 19.9062 14.1968V15.9937ZM19.9062 12.0405C19.9062 12.2393 19.7456 12.3999 19.5469 12.3999H17.3906C17.1919 12.3999 17.0312 12.2393 17.0312 12.0405V10.2437C17.0312 10.0449 17.1919 9.88428 17.3906 9.88428H19.5469C19.7456 9.88428 19.9062 10.0449 19.9062 10.2437V12.0405ZM22.7812 6.29053H1.21875V3.7749C1.21875 3.37815 1.54075 3.05615 1.9375 3.05615H4.45312V4.49365C4.45312 5.08914 4.93577 5.57178 5.53125 5.57178C6.12673 5.57178 6.60938 5.08914 6.60938 4.49365V3.05615H17.3906V4.49365C17.3906 5.08914 17.8733 5.57178 18.4688 5.57178C19.0642 5.57178 19.5469 5.08914 19.5469 4.49365V3.05615H22.0625C22.4592 3.05615 22.7812 3.37815 22.7812 3.7749V6.29053Z" fill="#4C5063"/>
</svg>
