<svg width="24" height="22" viewBox="0 0 24 22" fill="none" xmlns="http://www.w3.org/2000/svg">
<path fill-rule="evenodd" clip-rule="evenodd" d="M8.57705 7.27735C9.02316 3.57228 12.1889 0.688477 16.0116 0.688477C20.1409 0.688477 23.5 4.04973 23.5 8.17685C23.5 9.50603 23.1388 10.7697 22.424 11.9325C21.7955 12.9613 20.8825 13.8986 19.786 14.6437C18.6425 15.4209 17.7504 16.9564 17.0986 18.0784L17.0949 18.0848C16.8466 18.5125 16.632 18.8821 16.4422 19.1363C15.4662 20.4467 14.1761 21.1113 12.6078 21.1113C12.0676 21.1109 11.533 21.0017 11.0359 20.7902C10.5388 20.5786 10.0894 20.2691 9.71459 19.88C8.95036 19.1027 8.52245 18.056 8.52326 16.9659V14.5207C8.88054 14.5392 9.24484 14.4199 9.5302 14.1583C10.0948 13.6408 10.1355 12.7631 9.62279 12.1952C9.31387 11.853 9.12635 11.4006 9.12635 10.8999C9.12635 10.3993 9.31385 9.94688 9.62276 9.60467C10.1355 9.03677 10.0948 8.15902 9.53026 7.64154C9.25917 7.39307 8.91688 7.27294 8.57705 7.27735ZM19.6148 8.31784C19.7425 8.44551 19.9156 8.51723 20.0962 8.51723C20.2767 8.51723 20.4499 8.44551 20.5776 8.31784C20.7052 8.19017 20.777 8.01702 20.777 7.83647C20.777 5.39636 18.6394 3.41152 16.0116 3.41152C13.3839 3.41152 11.2463 5.39636 11.2463 7.83647V12.9422C11.2463 13.1227 11.318 13.2959 11.4457 13.4235C11.5734 13.5512 11.7465 13.6229 11.9271 13.6229C12.1076 13.6229 12.2808 13.5512 12.4084 13.4235C12.5361 13.2959 12.6078 13.1227 12.6078 12.9422V10.5727C13.3333 10.2532 14.5795 10.1813 15.2858 10.2191H15.3232C15.4462 10.219 15.5669 10.2522 15.6725 10.3152C15.7782 10.3782 15.8647 10.4687 15.9231 10.5769C15.9814 10.6852 16.0094 10.8073 16.0039 10.9301C15.9984 11.053 15.9598 11.1721 15.8921 11.2747C15.5632 11.6555 14.2263 13.2409 13.9919 14.1318C13.9502 14.3049 13.9781 14.4875 14.0694 14.6403C14.1608 14.7932 14.3084 14.9041 14.4806 14.9494C14.6528 14.9947 14.8359 14.9708 14.9906 14.8827C15.1453 14.7946 15.2594 14.6493 15.3083 14.4781C15.413 14.0731 16.2405 12.9464 16.9447 12.138C16.9592 12.1214 16.9724 12.1044 16.9851 12.087C17.2023 11.783 17.3319 11.4252 17.3599 11.0527C17.3878 10.6801 17.3131 10.307 17.1437 9.97401C16.9744 9.641 16.7169 9.36082 16.3994 9.16398C16.0818 8.96714 15.7164 8.86117 15.3428 8.85761C15.0926 8.84485 13.7647 8.79719 12.6078 9.13076V7.83647C12.6078 6.14733 14.1349 4.77304 16.0116 4.77304C17.8884 4.77304 19.4154 6.14733 19.4154 7.83647C19.4154 8.01702 19.4872 8.19017 19.6148 8.31784Z" fill="#FCFCFD"/>
<path d="M8.52326 13.7893C8.70412 13.8091 8.89223 13.7536 9.03741 13.6206C9.07101 13.5898 9.10072 13.5563 9.12651 13.5207C9.30703 13.2717 9.29535 12.921 9.08137 12.6839" fill="#FCFCFD"/>
<path d="M8.52326 13.7893C8.36914 13.7724 8.22028 13.7009 8.10774 13.5763C7.47026 12.8701 7.08081 11.9301 7.0808 10.8999C7.0808 9.86973 7.47026 8.92969 8.10774 8.22351C8.35235 7.95264 8.76852 7.93275 9.03741 8.17922C9.11726 8.2524 9.17512 8.34085 9.21061 8.43613C9.26474 8.58145 9.26683 8.74268 9.21547 8.88992C9.18713 8.97118 9.14251 9.04818 9.08137 9.11589C8.83175 9.39241 8.63955 9.72169 8.52326 10.0854C8.44123 10.3419 8.39697 10.6156 8.39697 10.8999C8.39697 11.1842 8.44122 11.4579 8.52326 11.7144C8.53779 11.7599 8.55352 11.8048 8.57039 11.8492C8.6389 12.0293 8.72637 12.1999 8.83039 12.3587C8.88007 12.4345 8.93353 12.5076 8.99049 12.5778" fill="#FCFCFD"/>
<path d="M4.11048 18.0248C3.83966 18.269 3.42363 18.2458 3.18124 17.9729C1.51435 16.0964 0.5 13.6167 0.5 10.8999C0.5 8.18313 1.51435 5.70341 3.18124 3.8269C3.42363 3.55404 3.83966 3.53077 4.11048 3.77505C4.3813 4.01926 4.40435 4.43846 4.16195 4.71131C2.7027 6.35409 1.81616 8.52189 1.81616 10.8999C1.81616 13.2779 2.7027 15.4457 4.16195 17.0885C4.40435 17.3613 4.3813 17.7805 4.11048 18.0248Z" fill="#FCFCFD"/>
<path d="M6.64667 6.88568C6.89121 6.61481 6.87153 6.19542 6.60264 5.94902C6.33382 5.70262 5.91758 5.72244 5.67304 5.99331C4.50389 7.28837 3.7904 9.01098 3.7904 10.8999C3.7904 12.7888 4.50389 14.5114 5.67304 15.8064C5.91758 16.0774 6.33382 16.0972 6.60264 15.8508C6.87153 15.6044 6.89121 15.185 6.64667 14.9141C5.68929 13.8536 5.10656 12.4461 5.10656 10.8999C5.10656 9.35366 5.68929 7.94614 6.64667 6.88568Z" fill="#FCFCFD"/>
</svg>
