<svg width="24" height="24" viewBox="0 0 24 24" fill="none" xmlns="http://www.w3.org/2000/svg">
<path fill-rule="evenodd" clip-rule="evenodd" d="M20.9444 9.57946C20.9444 4.41212 16.9322 0.399902 12 0.399902C7.06778 0.399902 3.05556 4.41212 3.05556 9.34435C1.5695 10.1072 0.5 11.5115 0.5 13.1777V15.7332C0.5 16.7499 0.903869 17.7249 1.62276 18.4438C2.34165 19.1627 3.31667 19.5666 4.33333 19.5666H5.61111C5.95 19.5666 6.27501 19.4319 6.51464 19.1923C6.75427 18.9527 6.88889 18.6277 6.88889 18.2888V10.6221C6.88889 10.2832 6.75427 9.95823 6.51464 9.7186C6.27501 9.47897 5.95 9.34435 5.61111 9.34435C5.61111 7.64991 6.28422 6.02487 7.48237 4.82672C8.68052 3.62857 10.3056 2.95546 12 2.95546C13.6944 2.95546 15.3195 3.62857 16.5176 4.82672C17.7158 6.02487 18.3889 7.64991 18.3889 9.34435C18.05 9.34435 17.725 9.47897 17.4854 9.7186C17.2457 9.95823 17.1111 10.2832 17.1111 10.6221V18.2888C17.1111 18.6277 17.2457 18.9527 17.4854 19.1923C17.725 19.4319 18.05 19.5666 18.3889 19.5666V20.8443H15.0769C14.8137 20.102 14.1109 19.5666 13.2778 19.5666H10.7222C10.2139 19.5666 9.72638 19.7685 9.36693 20.1279C9.00749 20.4874 8.80556 20.9749 8.80556 21.4832C8.80556 21.9916 9.00749 22.4791 9.36693 22.8385C9.72638 23.198 10.2139 23.3999 10.7222 23.3999H18.3889C19.0667 23.3999 19.7167 23.1307 20.1959 22.6514C20.6752 22.1721 20.9444 21.5221 20.9444 20.8443V19.3327C21.6903 19.0706 22.3366 18.5837 22.7942 17.9391C23.2519 17.2945 23.4985 16.5238 23.5 15.7332V13.1777C23.4986 12.3872 23.252 11.6167 22.7943 10.9722C22.3366 10.3278 21.6903 9.84118 20.9444 9.57946L20.9444 13.7112Z" fill="#4C5063"/>
</svg>
