<svg width="23" height="24" viewBox="0 0 23 24" fill="none" xmlns="http://www.w3.org/2000/svg">
<path fill-rule="evenodd" clip-rule="evenodd" d="M20.4444 9.57946C20.4444 4.41212 16.4322 0.399902 11.5 0.399902C6.56778 0.399902 2.55556 4.41212 2.55556 9.34435C1.0695 10.1072 0 11.5115 0 13.1777V15.7332C0 16.7499 0.403869 17.7249 1.12276 18.4438C1.84165 19.1627 2.81667 19.5666 3.83333 19.5666H5.11111C5.45 19.5666 5.77501 19.4319 6.01464 19.1923C6.25427 18.9527 6.38889 18.6277 6.38889 18.2888V10.6221C6.38889 10.2832 6.25427 9.95823 6.01464 9.7186C5.77501 9.47897 5.45 9.34435 5.11111 9.34435C5.11111 7.64991 5.78422 6.02487 6.98237 4.82672C8.18052 3.62857 9.80556 2.95546 11.5 2.95546C13.1944 2.95546 14.8195 3.62857 16.0176 4.82672C17.2158 6.02487 17.8889 7.64991 17.8889 9.34435C17.55 9.34435 17.225 9.47897 16.9854 9.7186C16.7457 9.95823 16.6111 10.2832 16.6111 10.6221V18.2888C16.6111 18.6277 16.7457 18.9527 16.9854 19.1923C17.225 19.4319 17.55 19.5666 17.8889 19.5666V20.8443H14.5769C14.3137 20.102 13.6109 19.5666 12.7778 19.5666H10.2222C9.71389 19.5666 9.22638 19.7685 8.86693 20.1279C8.50749 20.4874 8.30556 20.9749 8.30556 21.4832C8.30556 21.9916 8.50749 22.4791 8.86693 22.8385C9.22638 23.198 9.71389 23.3999 10.2222 23.3999H17.8889C18.5667 23.3999 19.2167 23.1307 19.6959 22.6514C20.1752 22.1721 20.4444 21.5221 20.4444 20.8443V19.3327C21.1903 19.0706 21.8366 18.5837 22.2942 17.9391C22.7519 17.2945 22.9985 16.5238 23 15.7332V13.1777C22.9986 12.3872 22.752 11.6167 22.2943 10.9722C21.8366 10.3278 21.1903 9.84118 20.4444 9.57946L20.4444 13.7112Z" fill="#FCFCFD"/>
</svg>
