<svg width="24" height="17" viewBox="0 0 24 17" fill="none" xmlns="http://www.w3.org/2000/svg">
<path d="M12.9448 8.703L11.7493 8.57354C11.5858 8.55584 11.4474 8.44829 11.3846 8.29627C11.3839 8.29448 11.3831 8.29264 11.3824 8.29084C11.3194 8.13887 11.3411 7.96506 11.4442 7.8369L12.198 6.90004C12.3401 6.7234 12.3263 6.46806 12.166 6.30773L10.755 4.89667C10.5946 4.73634 10.3393 4.72255 10.1627 4.86469L9.22539 5.6188C9.09754 5.72168 8.92423 5.74351 8.77248 5.68107C8.77082 5.68039 8.76916 5.67972 8.76749 5.67904C8.61494 5.61642 8.50699 5.47788 8.48924 5.31391L8.35973 4.1179C8.33534 3.89248 8.14505 3.72168 7.91832 3.72168H5.92278C5.69605 3.72168 5.50576 3.89248 5.48137 4.1179L5.35186 5.31391C5.33411 5.47784 5.22612 5.61642 5.07356 5.67904C5.0719 5.67972 5.07024 5.68039 5.06862 5.68107C4.91687 5.74355 4.74356 5.72168 4.61571 5.6188L3.67836 4.86469C3.50172 4.72255 3.24638 4.73634 3.0861 4.89667L1.67504 6.30773C1.51471 6.46806 1.50092 6.7234 1.64305 6.90004L2.39685 7.8369C2.5 7.96511 2.52169 8.13887 2.45867 8.29084C2.4579 8.29264 2.45718 8.29448 2.45642 8.29627C2.39357 8.44829 2.2553 8.55584 2.09174 8.57354L0.896217 8.703C0.670795 8.7274 0.5 8.91769 0.5 9.14441V11.14C0.5 11.3667 0.670795 11.557 0.896217 11.5814L2.09169 11.7108C2.25526 11.7285 2.39357 11.836 2.45638 11.9881C2.45714 11.9898 2.45786 11.9917 2.45862 11.9935C2.52165 12.1455 2.49995 12.3193 2.39681 12.4475L1.64301 13.3843C1.50087 13.561 1.51466 13.8163 1.67499 13.9766L3.08605 15.3877C3.24638 15.548 3.50172 15.5618 3.67836 15.4197L4.61562 14.6656C4.74347 14.5627 4.91678 14.5408 5.06853 14.6033C5.07019 14.604 5.07185 14.6047 5.07352 14.6053C5.22607 14.6679 5.33402 14.8065 5.35177 14.9705L5.48128 16.1665C5.50567 16.3919 5.69596 16.5627 5.92269 16.5627H7.91823C8.14496 16.5627 8.33525 16.3919 8.35964 16.1665L8.48916 14.9705C8.5069 14.8065 8.61485 14.6679 8.76741 14.6053C8.76907 14.6047 8.77073 14.604 8.77235 14.6033C8.92409 14.5408 9.09741 14.5627 9.2253 14.6656L10.1626 15.4197C10.3392 15.5618 10.5945 15.548 10.7549 15.3877L12.1659 13.9766C12.3263 13.8163 12.34 13.561 12.1979 13.3843L11.4441 12.4475C11.341 12.3193 11.3193 12.1455 11.3823 11.9935C11.383 11.9917 11.3838 11.9899 11.3845 11.9881C11.4474 11.836 11.5857 11.7285 11.7492 11.7108L12.9447 11.5814C13.1701 11.5569 13.3409 11.3666 13.3409 11.14V9.14441C13.341 8.91769 13.1702 8.7274 12.9448 8.703ZM6.92051 12.1439C5.81501 12.1439 4.9188 11.2477 4.9188 10.1422C4.9188 9.03669 5.81501 8.14048 6.92051 8.14048C8.026 8.14048 8.92221 9.03669 8.92221 10.1422C8.92221 11.2477 8.026 12.1439 6.92051 12.1439Z" fill="#FCFCFD"/>
<path d="M23.2962 6.70252L22.4755 6.05442C22.3448 5.95119 22.2722 5.79293 22.2721 5.62631C22.2721 5.62456 22.2721 5.6228 22.2721 5.62101C22.2718 5.45403 22.3445 5.29536 22.4755 5.19191L23.2962 4.54376C23.4842 4.39534 23.5506 4.14014 23.459 3.91889L23.0985 3.04856C23.0069 2.82728 22.7794 2.69386 22.5416 2.7218L21.5029 2.84381C21.3371 2.8633 21.1735 2.80248 21.0557 2.6842C21.0545 2.68294 21.0532 2.68168 21.052 2.68047C20.9342 2.56259 20.8736 2.39934 20.8931 2.23389L21.0151 1.19533C21.043 0.957511 20.9096 0.730024 20.6883 0.638382L19.818 0.277923C19.5967 0.186282 19.3415 0.252767 19.1931 0.440678L18.545 1.26132C18.4417 1.39209 18.2834 1.46464 18.1169 1.46473C18.1151 1.46473 18.1133 1.46473 18.1116 1.46473C17.9446 1.465 17.786 1.39236 17.6825 1.26132L17.0343 0.440633C16.8859 0.252677 16.6306 0.186192 16.4094 0.277834L15.5391 0.638337C15.3178 0.729979 15.1844 0.957466 15.2123 1.19533L15.3343 2.23394C15.3538 2.39975 15.293 2.56331 15.1747 2.68119C15.1734 2.68245 15.1722 2.6837 15.1709 2.68496C15.0531 2.80275 14.8899 2.8633 14.7244 2.84385L13.6858 2.72184C13.4479 2.6939 13.2205 2.82737 13.1288 3.04861L12.7683 3.91894C12.6767 4.14018 12.7432 4.39543 12.9311 4.54385L13.7518 5.19195C13.8826 5.29523 13.9551 5.45345 13.9552 5.62006C13.9552 5.62186 13.9552 5.62361 13.9552 5.62536C13.9555 5.79234 13.8828 5.95101 13.7518 6.05446L12.9311 6.70261C12.7431 6.85103 12.6767 7.10623 12.7683 7.32748L13.1288 8.19781C13.2204 8.41905 13.4479 8.55251 13.6857 8.52457L14.7244 8.40256C14.8902 8.38307 15.0538 8.44389 15.1717 8.56217C15.1729 8.56343 15.1741 8.56469 15.1754 8.5659C15.2932 8.68378 15.3537 8.84698 15.3343 9.01248L15.2123 10.0511C15.1843 10.2889 15.3178 10.5164 15.539 10.608L16.4094 10.9685C16.6306 11.0602 16.8858 10.9937 17.0343 10.8057L17.6824 9.98509C17.7856 9.85432 17.9439 9.78177 18.1105 9.78168C18.1122 9.78168 18.114 9.78168 18.1158 9.78168C18.2827 9.78137 18.4414 9.85405 18.5449 9.98509L19.193 10.8058C19.3415 10.9937 19.5967 11.0602 19.8179 10.9686L20.6883 10.6081C20.9095 10.5164 21.043 10.2889 21.015 10.0511L20.893 9.01252C20.8735 8.84671 20.9344 8.6831 21.0526 8.56527C21.0539 8.56402 21.0552 8.56276 21.0564 8.56154C21.1743 8.4438 21.3375 8.3832 21.503 8.40265L22.5416 8.52466C22.7795 8.5526 23.0069 8.41914 23.0985 8.1979L23.459 7.32757C23.5506 7.10619 23.4842 6.85094 23.2962 6.70252ZM18.6458 7.17371C17.8109 7.51952 16.8538 7.12308 16.508 6.2882C16.1622 5.45331 16.5587 4.49624 17.3935 4.15042C18.2284 3.80461 19.1855 4.20105 19.5313 5.03594C19.8771 5.87078 19.4806 6.82794 18.6458 7.17371Z" fill="#FCFCFD"/>
</svg>
